<?xml version="1.0" standalone="no"?>
<!DOCTYPE svg PUBLIC "-//W3C//DTD SVG 20010904//EN"
 "http://www.w3.org/TR/2001/REC-SVG-20010904/DTD/svg10.dtd">
<svg version="1.0" xmlns="http://www.w3.org/2000/svg"
 width="700.000000pt" height="700.000000pt" viewBox="0 0 700.000000 700.000000"
 preserveAspectRatio="xMidYMid meet">
<metadata>
Created by potrace 1.11, written by Peter Selinger 2001-2013
</metadata>
<g transform="translate(0.000000,700.000000) scale(0.100000,-0.100000)"
fill="#000000" stroke="none">
<path d="M3575 6873 c-387 -32 -718 -109 -1047 -244 -1057 -435 -1823 -1365
-2042 -2479 -45 -228 -60 -395 -60 -660 0 -329 29 -561 109 -865 212 -803 723
-1510 1425 -1969 506 -331 1096 -521 1688 -543 l162 -6 0 495 0 495 -120 6
c-1056 57 -1940 781 -2200 1800 -97 382 -98 787 -4 1167 163 662 611 1230
1218 1546 316 164 620 246 999 270 l107 6 0 494 0 494 -97 -2 c-54 -1 -116 -3
-138 -5z"/>
<path d="M3820 5536 l0 -356 75 0 c136 0 342 -41 503 -100 515 -188 917 -633
1053 -1163 54 -210 67 -480 34 -682 -101 -622 -524 -1130 -1115 -1338 -143
-50 -272 -75 -482 -93 l-68 -6 0 -350 0 -351 117 7 c338 19 631 96 938 246
683 334 1174 992 1299 1740 64 385 37 770 -80 1133 -191 589 -595 1079 -1134
1372 -322 174 -645 265 -1042 291 l-98 6 0 -356z"/>
<path d="M3690 5184 c-678 -46 -1252 -476 -1491 -1117 -116 -312 -132 -692
-43 -1022 77 -289 227 -547 442 -762 295 -295 721 -483 1117 -494 l80 -2 3
350 2 350 -87 6 c-353 26 -685 263 -828 593 l-34 79 474 3 475 2 0 285 0 285
-481 0 -481 0 6 31 c9 48 50 142 97 226 80 141 261 309 414 385 107 53 276 98
370 98 81 0 75 -29 75 361 l0 349 -32 -2 c-18 -1 -53 -3 -78 -4z"/>
</g>
</svg>
