<?xml version="1.0" standalone="no"?>
<!DOCTYPE svg PUBLIC "-//W3C//DTD SVG 20010904//EN"
 "http://www.w3.org/TR/2001/REC-SVG-20010904/DTD/svg10.dtd">
<svg version="1.0" xmlns="http://www.w3.org/2000/svg"
 width="722.000000pt" height="722.000000pt" viewBox="0 0 722.000000 722.000000"
 preserveAspectRatio="xMidYMid meet">
<metadata>
Created by potrace 1.14, written by Peter Selinger 2001-2017
</metadata>
<g transform="translate(0.000000,722.000000) scale(0.100000,-0.100000)"
fill="#000000" stroke="none">
<path d="M3800 6678 c-869 -72 -1674 -520 -2204 -1225 -629 -837 -787 -1938
-419 -2923 321 -859 1023 -1539 1898 -1837 274 -93 672 -163 931 -163 l54 0 0
450 c0 432 -1 450 -19 450 -10 0 -76 5 -147 10 -515 42 -984 254 -1351 613
-348 340 -565 765 -639 1252 -22 149 -22 461 0 610 75 490 292 914 642 1256
366 356 833 567 1348 609 71 5 137 10 147 10 18 0 19 18 19 450 l0 450 -77 -1
c-43 -1 -125 -6 -183 -11z"/>
<path d="M4062 5468 l3 -313 90 -7 c281 -21 535 -107 765 -259 128 -85 334
-291 419 -418 110 -167 190 -356 233 -554 30 -138 32 -455 5 -592 -84 -413
-317 -765 -661 -996 -218 -147 -481 -236 -761 -257 l-90 -7 -3 -312 -2 -313
79 0 c44 0 133 7 198 15 992 129 1762 908 1883 1905 13 109 13 391 0 500 -80
661 -454 1250 -1013 1597 -118 73 -305 162 -432 206 -198 68 -463 117 -636
117 l-79 0 2 -312z"/>
<path d="M3880 5139 c-660 -69 -1209 -577 -1342 -1242 -32 -160 -32 -414 0
-574 134 -674 683 -1175 1361 -1243 57 -5 114 -10 127 -10 l24 0 0 319 0 318
-82 6 c-267 21 -524 176 -672 405 -45 69 -96 171 -96 192 0 6 157 10 425 10
l425 0 0 260 0 260 -435 0 c-292 0 -435 3 -435 10 0 33 70 184 120 259 154
230 401 377 668 398 l82 6 0 318 0 319 -42 -1 c-24 -1 -81 -6 -128 -10z"/>
</g>
</svg>
