<?xml version="1.0" encoding="utf-8"?>
<!-- Generator: Adobe Illustrator 24.0.1, SVG Export Plug-In . SVG Version: 6.00 Build 0)  -->
<svg version="1.1" id="Layer_1" xmlns="http://www.w3.org/2000/svg" xmlns:xlink="http://www.w3.org/1999/xlink" x="0px" y="0px"
	 viewBox="0 0 3640 812" style="enable-background:new 0 0 3640 812;" xml:space="preserve">
<path style="fill:#EEF5FF;" d="M161,34h160.8c5.7,0,11,3,13.9,7.9l126.5,213.7c6.2,10.6,21.5,10.6,27.8,0L617.3,41.9
	c2.9-4.9,8.2-7.9,13.9-7.9h188.9c7.5,0,14.1,5.2,15.8,12.6l35.3,154.9c1.7,7.4,8.2,12.6,15.8,12.6h2610.4
	c41.8,0,75.7,33.9,75.7,75.7v214.1c0,45.4-36.8,82.3-82.3,82.3l-2545.1,0.5c-10.6,0-18.4,10.1-15.6,20.4l39.9,147
	c2.8,10.3-5,20.4-15.6,20.4L777.6,774c-6.4,0-12.2-3.8-14.8-9.8l-54.7-127c-5.6-12.9-23.8-13-29.6-0.2l-56.7,126.8
	c-2.6,5.8-8.4,9.6-14.7,9.6H383.5c-5.6,0-10.8-2.9-13.7-7.6L296.7,648c-7-11.3-24-9.7-28.8,2.7l-43.3,112.4
	c-2.4,6.2-8.4,10.3-15.1,10.3H59.1c-9.8,0-17.4-8.7-16-18.5L145,47.9C146.2,39.9,153,34,161,34z"/>
<g>
	<polygon style="fill:#4776C9;" points="470.1,489 250.1,102 180,621 278.6,251.1 453,511 470.1,532.2 	"/>
	<polygon style="fill:#4776C9;" points="470.9,489 690.9,102 761,621 662.4,251.1 488,511 470.9,532.2 	"/>
</g>
<path style="fill:#26468C;" d="M827,718L741,81L558,403c-20.2-31.6-52.1-52-88.1-52c-35.6,0-67.2,20-87.4,51L200,81l-86,637l121-454
	l127,189.3c-1.8,9.4-2.7,19.2-2.7,29.2c0,27.2,7,52.5,18.9,73.4L341,545l130,198l-35.6-96.9c9.6,4.9,21.8,7.9,35.1,7.9
	c14.3,0,27.3-3.4,37.1-8.9L471,743l132-198l-42.1,12.2c12.3-21.2,19.6-47,19.6-74.7c0-9.5-0.9-18.8-2.5-27.7L706,264L827,718z"/>
<g>
	<path style="fill:#26468C;" d="M849.4,311.8h110.7v18.8h-90V391h84.6v19H870v66.4h91.7v18.8H849.4V311.8z"/>
	<path style="fill:#26468C;" d="M1055.3,330.8v164.3h-20.7V330.8l-56,0.3v-19.6h132.7v19.6L1055.3,330.8z"/>
	<path style="fill:#26468C;" d="M1222.6,444.8h-78.1l-18.2,50.3H1105l68.3-183.3h20.7l68.3,183.3H1241L1222.6,444.8z M1151.6,426.3
		h64.2l-20.1-54.4c-2-6.2-3.9-12.3-5.8-18.4s-3.9-12.2-5.8-18.4h-0.5c-2,6.2-3.9,12.3-5.8,18.4s-3.9,12.2-5.8,18.4L1151.6,426.3z"/>
	<path style="fill:#26468C;" d="M1432.3,403.2c0,30.1-7.6,53-22.8,68.5c-15.2,15.6-37.8,23.4-67.7,23.4h-51.1V311.8h51.1
		c29.9,0,52.5,7.7,67.7,23.1C1424.6,350.3,1432.3,373.1,1432.3,403.2z M1411.6,403.2c0-12.9-1.5-23.9-4.6-33
		c-3.1-9.2-7.6-16.6-13.5-22.4s-13.2-10.1-21.9-12.8s-18.7-4.1-29.9-4.1h-30.5v145.2h30.5c11.2,0,21.2-1.4,29.9-4.1
		c8.7-2.7,16-7,21.9-12.9s10.4-13.5,13.5-22.7C1410,427.1,1411.6,416.1,1411.6,403.2z"/>
	<path style="fill:#26468C;" d="M1561.7,444.8h-78.1l-18.2,50.3h-21.2l68.3-183.3h20.7l68.3,183.3h-21.2L1561.7,444.8z
		 M1490.7,426.3h64.2l-20.1-54.4c-2-6.2-3.9-12.3-5.8-18.4s-3.9-12.2-5.8-18.4h-0.5c-2,6.2-3.9,12.3-5.8,18.4s-3.9,12.2-5.8,18.4
		L1490.7,426.3z"/>
	<path style="fill:#26468C;" d="M1671.9,330.8v164.3h-20.7V330.8l-56,0.3v-19.6h132.7v19.6L1671.9,330.8z"/>
	<path style="fill:#26468C;" d="M1839.2,444.8h-78.1l-18.2,50.3h-21.2l68.3-183.3h20.7l68.3,183.3h-21.2L1839.2,444.8z
		 M1768.2,426.3h64.2l-20.1-54.4c-2-6.2-3.9-12.3-5.8-18.4s-3.9-12.2-5.8-18.4h-0.5c-2,6.2-3.9,12.3-5.8,18.4s-3.9,12.2-5.8,18.4
		L1768.2,426.3z"/>
	<path style="fill:#4776C9;" d="M2116,357.2c-5.1-24.6-19.4-36.7-42.7-36.7c-32.9,0-52.1,25.9-52.1,70.5c0,44,20,70.7,53.5,70.7
		c14.8,0,27.5-6.2,35.4-17c4.6-6.5,6.5-11.9,8.1-23.2l56.2,8.4c-5.1,23-11.1,36.2-22.4,49.4c-16.7,19.2-42.9,29.4-75.6,29.4
		c-32.9,0-60.8-10.3-79.9-29.7c-20-20.2-31.3-51.8-31.3-88c0-36.7,11.3-67.8,32.7-88.8c18.6-18.1,45.9-28.1,77.5-28.1
		c34.8,0,62.1,11.9,79.7,35.4c8.6,11.1,13.2,21.1,16.7,37L2116,357.2z"/>
	<path style="fill:#4776C9;" d="M2336.3,503.5c-1.6-8.6-4.9-19.7-13.2-42.1c-8.6-23.5-11.9-29.7-18.6-35.6
		c-5.7-5.1-12.4-7.3-21.1-7.3h-27.5v44.3c0,18.4,0.5,28.4,2.2,40.8H2200c1.6-12.4,2.2-20.5,2.2-40.5V317.7c0-16.7-0.5-26.7-2.2-39.7
		c11.9,0.5,21.9,0.8,40.2,0.8h70.2c43.7,0,69.1,22.7,69.1,61.6c0,19.2-5.4,34.3-15.9,44.3c-6.8,6.2-12.4,9.2-25.7,13.5
		c13.8,4.3,20,10.5,28.6,29.7c4,8.6,7.8,17.8,20,47c3,7.6,6.2,14.3,13,28.6H2336.3z M2297.9,372.3c15.9,0,25.7-9.7,25.7-25.1
		c0-15.1-8.6-23-25.4-23h-42.4v48.1H2297.9z"/>
	<path style="fill:#4776C9;" d="M2575,503.5c-2.2-13-3.8-20-6.5-29.2l-7.3-23h-77l-7.3,23c-3.5,10.8-5.4,19.2-6.8,29.2H2407
		c4.1-8.1,6.5-14.6,13-32.9l58.3-162.5c4.9-13.2,7.3-21.3,8.6-29.2h70.5c1.9,7.8,3.8,14.9,9.2,29.2l58.6,162.5
		c5.1,14.3,9.5,25.4,13,32.9H2575z M2522.3,325l-25.1,81h50.8L2522.3,325z"/>
	<path style="fill:#4776C9;" d="M2807.4,503.5c-1.1-8.6-3-18.1-5.7-28.9l-20.5-79.4c-2.7-10.5-4.9-23-7.6-40.8
		c-1.6,11.1-4.9,28.1-8.1,40.8l-20,79.7c-3.5,13.5-5.1,21.3-5.9,28.6h-53.7c-1.3-7.8-2.7-13.5-6.8-29.2l-43.2-162
		c-3.8-13.8-7.6-26.2-10.3-33.5h61.6c0.3,9.7,1.6,18.4,3.8,29.7l17.3,82.1c0.8,4.1,2.7,16.7,5.9,38.1c4.1-22.7,5.9-32.4,7.6-38.1
		l21.6-83.7c3.2-12.2,4.9-20.5,5.9-28.1h48.1c1.1,7,2.7,14.6,6.2,27.3l21.9,83.2c2.2,8.6,4,17.6,7.6,39.4c0.5-5.1,0.5-5.1,2.2-16.5
		c0.8-5.9,2.7-18.9,3.8-23.2l17-80.5c2.7-12.4,3.8-20.3,4-29.7h61.3c-2.7,7.3-6.5,20-10,33.5L2868.2,474c-3.5,12.7-5.9,23-6.8,29.4
		h-54V503.5z"/>
	<path style="fill:#4776C9;" d="M2980.2,503.5c-18.6,0-29.7,0.3-40,0.8c1.6-9.5,2.2-21.3,2.2-39.4V322.3c0-18.9-0.5-30.5-2.2-43.5
		h58.9c-1.9,14-2.2,21.6-2.2,42.7v133.9h65.3c23,0,32.1-0.3,44.8-1.9v51.8c-10-1.4-23.2-1.9-44.8-1.9h-82V503.5z"/>
	<path style="fill:#4776C9;" d="M3294.8,505.4c-11.6-1.4-21.3-1.9-44.6-1.9h-85.1c-20.5,0-28.1,0.3-39.7,0.8
		c1.6-10.8,2.2-20.8,2.2-39.4V317.5c0-16.7-0.5-26.2-2.2-39.4c11.1,0.5,18.6,0.8,39.7,0.8h86.1c18.4,0,27.5-0.5,40.2-1.9v50.5
		c-12.4-1.3-22.1-1.9-40.2-1.9H3181v39.7h58.3c17.8,0,24.3-0.3,40.5-1.9v50c-12.7-1.3-21.9-1.9-40.5-1.9H3181v45.4h69.7
		c20.5,0,32.4-0.5,44-1.9v50.4H3294.8z"/>
	<path style="fill:#4776C9;" d="M3458.7,503.5c-1.6-8.6-4.9-19.7-13.2-42.1c-8.6-23.5-11.9-29.7-18.6-35.6
		c-5.7-5.1-12.4-7.3-21.1-7.3h-27.5v44.3c0,18.4,0.5,28.4,2.2,40.8h-58.1c1.6-12.4,2.2-20.5,2.2-40.5V317.7
		c0-16.7-0.5-26.7-2.2-39.7c11.9,0.5,21.9,0.8,40.2,0.8h70.2c43.7,0,69.1,22.7,69.1,61.6c0,19.2-5.4,34.3-15.9,44.3
		c-6.8,6.2-12.4,9.2-25.7,13.5c13.8,4.3,20,10.5,28.6,29.7c4,8.6,7.8,17.8,20,47c3,7.6,6.2,14.3,13,28.6H3458.7z M3420.3,372.3
		c15.9,0,25.7-9.7,25.7-25.1c0-15.1-8.6-23-25.4-23h-42.4v48.1H3420.3z"/>
</g>
</svg>
