<?xml version="1.0" encoding="utf-8"?>
<!-- Generator: Adobe Illustrator 24.0.1, SVG Export Plug-In . SVG Version: 6.00 Build 0)  -->
<svg version="1.1" id="Layer_1" xmlns="http://www.w3.org/2000/svg" xmlns:xlink="http://www.w3.org/1999/xlink" x="0px" y="0px"
	 viewBox="0 0 1024 670" style="enable-background:new 0 0 1024 670;" xml:space="preserve">
<path style="opacity:0.15;fill:none;stroke:#63296B;stroke-miterlimit:10;enable-background:new    ;" d="M0.5,378.5
	c0,0,155-147,344-129"/>
<circle style="opacity:0.15;fill:#63296B;enable-background:new    ;" cx="344.5" cy="249.5" r="11"/>
<path style="opacity:0.15;fill:none;stroke:#63296B;stroke-miterlimit:10;enable-background:new    ;" d="M344.5,249.5
	c0,0,153,25,234-47s282-163,446-70"/>
<path style="opacity:0.15;fill:none;stroke:#63296B;stroke-miterlimit:10;enable-background:new    ;" d="M570.9,208.8
	c0,0,204.6-52.3,257.6,79.7"/>
<path style="opacity:0.15;fill:none;stroke:#63296B;stroke-miterlimit:10;enable-background:new    ;" d="M775.8,226
	c0,0,86.7-39.5,168.7-16.5"/>
<path style="opacity:0.15;fill:none;stroke:#63296B;stroke-miterlimit:10;enable-background:new    ;" d="M442.5,252.5
	c0,0,107,161,249,197"/>
<circle style="opacity:0.15;fill:none;stroke:#63296B;stroke-miterlimit:10;enable-background:new    ;" cx="442.5" cy="252.5" r="17"/>
<circle style="opacity:0.15;fill:#63296B;enable-background:new    ;" cx="570.5" cy="208.5" r="18"/>
<circle style="opacity:0.15;fill:none;stroke:#63296B;stroke-miterlimit:10;enable-background:new    ;" cx="776.5" cy="225.5" r="13"/>
<circle style="opacity:0.15;fill:none;stroke:#63296B;stroke-miterlimit:10;enable-background:new    ;" cx="944.5" cy="209.5" r="11"/>
<circle style="opacity:0.15;fill:#63296B;enable-background:new    ;" cx="828.5" cy="288.5" r="9"/>
<circle style="opacity:0.15;fill:none;stroke:#63296B;stroke-miterlimit:10;enable-background:new    ;" cx="691.5" cy="449.5" r="21"/>
<circle style="opacity:0.15;fill:none;stroke:#63296B;stroke-miterlimit:10;enable-background:new    ;" cx="572.5" cy="208.5" r="33"/>
<path style="opacity:0.15;fill:none;stroke:#63296B;stroke-miterlimit:10;enable-background:new    ;" d="M196.1,266.4
	c0,0,51.4-173.9,187.4-196.9"/>
<path style="opacity:0.15;fill:none;stroke:#63296B;stroke-miterlimit:10;enable-background:new    ;" d="M271.7,133.8
	c0,0,124.8,48.7,236.8-14.3"/>
<circle style="opacity:0.15;fill:#63296B;enable-background:new    ;" cx="271.5" cy="133.5" r="10"/>
<circle style="opacity:0.15;fill:none;stroke:#63296B;stroke-miterlimit:10;enable-background:new    ;" cx="508.5" cy="119.5" r="14"/>
<circle style="opacity:0.15;fill:none;stroke:#63296B;stroke-miterlimit:10;enable-background:new    ;" cx="383.5" cy="69.5" r="23"/>
<circle style="opacity:0.15;fill:#63296B;enable-background:new    ;" cx="777" cy="225" r="5"/>
</svg>
