<?xml version="1.0" encoding="utf-8"?>
<!-- Generator: Adobe Illustrator 24.0.1, SVG Export Plug-In . SVG Version: 6.00 Build 0)  -->
<svg version="1.1" id="Layer_1" xmlns="http://www.w3.org/2000/svg" xmlns:xlink="http://www.w3.org/1999/xlink" x="0px" y="0px"
	 viewBox="0 0 1024 670" style="enable-background:new 0 0 1024 670;" xml:space="preserve">
<rect x="331" y="92" style="opacity:0.22;fill:none;stroke:#63296B;stroke-miterlimit:10;enable-background:new    ;" width="204" height="204"/>
<path style="opacity:0.22;fill:none;stroke:#63296B;stroke-miterlimit:10;enable-background:new    ;" d="M-0.5,365.5
	c0,0,127-180.8,331.5-176.4"/>
<g style="opacity:0.22;">
	<path style="opacity:0.47;fill:none;stroke:#63296B;stroke-miterlimit:10;enable-background:new    ;" d="M535,194
		c0,0,427.5-14.5,488.5-193.5"/>
	<path style="fill:none;stroke:#63296B;stroke-width:0.9583;stroke-miterlimit:10;" d="M535,195.4c0,0,410.9,1.3,488.5-166.1"/>
	<path style="fill:none;stroke:#63296B;stroke-width:0.9167;stroke-miterlimit:10;" d="M535,196.7c0,0,394.3,17.1,488.5-138.7"/>
	<path style="fill:none;stroke:#63296B;stroke-width:0.875;stroke-miterlimit:10;" d="M535,198.1c0,0,377.8,32.9,488.5-111.3"/>
	<path style="fill:none;stroke:#63296B;stroke-width:0.8333;stroke-miterlimit:10;" d="M535,199.4c0,0,361.2,48.7,488.5-83.9"/>
	<path style="fill:none;stroke:#63296B;stroke-width:0.7917;stroke-miterlimit:10;" d="M535,200.8c0,0,344.6,64.5,488.5-56.5"/>
	<path style="fill:none;stroke:#63296B;stroke-width:0.75;stroke-miterlimit:10;" d="M535,202.2c0,0,328,80.3,488.5-29.2"/>
	<path style="fill:none;stroke:#63296B;stroke-width:0.7083;stroke-miterlimit:10;" d="M535,203.5c0,0,311.4,96.1,488.5-1.8"/>
	<path style="fill:none;stroke:#63296B;stroke-width:0.6667;stroke-miterlimit:10;" d="M535,204.9c0,0,294.8,112,488.5,25.6"/>
	<path style="fill:none;stroke:#63296B;stroke-width:0.625;stroke-miterlimit:10;" d="M535,206.2c0,0,278.2,127.8,488.5,53"/>
	<path style="fill:none;stroke:#63296B;stroke-width:0.5833;stroke-miterlimit:10;" d="M535,207.6c0,0,261.7,143.6,488.5,80.4"/>
	<path style="fill:none;stroke:#63296B;stroke-width:0.5417;stroke-miterlimit:10;" d="M535,209c0,0,245.1,159.4,488.5,107.8"/>
	<path style="fill:none;stroke:#63296B;stroke-width:0.5;stroke-miterlimit:10;" d="M535,210.3c0,0,228.5,175.2,488.5,135.2"/>
</g>
<circle style="opacity:0.22;fill:none;stroke:#63296B;stroke-width:0.5;stroke-miterlimit:10;enable-background:new    ;" cx="534.5" cy="200.5" r="30"/>
<circle style="opacity:0.22;fill:none;stroke:#63296B;stroke-width:0.5;stroke-miterlimit:10;enable-background:new    ;" cx="331.5" cy="189.5" r="12"/>
<line style="opacity:0.22;fill:none;stroke:#63296B;stroke-width:0.5;stroke-miterlimit:10;enable-background:new    ;" x1="361" y1="121.5" x2="469" y2="121.5"/>
<line style="opacity:0.22;fill:none;stroke:#63296B;stroke-width:0.5;stroke-miterlimit:10;enable-background:new    ;" x1="361" y1="145.3" x2="469" y2="145.3"/>
<line style="opacity:0.22;fill:none;stroke:#63296B;stroke-width:0.5;stroke-miterlimit:10;enable-background:new    ;" x1="361" y1="169.1" x2="469" y2="169.1"/>
<line style="opacity:0.22;fill:none;stroke:#63296B;stroke-width:0.5;stroke-miterlimit:10;enable-background:new    ;" x1="361" y1="192.9" x2="469" y2="192.9"/>
<line style="opacity:0.22;fill:none;stroke:#63296B;stroke-width:0.5;stroke-miterlimit:10;enable-background:new    ;" x1="361" y1="216.7" x2="469" y2="216.7"/>
<line style="opacity:0.22;fill:none;stroke:#63296B;stroke-width:0.5;stroke-miterlimit:10;enable-background:new    ;" x1="361" y1="240.5" x2="469" y2="240.5"/>
</svg>
