<?xml version="1.0" encoding="utf-8"?>
<!-- Generator: Adobe Illustrator 25.0.0, SVG Export Plug-In . SVG Version: 6.00 Build 0)  -->
<svg version="1.1" id="Layer_1" xmlns="http://www.w3.org/2000/svg" xmlns:xlink="http://www.w3.org/1999/xlink" x="0px" y="0px"
	 viewBox="0 0 436.5 85" style="enable-background:new 0 0 436.5 85;" xml:space="preserve">
<style type="text/css">
	.st0{fill:#E59935;}
	.st1{fill:#F24E71;}
	.st2{fill:#6C276F;}
	.st3{fill:#B5E7F5;}
	.st4{fill:#81DCEC;}
	.st5{fill:#743E7D;}
	.st6{fill:#CEECF3;}
	.st7{fill:#45939B;}
	.st8{fill:#FFFFFF;}
</style>
<path class="st0" d="M406.7,71.8H156.5c-6.6,0-12-5.4-12-12v-8.2l-13.7-9.8l13.7-9.1v-6.4c0-6.6,5.4-12,12-12h250.3
	c6.6,0,12,5.4,12,12v33.5C418.7,66.4,413.3,71.8,406.7,71.8z"/>
<g>
	<path class="st1" d="M115.7,16.5h4.6c3,0,5.4,2.4,5.4,5.4V28c0,0.2,0,0.4,0,0.7l-2.3,18.8c-0.3,2.7-2.6,4.7-5.4,4.7l0,0
		c-2.7,0-5-2-5.4-4.7l-2.3-18.8c0-0.2,0-0.4,0-0.7v-6.1C110.3,18.9,112.7,16.5,115.7,16.5z M116.2,55.8h3.6c3,0,5.4,2.4,5.4,5.4v1.9
		c0,3-2.4,5.4-5.4,5.4h-3.6c-3,0-5.4-2.4-5.4-5.4v-1.9C110.8,58.2,113.2,55.8,116.2,55.8z"/>
</g>
<g>
	<g id="_x33_Dnsvt.tif">
		<g>
			<path class="st2" d="M21.6,53.4c-2.1-5-4.3-10-4.2-15.6c0-5,1.6-9.3,5.1-13c8.3-8.7,18.3-11.8,30-9.2c1.9,0.5,2.9,0.2,3.2-1.9
				c0.1-1,0.5-1.9,0.9-2.9c2.4-5.6,4.7-6.1,8.7-1.7c1.2,1.3,1.6,0.7,2.5-0.2c3.5-3.6,6.4-3.5,9.8,0.5c6.6,8,7.8,17.5,6.8,27.3
				c-0.7,8.5-3.9,16.1-9.6,22.6c-1.5-2.2,0.2-5.1-1.6-7.3v0.1c0.7-4-0.4-7.9-0.6-11.9c-0.1-1.7-1-1.4-2.1-1.2
				c-4,0.6-8.2,0.7-12.3,0.5c-6.5-0.3-12.6-2.3-18.6-4.8c-1.8-0.7-3.5-1.5-3.5,1.6c-0.1,2.4-0.5,4.9-1.9,6.6
				c-3.5,4.1-4.9,8.9-6.6,13.8c-0.8,2.4-2.3,2.9-3.8,0.5C23.1,56.1,22.3,54.7,21.6,53.4z"/>
			<path class="st3" d="M73.2,52.3c1.7,2.2,0.1,5.1,1.6,7.3c-1.1,4.4-1.5,7.9-3,12.8c0,0.2-0.1,0.5-0.2,0.7c-1,1.3-1,1.6-3.1,1.9
				c-5.9-0.9-10.8-1.4-16.3-2.2S41.1,71,35.4,70.4c-3.6-0.5-6.9-0.7-10.9-1.6c-1.7-1-1.4-2.9-1.8-4.5c0.8-2.2,0.7-4.3,1-6.7
				c1.6,2.6,3,2,3.8-0.5c1.6-4.9,3.1-9.7,6.6-13.8c1.4-1.7,1.9-4.3,1.9-6.6c0.2-3.2,1.7-2.5,3.5-1.6c6,2.6,12.1,4.6,18.6,4.8
				c4.1,0.2,8.2,0,12.3-0.5c1.1-0.2,2-0.4,2.1,1.2C72.7,44.4,73.9,48.3,73.2,52.3c-0.8-2.3-1.9-3.7-4.7-4c-2.7-0.3-5.5-0.8-8.2-1.2
				c-1.8-0.2-3.2,0.5-4.2,2c-1.5,2.4-2.6,1.8-3.4-0.5c-0.5-1.6-1.6-2.6-3.4-2.8c-3.7-0.4-7.5-1-11.2-1.3c-2.4-0.2-3.8,1.4-4.1,3.8
				c-0.3,2.4-0.4,5.3,2.5,5.7c4.9,0.8,9.8,2.1,14.8,1.1c0.2,1.3-1,1.9-1.3,2.9c-0.3,1.1-1.8,2-0.2,3.1c1.8,1.3,3.5,1.6,5.6,0.7
				c1.7-0.7,0.8-2,0.8-3.1c-0.1-1.2-1.1-2.1-0.7-3.5c4,1.9,8.2,1.9,12.4,2.4c2.6,0.3,4.3-0.8,4.9-3.4C72.6,53.7,72.4,52.8,73.2,52.3
				z M42.5,41.4c0.9,0.1,2.2,0.6,2.7-0.9c0.4-1.1-0.6-1.5-1.5-1.6c-1.1-0.2-2.4-0.5-2.8,0.9C40.6,40.9,41.5,41.2,42.5,41.4z
				 M66.2,41.8c-0.9,0-2-0.4-2.3,1c-0.3,1.1,0.6,1.3,1.3,1.4c0.9,0.2,1.8,0.4,2.3-0.6C67.8,42.7,67.1,42.1,66.2,41.8z"/>
			<path class="st4" d="M23.9,57.5c-0.2,2.2-0.2,4.5-1,6.7c-4.6-1.2-5.3-6.4-1.4-10.7C22.3,54.7,23.1,56.1,23.9,57.5z"/>
			<path class="st5" d="M73.2,52.3c-0.7,0.5-0.5,1.4-0.7,2.1c-0.5,2.6-2.2,3.7-4.9,3.4c-4.2-0.5-8.5-0.5-12.4-2.4l0,0
				c0.7-1.3,0.5-2.4-1-2.7c-1.4-0.3-2.3,0.3-2.3,1.9l0,0c-0.6-0.2-0.8,0.1-0.8,0.5l0,0c-5,1-9.9-0.4-14.8-1.1
				c-2.9-0.5-2.8-3.3-2.5-5.7c0.3-2.5,1.7-4,4.1-3.8c3.8,0.2,7.5,0.8,11.2,1.3c1.7,0.2,2.8,1.2,3.4,2.8c0.9,2.4,1.9,2.8,3.4,0.5
				c1-1.6,2.4-2.2,4.2-2c2.7,0.3,5.5,0.8,8.2,1.2C71.2,48.6,72.4,50,73.2,52.3L73.2,52.3z M51.3,51.6c0.5-2.5-0.1-4.3-2.9-4.6
				c-3.3-0.4-6.6-0.8-9.9-1.1c-2.3-0.3-3.1,1.1-3.4,3.2s0.3,3.8,2.8,4.1c3.3,0.4,6.6,0.8,9.9,1.1C49.7,54.4,51.1,53.6,51.3,51.6z
				 M57,50.7c-0.7,3.3,0.3,4.7,3.5,5.1c2.4,0.3,4.8,0.5,7.2,0.7c2.3,0.3,3.2-1,3.4-3.1c0.2-2.1-0.2-3.9-2.6-4.1
				c-2.8-0.4-5.6-0.5-8.5-0.8C58.3,48.1,57.2,49,57,50.7z"/>
			<path class="st3" d="M55.2,55.4c-0.4,1.3,0.6,2.2,0.7,3.5c0,1.1,1,2.4-0.8,3.1c-2.1,0.8-3.8,0.5-5.6-0.7
				c-1.6-1.1-0.1-2.1,0.2-3.1c0.3-1.1,1.4-1.7,1.3-2.9l0,0c0.6,0.2,0.7,0,0.8-0.5l0,0C53,54.9,54.2,55.2,55.2,55.4L55.2,55.4z"/>
			<path class="st2" d="M42.5,41.4c-1-0.2-1.9-0.5-1.6-1.6c0.5-1.4,1.7-1,2.8-0.9c0.9,0.1,1.8,0.4,1.5,1.6
				C44.7,42,43.5,41.4,42.5,41.4z"/>
			<path class="st5" d="M66.2,41.8c0.9,0.3,1.6,0.9,1.3,2c-0.5,1-1.4,0.8-2.3,0.6c-0.8-0.2-1.6-0.4-1.3-1.4
				C64.1,41.4,65.2,41.8,66.2,41.8z"/>
			<path class="st6" d="M51.3,51.6c-0.3,1.9-1.5,2.8-3.5,2.5c-3.3-0.3-6.6-0.8-9.9-1.1c-2.5-0.3-2.9-1.9-2.8-4.1
				c0.2-2.1,1-3.4,3.4-3.2c3.3,0.4,6.6,0.7,9.9,1.1C51.3,47.2,51.9,49,51.3,51.6z M44.3,49.9c0.2-0.7-0.1-1.4-0.9-1.7
				c-0.9-0.2-1.5-0.1-1.8,0.9c-0.2,0.9,0,1.6,0.9,1.9C43.3,51.3,43.9,50.9,44.3,49.9z"/>
			<path class="st6" d="M57,50.7c0.1-1.7,1.2-2.5,3-2.3c2.8,0.3,5.7,0.5,8.5,0.8c2.5,0.3,2.9,2.1,2.6,4.1c-0.2,2.1-1.2,3.3-3.4,3.1
				c-2.4-0.3-4.8-0.6-7.2-0.7C57.3,55.4,56.3,54,57,50.7z M65.4,52.9c0.1-0.9-0.3-1.5-1.1-1.7c-0.9-0.2-1.6,0.2-1.8,1
				c-0.2,1,0.2,1.7,1.3,1.9C64.7,54.1,65.2,53.7,65.4,52.9z"/>
			<path class="st3" d="M55.2,55.4c-1.1-0.3-2.2-0.5-3.3-0.8c0-1.6,1-2.2,2.3-1.9C55.7,53.1,56,54.2,55.2,55.4z"/>
			<path class="st3" d="M51.9,54.6c-0.1,0.5-0.3,0.8-0.8,0.5C51.3,54.8,51.5,54.4,51.9,54.6z"/>
			<path class="st6" d="M44.3,49.9c-0.4,1-1,1.4-1.8,1.1s-1.1-1-0.9-1.9c0.2-1,1-1.1,1.8-0.9C44.3,48.5,44.5,49.2,44.3,49.9z"/>
			<path class="st6" d="M65.4,52.9c-0.2,0.9-0.8,1.3-1.6,1.2c-1.1-0.2-1.5-0.9-1.3-1.9c0.2-0.9,0.9-1.2,1.8-1
				C65.2,51.4,65.6,52,65.4,52.9z"/>
		</g>
	</g>
</g>
<g>
	<path class="st7" d="M48.8,59.5l0.1-0.9c0.1-0.1,5.4-4.7,9.2-1l-0.3,1C54,54.9,48.8,59.4,48.8,59.5z"/>
</g>
<g>
	<path class="st8" d="M187.3,44.5l4.5,1.3c-0.3,1.3-0.8,2.3-1.4,3.1c-0.6,0.8-1.4,1.5-2.4,1.9s-2.2,0.6-3.6,0.6
		c-1.8,0-3.3-0.3-4.4-0.8c-1.1-0.5-2.1-1.4-2.9-2.7c-0.8-1.3-1.2-3-1.2-5c0-2.7,0.7-4.8,2.2-6.3c1.4-1.5,3.5-2.2,6.1-2.2
		c2.1,0,3.7,0.4,4.9,1.3s2.1,2.1,2.6,3.9l-4.5,1c-0.2-0.5-0.3-0.9-0.5-1.1c-0.3-0.4-0.6-0.7-1-0.9s-0.9-0.3-1.4-0.3
		c-1.2,0-2,0.5-2.7,1.4c-0.5,0.7-0.7,1.8-0.7,3.2c0,1.8,0.3,3.1,0.8,3.8c0.6,0.7,1.3,1,2.3,1s1.7-0.3,2.2-0.8
		C186.7,46.4,187,45.6,187.3,44.5z"/>
	<path class="st8" d="M193.9,34.8h4.6v6.1c0.6-0.6,1.2-1.1,1.9-1.4c0.6-0.3,1.3-0.4,2.2-0.4c1.2,0,2.2,0.4,2.9,1.1s1.1,1.9,1.1,3.5
		v7.6H202v-6.6c0-0.7-0.1-1.3-0.4-1.6c-0.3-0.3-0.7-0.5-1.2-0.5c-0.6,0-1,0.2-1.3,0.6c-0.3,0.4-0.5,1.2-0.5,2.3v5.7H194L193.9,34.8
		L193.9,34.8z"/>
	<path class="st8" d="M222.5,46.5h-9.2c0.1,0.7,0.3,1.3,0.6,1.6c0.4,0.5,1,0.8,1.7,0.8c0.4,0,0.9-0.1,1.3-0.3
		c0.2-0.1,0.5-0.4,0.8-0.8l4.5,0.4c-0.7,1.2-1.5,2.1-2.5,2.6s-2.4,0.8-4.2,0.8c-1.6,0-2.8-0.2-3.7-0.7s-1.7-1.2-2.3-2.1
		c-0.6-1-0.9-2.1-0.9-3.4c0-1.9,0.6-3.4,1.8-4.5s2.8-1.7,4.9-1.7c1.7,0,3.1,0.3,4,0.8s1.7,1.3,2.3,2.2c0.5,1,0.8,2.3,0.8,3.8
		L222.5,46.5L222.5,46.5z M217.8,44.3c-0.1-0.9-0.3-1.5-0.7-1.9s-0.9-0.6-1.5-0.6c-0.7,0-1.3,0.3-1.7,0.9c-0.3,0.4-0.5,0.9-0.5,1.6
		H217.8z"/>
	<path class="st8" d="M233.5,46.6l4.3,0.5c-0.2,0.9-0.6,1.7-1.2,2.4c-0.5,0.7-1.2,1.2-2.1,1.5c-0.8,0.4-1.9,0.5-3.2,0.5
		s-2.3-0.1-3.2-0.4c-0.8-0.2-1.6-0.6-2.2-1.1c-0.6-0.5-1.1-1.1-1.4-1.9s-0.5-1.7-0.5-2.8c0-1.2,0.2-2.2,0.6-3.1
		c0.3-0.6,0.7-1.1,1.3-1.6c0.5-0.5,1.1-0.8,1.6-1.1c0.9-0.4,2-0.5,3.4-0.5c1.9,0,3.4,0.3,4.5,1c1,0.7,1.7,1.7,2.2,3.1l-4.3,0.6
		c-0.1-0.5-0.4-0.9-0.7-1.2c-0.4-0.3-0.8-0.4-1.4-0.4c-0.8,0-1.4,0.3-1.8,0.8s-0.7,1.4-0.7,2.5c0,1,0.2,1.7,0.7,2.2s1.1,0.8,1.8,0.8
		c0.6,0,1.1-0.2,1.5-0.5C233,47.7,233.3,47.2,233.5,46.6z"/>
	<path class="st8" d="M239.5,34.8h4.7v8.5l3.4-4h5.6l-4.3,4.2l4.5,7.7h-5.2l-2.4-4.8l-1.7,1.7v3.1h-4.7L239.5,34.8L239.5,34.8z"/>
	<path class="st8" d="M262.9,34.8h7.6c1.5,0,2.7,0.2,3.6,0.6s1.7,1,2.3,1.7c0.6,0.8,1,1.6,1.3,2.6s0.4,2.1,0.4,3.2
		c0,1.8-0.2,3.1-0.6,4.1s-1,1.8-1.7,2.4c-0.7,0.7-1.5,1.1-2.3,1.3c-1.1,0.3-2.1,0.4-3,0.4h-7.6L262.9,34.8L262.9,34.8z M268,38.5v9
		h1.2c1.1,0,1.8-0.1,2.3-0.4c0.4-0.2,0.8-0.6,1.1-1.2c0.3-0.6,0.4-1.5,0.4-2.9c0-1.7-0.3-2.9-0.9-3.6s-1.5-1-2.8-1H268V38.5z"/>
	<path class="st8" d="M293.7,46.5h-9.2c0.1,0.7,0.3,1.3,0.6,1.6c0.4,0.5,1,0.8,1.7,0.8c0.4,0,0.9-0.1,1.3-0.3
		c0.2-0.1,0.5-0.4,0.8-0.8l4.5,0.4c-0.7,1.2-1.5,2.1-2.5,2.6s-2.4,0.8-4.2,0.8c-1.6,0-2.8-0.2-3.7-0.7s-1.7-1.2-2.3-2.1
		c-0.6-1-0.9-2.1-0.9-3.4c0-1.9,0.6-3.4,1.8-4.5s2.8-1.7,4.9-1.7c1.7,0,3.1,0.3,4,0.8s1.7,1.3,2.3,2.2c0.5,1,0.8,2.3,0.8,3.8v0.5
		H293.7z M289,44.3c-0.1-0.9-0.3-1.5-0.7-1.9s-0.9-0.6-1.5-0.6c-0.7,0-1.3,0.3-1.7,0.9c-0.3,0.4-0.5,0.9-0.5,1.6H289z"/>
	<path class="st8" d="M300.9,39.4h2.2v3.3h-2.2v8.6h-4.6v-8.6h-1.7v-3.3h1.7v-0.5c0-0.5,0.1-1,0.2-1.6s0.3-1.1,0.6-1.4
		c0.3-0.4,0.7-0.7,1.2-0.9s1.3-0.3,2.3-0.3c0.8,0,2,0.1,3.5,0.3l-0.5,2.8c-0.5-0.1-1-0.1-1.3-0.1c-0.4,0-0.7,0.1-0.9,0.2
		c-0.2,0.1-0.3,0.4-0.4,0.7C300.9,38.5,300.9,38.8,300.9,39.4z"/>
	<path class="st8" d="M304.9,34.8h4.6v3.1h-4.6V34.8z M304.9,39.4h4.6v11.9h-4.6V39.4z"/>
	<path class="st8" d="M312.4,39.4h4.3v1.9c0.6-0.8,1.3-1.4,1.9-1.7c0.7-0.3,1.4-0.5,2.4-0.5c1.3,0,2.3,0.4,3,1.1
		c0.7,0.8,1.1,1.9,1.1,3.5v7.6h-4.6v-6.6c0-0.7-0.1-1.3-0.4-1.6s-0.7-0.5-1.2-0.5c-0.6,0-1,0.2-1.3,0.6c-0.3,0.4-0.5,1.2-0.5,2.3
		v5.7h-4.6L312.4,39.4L312.4,39.4z"/>
	<path class="st8" d="M327.9,34.8h4.6v3.1h-4.6V34.8z M327.9,39.4h4.6v11.9h-4.6V39.4z"/>
	<path class="st8" d="M340.9,34.8v4.5h2.5v3.3h-2.5v4.2c0,0.5,0,0.8,0.1,1c0.2,0.3,0.4,0.4,0.8,0.4c0.3,0,0.8-0.1,1.4-0.3l0.3,3.2
		c-1.1,0.2-2.2,0.4-3.2,0.4c-1.1,0-2-0.1-2.5-0.4c-0.5-0.3-0.9-0.7-1.2-1.3c-0.3-0.6-0.4-1.6-0.4-2.9v-4.2h-1.7v-3.3h1.7v-2.2
		L340.9,34.8z"/>
	<path class="st8" d="M345.8,34.8h4.6v3.1h-4.6V34.8z M345.8,39.4h4.6v11.9h-4.6V39.4z"/>
	<path class="st8" d="M352.7,45.4c0-1.8,0.6-3.3,1.8-4.5c1.2-1.2,2.9-1.8,5-1.8c2.4,0,4.2,0.7,5.4,2.1c1,1.1,1.5,2.5,1.5,4.1
		c0,1.8-0.6,3.3-1.8,4.5c-1.2,1.2-2.9,1.8-5,1.8c-1.9,0-3.5-0.5-4.7-1.5C353.4,48.9,352.7,47.3,352.7,45.4z M357.3,45.3
		c0,1.1,0.2,1.8,0.6,2.4c0.4,0.5,1,0.8,1.6,0.8c0.7,0,1.2-0.3,1.6-0.8s0.6-1.3,0.6-2.4c0-1-0.2-1.8-0.6-2.3s-1-0.8-1.6-0.8
		c-0.7,0-1.2,0.3-1.7,0.8C357.5,43.5,357.3,44.3,357.3,45.3z"/>
	<path class="st8" d="M368.6,39.4h4.3v1.9c0.6-0.8,1.3-1.4,1.9-1.7c0.7-0.3,1.4-0.5,2.4-0.5c1.3,0,2.3,0.4,3,1.1
		c0.7,0.8,1.1,1.9,1.1,3.5v7.6h-4.6v-6.6c0-0.7-0.1-1.3-0.4-1.6s-0.7-0.5-1.2-0.5c-0.6,0-1,0.2-1.3,0.6c-0.3,0.4-0.5,1.2-0.5,2.3
		v5.7h-4.6L368.6,39.4L368.6,39.4z"/>
</g>
<path class="st2" d="M50.4,51.6h-6c-0.5,0-1-0.4-1-1l0,0c0-0.5,0.4-1,1-1h6c0.5,0,1,0.4,1,1l0,0C51.3,51.1,50.9,51.6,50.4,51.6z"/>
<path class="st2" d="M70.6,54.2h-6c-0.5,0-1-0.4-1-1l0,0c0-0.5,0.4-1,1-1h6c0.5,0,1,0.4,1,1l0,0C71.6,53.7,71.1,54.2,70.6,54.2z"/>
</svg>
