<?xml version="1.0" encoding="utf-8"?>
<!-- Generator: Adobe Illustrator 25.0.0, SVG Export Plug-In . SVG Version: 6.00 Build 0)  -->
<svg version="1.1" id="Layer_1" xmlns="http://www.w3.org/2000/svg" xmlns:xlink="http://www.w3.org/1999/xlink" x="0px" y="0px"
	 viewBox="0 0 8.13 7.86" style="enable-background:new 0 0 8.13 7.86;" xml:space="preserve">
<style type="text/css">
	.st0{fill:#7DC4FF;}
	.st1{fill:#000B99;}
	.st2{fill:#2F61D1;}
	.st3{fill:#E8FF5F;}
</style>
<polygon class="st0" points="2.46,1.79 0.49,2.41 2.51,3.06 4.72,2.25 "/>
<polygon class="st1" points="0.64,5.16 2.54,6.07 2.51,3.06 0.49,2.41 "/>
<polygon class="st2" points="4.72,2.25 2.51,3.06 2.54,6.07 4.67,5.16 "/>
<polygon class="st3" points="2.68,3.36 3.74,5.34 4.55,2.81 4.04,2.96 3.68,4.18 3.21,3.22 "/>
<polygon class="st0" points="7.75,3.64 6.81,3.64 6.81,2.69 6.21,2.69 6.21,3.64 5.27,3.64 5.27,4.24 6.21,4.24 6.21,5.17 
	6.81,5.17 6.81,4.24 7.75,4.24 "/>
</svg>
