<?xml version="1.0" encoding="utf-8"?>
<!-- Generator: Adobe Illustrator 25.0.0, SVG Export Plug-In . SVG Version: 6.00 Build 0)  -->
<svg version="1.1" id="Layer_1" xmlns="http://www.w3.org/2000/svg" xmlns:xlink="http://www.w3.org/1999/xlink" x="0px" y="0px"
	 viewBox="0 0 200 200" style="enable-background:new 0 0 200 200;" xml:space="preserve">
<style type="text/css">
	.st0{fill:none;stroke:#808080;stroke-miterlimit:10;}
</style>
<g>
	<path class="st0" d="M119.9,124H80.8v-3.9c0-6.7,0.8-12.1,2.3-16.2c1.5-4.2,3.8-7.9,6.7-11.4c3-3.4,9.7-9.5,20.1-18.1
		c5.6-4.5,8.3-8.7,8.3-12.5s-1.1-6.7-3.3-8.8c-2.2-2.1-5.6-3.1-10.1-3.1c-4.9,0-8.9,1.6-12.1,4.8c-3.2,3.2-5.2,8.9-6.1,16.9
		l-39.9-4.9c1.4-14.7,6.7-26.5,16-35.5c9.3-9,23.5-13.4,42.8-13.4c15,0,27,3.1,36.2,9.4c12.5,8.4,18.7,19.7,18.7,33.8
		c0,5.8-1.6,11.5-4.8,16.9c-3.2,5.4-9.8,12-19.8,19.9c-6.9,5.5-11.3,9.9-13.1,13.2C120.8,114.3,119.9,118.6,119.9,124z M79.4,134.4
		h41.9v36.9H79.4V134.4z"/>
</g>
</svg>
