<?xml version="1.0" encoding="utf-8"?>
<!-- Generator: Adobe Illustrator 25.0.0, SVG Export Plug-In . SVG Version: 6.00 Build 0)  -->
<svg version="1.1" id="Layer_1" xmlns="http://www.w3.org/2000/svg" xmlns:xlink="http://www.w3.org/1999/xlink" x="0px" y="0px"
	 viewBox="0 0 436.5 85" style="enable-background:new 0 0 436.5 85;" xml:space="preserve">
<style type="text/css">
	.st0{fill:#EF6FD1;}
	.st1{fill:#F24E71;}
	.st2{fill:#6C276F;}
	.st3{fill:#B5E7F5;}
	.st4{fill:#81DCEC;}
	.st5{fill:#743E7D;}
	.st6{fill:#CEECF3;}
	.st7{fill:#FFFFFF;}
	.st8{fill:none;stroke:#45939B;stroke-miterlimit:10;}
</style>
<path class="st0" d="M406.7,71.8H156.5c-6.6,0-12-5.4-12-12v-6.4l-16.2-11.1l16.2-11.8v-4.1c0-6.6,5.4-12,12-12h250.3
	c6.6,0,12,5.4,12,12v33.5C418.7,66.4,413.3,71.8,406.7,71.8z"/>
<g>
	<path class="st1" d="M115.7,16.5h4.6c3,0,5.4,2.4,5.4,5.4V28c0,0.2,0,0.4,0,0.7l-2.3,18.8c-0.3,2.7-2.6,4.7-5.4,4.7l0,0
		c-2.7,0-5-2-5.4-4.7l-2.3-18.8c0-0.2,0-0.4,0-0.7v-6.1C110.3,18.9,112.7,16.5,115.7,16.5z M116.2,55.8h3.6c3,0,5.4,2.4,5.4,5.4v1.9
		c0,3-2.4,5.4-5.4,5.4h-3.6c-3,0-5.4-2.4-5.4-5.4v-1.9C110.8,58.2,113.2,55.8,116.2,55.8z"/>
</g>
<g>
	<g id="_x33_Dnsvt.tif">
		<g>
			<path class="st2" d="M21.6,53.4c-2.1-5-4.3-10-4.2-15.6c0-5,1.6-9.3,5.1-13c8.3-8.7,18.3-11.8,30-9.2c1.9,0.5,2.9,0.2,3.2-1.9
				c0.1-1,0.5-1.9,0.9-2.9c2.4-5.6,4.7-6.1,8.7-1.7c1.2,1.3,1.6,0.7,2.5-0.2c3.5-3.6,6.4-3.5,9.8,0.5c6.6,8,7.8,17.5,6.8,27.3
				c-0.7,8.5-3.9,16.1-9.6,22.6c-1.5-2.2,0.2-5.1-1.6-7.3l0,0.1c0.7-4-0.4-7.9-0.6-11.9c-0.1-1.7-1-1.4-2.1-1.2
				c-4,0.6-8.2,0.7-12.3,0.5c-6.5-0.3-12.6-2.3-18.6-4.8c-1.8-0.7-3.5-1.5-3.5,1.6c-0.1,2.4-0.5,4.9-1.9,6.6
				c-3.5,4.1-4.9,8.9-6.6,13.8c-0.8,2.4-2.3,2.9-3.8,0.5C23.1,56.1,22.3,54.7,21.6,53.4z"/>
			<path class="st3" d="M73.2,52.3c1.7,2.2,0.1,5.1,1.6,7.3c-1.1,4.4-1.5,7.9-3,12.8c0,0.2-0.1,0.5-0.2,0.7c-1,1.3-1,1.6-3.1,1.9
				c-5.9-0.9-10.8-1.4-16.3-2.2S41.1,71,35.4,70.4c-3.6-0.5-6.9-0.7-10.9-1.6c-1.7-1-1.4-2.9-1.8-4.5c0.8-2.2,0.7-4.3,1-6.7
				c1.6,2.6,3,2,3.8-0.5c1.6-4.9,3.1-9.7,6.6-13.8c1.4-1.7,1.9-4.3,1.9-6.6c0.2-3.2,1.7-2.5,3.5-1.6c6,2.6,12.1,4.6,18.6,4.8
				c4.1,0.2,8.2,0,12.3-0.5c1.1-0.2,2-0.4,2.1,1.2C72.7,44.4,73.9,48.3,73.2,52.3c-0.8-2.3-1.9-3.7-4.7-4c-2.7-0.3-5.5-0.8-8.2-1.2
				c-1.8-0.2-3.2,0.5-4.2,2c-1.5,2.4-2.6,1.8-3.4-0.5c-0.5-1.6-1.6-2.6-3.4-2.8c-3.7-0.4-7.5-1-11.2-1.3c-2.4-0.2-3.8,1.4-4.1,3.8
				c-0.3,2.4-0.4,5.3,2.5,5.7c4.9,0.8,9.8,2.1,14.8,1.1c0.2,1.3-1,1.9-1.3,2.9c-0.3,1.1-1.8,2-0.2,3.1c1.8,1.3,3.5,1.6,5.6,0.7
				c1.7-0.7,0.8-2,0.8-3.1c-0.1-1.2-1.1-2.1-0.7-3.5c4,1.9,8.2,1.9,12.4,2.4c2.6,0.3,4.3-0.8,4.9-3.4C72.6,53.7,72.4,52.8,73.2,52.3
				z M42.5,41.4c0.9,0.1,2.2,0.6,2.7-0.9c0.4-1.1-0.6-1.5-1.5-1.6c-1.1-0.2-2.4-0.5-2.8,0.9C40.6,40.9,41.5,41.2,42.5,41.4z
				 M66.2,41.8c-0.9,0-2-0.4-2.3,1c-0.3,1.1,0.6,1.3,1.3,1.4c0.9,0.2,1.8,0.4,2.3-0.6C67.8,42.7,67.1,42.1,66.2,41.8z"/>
			<path class="st4" d="M23.9,57.5c-0.2,2.2-0.2,4.5-1,6.7c-4.6-1.2-5.3-6.4-1.4-10.7C22.3,54.7,23.1,56.1,23.9,57.5z"/>
			<path class="st5" d="M73.2,52.3c-0.7,0.5-0.5,1.4-0.7,2.1c-0.5,2.6-2.2,3.7-4.9,3.4c-4.2-0.5-8.5-0.5-12.4-2.4l0,0
				c0.7-1.3,0.5-2.4-1-2.7c-1.4-0.3-2.3,0.3-2.3,1.9l0,0c-0.6-0.2-0.8,0.1-0.8,0.5l0,0c-5,1-9.9-0.4-14.8-1.1
				c-2.9-0.5-2.8-3.3-2.5-5.7c0.3-2.5,1.7-4,4.1-3.8c3.8,0.2,7.5,0.8,11.2,1.3c1.7,0.2,2.8,1.2,3.4,2.8c0.9,2.4,1.9,2.8,3.4,0.5
				c1-1.6,2.4-2.2,4.2-2c2.7,0.3,5.5,0.8,8.2,1.2C71.2,48.6,72.4,50,73.2,52.3L73.2,52.3z M51.3,51.6c0.5-2.5-0.1-4.3-2.9-4.6
				c-3.3-0.4-6.6-0.8-9.9-1.1c-2.3-0.3-3.1,1.1-3.4,3.2s0.3,3.8,2.8,4.1c3.3,0.4,6.6,0.8,9.9,1.1C49.7,54.4,51.1,53.6,51.3,51.6z
				 M57,50.7c-0.7,3.3,0.3,4.7,3.5,5.1c2.4,0.3,4.8,0.5,7.2,0.7c2.3,0.3,3.2-1,3.4-3.1c0.2-2.1-0.2-3.9-2.6-4.1
				c-2.8-0.4-5.6-0.5-8.5-0.8C58.3,48.1,57.2,49,57,50.7z"/>
			<path class="st3" d="M55.2,55.4c-0.4,1.3,0.6,2.2,0.7,3.5c0,1.1,1,2.4-0.8,3.1c-2.1,0.8-3.8,0.5-5.6-0.7
				c-1.6-1.1-0.1-2.1,0.2-3.1c0.3-1.1,1.4-1.7,1.3-2.9l0,0c0.6,0.2,0.7,0,0.8-0.5l0,0C53,54.9,54.2,55.2,55.2,55.4L55.2,55.4z"/>
			<path class="st2" d="M42.5,41.4c-1-0.2-1.9-0.5-1.6-1.6c0.5-1.4,1.7-1,2.8-0.9c0.9,0.1,1.8,0.4,1.5,1.6
				C44.7,42,43.5,41.4,42.5,41.4z"/>
			<path class="st5" d="M66.2,41.8c0.9,0.3,1.6,0.9,1.3,2c-0.5,1-1.4,0.8-2.3,0.6c-0.8-0.2-1.6-0.4-1.3-1.4
				C64.1,41.4,65.2,41.8,66.2,41.8z"/>
			<path class="st6" d="M51.3,51.6c-0.3,1.9-1.5,2.8-3.5,2.5c-3.3-0.3-6.6-0.8-9.9-1.1c-2.5-0.3-2.9-1.9-2.8-4.1
				c0.2-2.1,1-3.4,3.4-3.2c3.3,0.4,6.6,0.7,9.9,1.1C51.3,47.2,51.9,49,51.3,51.6z M44.3,49.9c0.2-0.7-0.1-1.4-0.9-1.7
				c-0.9-0.2-1.5-0.1-1.8,0.9c-0.2,0.9,0,1.6,0.9,1.9C43.3,51.3,43.9,50.9,44.3,49.9z"/>
			<path class="st6" d="M57,50.7c0.1-1.7,1.2-2.5,3-2.3c2.8,0.3,5.7,0.5,8.5,0.8c2.5,0.3,2.9,2.1,2.6,4.1c-0.2,2.1-1.2,3.3-3.4,3.1
				c-2.4-0.3-4.8-0.6-7.2-0.7C57.3,55.4,56.3,54,57,50.7z M65.4,52.9c0.1-0.9-0.3-1.5-1.1-1.7c-0.9-0.2-1.6,0.2-1.8,1
				c-0.2,1,0.2,1.7,1.3,1.9C64.7,54.1,65.2,53.7,65.4,52.9z"/>
			<path class="st3" d="M55.2,55.4c-1.1-0.3-2.2-0.5-3.3-0.8c0-1.6,1-2.2,2.3-1.9C55.7,53.1,56,54.2,55.2,55.4z"/>
			<path class="st3" d="M51.9,54.6c-0.1,0.5-0.3,0.8-0.8,0.5C51.3,54.8,51.5,54.4,51.9,54.6z"/>
			<path class="st6" d="M44.3,49.9c-0.4,1-1,1.4-1.8,1.1s-1.1-1-0.9-1.9c0.2-1,1-1.1,1.8-0.9C44.3,48.5,44.5,49.2,44.3,49.9z"/>
			<path class="st6" d="M65.4,52.9c-0.2,0.9-0.8,1.3-1.6,1.2c-1.1-0.2-1.5-0.9-1.3-1.9c0.2-0.9,0.9-1.2,1.8-1
				C65.2,51.4,65.6,52,65.4,52.9z"/>
		</g>
	</g>
</g>
<g>
	<path class="st7" d="M195.4,34h5.1v12.4h7.9v4.1h-13V34z"/>
	<path class="st7" d="M214.6,42.4l-4.4-0.5c0.2-0.8,0.4-1.4,0.7-1.8c0.3-0.4,0.8-0.8,1.3-1.1c0.4-0.2,1-0.4,1.7-0.5s1.5-0.2,2.4-0.2
		c1.4,0,2.5,0.1,3.3,0.2c0.8,0.2,1.5,0.5,2.1,1c0.4,0.3,0.7,0.8,0.9,1.4c0.2,0.6,0.3,1.2,0.3,1.8V48c0,0.6,0,1,0.1,1.3
		s0.2,0.7,0.5,1.2h-4.3c-0.2-0.3-0.3-0.5-0.3-0.7s-0.1-0.4-0.2-0.8c-0.6,0.6-1.2,1-1.8,1.2c-0.8,0.3-1.7,0.5-2.8,0.5
		c-1.4,0-2.5-0.3-3.2-1c-0.7-0.7-1.1-1.5-1.1-2.4c0-0.9,0.3-1.7,0.8-2.2s1.5-1,2.9-1.3c1.7-0.3,2.8-0.6,3.3-0.7
		c0.5-0.1,1-0.3,1.6-0.5c0-0.6-0.1-1-0.3-1.2S217.6,41,217,41c-0.7,0-1.3,0.1-1.7,0.4C215,41.6,214.8,41.9,214.6,42.4z M218.6,44.8
		c-0.6,0.2-1.3,0.4-2,0.6c-0.9,0.2-1.5,0.5-1.8,0.7c-0.3,0.2-0.4,0.5-0.4,0.8c0,0.4,0.1,0.7,0.4,0.9s0.6,0.3,1.1,0.3
		c0.5,0,1-0.1,1.4-0.4c0.4-0.2,0.7-0.5,0.9-0.9c0.2-0.4,0.3-0.8,0.3-1.4V44.8z"/>
	<path class="st7" d="M226,34h4.6v5.7c0.5-0.5,1-0.8,1.6-1.1s1.2-0.4,1.9-0.4c1.5,0,2.7,0.5,3.6,1.6c1,1,1.4,2.5,1.4,4.5
		c0,1.3-0.2,2.5-0.7,3.4c-0.4,1-1,1.7-1.8,2.2c-0.8,0.5-1.6,0.7-2.6,0.7c-0.8,0-1.5-0.2-2.2-0.5c-0.5-0.3-1-0.8-1.6-1.5v1.8H226V34z
		 M230.6,44.5c0,1,0.2,1.8,0.6,2.2c0.4,0.5,0.9,0.7,1.5,0.7c0.5,0,1-0.2,1.4-0.7c0.4-0.5,0.6-1.2,0.6-2.3c0-0.9-0.2-1.6-0.5-2.1
		s-0.8-0.7-1.3-0.7c-0.6,0-1.1,0.2-1.5,0.7C230.8,42.9,230.6,43.6,230.6,44.5z"/>
	<path class="st7" d="M254.6,45.7h-9.2c0.1,0.7,0.3,1.3,0.6,1.6c0.4,0.5,1,0.8,1.7,0.8c0.4,0,0.9-0.1,1.3-0.3
		c0.2-0.1,0.5-0.4,0.8-0.8l4.5,0.4c-0.7,1.2-1.5,2.1-2.5,2.6c-1,0.5-2.4,0.8-4.2,0.8c-1.6,0-2.8-0.2-3.7-0.7
		c-0.9-0.4-1.7-1.2-2.3-2.1c-0.6-1-0.9-2.1-0.9-3.4c0-1.9,0.6-3.4,1.8-4.5s2.8-1.7,4.9-1.7c1.7,0,3.1,0.3,4,0.8s1.7,1.3,2.3,2.2
		c0.5,1,0.8,2.3,0.8,3.8V45.7z M249.9,43.5c-0.1-0.9-0.3-1.5-0.7-1.9s-0.9-0.6-1.5-0.6c-0.7,0-1.3,0.3-1.7,0.9
		c-0.3,0.4-0.5,0.9-0.5,1.6H249.9z"/>
	<path class="st7" d="M256.8,34h4.6v16.5h-4.6V34z"/>
	<path class="st7" d="M264.5,34h4.6v3.1h-4.6V34z M264.5,38.6h4.6v11.9h-4.6V38.6z"/>
	<path class="st7" d="M272,38.6h4.3v1.9c0.6-0.8,1.3-1.4,1.9-1.7c0.7-0.3,1.4-0.5,2.4-0.5c1.3,0,2.3,0.4,3,1.1
		c0.7,0.8,1.1,1.9,1.1,3.5v7.6H280v-6.6c0-0.7-0.1-1.3-0.4-1.6c-0.3-0.3-0.7-0.5-1.2-0.5c-0.6,0-1,0.2-1.3,0.6s-0.5,1.2-0.5,2.3v5.7
		H272V38.6z"/>
	<path class="st7" d="M295.6,38.6h4.3v11.3l0,0.5c0,0.7-0.2,1.5-0.5,2.1s-0.7,1.2-1.3,1.6c-0.5,0.4-1.2,0.7-2,0.9s-1.7,0.3-2.8,0.3
		c-2.4,0-4-0.4-4.9-1.1s-1.3-1.7-1.3-2.9c0-0.2,0-0.4,0-0.6l4.4,0.5c0.1,0.4,0.3,0.7,0.5,0.9c0.3,0.2,0.8,0.3,1.3,0.3
		c0.7,0,1.2-0.2,1.5-0.5c0.3-0.4,0.5-1,0.5-1.8v-1.8c-0.4,0.5-0.9,0.9-1.3,1.2c-0.7,0.4-1.5,0.6-2.3,0.6c-1.6,0-2.9-0.7-3.9-2.1
		c-0.7-1-1-2.3-1-3.9c0-1.9,0.4-3.3,1.3-4.2s2.1-1.5,3.5-1.5c0.9,0,1.7,0.2,2.3,0.5s1.2,0.8,1.7,1.6V38.6z M291.3,44.4
		c0,0.9,0.2,1.5,0.6,1.9c0.4,0.4,0.8,0.6,1.4,0.6c0.6,0,1-0.2,1.4-0.6s0.6-1.1,0.6-1.9c0-0.9-0.2-1.5-0.6-2
		c-0.4-0.5-0.9-0.7-1.5-0.7s-1,0.2-1.4,0.6C291.5,42.7,291.3,43.4,291.3,44.4z"/>
	<path class="st7" d="M310.8,34h5.1v16.5h-5.1V34z"/>
	<path class="st7" d="M318.5,47.2l4.5-0.4c0.2,0.5,0.4,0.9,0.8,1.2c0.3,0.2,0.8,0.3,1.3,0.3c0.6,0,1.1-0.1,1.4-0.4
		c0.3-0.2,0.4-0.4,0.4-0.7c0-0.3-0.2-0.6-0.5-0.8c-0.2-0.1-0.9-0.3-2-0.5c-1.6-0.3-2.7-0.5-3.3-0.8c-0.6-0.2-1.1-0.6-1.6-1.2
		c-0.4-0.6-0.6-1.2-0.6-1.9c0-0.8,0.2-1.5,0.7-2c0.5-0.6,1.1-1,1.9-1.3c0.8-0.3,1.9-0.4,3.2-0.4c1.4,0,2.5,0.1,3.2,0.3
		s1.2,0.6,1.7,1s0.8,1.1,1.1,1.9l-4.3,0.4c-0.1-0.4-0.3-0.7-0.6-0.8c-0.4-0.2-0.8-0.4-1.3-0.4c-0.5,0-0.9,0.1-1.1,0.3
		c-0.2,0.2-0.4,0.4-0.4,0.7c0,0.3,0.1,0.5,0.4,0.7s1,0.3,2,0.4c1.5,0.2,2.7,0.4,3.4,0.7s1.3,0.7,1.7,1.3c0.4,0.6,0.6,1.2,0.6,1.9
		c0,0.7-0.2,1.4-0.6,2c-0.4,0.7-1.1,1.2-2,1.6s-2.1,0.6-3.7,0.6c-2.2,0-3.7-0.3-4.7-0.9C319.3,49.2,318.7,48.3,318.5,47.2z"/>
	<path class="st7" d="M332.5,47.2l4.5-0.4c0.2,0.5,0.4,0.9,0.8,1.2c0.3,0.2,0.8,0.3,1.3,0.3c0.6,0,1.1-0.1,1.4-0.4
		c0.3-0.2,0.4-0.4,0.4-0.7c0-0.3-0.2-0.6-0.5-0.8c-0.2-0.1-0.9-0.3-2-0.5c-1.6-0.3-2.7-0.5-3.3-0.8c-0.6-0.2-1.1-0.6-1.6-1.2
		c-0.4-0.6-0.6-1.2-0.6-1.9c0-0.8,0.2-1.5,0.7-2c0.5-0.6,1.1-1,1.9-1.3c0.8-0.3,1.9-0.4,3.2-0.4c1.4,0,2.5,0.1,3.2,0.3
		s1.2,0.6,1.7,1s0.8,1.1,1.1,1.9l-4.3,0.4c-0.1-0.4-0.3-0.7-0.6-0.8c-0.4-0.2-0.8-0.4-1.3-0.4c-0.5,0-0.9,0.1-1.1,0.3
		c-0.2,0.2-0.4,0.4-0.4,0.7c0,0.3,0.1,0.5,0.4,0.7s1,0.3,2,0.4c1.5,0.2,2.7,0.4,3.4,0.7s1.3,0.7,1.7,1.3c0.4,0.6,0.6,1.2,0.6,1.9
		c0,0.7-0.2,1.4-0.6,2c-0.4,0.7-1.1,1.2-2,1.6s-2.1,0.6-3.7,0.6c-2.2,0-3.7-0.3-4.7-0.9C333.4,49.2,332.8,48.3,332.5,47.2z"/>
	<path class="st7" d="M360,50.5h-4.3v-1.9c-0.6,0.8-1.3,1.4-1.9,1.7s-1.4,0.5-2.4,0.5c-1.3,0-2.2-0.4-3-1.1
		c-0.7-0.8-1.1-1.9-1.1-3.5v-7.6h4.6v6.6c0,0.7,0.1,1.3,0.4,1.6c0.3,0.3,0.7,0.5,1.2,0.5c0.5,0,1-0.2,1.3-0.6
		c0.3-0.4,0.5-1.2,0.5-2.3v-5.7h4.6V50.5z"/>
	<path class="st7" d="M376,45.7h-9.2c0.1,0.7,0.3,1.3,0.6,1.6c0.4,0.5,1,0.8,1.7,0.8c0.4,0,0.9-0.1,1.3-0.3c0.2-0.1,0.5-0.4,0.8-0.8
		l4.5,0.4c-0.7,1.2-1.5,2.1-2.5,2.6c-1,0.5-2.4,0.8-4.2,0.8c-1.6,0-2.8-0.2-3.7-0.7c-0.9-0.4-1.7-1.2-2.3-2.1
		c-0.6-1-0.9-2.1-0.9-3.4c0-1.9,0.6-3.4,1.8-4.5s2.8-1.7,4.9-1.7c1.7,0,3.1,0.3,4,0.8s1.7,1.3,2.3,2.2c0.5,1,0.8,2.3,0.8,3.8V45.7z
		 M371.3,43.5c-0.1-0.9-0.3-1.5-0.7-1.9s-0.9-0.6-1.5-0.6c-0.7,0-1.3,0.3-1.7,0.9c-0.3,0.4-0.5,0.9-0.5,1.6H371.3z"/>
</g>
<path class="st7" d="M67.3,66l-30.4-3.8c-1.9-0.2-3.2-2-3-3.9v0c0.2-1.9,2-3.2,3.9-3l30.4,3.8c1.9,0.2,3.2,2,3,3.9v0
	C70.9,64.9,69.2,66.2,67.3,66z"/>
<path class="st8" d="M38,51.1c0,0,5.5-6.2,10.7,1.1"/>
<path class="st8" d="M58.7,53.3c0,0,5.5-6.2,10.7,1.1"/>
</svg>
