<?xml version="1.0" encoding="utf-8"?>
<!-- Generator: Adobe Illustrator 24.0.1, SVG Export Plug-In . SVG Version: 6.00 Build 0)  -->
<svg version="1.1" id="Layer_1" xmlns="http://www.w3.org/2000/svg" xmlns:xlink="http://www.w3.org/1999/xlink" x="0px" y="0px"
	 viewBox="0 0 400 400" style="enable-background:new 0 0 400 400;" xml:space="preserve">
<g>
	<path style="fill:none;stroke:#6C757D;stroke-width:2;stroke-miterlimit:10;" d="M200,352c-83.9,0-152-68.1-152-152
		c0-55.2,29.4-103.4,73.3-130.1"/>
	<path style="fill:none;stroke:#6C757D;stroke-width:2;stroke-miterlimit:10;" d="M200,48c83.9,0,152,68.1,152,152
		c0,50.1-24.2,94.5-61.6,122.2"/>
	<line style="fill:none;stroke:#6C757D;stroke-width:2;stroke-miterlimit:10;" x1="200" y1="48" x2="255" y2="32"/>
	<line style="fill:none;stroke:#6C757D;stroke-width:2;stroke-miterlimit:10;" x1="200" y1="352" x2="149" y2="371"/>
</g>
<g>
	<path style="fill:none;stroke:#6C757D;stroke-miterlimit:10;" d="M293,180.6c11.1,51.8-22,102.9-73.8,114
		c-34.1,7.3-67.8-4.5-90-28.1"/>
	<path style="fill:none;stroke:#6C757D;stroke-miterlimit:10;" d="M105.2,220.8c-11.1-51.8,22-102.9,73.8-114
		c30.9-6.6,61.6,2.5,83.6,21.9"/>
	<line style="fill:none;stroke:#6C757D;stroke-miterlimit:10;" x1="105.2" y1="220.8" x2="88" y2="188.9"/>
	<line style="fill:none;stroke:#6C757D;stroke-miterlimit:10;" x1="293" y1="180.6" x2="311.4" y2="209.6"/>
</g>
</svg>
