<?xml version="1.0" encoding="utf-8"?>
<!-- Generator: Adobe Illustrator 26.5.0, SVG Export Plug-In . SVG Version: 6.00 Build 0)  -->
<svg version="1.1" id="Layer_1" xmlns="http://www.w3.org/2000/svg" xmlns:xlink="http://www.w3.org/1999/xlink" x="0px" y="0px"
	 viewBox="0 0 39.3 36.87" style="enable-background:new 0 0 39.3 36.87;" xml:space="preserve">
<style type="text/css">
	.st0{fill:#636569;}
	.st1{fill:#316094;}
</style>
<g>
	<g>
		<path class="st0" d="M27.1,8.51v8.87h-1.55h0v-4h-4.04v4h-1.55V8.51h1.55v3.53h4.04V8.51h0H27.1z M18.41,17.38L18.41,17.38h-1.55
			V8.51h1.55V17.38z M15.33,17.38L15.33,17.38h-1.64l-4.04-6.52H9.62v6.52H8.14l0,0V8.51l0,0h1.64h0l4.05,6.53h0.03V8.51h1.48V17.38
			z M32.57,12.91l-5.48-9.91H6.89c-1.01,0-1.83,0.82-1.83,1.83v16.18c0,1.01,0.82,1.82,1.83,1.82h20.18L32.57,12.91z"/>
		<path class="st0" d="M28.45,22.84l5.5-9.92l-5.48-9.91h1.37c0.75,0,1.66,0.54,2.03,1.19l4.82,8.71l-4.83,8.73
			c-0.36,0.66-1.27,1.19-2.03,1.19H28.45z"/>
		<path class="st1" d="M28.45,22.84l5.5-9.92l-5.48-9.91h1.37c0.75,0,1.66,0.54,2.03,1.19l4.82,8.71l-4.83,8.73
			c-0.36,0.66-1.28,1.19-2.03,1.19H28.45z"/>
	</g>
	<path class="st0" d="M6.05,25.72H7.4l3.33,5.37h0.02v-5.37h1.21v7.28h-1.35L7.3,27.65H7.27v5.36H6.05V25.72z"/>
	<path class="st0" d="M13.47,25.72h1.27v7.28h-1.27V25.72z"/>
	<path class="st0" d="M18.25,25.72h1.36l2.81,7.28h-1.37l-0.68-1.93h-2.91l-0.68,1.93h-1.32L18.25,25.72z M17.8,30.11h2.22
		l-1.09-3.13H18.9L17.8,30.11z"/>
	<path class="st0" d="M23.11,25.72h1.27v7.28h-1.27V25.72z"/>
	<path class="st0" d="M25.94,25.72h3.02c2.24,0,3.21,1.63,3.21,3.64c0,2.01-0.97,3.64-3.21,3.64h-3.02V25.72z M27.22,31.96h1.25
		c2,0,2.43-1.14,2.43-2.6c0-1.46-0.43-2.6-2.43-2.6h-1.25V31.96z"/>
</g>
</svg>
