<?xml version="1.0" encoding="utf-8"?>
<!-- Generator: Adobe Illustrator 26.5.0, SVG Export Plug-In . SVG Version: 6.00 Build 0)  -->
<svg version="1.1" xmlns="http://www.w3.org/2000/svg" xmlns:xlink="http://www.w3.org/1999/xlink" x="0px" y="0px"
	 viewBox="0 0 352.76 30" style="enable-background:new 0 0 352.76 30;" xml:space="preserve">
<style type="text/css">
	.st0{fill:#636669;}
	.st1{fill:none;stroke:#636669;stroke-width:0.5;stroke-miterlimit:10;}
	.st2{fill:#636569;}
	.st3{fill:#316094;}
	.st4{display:none;}
	.st5{display:inline;}
	.st6{fill:#616365;}
	.st7{display:inline;fill:none;stroke:#616365;stroke-width:0.5;stroke-miterlimit:10;}
	.st8{display:inline;fill:#636569;}
	.st9{display:inline;fill:#316094;}
	.st10{fill:none;stroke:#616365;stroke-width:0.5;stroke-miterlimit:10;}
	.st11{fill:#616465;}
	.st12{fill:#FFFFFF;}
	.st13{fill:#58595B;}
	.st14{display:inline;fill:none;stroke:#FFFFFF;stroke-width:0.5;stroke-miterlimit:10;}
	.st15{display:inline;fill:#FFFFFF;}
	.st16{display:none;fill:#58595B;}
	.st17{fill:none;stroke:#FFFFFF;stroke-width:0.5;stroke-miterlimit:10;}
</style>
<g id="DataEcosystem_--_base_version">
	<g id="desktop_x5F_long_1_">
	</g>
	<g id="desktop" class="st4">
	</g>
	<g id="mobile_x5F_preferred">
	</g>
	<g id="mobile_x5F_vertical">
		<g>
			<path class="st12" d="M58.01,3.01h4.23v20.97h-3.81L48.47,9.55v14.43h-4.22V3.01h4.19l9.57,13.88V3.01z"/>
			<path class="st12" d="M66.93,3.01h4.22v20.97h-4.22V3.01z"/>
			<path class="st12" d="M74.29,23.98L81.8,3.01h4.47l7.5,20.97h-4.22l-1.71-4.86h-7.54l-1.75,4.86H74.29z M81.24,15.43h5.58
				L84.05,7.1L81.24,15.43z"/>
			<path class="st12" d="M96.91,3.01h4.22v20.97h-4.22V3.01z"/>
			<path class="st12" d="M105.83,3.01c0.11,0,0.4,0,0.89,0s1.06,0,1.73,0s1.32,0,1.99,0.01s1.22,0.01,1.66,0.02
				c2.54,0.06,4.62,0.51,6.22,1.36s2.78,2.04,3.53,3.57s1.12,3.33,1.12,5.42c0,2.17-0.4,4.05-1.19,5.63c-0.79,1.58-2,2.8-3.63,3.66
				c-1.63,0.86-3.7,1.29-6.2,1.29h-6.12V3.01z M110.09,6.44v14.12h1.94c1.2,0,2.29-0.23,3.27-0.7c0.98-0.46,1.77-1.22,2.36-2.28
				s0.88-2.46,0.88-4.22c0-1.63-0.26-2.96-0.78-3.98c-0.52-1.02-1.27-1.77-2.23-2.24c-0.97-0.47-2.11-0.71-3.44-0.71H110.09z"/>
			<path class="st12" d="M132.86,3.01c0.11,0,0.4,0,0.89,0s1.06,0,1.73,0s1.32,0,1.99,0.01s1.22,0.01,1.66,0.02
				c2.54,0.06,4.62,0.51,6.22,1.36s2.78,2.04,3.53,3.57s1.12,3.33,1.12,5.42c0,2.17-0.4,4.05-1.19,5.63c-0.79,1.58-2,2.8-3.63,3.66
				c-1.63,0.86-3.7,1.29-6.2,1.29h-6.12V3.01z M137.12,6.44v14.12h1.94c1.2,0,2.29-0.23,3.27-0.7c0.98-0.46,1.77-1.22,2.36-2.28
				s0.88-2.46,0.88-4.22c0-1.63-0.26-2.96-0.78-3.98c-0.52-1.02-1.27-1.77-2.23-2.24c-0.97-0.47-2.11-0.71-3.44-0.71H137.12z"/>
			<path class="st12" d="M157.55,24.27c-0.96,0-1.82-0.18-2.58-0.54c-0.76-0.36-1.37-0.88-1.81-1.56c-0.44-0.68-0.67-1.51-0.67-2.49
				c0-1.64,0.61-2.89,1.84-3.75s3.17-1.3,5.81-1.33l1.87-0.03v-0.9c0-0.69-0.2-1.22-0.6-1.59s-1.02-0.55-1.86-0.54
				c-0.62,0.01-1.21,0.16-1.76,0.44s-0.94,0.77-1.14,1.46h-3.52c0.06-1.08,0.37-1.97,0.94-2.67c0.57-0.7,1.35-1.22,2.33-1.57
				c0.98-0.34,2.09-0.51,3.34-0.51c1.54,0,2.77,0.19,3.7,0.57c0.93,0.38,1.6,0.93,2.02,1.64c0.42,0.71,0.62,1.55,0.62,2.53v10.54
				h-3.54l-0.35-2.58c-0.51,1.08-1.15,1.83-1.92,2.25C159.5,24.06,158.59,24.27,157.55,24.27z M158.97,21.49
				c0.39,0,0.76-0.07,1.12-0.21c0.36-0.14,0.69-0.33,0.97-0.57c0.29-0.24,0.51-0.5,0.69-0.8s0.26-0.61,0.26-0.93v-2.22l-1.52,0.03
				c-0.71,0.01-1.36,0.09-1.97,0.25c-0.61,0.16-1.1,0.42-1.47,0.78s-0.56,0.84-0.56,1.45c0,0.7,0.24,1.24,0.73,1.63
				S158.28,21.49,158.97,21.49z"/>
			<path class="st12" d="M178.3,11.93h-3.33l0.03,7.99c0,0.37,0.05,0.64,0.14,0.82c0.09,0.18,0.24,0.3,0.43,0.35
				s0.45,0.08,0.76,0.08h2.02v2.61c-0.19,0.09-0.5,0.17-0.91,0.25c-0.41,0.08-0.98,0.12-1.72,0.12c-1.31,0-2.33-0.17-3.05-0.51
				c-0.72-0.34-1.22-0.81-1.5-1.42c-0.28-0.61-0.42-1.32-0.42-2.12v-8.16h-2.44V8.99h2.58l1.06-4.52h3.02v4.51h3.33V11.93z"/>
			<path class="st12" d="M185.72,24.27c-0.96,0-1.82-0.18-2.58-0.54c-0.76-0.36-1.37-0.88-1.81-1.56c-0.44-0.68-0.67-1.51-0.67-2.49
				c0-1.64,0.61-2.89,1.84-3.75s3.17-1.3,5.81-1.33l1.87-0.03v-0.9c0-0.69-0.2-1.22-0.6-1.59c-0.4-0.37-1.02-0.55-1.86-0.54
				c-0.62,0.01-1.21,0.16-1.76,0.44s-0.94,0.77-1.14,1.46h-3.52c0.06-1.08,0.37-1.97,0.94-2.67c0.57-0.7,1.35-1.22,2.33-1.57
				c0.98-0.34,2.09-0.51,3.34-0.51c1.54,0,2.77,0.19,3.7,0.57c0.93,0.38,1.6,0.93,2.02,1.64c0.42,0.71,0.62,1.55,0.62,2.53v10.54
				h-3.54l-0.35-2.58c-0.51,1.08-1.15,1.83-1.92,2.25C187.67,24.06,186.77,24.27,185.72,24.27z M187.14,21.49
				c0.39,0,0.76-0.07,1.12-0.21c0.36-0.14,0.69-0.33,0.97-0.57c0.29-0.24,0.51-0.5,0.69-0.8s0.26-0.61,0.26-0.93v-2.22l-1.52,0.03
				c-0.71,0.01-1.36,0.09-1.97,0.25c-0.61,0.16-1.1,0.42-1.47,0.78s-0.56,0.84-0.56,1.45c0,0.7,0.24,1.24,0.73,1.63
				S186.46,21.49,187.14,21.49z"/>
			<path class="st12" d="M204.69,23.98V3.01h14.4l-0.01,3.57h-10.14v5.09h8.8v3.49h-8.83v5.21l10.32,0.01v3.6H204.69z"/>
			<path class="st12" d="M228.89,8.7c1.26,0,2.34,0.26,3.25,0.77c0.91,0.51,1.63,1.2,2.16,2.07c0.53,0.87,0.83,1.84,0.91,2.92h-3.52
				c-0.07-0.4-0.21-0.79-0.42-1.18c-0.21-0.39-0.51-0.72-0.9-0.97s-0.87-0.38-1.45-0.38c-0.99,0-1.79,0.38-2.4,1.14
				s-0.92,1.91-0.92,3.46c0,1.46,0.3,2.62,0.9,3.47c0.6,0.86,1.44,1.28,2.51,1.28c0.57,0,1.05-0.14,1.43-0.42s0.68-0.62,0.89-1.01
				s0.35-0.76,0.41-1.09h3.44c-0.07,1.03-0.37,1.97-0.9,2.81c-0.53,0.84-1.25,1.5-2.17,1.99c-0.91,0.49-1.98,0.73-3.21,0.73
				c-1.39,0-2.63-0.31-3.73-0.93c-1.09-0.62-1.95-1.51-2.57-2.66c-0.62-1.16-0.93-2.54-0.93-4.14c0-1.55,0.3-2.91,0.9-4.09
				s1.44-2.1,2.53-2.76S227.44,8.7,228.89,8.7z"/>
			<path class="st12" d="M244.56,24.27c-1.47,0-2.75-0.31-3.84-0.94c-1.09-0.63-1.93-1.52-2.52-2.67c-0.59-1.15-0.89-2.51-0.89-4.09
				c0-1.58,0.3-2.95,0.89-4.13c0.59-1.18,1.44-2.1,2.52-2.75c1.09-0.66,2.37-0.99,3.85-0.99c1.48,0,2.76,0.32,3.84,0.96
				c1.08,0.64,1.92,1.55,2.51,2.73c0.59,1.18,0.88,2.57,0.88,4.18c0,1.51-0.29,2.84-0.86,3.99c-0.58,1.16-1.4,2.06-2.48,2.72
				C247.39,23.94,246.09,24.27,244.56,24.27z M244.58,21.13c0.74,0,1.34-0.22,1.8-0.65c0.45-0.44,0.79-1.01,0.99-1.72
				c0.21-0.71,0.31-1.49,0.31-2.33c0-0.79-0.09-1.54-0.28-2.25c-0.19-0.71-0.51-1.28-0.96-1.71c-0.45-0.44-1.07-0.65-1.86-0.65
				c-0.74,0-1.35,0.21-1.8,0.62c-0.46,0.41-0.8,0.97-1.01,1.67c-0.21,0.7-0.32,1.48-0.32,2.33c0,0.78,0.1,1.54,0.29,2.25
				c0.19,0.72,0.52,1.31,0.97,1.76S243.78,21.13,244.58,21.13z"/>
			<path class="st12" d="M260.51,24.27c-1.04,0-2.05-0.17-3.02-0.51c-0.97-0.34-1.78-0.88-2.45-1.62s-1.09-1.7-1.28-2.88h3.67
				c0.13,0.53,0.36,0.95,0.69,1.26c0.33,0.31,0.71,0.53,1.14,0.66c0.42,0.13,0.83,0.2,1.22,0.2c0.81,0,1.47-0.13,1.96-0.38
				s0.75-0.65,0.75-1.18c0-0.41-0.15-0.73-0.44-0.97c-0.29-0.24-0.78-0.43-1.46-0.55l-2.64-0.55c-1.32-0.28-2.39-0.76-3.19-1.43
				c-0.8-0.67-1.21-1.63-1.23-2.86c0-0.9,0.24-1.71,0.72-2.42s1.19-1.28,2.12-1.7c0.94-0.42,2.09-0.62,3.45-0.62
				c1.85,0,3.32,0.41,4.43,1.22c1.11,0.81,1.67,1.96,1.69,3.44h-3.54c-0.11-0.58-0.39-1.03-0.86-1.34s-1.06-0.47-1.76-0.47
				c-0.73,0-1.34,0.13-1.81,0.39c-0.47,0.26-0.71,0.66-0.71,1.19c0,0.4,0.19,0.71,0.58,0.94c0.39,0.23,0.99,0.42,1.8,0.59l2.44,0.55
				c0.84,0.2,1.52,0.48,2.05,0.83s0.94,0.74,1.23,1.15c0.29,0.42,0.49,0.83,0.6,1.25c0.11,0.42,0.17,0.8,0.17,1.14
				c0,1-0.27,1.84-0.8,2.54s-1.27,1.24-2.22,1.6S261.76,24.27,260.51,24.27z"/>
			<path class="st12" d="M272.01,28.77c-1.03,0-1.96-0.17-2.8-0.51v-2.7l1.48,0.06c0.65,0.04,1.17,0.01,1.57-0.09s0.7-0.23,0.91-0.4
				s0.36-0.34,0.44-0.51s0.15-0.32,0.19-0.43l0.28-0.83l-5.83-14.37h4.19l3.6,9.77l3.64-9.77h4.13l-6.08,15.08
				c-0.52,1.28-1.07,2.25-1.65,2.93s-1.21,1.14-1.88,1.39C273.52,28.64,272.79,28.77,272.01,28.77z"/>
			<path class="st12" d="M291.47,24.27c-1.04,0-2.05-0.17-3.02-0.51c-0.97-0.34-1.78-0.88-2.45-1.62s-1.09-1.7-1.28-2.88h3.67
				c0.13,0.53,0.36,0.95,0.69,1.26c0.33,0.31,0.71,0.53,1.14,0.66c0.42,0.13,0.83,0.2,1.22,0.2c0.81,0,1.47-0.13,1.96-0.38
				s0.75-0.65,0.75-1.18c0-0.41-0.15-0.73-0.44-0.97c-0.29-0.24-0.78-0.43-1.46-0.55l-2.64-0.55c-1.32-0.28-2.39-0.76-3.19-1.43
				c-0.8-0.67-1.21-1.63-1.23-2.86c0-0.9,0.24-1.71,0.72-2.42s1.19-1.28,2.12-1.7c0.94-0.42,2.09-0.62,3.45-0.62
				c1.85,0,3.32,0.41,4.43,1.22c1.11,0.81,1.67,1.96,1.69,3.44h-3.54c-0.11-0.58-0.39-1.03-0.86-1.34s-1.06-0.47-1.76-0.47
				c-0.73,0-1.34,0.13-1.81,0.39c-0.47,0.26-0.71,0.66-0.71,1.19c0,0.4,0.19,0.71,0.58,0.94c0.39,0.23,0.99,0.42,1.8,0.59l2.44,0.55
				c0.84,0.2,1.52,0.48,2.05,0.83s0.94,0.74,1.23,1.15c0.29,0.42,0.49,0.83,0.6,1.25c0.11,0.42,0.17,0.8,0.17,1.14
				c0,1-0.27,1.84-0.8,2.54s-1.27,1.24-2.22,1.6S292.72,24.27,291.47,24.27z"/>
			<path class="st12" d="M309.7,11.93h-3.33l0.03,7.99c0,0.37,0.05,0.64,0.14,0.82c0.09,0.18,0.24,0.3,0.43,0.35
				s0.45,0.08,0.76,0.08h2.02v2.61c-0.19,0.09-0.5,0.17-0.91,0.25c-0.41,0.08-0.98,0.12-1.72,0.12c-1.31,0-2.33-0.17-3.05-0.51
				c-0.72-0.34-1.22-0.81-1.5-1.42c-0.28-0.61-0.42-1.32-0.42-2.12v-8.16h-2.44V8.99h2.58l1.06-4.52h3.02v4.51h3.33V11.93z"/>
			<path class="st12" d="M315.8,17.46c-0.01,0.76,0.11,1.43,0.36,1.99c0.25,0.57,0.62,1,1.09,1.3c0.48,0.3,1.06,0.46,1.73,0.46
				c0.72,0,1.36-0.15,1.91-0.46c0.55-0.31,0.92-0.82,1.14-1.52h3.81c-0.16,1.06-0.59,1.97-1.27,2.73s-1.51,1.33-2.47,1.73
				s-1.97,0.59-3.02,0.59c-1.48,0-2.78-0.31-3.91-0.94c-1.13-0.62-2-1.5-2.63-2.65c-0.63-1.14-0.94-2.48-0.94-4.03
				c0-1.5,0.29-2.85,0.86-4.05c0.57-1.2,1.4-2.16,2.49-2.86c1.09-0.7,2.39-1.05,3.92-1.05s2.81,0.32,3.85,0.96
				c1.04,0.64,1.82,1.54,2.35,2.68c0.53,1.15,0.79,2.47,0.79,3.97v1.15H315.8z M315.79,14.93h6.12c0-0.6-0.11-1.15-0.33-1.65
				c-0.22-0.5-0.56-0.9-1.01-1.19s-1.01-0.44-1.69-0.44c-0.66,0-1.22,0.16-1.67,0.47s-0.81,0.72-1.05,1.22
				C315.91,13.86,315.79,14.38,315.79,14.93z"/>
			<path class="st12" d="M328.81,23.98V8.99h4.15v2.12c0.45-0.66,1.07-1.22,1.83-1.7s1.74-0.71,2.91-0.71
				c0.51,0,1.03,0.09,1.57,0.28c0.53,0.18,1.03,0.45,1.5,0.8c0.47,0.35,0.85,0.8,1.14,1.33c0.48-0.69,1.12-1.26,1.91-1.72
				c0.79-0.46,1.67-0.69,2.63-0.69c0.56,0,1.13,0.09,1.7,0.28s1.1,0.48,1.59,0.9s0.87,0.97,1.17,1.66s0.44,1.54,0.44,2.56v9.89
				h-4.23v-9.37c0-0.6-0.12-1.08-0.36-1.44c-0.24-0.36-0.54-0.62-0.9-0.78s-0.75-0.24-1.15-0.24c-0.38,0-0.76,0.08-1.15,0.22
				c-0.39,0.15-0.71,0.39-0.99,0.72c-0.27,0.33-0.41,0.76-0.41,1.29v9.6h-4.22v-9.74c0-0.45-0.12-0.84-0.36-1.15
				c-0.24-0.31-0.54-0.54-0.91-0.7s-0.73-0.24-1.11-0.24c-0.39,0-0.77,0.08-1.16,0.24s-0.71,0.41-0.97,0.74
				c-0.26,0.33-0.39,0.75-0.39,1.25v9.6H328.81z"/>
		</g>
	</g>
</g>
<g id="DataEcosystem_--_white_version">
	<g id="desktop_2_" class="st4">
	</g>
	<g id="desktop_x5F_long">
	</g>
	<g id="Layer_11" class="st4">
	</g>
	<g id="mobile_x5F_preferred_1_">
		<rect y="-0.42" class="st16" width="256.63" height="30.84"/>
		<g>
			<path class="st12" d="M22.04,5.51v8.87h-1.55h0v-4h-4.04v4H14.9V5.51h1.55v3.53h4.04V5.51h0H22.04z M13.34,14.37L13.34,14.37
				h-1.55V5.51h1.55V14.37z M10.26,14.37L10.26,14.37H8.62L4.59,7.85H4.55v6.52H3.07l0,0V5.51l0,0h1.64h0l4.05,6.53h0.03V5.51h1.48
				V14.37z M27.5,9.91L22.02,0H1.83C0.82,0,0,0.82,0,1.83v16.18c0,1.01,0.82,1.82,1.83,1.82H22L27.5,9.91z"/>
			<path class="st12" d="M23.38,19.83l5.5-9.92L23.4,0h1.37c0.75,0,1.66,0.54,2.03,1.19l4.82,8.71l-4.83,8.73
				c-0.36,0.66-1.28,1.19-2.03,1.19H23.38z"/>
		</g>
		<g>
			<path class="st12" d="M0.98,22.72h1.35l3.33,5.37h0.02v-5.37h1.21V30H5.54l-3.32-5.36H2.2V30H0.98V22.72z"/>
			<path class="st12" d="M8.4,22.72h1.27V30H8.4V22.72z"/>
			<path class="st12" d="M13.18,22.72h1.36L17.34,30h-1.37l-0.68-1.93h-2.91L11.7,30h-1.32L13.18,22.72z M12.73,27.1h2.22
				l-1.09-3.13h-0.03L12.73,27.1z"/>
			<path class="st12" d="M18.04,22.72h1.27V30h-1.27V22.72z"/>
			<path class="st12" d="M20.87,22.72h3.02c2.24,0,3.21,1.63,3.21,3.64c0,2.01-0.97,3.64-3.21,3.64h-3.02V22.72z M22.15,28.96h1.25
				c2,0,2.43-1.14,2.43-2.6c0-1.46-0.43-2.6-2.43-2.6h-1.25V28.96z"/>
		</g>
		<line class="st17" x1="37.84" y1="0" x2="37.84" y2="30"/>
	</g>
	<g id="mobile_x5F_vertical_1_">
	</g>
</g>
</svg>
