<?xml version="1.0" encoding="utf-8"?>
<!-- Generator: Adobe Illustrator 23.0.1, SVG Export Plug-In . SVG Version: 6.00 Build 0)  -->
<svg version="1.1" id="Layer_1" xmlns="http://www.w3.org/2000/svg" xmlns:xlink="http://www.w3.org/1999/xlink" x="0px" y="0px"
	 viewBox="0 0 1280 595" style="enable-background:new 0 0 1280 595;" xml:space="preserve">
<style type="text/css">
	.st0{fill:#5C3069;}
	.st1{fill:url(#SVGID_1_);}
	.st2{opacity:0.77;fill:#5C3069;}
	.st3{opacity:0.77;fill:#006476;}
	.st4{fill:url(#SVGID_2_);}
	.st5{fill:url(#SVGID_3_);}
</style>
<polygon class="st0" points="0,0 0,542 150,0 "/>
<linearGradient id="SVGID_1_" gradientUnits="userSpaceOnUse" x1="853" y1="239.5" x2="1280" y2="239.5">
	<stop  offset="0" style="stop-color:#006476"/>
	<stop  offset="1" style="stop-color:#5C3069"/>
</linearGradient>
<polygon class="st1" points="895,0 1280,471 1280,479 853,0 "/>
<polygon class="st2" points="1280,28.67 1050,595 874,595 1280,0 "/>
<polygon class="st3" points="0,138.25 0,595 350,595 "/>
<polygon class="st3" points="385,595 0,112.65 0,104.46 427,595 "/>
<linearGradient id="SVGID_2_" gradientUnits="userSpaceOnUse" x1="203" y1="581" x2="203" y2="-9.094947e-13">
	<stop  offset="0" style="stop-color:#006476"/>
	<stop  offset="1" style="stop-color:#5C3069"/>
</linearGradient>
<polygon class="st4" points="0,553 230,0 406,0 0,581 "/>
<linearGradient id="SVGID_3_" gradientUnits="userSpaceOnUse" x1="930" y1="223" x2="1280" y2="223">
	<stop  offset="0" style="stop-color:#006476"/>
	<stop  offset="1" style="stop-color:#5C3069"/>
</linearGradient>
<polygon class="st5" points="1280,446 1280,0 930,0 "/>
<polygon class="st2" points="1280,595 1280,39.94 1130,595 "/>
</svg>
