<?xml version="1.0" encoding="utf-8"?>
<!-- Generator: Adobe Illustrator 23.0.1, SVG Export Plug-In . SVG Version: 6.00 Build 0)  -->
<svg version="1.1" id="Layer_1" xmlns="http://www.w3.org/2000/svg" xmlns:xlink="http://www.w3.org/1999/xlink" x="0px" y="0px"
	 viewBox="0 0 400 322" style="enable-background:new 0 0 400 322;" xml:space="preserve">
<style type="text/css">
	.st0{fill:#FFFFFF;}
	.st1{fill:#B3B3B3;}
	.st2{fill:#006476;}
	.st3{fill:#5C3069;}
</style>
<circle class="st0" cx="200" cy="161" r="153"/>
<g>
	<g>
		<g>
			<path class="st1" d="M135.19,77.95c10.47,5.49,19.93,12.95,27.69,21.98c14.59,16.97,22.62,38.65,22.62,61.05
				c0,22.4-8.03,44.09-22.62,61.05c-7.77,9.03-17.22,16.49-27.69,21.98c16.86-2.99,32.39-11.04,44.75-23.4
				c15.93-15.93,24.7-37.11,24.7-59.63s-8.77-43.7-24.7-59.63C167.58,88.99,152.05,80.93,135.19,77.95z"/>
		</g>
		<g>
			<path class="st1" d="M109.87,83.72c9.2,5.07,17.51,11.78,24.41,19.8c13.73,15.97,21.29,36.38,21.29,57.47
				c0,21.09-7.56,41.5-21.29,57.47c-6.9,8.02-15.21,14.72-24.41,19.8c15.05-3.04,28.88-10.42,39.98-21.52
				c14.89-14.89,23.09-34.68,23.09-55.74c0-21.06-8.2-40.85-23.09-55.74C138.75,94.14,124.91,86.75,109.87,83.72z"/>
		</g>
	</g>
	<g>
		<g>
			<path class="st2" d="M120.3,71.96c-4.85,0-9.61,0.39-14.25,1.14c42.39,6.82,74.77,43.57,74.77,87.88s-32.38,81.06-74.77,87.88
				c4.64,0.75,9.4,1.14,14.25,1.14c49.16,0,89.02-39.86,89.02-89.02S169.47,71.96,120.3,71.96z"/>
		</g>
		<g>
			<path class="st3" d="M94.11,77.47c-4.55,0-9.02,0.37-13.37,1.07c39.77,6.4,70.14,40.87,70.14,82.44s-30.38,76.04-70.14,82.44
				c4.35,0.7,8.82,1.07,13.37,1.07c46.12,0,83.51-37.39,83.51-83.51S140.23,77.47,94.11,77.47z"/>
		</g>
		<path class="st3" d="M246.82,187.61c13.41-1.46,23.85-12.82,23.85-26.61c0-13.8-10.44-25.16-23.86-26.62
			c9.94-31.77,37.2-55.88,70.72-61.28c-4.64-0.75-9.4-1.14-14.25-1.14c-49.16,0-89.02,39.86-89.02,89.02S254.12,250,303.28,250
			c4.85,0,9.61-0.39,14.25-1.14C284.02,243.46,256.77,219.36,246.82,187.61z"/>
	</g>
</g>
</svg>
