<?xml version="1.0" encoding="utf-8"?>
<!-- Generator: Adobe Illustrator 23.0.1, SVG Export Plug-In . SVG Version: 6.00 Build 0)  -->
<svg version="1.1" id="Layer_1" xmlns="http://www.w3.org/2000/svg" xmlns:xlink="http://www.w3.org/1999/xlink" x="0px" y="0px"
	 viewBox="0 0 360.88 322" style="enable-background:new 0 0 360.88 322;" xml:space="preserve">
<style type="text/css">
	.st0{fill:#5C3069;}
	.st1{enable-background:new    ;}
	.st2{clip-path:url(#SVGID_2_);enable-background:new    ;}
	.st3{fill:#301937;}
	.st4{clip-path:url(#SVGID_4_);enable-background:new    ;}
	.st5{fill:#351C3D;}
	.st6{fill:#341B3B;}
	.st7{fill:#321A39;}
	.st8{clip-path:url(#SVGID_6_);enable-background:new    ;}
	.st9{fill:#00343D;}
	.st10{fill:#005C6C;}
	.st11{clip-path:url(#SVGID_8_);fill:#00343D;}
</style>
<g>
	<g>
		<path class="st0" d="M205.75,82.05h80.33c6.06,0,10.98,4.91,10.98,10.98v8.64c0,6.06-4.91,10.98-10.98,10.98h-80.33V82.05z"/>
		<path class="st0" d="M198.16,209.74h87.91c6.06,0,10.98,4.91,10.98,10.98v8.64c0,6.06-4.91,10.98-10.98,10.98h-87.91V209.74z"/>
	</g>
	<g>
		<g class="st1">
			<g class="st1">
				<defs>
					<path id="SVGID_1_" class="st1" d="M173.82,164.53v12.54c0-28.98-19.41-53.85-47.07-64.5v-12.54
						C154.42,110.67,173.82,135.55,173.82,164.53z"/>
				</defs>
				<clipPath id="SVGID_2_">
					<use xlink:href="#SVGID_1_"  style="overflow:visible;"/>
				</clipPath>
				<g class="st2">
					<path class="st3" d="M173.82,164.53v12.54c0-28.98-19.41-53.85-47.07-64.5V95.45C154.42,106.09,180.44,134.37,173.82,164.53"/>
				</g>
			</g>
			<g>
				<rect x="96.65" y="164.53" class="st3" width="30.1" height="12.54"/>
			</g>
			<g>
				<path class="st0" d="M96.65,69.97c57.55,0,109.17,42.33,109.17,94.56s-51.62,94.56-109.17,94.56v-24.53
					c42.62,0,77.17-31.35,77.17-70.03c0-28.98-19.41-53.85-47.07-64.5v97.18h-30.1V94.5V78.38V69.97z"/>
			</g>
			<g class="st1">
				<defs>
					<path id="SVGID_3_" class="st1" d="M200.85,164.53v12.54c0,52.22-46.65,94.56-104.2,94.56v-12.54
						C154.2,259.08,200.85,216.75,200.85,164.53z"/>
				</defs>
				<clipPath id="SVGID_4_">
					<use xlink:href="#SVGID_3_"  style="overflow:visible;"/>
				</clipPath>
				<g class="st4">
					<path class="st5" d="M200.85,164.53v12.54c0,22.05-8.32,42.34-22.26,58.42v-12.54C192.54,206.87,200.85,186.58,200.85,164.53"
						/>
					<path class="st6" d="M178.59,222.95v12.54c-5.76,6.64-12.48,12.57-19.97,17.6v-12.54
						C166.11,235.52,172.83,229.59,178.59,222.95"/>
					<path class="st7" d="M158.62,240.55v12.54c-7.33,4.93-15.4,9-24.03,12.07v-12.54C143.23,249.56,151.29,245.48,158.62,240.55"/>
					<path class="st3" d="M134.6,252.62v12.54c-11.76,4.17-24.56,6.47-37.95,6.47v-12.54C110.04,259.08,122.84,256.79,134.6,252.62"
						/>
				</g>
			</g>
		</g>
	</g>
	<g>
		<g class="st1">
			<g class="st1">
				<defs>
					<path id="SVGID_5_" class="st1" d="M201.59,155.2v11.6c0-53.41-46.99-96.72-104.94-96.72l0-11.6
						C154.61,58.48,201.59,101.78,201.59,155.2z"/>
				</defs>
				<clipPath id="SVGID_6_">
					<use xlink:href="#SVGID_5_"  style="overflow:visible;"/>
				</clipPath>
				<g class="st8">
					<path class="st9" d="M201.59,155.2v11.6c0-53.41-46.99-96.72-104.94-96.72v-18.6C154.61,51.48,208.39,101.3,201.59,155.2"/>
				</g>
			</g>
			<g>
				<path class="st10" d="M96.65,24.6c78.26,0,141.7,58.47,141.7,130.6c0,72.13-63.44,130.6-141.7,130.6v-30.05v-3.83v-81.29
					c0-8.52,6.9-15.43,15.41-15.43h0c8.51,0,15.41,6.91,15.41,15.43v77.05c42.91-12.14,74.12-48.95,74.12-92.48
					c0-53.41-46.99-96.72-104.94-96.72V24.6z"/>
			</g>
			<g class="st1">
				<defs>
					<path id="SVGID_7_" class="st1" d="M238.36,155.2l0,11.6c0,72.13-63.44,130.6-141.7,130.6l0-11.6
						C174.91,285.8,238.36,227.33,238.36,155.2z"/>
				</defs>
				<clipPath id="SVGID_8_">
					<use xlink:href="#SVGID_7_"  style="overflow:visible;"/>
				</clipPath>
				<path class="st11" d="M216.04,219.59c-7.02,10.1-15.51,19.24-25.19,27.19c-9.46,7.76-20.05,14.37-31.52,19.59
					c-18.9,8.6-40.17,13.44-62.67,13.44v17.6c22.5,0,43.78-4.83,62.67-13.44c11.47-5.22,22.06-11.83,31.52-19.59
					c9.68-7.94,18.17-17.09,25.19-27.19c14.13-20.31,22.32-44.47,22.32-70.39v-11.6C238.36,181.12,230.16,199.27,216.04,219.59z"/>
			</g>
		</g>
	</g>
	<path class="st10" d="M257.76,177.07h-56.71v-31.76h56.71c6.29,0,11.4,5.1,11.4,11.4v8.97
		C269.16,171.97,264.06,177.07,257.76,177.07z"/>
</g>
</svg>
