<?xml version="1.0" encoding="utf-8"?>
<!-- Generator: Adobe Illustrator 24.2.1, SVG Export Plug-In . SVG Version: 6.00 Build 0)  -->
<svg version="1.1" id="Layer_1" xmlns="http://www.w3.org/2000/svg" xmlns:xlink="http://www.w3.org/1999/xlink" x="0px" y="0px"
	 viewBox="0 0 200 200" style="enable-background:new 0 0 200 200;" xml:space="preserve">
<style type="text/css">
	.st0{fill:none;stroke:#808080;stroke-miterlimit:10;}
</style>
<g id="_x32_7JzS3.tif">
	<g>
		<path class="st0" d="M176,161c-51.9,0-103.8,0-155.7,0c-2.7-0.7-5.5-1.3-7.8-3.1c-7.6-6.2-9.7-14.3-7.9-23.5
			c1.7-8.7,8.7-15,17.5-16.6c3.5-0.6,3.6-0.6,3.3-4c-0.4-5.6,0.5-11,2.5-16.2C33.3,83.5,47.3,70.2,67.1,73c1.6,0.2,2.1-0.7,2.6-1.9
			c3-8.2,7.8-15.3,14.6-20.9c10.3-8.6,22.2-12.6,35.5-11.1c24.5,2.8,42.5,22.3,43.7,46.9c0.1,1.9,0.8,2.6,2.6,2.8
			c4.1,0.5,8,1.8,11.6,3.8c19.7,11.1,25.4,37.4,12.2,55.7C186.1,153.5,181.3,157.5,176,161z"/>
	</g>
</g>
</svg>
