<?xml version="1.0" encoding="utf-8"?>
<!-- Generator: Adobe Illustrator 23.0.1, SVG Export Plug-In . SVG Version: 6.00 Build 0)  -->
<svg version="1.1" id="Layer_1" xmlns="http://www.w3.org/2000/svg" xmlns:xlink="http://www.w3.org/1999/xlink" x="0px" y="0px"
	 viewBox="0 0 1280 595" style="enable-background:new 0 0 1280 595;" xml:space="preserve">
<style type="text/css">
	.st0{fill:#EAEAEA;}
	.st1{fill:#FFFFFF;}
</style>
<rect class="st0" width="1280" height="297.5"/>
<path class="st0" d="M375.5,455c86.98,0,157.5-70.52,157.5-157.5H218C218,384.48,288.52,455,375.5,455z"/>
<path class="st1" d="M375.5,140C288.52,140,218,210.52,218,297.5h315C533,210.52,462.48,140,375.5,140z"/>
<g>
	<path class="st0" d="M960.5,343c25.13,0,45.5-20.37,45.5-45.5h-91C915,322.63,935.37,343,960.5,343z"/>
	<path class="st1" d="M960.5,252c-25.13,0-45.5,20.37-45.5,45.5h91C1006,272.37,985.63,252,960.5,252z"/>
</g>
<g>
	<path class="st0" d="M84.5,329.66c17.76,0,32.16-14.4,32.16-32.16H52.34C52.34,315.26,66.74,329.66,84.5,329.66z"/>
	<path class="st1" d="M84.5,265.34c-17.76,0-32.16,14.4-32.16,32.16h64.31C116.66,279.74,102.26,265.34,84.5,265.34z"/>
</g>
<g>
	<path class="st1" d="M960.5,140v29.12c70.9,0,128.38,57.48,128.38,128.38H1118C1118,210.52,1047.48,140,960.5,140z"/>
	<path class="st0" d="M1088.88,297.5c0,70.9-57.48,128.38-128.38,128.38V455c86.98,0,157.5-70.52,157.5-157.5H1088.88z"/>
</g>
<g>
	<path class="st1" d="M1191.02,252.47v8.33c20.27,0,36.7,16.43,36.7,36.7h8.33C1236.04,272.63,1215.89,252.47,1191.02,252.47z"/>
	<path class="st0" d="M1227.72,297.5c0,20.27-16.43,36.7-36.7,36.7v8.33c24.87,0,45.03-20.16,45.03-45.03H1227.72z"/>
</g>
<g>
	<path class="st1" d="M375.5,375v-14.33c34.89,0,63.17-28.28,63.17-63.17H453C453,340.3,418.3,375,375.5,375z"/>
	<path class="st0" d="M438.67,297.5c0-34.89-28.28-63.17-63.17-63.17V220c42.8,0,77.5,34.7,77.5,77.5H438.67z"/>
</g>
</svg>
