<?xml version="1.0" encoding="UTF-8"?>
<svg id="Layer_3" data-name="Layer 3" xmlns="http://www.w3.org/2000/svg" version="1.1" viewBox="0 0 2805.6 669.1">
  <defs>
    <style>
      .cls-1, .cls-2 {
        font-family: Futura-Medium, Futura;
        font-size: 41px;
        font-weight: 500;
      }

      .cls-3 {
        fill: #009e69;
      }

      .cls-3, .cls-4, .cls-5, .cls-6, .cls-7, .cls-8, .cls-9 {
        stroke-width: 0px;
      }

      .cls-10 {
        fill: #c90969;
      }

      .cls-2, .cls-11, .cls-12 {
        fill: #000;
      }

      .cls-4 {
        fill: #43318d;
      }

      .cls-12 {
        font-family: ArialMT, Arial;
        font-size: 36px;
      }

      .cls-5 {
        fill: #edd600;
      }

      .cls-6 {
        fill: #d83f87;
      }

      .cls-7 {
        fill: #fff;
      }

      .cls-8 {
        fill: #2a1b3c;
      }

      .cls-9 {
        fill: #ed3ae0;
      }
    </style>
  </defs>
  <path class="cls-7" d="M347.9,459.2c-87.1,0-158-70.9-158-158s70.9-158,158-158h4v45.2c17.4.6,34.5,5.3,49.8,13.5,6.4,3.5,12.4,7.5,18,12.1,5.6,4.6,10.7,9.7,15.3,15.3,3.5,4.2,6.6,8.6,9.4,13.3,1.9,3.1,3.6,6.3,5.2,9.6,1.6,3.3,3,6.7,4.3,10.1,3.2,8.8,5.3,17.9,6.3,27.2.4,3.8.6,7.7.6,11.5,0,60.9-48.4,110.6-108.8,112.7v45.2h-4v.3Z"/>
  <path class="cls-4" d="M347.9,455.2c-85,0-154-68.9-154-154s69-154,154-154"/>
  <circle class="cls-7" cx="347.9" cy="301.2" r="108.8"/>
  <path class="cls-8" d="M377.8,313.5h31.8c0-42.5-34.4-76.9-76.9-76.9s-76.9,34.4-76.9,76.9h31.8c0-19.9,12.9-36.7,30.7-42.7v42.7h26.1v-43.5c19.2,5.1,33.4,22.6,33.4,43.5h0Z"/>
  <path class="cls-6" d="M347.9,192.4v31.9c42.4,0,76.9,34.4,76.9,76.9s-34.4,76.9-76.9,76.9v31.9c60.1,0,108.8-48.7,108.8-108.8s-48.7-108.8-108.8-108.8h0Z"/>
  <path class="cls-7" d="M877.5,459.2c-87.1,0-158-70.9-158-158s70.9-158,158-158h4v45.2c17.4.6,34.5,5.3,49.8,13.5,6.4,3.5,12.4,7.5,18,12.1,5.6,4.6,10.7,9.7,15.3,15.3,3.5,4.2,6.6,8.6,9.4,13.3,1.9,3.1,3.6,6.3,5.2,9.6,1.6,3.3,3,6.7,4.3,10.1,3.2,8.8,5.3,17.9,6.3,27.2.4,3.8.6,7.7.6,11.5,0,60.9-48.4,110.6-108.8,112.7v45.2h-4v.3Z"/>
  <path class="cls-3" d="M877.5,455.2c-85,0-154-68.9-154-154s69-154,154-154"/>
  <circle class="cls-7" cx="877.5" cy="301.2" r="108.8"/>
  <path class="cls-9" d="M876.9,256.1v-31.8c-42.5,0-76.9,34.4-76.9,76.9s34.4,76.9,76.9,76.9v-31.8c-19.9,0-36.7-12.9-42.7-30.7h42.7v-26.1h-43.5c5.1-19.2,22.6-33.4,43.5-33.4h0Z"/>
  <path class="cls-5" d="M877.5,192.4v31.9c42.4,0,76.9,34.4,76.9,76.9s-34.4,76.9-76.9,76.9v31.9c60.1,0,108.8-48.7,108.8-108.8s-48.7-108.8-108.8-108.8h0Z"/>
  <path class="cls-7" d="M1413.2,459.2c-43.5,0-79-70.9-79-158s35.5-158,79-158h2v45.2c8.7.6,17.2,5.3,24.9,13.5,3.2,3.5,6.2,7.5,9,12.1,2.8,4.6,5.4,9.7,7.6,15.3,1.8,4.2,3.3,8.6,4.7,13.3.9,3.1,1.8,6.3,2.6,9.6.8,3.3,1.5,6.7,2.1,10.1,1.6,8.8,2.6,17.9,3.1,27.2.2,3.8.3,7.7.3,11.5,0,60.9-24.2,110.6-54.4,112.7v45.2h-2v.3Z"/>
  <path class="cls-4" d="M1413.2,455.2c-42.5,0-77-68.9-77-154s34.5-154,77-154"/>
  <ellipse class="cls-7" cx="1413.2" cy="301.2" rx="54.4" ry="108.8"/>
  <path class="cls-8" d="M1412.9,256.1v-31.8c-21.2,0-38.5,34.4-38.5,76.9s17.2,76.9,38.5,76.9v-31.8c-9.9,0-18.3-12.9-21.3-30.7h21.3v-26.1h-21.8c2.6-19.2,11.3-33.4,21.8-33.4h0Z"/>
  <path class="cls-6" d="M1413.2,192.4v31.9c21.2,0,38.4,34.4,38.4,76.9s-17.2,76.9-38.4,76.9v31.9c30.1,0,54.4-48.7,54.4-108.8s-24.4-108.8-54.4-108.8h0Z"/>
  <path class="cls-7" d="M1944.3,459.2c-87.1,0-158-70.9-158-158s70.9-158,158-158h4v45.2c17.4.6,34.5,5.3,49.8,13.5,6.4,3.5,12.4,7.5,18,12.1,5.6,4.6,10.7,9.7,15.3,15.3,3.5,4.2,6.6,8.6,9.4,13.3,1.9,3.1,3.6,6.3,5.2,9.6,1.6,3.3,3,6.7,4.3,10.1,3.2,8.8,5.3,17.9,6.3,27.2.4,3.8.6,7.7.6,11.5,0,60.9-48.4,110.6-108.8,112.7v45.2h-4v.3Z"/>
  <path class="cls-4" d="M1944.3,455.2c-85,0-154-68.9-154-154s69-154,154-154"/>
  <circle class="cls-7" cx="1944.3" cy="301.2" r="108.8"/>
  <path class="cls-8" d="M1943.7,256.1v-31.8c-42.5,0-76.9,34.4-76.9,76.9s34.4,76.9,76.9,76.9v-31.8c-19.9,0-36.7-12.9-42.7-30.7h42.7v-26.1h-43.5c5.1-19.2,22.6-33.4,43.5-33.4h0Z"/>
  <path class="cls-7" d="M2504.6,471.5c-87.1,0-158-70.9-158-158s70.9-158,158-158h4v45.2c17.4.6,34.5,5.3,49.8,13.5,6.4,3.5,12.4,7.5,18,12.1,5.6,4.6,10.7,9.7,15.3,15.3,3.5,4.2,6.6,8.6,9.4,13.3,1.9,3.1,3.6,6.3,5.2,9.6,1.6,3.3,3,6.7,4.3,10.1,3.2,8.8,5.3,17.9,6.3,27.2.4,3.8.6,7.7.6,11.5,0,60.9-48.4,110.6-108.8,112.7v45.2h-4v.3Z"/>
  <path class="cls-4" d="M2504.6,467.5c-85,0-154-68.9-154-154s69-154,154-154"/>
  <circle class="cls-7" cx="2504.6" cy="313.5" r="108.8"/>
  <path class="cls-8" d="M2504,268.4v-31.8c-42.5,0-76.9,34.4-76.9,76.9s34.4,76.9,76.9,76.9v-31.8c-19.9,0-36.7-12.9-42.7-30.7h42.7v-26.1h-43.5c5.1-19.2,22.6-33.4,43.5-33.4h0Z"/>
  <path class="cls-6" d="M2504.6,204.7v31.9c42.4,0,76.9,34.4,76.9,76.9s-34.4,76.9-76.9,76.9v31.9c60.1,0,108.8-48.7,108.8-108.8s-48.7-108.8-108.8-108.8h0Z"/>
  <text class="cls-2" transform="translate(2217.5 325.9)"><tspan x="0" y="0">DATA DISCOVERY ENGINE</tspan></text>
  <text class="cls-1" transform="translate(1246.8 91.9)"><tspan class="cls-11" x="0" y="0">PLEASE </tspan><tspan class="cls-10" x="153.6" y="0">DO NOT</tspan><tspan class="cls-11" x="323.7" y="0">...</tspan></text>
  <text class="cls-12" transform="translate(146.3 530.7)"><tspan x="0" y="0">CHANGE ELEMENTS </tspan><tspan x="52" y="43.2">OF OUR LOGO</tspan></text>
  <text class="cls-12" transform="translate(733 530.7)"><tspan x="0" y="0">CHANGE OUR </tspan><tspan x="46" y="43.2">COLORS</tspan></text>
  <text class="cls-12" transform="translate(1194.7 535.2)"><tspan x="0" y="0">DISTORT OUR IMAGES</tspan></text>
  <text class="cls-12" transform="translate(1725.2 535.2)"><tspan x="0" y="0">REMOVE ELEMENTS </tspan><tspan x="25" y="43.2">FROM OUR LOGO</tspan></text>
  <text class="cls-12" transform="translate(2305.6 535.2)"><tspan x="0" y="0">PLACE TEXT ON TOP </tspan><tspan x="57" y="43.2">OF OUR LOGO</tspan></text>
</svg>