<?xml version="1.0" encoding="utf-8"?>
<!-- Generator: Adobe Illustrator 25.0.0, SVG Export Plug-In . SVG Version: 6.00 Build 0)  -->
<svg version="1.1" id="Layer_1" xmlns="http://www.w3.org/2000/svg" xmlns:xlink="http://www.w3.org/1999/xlink" x="0px" y="0px"
	 viewBox="0 0 546 85" style="enable-background:new 0 0 546 85;" xml:space="preserve">
<style type="text/css">
	.st0{fill:none;stroke:#C6C6C6;stroke-width:4;stroke-linecap:round;stroke-miterlimit:10;}
	.st1{fill:none;stroke:#C6C6C6;stroke-width:4;stroke-linecap:round;stroke-miterlimit:10;stroke-dasharray:4.8192,4.8192;}
	.st2{fill:#4770D6;}
	.st3{fill:#7890F4;}
	.st4{fill:none;stroke:#4770D6;stroke-width:4;stroke-miterlimit:10;}
	.st5{fill:#FCCF4F;}
	.st6{fill:#EF4172;}
	.st7{fill:#6C276F;}
	.st8{fill:#B5E7F5;}
	.st9{fill:#81DCEC;}
	.st10{fill:#743E7D;}
	.st11{fill:#CEECF3;}
	.st12{fill:none;stroke:#F7265D;stroke-width:3;stroke-linecap:round;stroke-miterlimit:10;stroke-dasharray:9.0396,9.0396;}
	.st13{fill:#257077;}
	.st14{fill:#F9D026;}
</style>
<g>
	<line class="st0" x1="298.2" y1="44.4" x2="300.7" y2="44.4"/>
	<line class="st1" x1="305.5" y1="44.4" x2="399.5" y2="44.4"/>
	<line class="st0" x1="401.9" y1="44.4" x2="404.4" y2="44.4"/>
</g>
<g>
	<circle class="st2" cx="124.4" cy="44.4" r="19.5"/>
	<circle class="st3" cx="201.6" cy="44.4" r="19.5"/>
	<circle class="st3" cx="278.7" cy="44.4" r="19.5"/>
	<line class="st4" x1="143.9" y1="44.4" x2="182.1" y2="44.4"/>
	<line class="st4" x1="221" y1="44.4" x2="259.3" y2="44.4"/>
</g>
<g>
	<line class="st4" x1="443.3" y1="44.4" x2="481.6" y2="44.4"/>
	<g>
		<circle class="st3" cx="423.9" cy="44.4" r="19.5"/>
		<path class="st5" d="M496.4,18.2l6.1,12.4c0.3,0.5,0.8,0.9,1.4,1l13.7,2c1.5,0.2,2.1,2.1,1,3.1l-9.9,9.7c-0.4,0.4-0.6,1-0.5,1.6
			l2.3,13.7c0.3,1.5-1.3,2.6-2.7,1.9l-12.3-6.5c-0.5-0.3-1.2-0.3-1.7,0l-12.3,6.5c-1.3,0.7-2.9-0.4-2.7-1.9l2.3-13.7
			c0.1-0.6-0.1-1.2-0.5-1.6l-9.9-9.7c-1.1-1.1-0.5-2.9,1-3.1l13.7-2c0.6-0.1,1.1-0.5,1.4-1l6.1-12.4
			C493.7,16.9,495.7,16.9,496.4,18.2z"/>
	</g>
</g>
<g>
	<path class="st6" d="M356.9,54.4h-13.3v-1.3c0-2.3,0.3-4.1,0.8-5.5s1.3-2.7,2.3-3.9s3.3-3.2,6.8-6.2c1.9-1.5,2.8-3,2.8-4.2
		c0-1.3-0.4-2.3-1.1-3c-0.8-0.7-1.9-1.1-3.5-1.1c-1.7,0-3,0.5-4.1,1.6s-1.8,3-2.1,5.7L331.9,35c0.5-5,2.3-9,5.4-12.1
		c3.2-3,8-4.6,14.6-4.6c5.1,0,9.2,1.1,12.3,3.2c4.2,2.9,6.4,6.7,6.4,11.5c0,2-0.5,3.9-1.6,5.7s-3.3,4.1-6.7,6.8
		c-2.4,1.9-3.8,3.4-4.5,4.5C357.2,51.1,356.9,52.6,356.9,54.4z M343.1,58h14.3v12.6h-14.3V58z"/>
</g>
<g>
	<g id="_x33_Dnsvt.tif">
		<g>
			<path class="st7" d="M24.3,62.3c-3.2-4.4-6.5-8.7-7.8-14.2c-1.2-4.9-0.6-9.4,1.9-13.8c6-10.4,15-15.8,27-16c2,0,2.9-0.5,2.7-2.6
				c-0.1-1,0-2,0.2-3c1-6,3.1-7,8.1-3.7c1.5,1,1.7,0.3,2.4-0.8c2.6-4.3,5.4-4.9,9.6-1.8c8.3,6.2,11.7,15.2,13.1,24.9
				c1.3,8.4,0,16.6-4,24.2c-2-1.8-1-5-3.3-6.7v0.1c-0.3-4-2.3-7.6-3.4-11.4c-0.5-1.6-1.3-1.1-2.3-0.7c-3.8,1.5-7.8,2.6-11.8,3.4
				c-6.4,1.3-12.8,0.8-19.2-0.3c-1.9-0.3-3.7-0.6-3,2.4c0.5,2.3,0.7,4.9-0.3,6.9c-2.4,4.8-2.7,9.8-3.1,15c-0.2,2.5-1.5,3.4-3.6,1.4
				C26.4,64.6,25.3,63.4,24.3,62.3z"/>
			<path class="st8" d="M74.2,49c2.2,1.7,1.3,4.9,3.3,6.7c0,4.5,0.4,8,0.1,13.2c0,0.2,0,0.5,0,0.7c-0.7,1.5-0.6,1.8-2.6,2.6
				c-6,0.5-10.8,1.2-16.4,1.7s-11.2,0.9-16.8,1.6c-3.6,0.4-6.9,1-11,1c-1.9-0.6-2-2.5-2.8-4c0.3-2.3-0.3-4.4-0.6-6.7
				c2.2,2.1,3.4,1.2,3.6-1.4c0.4-5.1,0.7-10.2,3.1-15c1-2,0.8-4.6,0.3-6.9c-0.6-3.1,1.1-2.8,3-2.4c6.4,1.1,12.8,1.6,19.2,0.3
				c4-0.8,8-1.9,11.8-3.4c1-0.4,1.8-0.9,2.3,0.7C71.9,41.5,73.9,45,74.2,49c-1.3-2-2.7-3.1-5.5-2.8c-2.7,0.3-5.5,0.5-8.2,0.8
				c-1.8,0.2-3,1.2-3.6,2.9c-0.9,2.7-2.1,2.4-3.4,0.3c-0.9-1.4-2.2-2.1-4-1.9c-3.7,0.5-7.5,0.8-11.2,1.4c-2.4,0.4-3.4,2.3-3.1,4.7
				c0.3,2.4,0.9,5.2,3.8,4.9c4.9-0.4,10-0.3,14.6-2.4c0.5,1.2-0.5,2.1-0.6,3.1c0,1.1-1.3,2.4,0.5,3.1c2,0.8,3.8,0.7,5.6-0.6
				c1.5-1.1,0.3-2.1,0-3.2c-0.4-1.1-1.6-1.8-1.5-3.2C61.9,57,66,56,70.2,55.5c2.6-0.3,4-1.8,3.9-4.5C74,50.5,73.6,49.7,74.2,49z
				 M41.8,45.7c0.9-0.1,2.3,0.1,2.4-1.5c0.1-1.2-0.9-1.3-1.8-1.2c-1.1,0.1-2.4,0.1-2.5,1.5C39.8,45.7,40.8,45.7,41.8,45.7z
				 M64.9,40.5c-0.9,0.2-2,0.1-2,1.5c0,1.1,0.9,1.1,1.6,1.1c0.9,0,1.9,0,2.1-1.1C66.7,41,65.9,40.5,64.9,40.5z"/>
			<path class="st9" d="M27.5,65.7c0.3,2.2,0.9,4.4,0.6,6.7c-4.8-0.1-6.7-5-3.9-10.1C25.3,63.4,26.4,64.6,27.5,65.7z"/>
			<path class="st10" d="M74.2,49c-0.6,0.7-0.2,1.5-0.2,2.2c0.1,2.7-1.3,4.1-3.9,4.5c-4.2,0.5-8.4,1.5-12.6,0.6l0,0
				c0.4-1.4-0.1-2.4-1.6-2.4c-1.4,0-2.2,0.8-1.8,2.4l0,0c-0.6-0.1-0.7,0.3-0.7,0.7l0,0c-4.6,2.1-9.7,2-14.6,2.4
				c-2.9,0.2-3.5-2.5-3.8-4.9c-0.3-2.5,0.7-4.3,3.1-4.7c3.7-0.7,7.5-1,11.2-1.4c1.7-0.2,3,0.5,4,1.9c1.4,2.1,2.5,2.3,3.4-0.3
				c0.6-1.8,1.8-2.7,3.6-2.9c2.7-0.3,5.5-0.5,8.2-0.8C71.4,45.9,72.9,47,74.2,49L74.2,49z M52.8,53.5c-0.1-2.6-1.1-4.2-3.9-3.8
				c-3.3,0.4-6.6,0.8-9.9,1.3c-2.3,0.3-2.8,1.8-2.5,3.9c0.3,2.1,1.2,3.6,3.7,3.3c3.3-0.4,6.6-0.8,9.9-1.3
				C51.9,56.6,53,55.5,52.8,53.5z M58.1,51.3c0.1,3.4,1.4,4.5,4.6,4.1c2.4-0.3,4.8-0.7,7.2-1c2.3-0.3,2.9-1.7,2.6-3.8
				s-1.1-3.7-3.5-3.4c-2.8,0.3-5.6,0.8-8.5,1.2C58.7,48.5,57.9,49.6,58.1,51.3z"/>
			<path class="st8" d="M57.5,56.3c-0.1,1.4,1.1,2,1.5,3.2c0.3,1.1,1.5,2.1,0,3.2c-1.8,1.3-3.6,1.4-5.6,0.6c-1.8-0.7-0.6-2-0.5-3.1
				c0-1.1,1-2,0.6-3.1l0,0c0.6,0.1,0.7-0.2,0.7-0.7l0,0C55.2,56.3,56.4,56.3,57.5,56.3L57.5,56.3z"/>
			<path class="st7" d="M41.8,45.7c-1,0-2,0-1.9-1.2c0.1-1.5,1.4-1.4,2.5-1.5c0.9-0.1,1.9,0,1.8,1.2C44.1,45.8,42.8,45.5,41.8,45.7z
				"/>
			<path class="st10" d="M64.9,40.5c1,0.1,1.8,0.5,1.7,1.6c-0.2,1.1-1.2,1.1-2.1,1.1c-0.8,0-1.6,0-1.6-1.1
				C62.8,40.6,64,40.7,64.9,40.5z"/>
			<path class="st11" d="M52.8,53.5c0.2,1.9-0.8,3.1-2.8,3.3c-3.3,0.5-6.6,0.8-9.9,1.3c-2.5,0.3-3.3-1.2-3.7-3.3
				c-0.3-2.1,0.2-3.5,2.5-3.9c3.3-0.4,6.6-0.9,9.9-1.3C51.7,49.3,52.7,50.9,52.8,53.5z M45.6,53.5c0-0.7-0.4-1.3-1.3-1.4
				c-0.9,0-1.5,0.3-1.5,1.3c0,0.9,0.4,1.5,1.3,1.6C44.9,55.1,45.4,54.6,45.6,53.5z"/>
			<path class="st11" d="M58.1,51.3c-0.3-1.7,0.6-2.7,2.4-3c2.8-0.4,5.6-0.9,8.5-1.2c2.5-0.3,3.3,1.4,3.5,3.4
				c0.3,2.1-0.4,3.5-2.6,3.8c-2.4,0.3-4.8,0.6-7.2,1C59.5,55.8,58.2,54.7,58.1,51.3z M66.8,51.4c-0.1-0.9-0.7-1.4-1.5-1.4
				c-0.9,0-1.5,0.6-1.5,1.4c0,1,0.6,1.6,1.7,1.5C66.4,52.8,66.8,52.3,66.8,51.4z"/>
			<path class="st8" d="M57.5,56.3c-1.1,0-2.3,0-3.4,0c-0.4-1.6,0.4-2.4,1.8-2.4C57.4,53.9,57.9,54.9,57.5,56.3z"/>
			<path class="st8" d="M54.1,56.3c0,0.5-0.1,0.8-0.7,0.7C53.5,56.6,53.6,56.2,54.1,56.3z"/>
			<path class="st11" d="M45.6,53.5c-0.1,1.1-0.6,1.6-1.5,1.5s-1.3-0.7-1.3-1.6c0-1,0.7-1.3,1.5-1.3C45.2,52.2,45.6,52.8,45.6,53.5z
				"/>
			<path class="st11" d="M66.8,51.4c0,0.9-0.5,1.5-1.3,1.6c-1.1,0.1-1.7-0.5-1.7-1.5c0-0.9,0.6-1.4,1.5-1.4
				C66.2,50,66.7,50.5,66.8,51.4z"/>
		</g>
	</g>
</g>
<g>
	<circle class="st12" cx="351.2" cy="44.7" r="34.5"/>
</g>
<path class="st13" d="M62.9,65.6c0,0-5.5-15.3-14.6-1.7L62.9,65.6z"/>
<g>
	<rect x="8.9" y="12.4" transform="matrix(0.6531 -0.7573 0.7573 0.6531 -10.5662 14.8646)" class="st14" width="4" height="13.1"/>
</g>
<g>
	<rect x="16.8" y="5.2" transform="matrix(0.8137 -0.5813 0.5813 0.8137 -3.6156 13.2072)" class="st14" width="4" height="14.1"/>
</g>
<g>
	<rect x="25.7" y="3.4" transform="matrix(0.9261 -0.3773 0.3773 0.9261 -1.4384 11.1535)" class="st14" width="4" height="11.8"/>
</g>
<circle class="st7" cx="47.2" cy="53.6" r="2.7"/>
<circle class="st7" cx="66.8" cy="51.4" r="2.7"/>
</svg>
