<?xml version="1.0" encoding="utf-8"?>
<!-- Generator: Adobe Illustrator 25.0.0, SVG Export Plug-In . SVG Version: 6.00 Build 0)  -->
<svg version="1.1" id="Layer_1" xmlns="http://www.w3.org/2000/svg" xmlns:xlink="http://www.w3.org/1999/xlink" x="0px" y="0px"
	 viewBox="0 0 458.7 85" style="enable-background:new 0 0 458.7 85;" xml:space="preserve">
<style type="text/css">
	.st0{fill:#6C276F;}
	.st1{fill:#FFFFFF;}
	.st2{fill:#9550EF;}
	.st3{fill:#B5E7F5;}
	.st4{fill:#81DCEC;}
	.st5{fill:#743E7D;}
	.st6{fill:#CEECF3;}
	.st7{fill:#428A9B;}
</style>
<path class="st0" d="M421.8,68.5H152.7c-6.6,0-12-5.4-12-12v-4.6L125,43.4l15.7-9.3v-3.7c0-6.6,5.4-12,12-12h269.1
	c6.6,0,12,5.4,12,12v26.2C433.8,63.1,428.4,68.5,421.8,68.5z"/>
<g>
	<path class="st1" d="M164.6,43.6l4.2,1.3c-0.3,1.2-0.7,2.2-1.3,2.9c-0.6,0.7-1.3,1.4-2.3,1.7c-0.9,0.4-2,0.6-3.5,0.6
		c-1.7,0-3-0.3-4.2-0.7c-1-0.4-2-1.3-2.8-2.6s-1.2-2.8-1.2-4.8c0-2.6,0.7-4.5,2-5.9s3.3-2,5.8-2c2,0,3.5,0.4,4.6,1.2s1.9,2,2.5,3.6
		l-4.2,1c-0.1-0.4-0.3-0.9-0.4-1c-0.3-0.4-0.6-0.6-1-0.9s-0.9-0.3-1.3-0.3c-1.2,0-1.9,0.4-2.5,1.3c-0.4,0.6-0.7,1.7-0.7,3
		c0,1.7,0.3,2.9,0.7,3.5c0.4,0.6,1.3,1,2.2,1c0.9,0,1.6-0.3,2-0.7C163.7,45.4,164.4,44.6,164.6,43.6z"/>
	<path class="st1" d="M171,34.5h4.3v5.8c0.6-0.6,1.2-1,1.7-1.3s1.3-0.4,2-0.4c1.2,0,2,0.3,2.8,1s1,1.7,1,3.3V50h-4.3v-6.2
		c0-0.7-0.1-1.2-0.4-1.4s-0.6-0.4-1.2-0.4c-0.6,0-1,0.1-1.3,0.6s-0.4,1.2-0.4,2.2V50h-4.3V34.5H171z"/>
	<path class="st1" d="M197.9,45.5h-8.7c0.1,0.7,0.3,1.2,0.6,1.6c0.4,0.4,1,0.7,1.6,0.7c0.4,0,0.9-0.1,1.2-0.3
		c0.3-0.1,0.4-0.4,0.7-0.7l4.2,0.4c-0.6,1.2-1.4,1.9-2.3,2.5c-0.9,0.4-2.2,0.7-3.9,0.7c-1.4,0-2.6-0.1-3.5-0.6
		c-0.9-0.4-1.6-1.2-2.2-2c-0.6-0.9-0.9-2-0.9-3.2c0-1.7,0.6-3.2,1.7-4.3c1.2-1.2,2.8-1.6,4.6-1.6c1.6,0,2.9,0.3,3.8,0.7
		s1.6,1.2,2.2,2.2c0.6,1,0.7,2.2,0.7,3.6L197.9,45.5L197.9,45.5z M193.6,43.3c-0.1-0.9-0.3-1.4-0.7-1.7c-0.4-0.3-0.9-0.6-1.4-0.6
		c-0.7,0-1.3,0.3-1.6,0.9c-0.3,0.3-0.4,0.9-0.4,1.4H193.6z"/>
	<path class="st1" d="M208.3,45.7l4.1,0.4c-0.3,0.9-0.6,1.6-1.2,2.2c-0.6,0.6-1.2,1.2-2,1.4c-0.9,0.3-1.9,0.6-3,0.6s-2.2-0.1-3-0.3
		c-0.7-0.3-1.4-0.6-2-1s-1-1-1.3-1.7s-0.4-1.6-0.4-2.6c0-1.2,0.1-2.2,0.6-2.9c0.3-0.6,0.7-1,1.2-1.4s1-0.7,1.6-1
		c0.9-0.3,1.9-0.6,3.2-0.6c1.9,0,3.2,0.3,4.2,1s1.6,1.6,2,2.9l-4.1,0.6c-0.1-0.4-0.3-0.9-0.7-1.2c-0.3-0.3-0.7-0.4-1.3-0.4
		c-0.7,0-1.3,0.3-1.7,0.7c-0.4,0.6-0.7,1.3-0.7,2.3c0,0.9,0.3,1.6,0.7,2.2c0.4,0.6,1,0.7,1.7,0.7c0.6,0,1-0.1,1.4-0.4
		C207.9,46.8,208.1,46.2,208.3,45.7z"/>
	<path class="st1" d="M214,34.5h4.3v8l3.2-3.8h5.4l-4.1,3.9l4.3,7.4h-4.9l-2.3-4.5l-1.6,1.6V50H214L214,34.5L214,34.5z"/>
	<path class="st1" d="M240.1,50V34.5h8c1.4,0,2.6,0.1,3.5,0.4c0.9,0.3,1.4,0.7,1.9,1.4s0.7,1.6,0.7,2.5c0,0.9-0.1,1.6-0.6,2.2
		c-0.4,0.6-0.9,1.2-1.4,1.6c-0.4,0.3-1,0.4-1.7,0.6c0.6,0.1,1,0.4,1.3,0.6c0.1,0.1,0.4,0.4,0.7,0.9s0.6,0.7,0.7,1l2.3,4.5h-5.5
		l-2.6-4.8c-0.3-0.6-0.6-1-0.9-1.2c-0.3-0.3-0.7-0.3-1.2-0.3h-0.4v6.4h-4.8L240.1,50L240.1,50z M244.9,40.7h2c0.3,0,0.6,0,1.3-0.1
		c0.3,0,0.6-0.3,0.7-0.4c0.1-0.3,0.3-0.6,0.3-0.9c0-0.4-0.1-0.9-0.4-1.2c-0.3-0.3-0.9-0.4-1.7-0.4h-2.2
		C244.9,37.7,244.9,40.7,244.9,40.7z"/>
	<path class="st1" d="M260.5,42.3l-4.1-0.4c0.1-0.7,0.4-1.3,0.7-1.7c0.3-0.4,0.7-0.7,1.3-1c0.4-0.3,0.9-0.4,1.6-0.6
		c0.7-0.1,1.4-0.1,2.3-0.1c1.3,0,2.3,0.1,3.2,0.3c0.9,0.1,1.4,0.4,2,0.9c0.4,0.3,0.7,0.7,0.9,1.3c0.1,0.6,0.3,1.2,0.3,1.7v4.9
		c0,0.6,0,1,0.1,1.3c0,0.3,0.1,0.7,0.4,1.2h-4.1c-0.1-0.3-0.3-0.6-0.3-0.7s-0.1-0.4-0.1-0.7c-0.6,0.6-1.2,0.9-1.7,1.2
		c-0.7,0.3-1.6,0.4-2.6,0.4c-1.3,0-2.3-0.3-3-0.9c-0.7-0.6-1-1.4-1-2.3s0.3-1.6,0.7-2.2c0.4-0.6,1.4-1,2.8-1.2
		c1.6-0.3,2.6-0.6,3.2-0.7c0.4-0.1,1-0.3,1.6-0.6c0-0.6-0.1-0.9-0.3-1.2s-0.6-0.3-1.2-0.3c-0.7,0-1.3,0.1-1.6,0.3
		C260.9,41.6,260.8,41.9,260.5,42.3z M264.3,44.6c-0.6,0.1-1.2,0.4-1.9,0.6c-0.9,0.3-1.4,0.4-1.6,0.7c-0.3,0.3-0.3,0.4-0.3,0.7
		s0.1,0.6,0.3,0.9c0.3,0.1,0.6,0.3,1,0.3s0.9-0.1,1.3-0.3c0.4-0.3,0.7-0.6,0.9-0.9c0.1-0.3,0.3-0.7,0.3-1.3
		C264.3,45.4,264.3,44.6,264.3,44.6z"/>
	<path class="st1" d="M271.1,38.7h4.1v1.9c0.6-0.7,1.2-1.3,1.9-1.6c0.6-0.3,1.3-0.4,2.3-0.4c1.2,0,2.2,0.3,2.8,1
		c0.7,0.7,1,1.7,1,3.3V50h-4.3v-6.2c0-0.7-0.1-1.2-0.4-1.4c-0.3-0.3-0.6-0.4-1.2-0.4c-0.6,0-1,0.1-1.3,0.6c-0.3,0.4-0.4,1.2-0.4,2.2
		V50h-4.3C271.1,50,271.1,38.7,271.1,38.7z"/>
	<path class="st1" d="M293.4,38.7h4.1v10.7v0.4c0,0.7-0.1,1.4-0.4,2c-0.3,0.6-0.7,1.2-1.2,1.6s-1.2,0.7-1.9,0.9
		c-0.7,0.1-1.6,0.3-2.6,0.3c-2.3,0-3.8-0.3-4.6-1s-1.3-1.6-1.3-2.8c0-0.1,0-0.3,0-0.6l4.2,0.4c0.1,0.4,0.3,0.7,0.4,0.9
		c0.3,0.3,0.7,0.3,1.2,0.3c0.6,0,1.2-0.1,1.4-0.4c0.3-0.3,0.4-0.9,0.4-1.7V48c-0.4,0.4-0.9,0.9-1.3,1.2c-0.7,0.3-1.4,0.6-2.2,0.6
		c-1.4,0-2.8-0.7-3.6-2c-0.7-0.9-1-2.2-1-3.8c0-1.7,0.4-3,1.3-4.1c0.9-1,2-1.4,3.3-1.4c0.9,0,1.6,0.1,2.2,0.4s1.2,0.7,1.6,1.4
		C293.4,40.3,293.4,38.7,293.4,38.7z M289.3,44.2c0,0.9,0.1,1.4,0.6,1.7c0.3,0.4,0.9,0.6,1.3,0.6c0.6,0,1-0.1,1.3-0.6
		c0.4-0.4,0.6-1,0.6-1.9c0-0.9-0.1-1.4-0.6-1.9c-0.4-0.4-0.9-0.7-1.4-0.7s-1,0.1-1.3,0.6C289.6,42.6,289.3,43.3,289.3,44.2z"/>
	<path class="st1" d="M312.7,45.5H304c0.1,0.7,0.3,1.2,0.6,1.6c0.4,0.4,1,0.7,1.6,0.7c0.4,0,0.9-0.1,1.2-0.3
		c0.3-0.1,0.4-0.4,0.7-0.7l4.2,0.4c-0.6,1.2-1.4,1.9-2.3,2.5c-0.9,0.4-2.2,0.7-3.9,0.7c-1.4,0-2.6-0.1-3.5-0.6
		c-0.9-0.4-1.6-1.2-2.2-2c-0.6-0.9-0.9-2-0.9-3.2c0-1.7,0.6-3.2,1.7-4.3c1.2-1.2,2.8-1.6,4.6-1.6c1.6,0,2.9,0.3,3.8,0.7
		s1.6,1.2,2.2,2.2s0.7,2.2,0.7,3.6L312.7,45.5L312.7,45.5z M308.2,43.3c-0.1-0.9-0.3-1.4-0.7-1.7S306.6,41,306,41
		c-0.7,0-1.3,0.3-1.6,0.9c-0.3,0.3-0.4,0.9-0.4,1.4C304,43.3,308.2,43.3,308.2,43.3z"/>
	<path class="st1" d="M322.4,34.5h4.8V50h-4.8V34.5z"/>
	<path class="st1" d="M330.4,38.7h4.1v1.9c0.6-0.7,1.2-1.3,1.9-1.6c0.6-0.3,1.3-0.4,2.3-0.4c1.2,0,2.2,0.3,2.8,1
		c0.7,0.7,1,1.7,1,3.3V50H338v-6.2c0-0.7-0.1-1.2-0.4-1.4c-0.3-0.3-0.6-0.4-1.2-0.4c-0.6,0-1,0.1-1.3,0.6c-0.3,0.4-0.4,1.2-0.4,2.2
		V50h-4.3C330.4,50,330.4,38.7,330.4,38.7z"/>
	<path class="st1" d="M353.3,45.7l4.1,0.4c-0.3,0.9-0.6,1.6-1.2,2.2c-0.6,0.6-1.2,1.2-2,1.4c-0.9,0.3-1.9,0.6-3,0.6
		c-1.2,0-2.2-0.1-3-0.3c-0.7-0.3-1.4-0.6-2-1s-1-1-1.3-1.7c-0.3-0.7-0.4-1.6-0.4-2.6c0-1.2,0.1-2.2,0.6-2.9c0.3-0.6,0.7-1,1.2-1.4
		s1-0.7,1.6-1c0.9-0.3,1.9-0.6,3.2-0.6c1.9,0,3.2,0.3,4.2,1s1.6,1.6,2,2.9l-4.1,0.6c-0.1-0.4-0.3-0.9-0.7-1.2
		c-0.3-0.3-0.7-0.4-1.3-0.4c-0.7,0-1.3,0.3-1.7,0.7c-0.4,0.6-0.7,1.3-0.7,2.3c0,0.9,0.3,1.6,0.7,2.2c0.4,0.6,1,0.7,1.7,0.7
		c0.6,0,1-0.1,1.4-0.4S353.1,46.2,353.3,45.7z"/>
	<path class="st1" d="M358.9,34.5h4.3V50h-4.3V34.5z"/>
	<path class="st1" d="M377.9,50h-4.1v-1.9c-0.6,0.7-1.2,1.3-1.9,1.6c-0.6,0.3-1.3,0.4-2.3,0.4c-1.2,0-2.2-0.3-2.8-1
		c-0.7-0.7-1-1.7-1-3.3v-7.2h4.3v6.2c0,0.7,0.1,1.2,0.4,1.4c0.3,0.3,0.6,0.4,1.2,0.4s0.9-0.1,1.3-0.6c0.3-0.4,0.4-1.2,0.4-2.2v-5.4
		h4.3V50z"/>
	<path class="st1" d="M392.4,34.5V50h-4.1v-1.6c-0.6,0.7-1,1.2-1.6,1.4s-1.3,0.4-2,0.4c-1.6,0-2.8-0.6-3.5-1.7
		c-0.9-1.2-1.2-2.6-1.2-4.2c0-1.9,0.4-3.3,1.3-4.3s2-1.4,3.5-1.4c0.7,0,1.3,0.1,1.9,0.3c0.6,0.3,1,0.6,1.4,1v-5.4H392.4z M388,44.4
		c0-0.9-0.1-1.6-0.6-2c-0.4-0.4-0.9-0.7-1.4-0.7c-0.4,0-0.9,0.1-1.3,0.6c-0.4,0.4-0.6,1.2-0.6,2.2c0,0.9,0.1,1.6,0.6,2
		c0.3,0.4,0.7,0.6,1.3,0.6s1-0.1,1.4-0.6C387.9,46,388,45.4,388,44.4z"/>
	<path class="st1" d="M407.4,45.5h-8.7c0.1,0.7,0.3,1.2,0.6,1.6c0.4,0.4,1,0.7,1.6,0.7c0.4,0,0.9-0.1,1.2-0.3
		c0.3-0.1,0.4-0.4,0.7-0.7l4.2,0.4c-0.6,1.2-1.4,1.9-2.3,2.5c-0.9,0.4-2.2,0.7-3.9,0.7c-1.4,0-2.6-0.1-3.5-0.6
		c-0.9-0.4-1.6-1.2-2.2-2c-0.6-0.9-0.9-2-0.9-3.2c0-1.7,0.6-3.2,1.7-4.3c1.2-1.2,2.8-1.6,4.6-1.6c1.6,0,2.9,0.3,3.8,0.7
		s1.6,1.2,2.2,2.2c0.6,1,0.7,2.2,0.7,3.6v0.3C407.3,45.5,407.4,45.5,407.4,45.5z M403.1,43.3c-0.1-0.9-0.3-1.4-0.7-1.7
		c-0.4-0.3-0.9-0.6-1.4-0.6c-0.7,0-1.3,0.3-1.6,0.9c-0.3,0.3-0.4,0.9-0.4,1.4C398.9,43.3,403.1,43.3,403.1,43.3z"/>
	<path class="st1" d="M408.8,46.8l4.3-0.4c0.1,0.6,0.4,0.9,0.7,1.2s0.7,0.3,1.3,0.3c0.6,0,1-0.1,1.3-0.4c0.3-0.1,0.4-0.4,0.4-0.7
		s-0.1-0.6-0.4-0.7c-0.3-0.1-0.9-0.3-1.9-0.4c-1.4-0.3-2.6-0.4-3.2-0.7c-0.6-0.3-1-0.6-1.4-1.2c-0.4-0.6-0.6-1.2-0.6-1.9
		c0-0.7,0.1-1.4,0.6-1.9c0.4-0.4,1-0.9,1.7-1.2c0.7-0.3,1.7-0.4,3-0.4c1.3,0,2.3,0.1,3,0.3c0.6,0.1,1.2,0.6,1.6,1s0.7,1,1,1.7
		l-4.1,0.4c-0.1-0.3-0.3-0.6-0.6-0.7c-0.3-0.3-0.7-0.3-1.2-0.3c-0.4,0-0.9,0.1-1,0.3c-0.3,0.1-0.3,0.4-0.3,0.6
		c0,0.3,0.1,0.4,0.4,0.6c0.3,0.1,0.9,0.3,1.9,0.4c1.4,0.1,2.5,0.4,3.2,0.7c0.7,0.3,1.3,0.7,1.6,1.3c0.4,0.6,0.6,1.2,0.6,1.7
		s-0.1,1.3-0.6,1.9c-0.4,0.6-1,1.2-1.9,1.4c-0.9,0.4-2,0.6-3.5,0.6c-2,0-3.5-0.3-4.3-0.9C409.8,48.8,409,48,408.8,46.8z"/>
</g>
<g>
	<path class="st2" d="M106,16.5h4.6c3,0,5.4,2.4,5.4,5.4V28c0,0.2,0,0.4,0,0.7l-2.3,18.8c-0.3,2.7-2.6,4.7-5.4,4.7l0,0
		c-2.7,0-5-2-5.4-4.7l-2.3-18.8c0-0.2,0-0.4,0-0.7v-6.1C100.6,18.9,103,16.5,106,16.5z M106.5,55.8h3.6c3,0,5.4,2.4,5.4,5.4v1.9
		c0,3-2.4,5.4-5.4,5.4h-3.6c-3,0-5.4-2.4-5.4-5.4v-1.9C101.1,58.2,103.5,55.8,106.5,55.8z"/>
</g>
<g>
	<g id="_x33_Dnsvt.tif">
		<g>
			<path class="st0" d="M28.2,60c-3-4.1-6.1-8.2-7.3-13.3c-1.1-4.6-0.6-8.8,1.8-12.9c5.7-9.7,14-14.8,25.3-15c1.9,0,2.7-0.5,2.5-2.4
				c-0.1-0.9,0-1.9,0.2-2.8c0.9-5.6,2.9-6.6,7.6-3.5c1.4,0.9,1.6,0.3,2.2-0.7c2.5-4.1,5.1-4.6,9-1.7c7.8,5.8,11,14.2,12.3,23.4
				c1.2,7.9,0,15.6-3.7,22.7c-1.9-1.7-1-4.7-3.1-6.3v0.1c-0.3-3.8-2.1-7.1-3.2-10.7c-0.4-1.5-1.2-1-2.1-0.6
				c-3.6,1.4-7.3,2.4-11.1,3.2c-6,1.2-12,0.8-18-0.3c-1.8-0.3-3.5-0.6-2.8,2.3c0.5,2.1,0.7,4.6-0.3,6.5c-2.2,4.5-2.6,9.2-2.9,14
				c-0.2,2.4-1.4,3.2-3.4,1.3C30.2,62.1,29.2,61.1,28.2,60z"/>
			<path class="st3" d="M74.9,47.5c2.1,1.6,1.2,4.6,3.1,6.3c0,4.2,0.4,7.5,0.1,12.3c0,0.2,0,0.5,0,0.7c-0.7,1.4-0.6,1.7-2.4,2.4
				c-5.7,0.5-10.1,1.1-15.3,1.6c-5.2,0.4-10.5,0.9-15.7,1.5c-3.4,0.4-6.5,0.9-10.3,0.9c-1.8-0.6-1.9-2.4-2.6-3.7
				c0.3-2.1-0.3-4.2-0.6-6.2c2,1.9,3.2,1.1,3.4-1.3c0.3-4.8,0.7-9.6,2.9-14c1-1.9,0.7-4.3,0.3-6.5c-0.6-2.9,1.1-2.6,2.8-2.3
				c6,1.1,12,1.5,18,0.3c3.8-0.8,7.5-1.7,11.1-3.2c0.9-0.4,1.7-0.8,2.1,0.6C72.9,40.5,74.7,43.8,74.9,47.5c-1.2-1.8-2.6-2.9-5.2-2.7
				s-5.2,0.5-7.7,0.8c-1.7,0.2-2.8,1.1-3.4,2.7c-0.8,2.5-1.9,2.2-3.2,0.3c-0.9-1.3-2.1-2-3.7-1.8c-3.5,0.4-7,0.7-10.5,1.3
				c-2.3,0.4-3.2,2.1-2.9,4.4c0.3,2.3,0.8,4.8,3.6,4.6c4.6-0.4,9.3-0.3,13.7-2.3c0.4,1.1-0.5,1.9-0.5,2.9s-1.2,2.2,0.5,2.9
				c1.8,0.8,3.6,0.6,5.2-0.6c1.4-1,0.3-2,0-3c-0.3-1.1-1.5-1.7-1.4-3c4,0.9,7.9-0.1,11.8-0.6c2.4-0.3,3.7-1.7,3.6-4.2
				C74.7,48.9,74.4,48.2,74.9,47.5z M44.6,44.4c0.9-0.1,2.1,0.1,2.2-1.4c0.1-1.1-0.8-1.2-1.7-1.1c-1,0.1-2.2,0.1-2.3,1.4
				C42.7,44.4,43.7,44.5,44.6,44.4z M66.2,39.5c-0.8,0.2-1.9,0.1-1.9,1.4c0,1,0.8,1,1.5,1c0.8,0,1.8,0,2-1
				C67.9,40,67.2,39.6,66.2,39.5z"/>
			<path class="st4" d="M31.2,63.2c0.3,2.1,0.9,4.1,0.6,6.2c-4.5-0.1-6.2-4.7-3.6-9.5C29.2,61.1,30.2,62.1,31.2,63.2z"/>
			<path class="st5" d="M74.9,47.5c-0.5,0.7-0.2,1.4-0.2,2.1c0.1,2.5-1.2,3.9-3.6,4.2c-3.9,0.5-7.8,1.4-11.8,0.6l0,0
				c0.3-1.3-0.1-2.2-1.5-2.2c-1.3,0-2.1,0.8-1.7,2.2l0,0c-0.5-0.1-0.6,0.3-0.7,0.7l0,0c-4.4,2-9.1,1.9-13.7,2.3
				c-2.8,0.2-3.3-2.3-3.6-4.6s0.7-4,2.9-4.4c3.5-0.6,7-0.9,10.5-1.3c1.6-0.2,2.8,0.5,3.7,1.8c1.3,1.9,2.4,2.2,3.2-0.3
				c0.5-1.7,1.7-2.6,3.4-2.7c2.6-0.3,5.2-0.5,7.7-0.8C72.4,44.6,73.8,45.7,74.9,47.5C75,47.6,74.9,47.5,74.9,47.5z M54.9,51.8
				c-0.1-2.5-1-3.9-3.6-3.6c-3.1,0.4-6.2,0.8-9.3,1.2c-2.2,0.3-2.7,1.7-2.4,3.6c0.3,2,1.1,3.4,3.4,3.1c3.1-0.4,6.2-0.7,9.3-1.2
				C54.1,54.7,55.1,53.6,54.9,51.8z M59.9,49.7c0.1,3.2,1.3,4.2,4.3,3.8c2.2-0.3,4.5-0.6,6.8-0.9c2.1-0.3,2.7-1.6,2.5-3.5
				c-0.2-2-1-3.5-3.3-3.2c-2.7,0.3-5.3,0.7-7.9,1.1C60.4,47.1,59.7,48,59.9,49.7z"/>
			<path class="st3" d="M59.3,54.3c-0.1,1.3,1.1,1.9,1.4,3c0.3,1,1.4,1.9,0,3c-1.7,1.2-3.4,1.3-5.2,0.6C53.8,60.2,55,59,55,58
				s1-1.8,0.5-2.9l0,0c0.5,0.1,0.7-0.2,0.7-0.7l0,0C57.2,54.4,58.3,54.4,59.3,54.3L59.3,54.3z"/>
			<path class="st0" d="M44.6,44.4c-0.9,0-1.9,0-1.8-1.1c0.1-1.4,1.3-1.3,2.3-1.4c0.9-0.1,1.8,0,1.7,1.1
				C46.7,44.5,45.5,44.3,44.6,44.4z"/>
			<path class="st5" d="M66.2,39.5c1,0.1,1.7,0.5,1.6,1.5c-0.2,1-1.1,1-2,1c-0.7,0-1.5,0-1.5-1C64.3,39.7,65.4,39.7,66.2,39.5z"/>
			<path class="st6" d="M54.9,51.8c0.2,1.8-0.8,2.9-2.6,3.1c-3.1,0.4-6.2,0.8-9.3,1.2c-2.3,0.3-3.1-1.1-3.4-3.1
				c-0.3-1.9,0.2-3.3,2.4-3.6c3.1-0.4,6.2-0.8,9.3-1.2C53.9,47.8,54.8,49.3,54.9,51.8z M48.1,51.8c0-0.7-0.3-1.3-1.2-1.3
				c-0.8,0-1.4,0.3-1.4,1.2c0,0.8,0.3,1.4,1.2,1.5C47.5,53.2,48,52.8,48.1,51.8z"/>
			<path class="st6" d="M59.9,49.7c-0.3-1.6,0.5-2.5,2.3-2.8c2.7-0.3,5.3-0.8,7.9-1.1c2.3-0.2,3.1,1.3,3.3,3.2
				c0.2,1.9-0.4,3.3-2.5,3.5c-2.3,0.3-4.5,0.6-6.8,0.9C61.2,53.9,60,52.9,59.9,49.7z M68.1,49.7c-0.1-0.9-0.6-1.3-1.4-1.3
				s-1.4,0.5-1.4,1.3c0,1,0.6,1.5,1.6,1.4C67.6,51.1,68.1,50.6,68.1,49.7z"/>
			<path class="st3" d="M59.3,54.4c-1.1,0-2.1,0-3.2,0c-0.4-1.5,0.4-2.3,1.7-2.2C59.2,52.1,59.7,53.1,59.3,54.4z"/>
			<path class="st3" d="M56.2,54.4c0,0.5-0.1,0.8-0.7,0.7C55.5,54.6,55.7,54.3,56.2,54.4z"/>
			<path class="st5" d="M48.1,51.8c-0.1,1-0.6,1.5-1.5,1.4s-1.2-0.6-1.2-1.5s0.6-1.2,1.4-1.2C47.8,50.5,48.1,51.1,48.1,51.8z"/>
			<path class="st5" d="M68.1,49.7c0,0.8-0.4,1.4-1.2,1.5c-1,0.1-1.6-0.5-1.6-1.4c0-0.8,0.6-1.3,1.4-1.3
				C67.4,48.4,68,48.9,68.1,49.7z"/>
		</g>
	</g>
	<circle class="st7" cx="57.7" cy="61.3" r="4.1"/>
</g>
</svg>
