<?xml version="1.0" encoding="UTF-8"?>
<svg id="Layer_1" data-name="Layer 1" xmlns="http://www.w3.org/2000/svg" version="1.1" viewBox="0 0 998.6 243.5">
  <defs>
    <style>
      .cls-1 {
        fill: #43318d;
      }

      .cls-1, .cls-2, .cls-3, .cls-4 {
        stroke-width: 0px;
      }

      .cls-2 {
        fill: #d83f87;
      }

      .cls-3 {
        fill: #fff;
      }

      .cls-4 {
        fill: #2a1b3c;
      }
    </style>
  </defs>
  <g>
    <path class="cls-3" d="M246.6,92c2.9,0,5.5.6,7.7,1.6,2.2,1.1,4.1,2.6,5.6,4.6,1.5,1.9,2.7,4.2,3.4,6.7.8,2.5,1.1,5.2,1.1,8.1s-.7,7.4-2,10.6c-1.4,3.2-3.4,5.7-6,7.6-2.6,1.9-5.9,2.8-9.8,2.8h-14.6c-.9,0-1.6-.3-2.2-.9-.6-.6-.9-1.3-.9-2.2v-35.9c0-.9.3-1.6.9-2.2.6-.6,1.3-.9,2.2-.9h14.6ZM246,128.2c2.8,0,5.1-.7,6.9-2.1,1.8-1.4,3.1-3.2,3.9-5.6.8-2.3,1.2-4.8,1.2-7.6s-.2-3.9-.7-5.8-1.2-3.5-2.2-4.9c-1-1.4-2.2-2.5-3.7-3.4-1.5-.8-3.3-1.2-5.4-1.2h-11.3l.5-.5v31.6l-.4-.6h11.2Z"/>
    <path class="cls-3" d="M286.9,99.9l-13.5,32.3c-.2.6-.6,1.1-1.1,1.5-.5.4-1,.5-1.6.5-.9,0-1.6-.2-2-.8-.4-.5-.7-1.1-.7-1.9s0-.6.2-1l15.2-36.8c.2-.7.6-1.2,1.2-1.6.5-.4,1.1-.5,1.8-.5.6,0,1.2.2,1.7.5.5.4.9.9,1.1,1.5l15.1,36.3c.2.4.2.8.2,1.2,0,.9-.3,1.6-.9,2.1-.6.5-1.2.8-2,.8s-1.2-.2-1.6-.6c-.5-.4-.9-.9-1.1-1.5l-13.6-32.2h1.6ZM275.8,123.7l2.7-5.8h17l1,5.8h-20.7Z"/>
    <path class="cls-3" d="M310.4,97.8c-.8,0-1.6-.3-2.2-.8-.6-.5-.9-1.2-.9-2.1s.3-1.6.9-2.1c.6-.5,1.3-.8,2.2-.8h27.2c.9,0,1.6.3,2.2.8s.9,1.2.9,2.1-.3,1.6-.9,2.1c-.6.5-1.3.8-2.2.8h-27.2ZM324,134c-1,0-1.7-.3-2.3-.9-.6-.6-.9-1.3-.9-2.2v-35.9h6.5v35.9c0,.9-.3,1.6-.9,2.2-.6.6-1.4.9-2.3.9Z"/>
    <path class="cls-3" d="M362.5,99.9l-13.5,32.3c-.2.6-.6,1.1-1.1,1.5-.5.4-1,.5-1.6.5-.9,0-1.6-.2-2-.8-.4-.5-.7-1.1-.7-1.9s0-.6.2-1l15.2-36.8c.2-.7.6-1.2,1.2-1.6.5-.4,1.1-.5,1.8-.5.6,0,1.2.2,1.7.5.5.4.9.9,1.1,1.5l15.1,36.3c.2.4.2.8.2,1.2,0,.9-.3,1.6-.9,2.1-.6.5-1.2.8-2,.8s-1.2-.2-1.6-.6c-.5-.4-.9-.9-1.1-1.5l-13.6-32.2h1.6ZM351.4,123.7l2.7-5.8h17l1,5.8h-20.7Z"/>
    <path class="cls-3" d="M420.3,92c2.9,0,5.5.6,7.7,1.6,2.2,1.1,4.1,2.6,5.6,4.6,1.5,1.9,2.7,4.2,3.4,6.7.8,2.5,1.1,5.2,1.1,8.1s-.7,7.4-2,10.6c-1.4,3.2-3.4,5.7-6,7.6-2.6,1.9-5.9,2.8-9.8,2.8h-14.6c-.9,0-1.6-.3-2.2-.9-.6-.6-.9-1.3-.9-2.2v-35.9c0-.9.3-1.6.9-2.2.6-.6,1.3-.9,2.2-.9h14.6ZM419.7,128.2c2.8,0,5.1-.7,6.9-2.1,1.8-1.4,3.1-3.2,3.9-5.6.8-2.3,1.2-4.8,1.2-7.6s-.2-3.9-.7-5.8-1.2-3.5-2.2-4.9c-1-1.4-2.2-2.5-3.7-3.4-1.5-.8-3.3-1.2-5.4-1.2h-11.3l.5-.5v31.6l-.4-.6h11.2Z"/>
    <path class="cls-3" d="M451.9,130.9c0,.9-.4,1.6-1,2.2-.6.6-1.3.9-2.2.9s-1.7-.3-2.3-.9c-.6-.6-.8-1.3-.8-2.2v-35.9c0-.9.3-1.6.9-2.2.6-.6,1.4-.9,2.3-.9s1.5.3,2.1.9c.6.6.9,1.3.9,2.2v35.9Z"/>
    <path class="cls-3" d="M474.5,134.6c-2.9,0-5.4-.4-7.7-1.2-2.2-.8-4.4-2.1-6.4-3.9-.4-.4-.8-.8-1-1.2-.2-.5-.3-.9-.3-1.4,0-.8.3-1.4.8-2,.6-.6,1.3-.9,2.1-.9s1.2.2,1.8.7c1.5,1.4,3.1,2.5,4.8,3.2,1.7.7,3.6,1.1,5.9,1.1s3.1-.3,4.4-.8c1.3-.5,2.4-1.2,3.2-2.1.8-.9,1.2-1.9,1.2-3.1,0-1.4-.5-2.6-1.3-3.5-.8-.9-2-1.7-3.5-2.3-1.5-.6-3.4-1.2-5.5-1.6-2-.4-3.8-.9-5.4-1.6-1.6-.6-3-1.4-4-2.4-1.1-1-2-2.1-2.5-3.5-.6-1.4-.9-2.9-.9-4.7s.6-4.5,1.9-6.3c1.3-1.8,3-3.2,5.2-4.1,2.2-1,4.7-1.4,7.4-1.4s4.9.4,7.1,1.2c2.2.8,4,1.8,5.3,3.2,1,.8,1.4,1.7,1.4,2.7s-.3,1.4-.9,2c-.6.6-1.3.9-2,.9s-1-.2-1.4-.5c-.6-.7-1.5-1.3-2.6-1.8s-2.2-1-3.5-1.3c-1.2-.4-2.4-.5-3.5-.5-1.8,0-3.3.2-4.6.8-1.3.5-2.3,1.2-2.9,2-.7.9-1,1.9-1,3.1s.4,2.5,1.2,3.3c.8.9,1.9,1.6,3.3,2.1,1.4.5,3,1,4.8,1.5,2.2.5,4.2,1,5.9,1.6s3.2,1.4,4.4,2.3c1.2.9,2.1,2.1,2.8,3.5.6,1.4,1,3.1,1,5.2s-.7,4.5-2,6.3c-1.4,1.8-3.2,3.2-5.4,4.2s-4.7,1.5-7.4,1.5Z"/>
    <path class="cls-3" d="M526.5,94.4c.9.4,1.4,1.1,1.5,2,.1.9-.1,1.8-.8,2.5-.4.6-1,1-1.7,1-.7,0-1.4,0-2.1-.4-1.1-.6-2.3-1.1-3.6-1.4-1.3-.4-2.7-.5-4-.5-2.3,0-4.3.4-6.2,1.1-1.8.8-3.4,1.8-4.7,3.2-1.3,1.4-2.3,3-3,4.9-.7,1.9-1.1,4-1.1,6.2s.4,4.8,1.1,6.7c.8,1.9,1.8,3.6,3.1,4.9,1.3,1.3,2.9,2.3,4.7,3,1.8.7,3.8,1,5.9,1s2.7-.2,4-.5c1.3-.3,2.5-.8,3.7-1.4.7-.4,1.4-.5,2.1-.4.7.1,1.3.5,1.7,1,.6.8.9,1.7.7,2.6-.2.9-.7,1.5-1.5,1.9-1,.6-2.1,1.1-3.3,1.5-1.2.4-2.4.7-3.7,1-1.2.2-2.5.3-3.8.3-2.9,0-5.6-.5-8.2-1.4-2.6-1-4.9-2.4-6.8-4.2-2-1.8-3.5-4.1-4.7-6.8-1.2-2.7-1.7-5.7-1.7-9.2s.5-5.9,1.6-8.5c1.1-2.6,2.6-4.9,4.5-6.8,1.9-1.9,4.2-3.4,6.8-4.5,2.6-1.1,5.4-1.6,8.5-1.6s3.8.2,5.6.7c1.8.5,3.5,1.2,5.1,2Z"/>
    <path class="cls-3" d="M573.1,113c0,3-.5,5.9-1.5,8.5-1,2.6-2.4,4.9-4.2,6.9-1.8,2-4,3.5-6.5,4.6-2.5,1.1-5.2,1.6-8.2,1.6s-5.7-.6-8.1-1.6c-2.5-1.1-4.6-2.6-6.4-4.6-1.8-2-3.2-4.2-4.2-6.9-1-2.6-1.5-5.4-1.5-8.5s.5-5.9,1.5-8.5c1-2.6,2.4-4.9,4.2-6.9,1.8-2,4-3.5,6.4-4.6,2.5-1.1,5.2-1.6,8.1-1.6s5.7.6,8.2,1.6c2.5,1.1,4.6,2.6,6.5,4.6,1.8,2,3.2,4.3,4.2,6.9,1,2.6,1.5,5.5,1.5,8.5ZM566.7,113c0-3-.6-5.6-1.8-8-1.2-2.4-2.8-4.2-4.9-5.6-2.1-1.4-4.5-2-7.2-2s-5.1.7-7.1,2c-2.1,1.4-3.7,3.2-4.9,5.6-1.2,2.3-1.7,5-1.7,8s.6,5.6,1.7,8c1.2,2.4,2.8,4.2,4.9,5.6,2.1,1.4,4.5,2,7.1,2s5.1-.7,7.2-2c2.1-1.4,3.7-3.2,4.9-5.6,1.2-2.4,1.8-5,1.8-8Z"/>
    <path class="cls-3" d="M611.1,91.9c.8,0,1.6.3,2.2.8.6.6.9,1.3.9,2.1s0,.8-.3,1.3l-15.2,35.9c-.3.7-.8,1.2-1.3,1.5-.5.3-1.1.5-1.7.5-.6,0-1.1-.2-1.6-.5-.5-.3-.9-.8-1.2-1.4l-15.2-35.9c-.1-.2-.2-.4-.2-.6,0-.2,0-.4,0-.6,0-1,.3-1.7,1-2.2.7-.5,1.4-.8,2-.8,1.3,0,2.2.7,2.8,2l13.7,32.6h-1.7l13-32.6c.6-1.3,1.5-1.9,2.8-1.9Z"/>
    <path class="cls-3" d="M624,92h20.7c.9,0,1.6.3,2.2.8.6.6.9,1.3.9,2.1s-.3,1.5-.9,2c-.6.5-1.3.8-2.2.8h-18.1l.6-1v13.4l-.5-.6h15.3c.9,0,1.6.3,2.2.8.6.6.9,1.3.9,2.2s-.3,1.5-.9,2c-.6.5-1.3.8-2.2.8h-15.2l.4-.5v13.9l-.4-.5h17.9c.9,0,1.6.3,2.2.9.6.6.9,1.3.9,2s-.3,1.5-.9,2.1-1.3.8-2.2.8h-20.7c-.9,0-1.6-.3-2.2-.9-.6-.6-.9-1.3-.9-2.2v-35.9c0-.9.3-1.6.9-2.2.6-.6,1.3-.9,2.2-.9Z"/>
    <path class="cls-3" d="M658.8,134c-1,0-1.8-.3-2.5-.9-.7-.6-1.1-1.3-1.1-2.2v-35.9c0-.9.3-1.6.9-2.2.6-.6,1.3-.9,2.2-.9h16.9c2.2,0,4.1.5,5.9,1.6,1.8,1.1,3.2,2.5,4.3,4.4,1.1,1.9,1.7,4,1.7,6.4s-.3,3.1-1,4.6c-.6,1.4-1.5,2.7-2.6,3.8-1.1,1.1-2.3,2-3.7,2.6l-.7-1.2c1.2.5,2.3,1.1,3.2,1.9.9.8,1.6,1.8,2.2,2.9.5,1.1.8,2.3.9,3.7.1,1.2.2,2.3.3,3.1,0,.8.2,1.5.5,2,.2.5.6.9,1.1,1.2.7.4,1.2,1,1.3,1.8.2.8,0,1.5-.5,2.2-.4.5-.8.8-1.4.9-.6.1-1.1.2-1.7,0-.6,0-1-.2-1.4-.5-.7-.4-1.3-1-2-1.7-.6-.7-1.2-1.8-1.6-3.1-.4-1.3-.6-3.1-.6-5.2s-.2-1.8-.5-2.5c-.3-.7-.8-1.3-1.3-1.8-.6-.5-1.2-.8-2-1-.8-.2-1.6-.3-2.5-.3h-12.7l.8-1.3v14.3c0,.9-.2,1.6-.7,2.2-.5.6-1.1.9-2,.9ZM660.7,112.6h14.3c.9,0,1.8-.4,2.6-1.1.8-.7,1.5-1.6,2.1-2.9.6-1.2.8-2.6.8-4.1s-.6-3.5-1.7-4.8c-1.1-1.3-2.5-2-4-2h-14l.7-1.5v17.6l-.8-1.3Z"/>
    <path class="cls-3" d="M722.3,91.8c.8,0,1.4.3,2.1.9.6.6.9,1.3.9,2.2s0,.6-.2,1c0,.3-.2.6-.4.9l-13.7,19.4,1-3.5v18.3c0,.9-.3,1.6-.9,2.2-.6.6-1.3.9-2,.9s-1.6-.3-2.2-.9c-.6-.6-.9-1.3-.9-2.2v-17.8l.5,1.7-13.3-17.7c-.3-.4-.5-.8-.7-1.2-.1-.4-.2-.8-.2-1.1,0-.9.3-1.6,1-2.2.7-.6,1.4-.8,2.1-.8s1.8.5,2.5,1.4l12,16.4-1.4-.2,11.3-16.1c.7-1,1.5-1.5,2.5-1.5Z"/>
    <path class="cls-3" d="M750.9,92h20.7c.9,0,1.6.3,2.2.8.6.6.9,1.3.9,2.1s-.3,1.5-.9,2c-.6.5-1.3.8-2.2.8h-18.1l.6-1v13.4l-.5-.6h15.3c.9,0,1.6.3,2.2.8.6.6.9,1.3.9,2.2s-.3,1.5-.9,2c-.6.5-1.3.8-2.2.8h-15.2l.4-.5v13.9l-.4-.5h17.9c.9,0,1.6.3,2.2.9.6.6.9,1.3.9,2s-.3,1.5-.9,2.1-1.3.8-2.2.8h-20.7c-.9,0-1.6-.3-2.2-.9-.6-.6-.9-1.3-.9-2.2v-35.9c0-.9.3-1.6.9-2.2.6-.6,1.3-.9,2.2-.9Z"/>
    <path class="cls-3" d="M813.6,92c.8,0,1.4.3,1.9.8s.8,1.2.8,2v36.1c0,.9-.3,1.6-.9,2.2-.6.6-1.3.9-2.2.9s-.9,0-1.3-.2c-.4-.2-.8-.4-1-.7l-24.7-31.9,1.4-.8v30.9c0,.8-.3,1.4-.8,1.9s-1.2.8-2,.8-1.5-.3-2-.8c-.5-.5-.8-1.2-.8-1.9v-36.2c0-.9.3-1.6.9-2.2.6-.6,1.3-.9,2.2-.9s.9,0,1.4.3c.5.2.9.5,1.1.8l24.1,31.3-.9.8v-30.4c0-.8.2-1.5.8-2s1.2-.8,2-.8Z"/>
    <path class="cls-3" d="M845.5,134.6c-3.1,0-5.9-.6-8.6-1.6-2.6-1.1-4.9-2.6-6.9-4.6-2-2-3.6-4.3-4.7-6.9-1.1-2.6-1.7-5.4-1.7-8.5s.6-5.9,1.7-8.5c1.1-2.6,2.7-4.9,4.7-6.9,2-2,4.3-3.5,6.9-4.6,2.6-1.1,5.5-1.6,8.6-1.6s3.8.2,5.7.7c1.8.4,3.5,1.1,5,1.9.5.3.9.7,1.1,1.1.2.5.4.9.4,1.4,0,.8-.3,1.5-.8,2.1-.6.6-1.2.9-2,.9s-.6,0-.8-.1c-.3,0-.6-.2-.8-.3-1.1-.5-2.3-.9-3.6-1.3-1.3-.3-2.6-.5-4-.5-2.9,0-5.5.7-7.8,2.1-2.3,1.4-4.1,3.3-5.5,5.6-1.3,2.3-2,5-2,7.9s.7,5.5,2,7.9c1.3,2.4,3.2,4.3,5.5,5.6,2.3,1.4,4.9,2.1,7.8,2.1s2.9-.2,4.4-.5c1.6-.3,2.9-.8,4-1.3l-.5,1.6v-11.4l1,.8h-7.9c-.9,0-1.6-.3-2.2-.8-.6-.6-.9-1.3-.9-2.2s.3-1.6.9-2.2c.6-.6,1.3-.8,2.2-.8h10.3c.9,0,1.6.3,2.2.9.6.6.9,1.3.9,2.2v13.3c0,.6-.2,1.2-.5,1.6-.3.4-.7.8-1.1,1.1-1.8,1.1-3.9,2-6,2.7-2.2.7-4.5,1-6.8,1Z"/>
    <path class="cls-3" d="M874.1,130.9c0,.9-.4,1.6-1,2.2-.6.6-1.3.9-2.2.9s-1.7-.3-2.3-.9c-.6-.6-.8-1.3-.8-2.2v-35.9c0-.9.3-1.6.9-2.2.6-.6,1.4-.9,2.3-.9s1.5.3,2.1.9c.6.6.9,1.3.9,2.2v35.9Z"/>
    <path class="cls-3" d="M915.3,92c.8,0,1.4.3,1.9.8s.8,1.2.8,2v36.1c0,.9-.3,1.6-.9,2.2-.6.6-1.3.9-2.2.9s-.9,0-1.3-.2c-.4-.2-.8-.4-1-.7l-24.7-31.9,1.4-.8v30.9c0,.8-.3,1.4-.8,1.9s-1.2.8-2,.8-1.5-.3-2-.8c-.5-.5-.8-1.2-.8-1.9v-36.2c0-.9.3-1.6.9-2.2.6-.6,1.3-.9,2.2-.9s.9,0,1.4.3c.5.2.9.5,1.1.8l24.1,31.3-.9.8v-30.4c0-.8.2-1.5.8-2s1.2-.8,2-.8Z"/>
    <path class="cls-3" d="M930.9,92h20.7c.9,0,1.6.3,2.2.8.6.6.9,1.3.9,2.1s-.3,1.5-.9,2c-.6.5-1.3.8-2.2.8h-18.1l.6-1v13.4l-.5-.6h15.3c.9,0,1.6.3,2.2.8.6.6.9,1.3.9,2.2s-.3,1.5-.9,2c-.6.5-1.3.8-2.2.8h-15.2l.4-.5v13.9l-.4-.5h17.9c.9,0,1.6.3,2.2.9.6.6.9,1.3.9,2s-.3,1.5-.9,2.1-1.3.8-2.2.8h-20.7c-.9,0-1.6-.3-2.2-.9-.6-.6-.9-1.3-.9-2.2v-35.9c0-.9.3-1.6.9-2.2.6-.6,1.3-.9,2.2-.9Z"/>
  </g>
  <g>
    <path class="cls-3" d="M140.6,198.4c-47.1,0-85.5-38.4-85.5-85.5S93.4,27.4,140.6,27.4h2.2v24.5c9.4.3,18.7,2.9,26.9,7.3,3.5,1.9,6.7,4.1,9.7,6.5,3,2.5,5.8,5.2,8.3,8.3,1.9,2.3,3.6,4.7,5.1,7.2,1,1.7,1.9,3.4,2.8,5.2.9,1.8,1.6,3.6,2.3,5.5,1.7,4.8,2.9,9.7,3.4,14.7.2,2.1.3,4.2.3,6.2,0,33-26.2,59.8-58.9,61v24.5h-2.2v.2Z"/>
    <path class="cls-1" d="M140.6,196.2c-46,0-83.3-37.3-83.3-83.3S94.6,29.6,140.6,29.6"/>
    <circle class="cls-3" cx="140.6" cy="112.9" r="58.9"/>
    <path class="cls-4" d="M140.2,88.5v-17.2c-23,0-41.6,18.6-41.6,41.6s18.6,41.6,41.6,41.6v-17.2c-10.8,0-19.9-7-23.1-16.6h23.1v-14.1h-23.5c2.8-10.4,12.2-18.1,23.5-18.1h0Z"/>
    <path class="cls-2" d="M140.6,54v17.3c22.9,0,41.6,18.6,41.6,41.6s-18.6,41.6-41.6,41.6v17.3c32.5,0,58.9-26.4,58.9-58.9s-26.4-58.9-58.9-58.9h0Z"/>
  </g>
</svg>