<?xml version="1.0" encoding="UTF-8"?>
<svg id="Layer_3" data-name="Layer 3" xmlns="http://www.w3.org/2000/svg" version="1.1" viewBox="0 0 1920 1080">
  <defs>
    <style>
      .cls-1 {
        fill: #43318d;
      }

      .cls-1, .cls-2, .cls-3 {
        stroke-width: 0px;
      }

      .cls-2 {
        fill: #8265a7;
      }

      .cls-3 {
        fill: #2a1b3c;
      }
    </style>
  </defs>
  <path class="cls-3" d="M1093.2,1051.2v-99c-131.7,0-238.5-106.8-238.5-238.5s106.8-238.5,238.5-238.5v-99c-186.4,0-337.5,151.1-337.5,337.5s151.1,337.5,337.5,337.5Z"/>
  <path class="cls-1" d="M0,246.6s224.1-148.9,621.8,142.4c675.6,494.9,1298.2-224.3,1298.2-224.3v315.1s-385,491.3-1041.1,377.4C222.9,743.2,149.8,672,0,803.8V246.6Z"/>
  <path class="cls-3" d="M0,426.4s204.6-131.3,639.2,69.4c819.5,378.5,1280.8-331.1,1280.8-331.1v144.2s-332.1,567.9-1126.1,429S0,912.3,0,912.3v-485.9Z"/>
  <path class="cls-2" d="M1093.2,474.5v70.2c93.3,0,169,75.7,169,169s-75.7,169-169,169v70.2c132.1,0,239.2-107.1,239.2-239.2s-107.1-239.2-239.2-239.2Z"/>
</svg>