<?xml version="1.0" encoding="UTF-8"?>
<svg id="Layer_1" data-name="Layer 1" xmlns="http://www.w3.org/2000/svg" version="1.1" viewBox="0 0 360.9 322">
  <defs>
    <style>
      .cls-1 {
        fill: #43318d;
      }

      .cls-1, .cls-2, .cls-3, .cls-4 {
        stroke-width: 0px;
      }

      .cls-2 {
        fill: #d83f87;
      }

      .cls-3 {
        fill: #fff;
      }

      .cls-4 {
        fill: #2a1b3c;
      }
    </style>
  </defs>
  <path class="cls-3" d="M203,319c-87.1,0-158-70.9-158-158S115.9,3,203,3h4v45.2c17.4.6,34.5,5.3,49.8,13.5,6.4,3.5,12.4,7.5,18,12.1,5.6,4.6,10.7,9.7,15.3,15.3,3.5,4.2,6.6,8.6,9.4,13.3,1.9,3.1,3.6,6.3,5.2,9.6,1.6,3.3,3,6.7,4.3,10.1,3.2,8.8,5.3,17.9,6.3,27.2.4,3.8.6,7.7.6,11.5,0,60.9-48.4,110.6-108.8,112.7v45.2h-4v.3Z"/>
  <path class="cls-1" d="M203,315c-85,0-154-68.9-154-154S118,7,203,7"/>
  <circle class="cls-3" cx="203" cy="161" r="108.8"/>
  <path class="cls-4" d="M202.4,115.9v-31.8c-42.5,0-76.9,34.4-76.9,76.9s34.4,76.9,76.9,76.9v-31.8c-19.9,0-36.7-12.9-42.7-30.7h42.7v-26.1h-43.5c5.1-19.2,22.6-33.4,43.5-33.4h0Z"/>
  <path class="cls-2" d="M203,52.2v31.9c42.4,0,76.9,34.4,76.9,76.9s-34.4,76.9-76.9,76.9v31.9c60.1,0,108.8-48.7,108.8-108.8s-48.7-108.8-108.8-108.8h0Z"/>
</svg>