<?xml version="1.0" encoding="UTF-8"?>
<svg id="Layer_3" data-name="Layer 3" xmlns="http://www.w3.org/2000/svg" version="1.1" viewBox="0 0 2805.6 1080">
  <defs>
    <style>
      .cls-1 {
        fill: #23b5b5;
      }

      .cls-1, .cls-2, .cls-3, .cls-4, .cls-5, .cls-6, .cls-7, .cls-8, .cls-9, .cls-10, .cls-11, .cls-12, .cls-13, .cls-14, .cls-15, .cls-16, .cls-17, .cls-18, .cls-19 {
        stroke-width: 0px;
      }

      .cls-20 {
        stroke: #d83f87;
        stroke-width: 10px;
      }

      .cls-20, .cls-21, .cls-22, .cls-23, .cls-24 {
        stroke-miterlimit: 10;
      }

      .cls-20, .cls-22, .cls-23, .cls-25, .cls-24 {
        fill: none;
      }

      .cls-21 {
        stroke: #43318d;
        stroke-width: 9px;
      }

      .cls-21, .cls-17 {
        fill: #fff;
      }

      .cls-2 {
        fill: #fabb06;
      }

      .cls-3 {
        fill: #e94335;
      }

      .cls-4 {
        fill: #cecece;
      }

      .cls-5 {
        fill: #34a853;
      }

      .cls-6 {
        fill: #a4b3b7;
      }

      .cls-7 {
        fill: #f7b716;
      }

      .cls-8 {
        fill: #f4f4f4;
      }

      .cls-22 {
        stroke: #4874ff;
        stroke-width: 7px;
      }

      .cls-22, .cls-23, .cls-25, .cls-24 {
        stroke-linecap: round;
      }

      .cls-23 {
        stroke-width: 4px;
      }

      .cls-23, .cls-25 {
        stroke: #fff;
      }

      .cls-25 {
        stroke-miterlimit: 10;
        stroke-width: 4px;
      }

      .cls-9 {
        fill: #43318d;
      }

      .cls-24 {
        stroke: #cecece;
        stroke-width: 3px;
      }

      .cls-10 {
        fill: #4285f3;
      }

      .cls-11 {
        fill: #dd3c57;
      }

      .cls-12 {
        fill: #fff200;
      }

      .cls-12, .cls-13, .cls-14, .cls-26, .cls-19 {
        isolation: isolate;
      }

      .cls-12, .cls-13, .cls-19 {
        opacity: .3;
      }

      .cls-13, .cls-14 {
        fill: #cd00ff;
      }

      .cls-14 {
        opacity: .6;
      }

      .cls-15 {
        fill: #8265a7;
      }

      .cls-16 {
        fill: #d83f87;
      }

      .cls-18 {
        fill: #2a1b3c;
      }

      .cls-19 {
        fill: #0af;
      }
    </style>
  </defs>
  <path class="cls-16" d="M1480.5,165.8v109.7c145.8,0,264.5,118.3,264.5,264.5s-118.3,264.5-264.5,264.5v109.7c206.7,0,374.2-167.5,374.2-374.2s-167.5-374.2-374.2-374.2h0Z"/>
  <path class="cls-9" d="M1480.5,1069.6v-155.3c-206.4,0-374.3-167.5-374.3-374.3s167.5-374.3,374.3-374.3V10.4c-292.6,0-529.6,237.1-529.6,529.6s237.1,529.6,529.6,529.6h0Z"/>
  <circle class="cls-18" cx="1472.7" cy="540" r="274.8"/>
  <rect class="cls-18" width="304.6" height="1080"/>
  <circle class="cls-13" cx="1414.9" cy="640.2" r="157.8"/>
  <circle class="cls-12" cx="1415.1" cy="439.8" r="157.8"/>
  <circle class="cls-19" cx="1589.7" cy="522.3" r="157.8"/>
  <g class="cls-26">
    <g class="cls-26">
      <path class="cls-17" d="M1388.9,530.6l3.2-.3c.2,1.3.5,2.3,1.1,3.2s1.4,1.5,2.6,2,2.5.8,4,.8,2.4-.2,3.4-.6,1.7-.9,2.2-1.6.7-1.4.7-2.2-.2-1.5-.7-2.1-1.2-1.1-2.3-1.5c-.7-.3-2.2-.7-4.6-1.3s-4-1.1-5-1.6c-1.2-.6-2.1-1.4-2.8-2.4s-.9-2-.9-3.2.4-2.5,1.1-3.6,1.8-2,3.2-2.6,3-.9,4.7-.9,3.6.3,5.1.9,2.6,1.5,3.4,2.7,1.2,2.5,1.3,4.1l-3.3.2c-.2-1.6-.8-2.9-1.8-3.7s-2.5-1.2-4.5-1.2-3.6.4-4.5,1.1-1.4,1.7-1.4,2.7.3,1.7,1,2.3c.7.6,2.4,1.2,5.1,1.8s4.7,1.2,5.7,1.6c1.5.7,2.6,1.6,3.3,2.6s1.1,2.3,1.1,3.7-.4,2.7-1.2,3.9-1.9,2.2-3.4,2.8-3.1,1-5,1-4.3-.3-5.9-1-2.8-1.7-3.7-3.1-1.4-2.9-1.4-4.6Z"/>
      <path class="cls-17" d="M1425.9,532.1l3.1.4c-.3,2.1-1.2,3.8-2.6,5s-3.1,1.8-5.2,1.8-4.6-.8-6.2-2.5-2.3-4.1-2.3-7.2.3-3.8,1-5.3,1.7-2.6,3-3.4,2.9-1.1,4.5-1.1,3.7.5,5,1.5,2.1,2.5,2.5,4.4l-3.1.5c-.3-1.3-.8-2.2-1.6-2.8s-1.6-.9-2.7-.9c-1.6,0-2.9.6-3.9,1.7s-1.5,3-1.5,5.4.5,4.3,1.4,5.5,2.2,1.7,3.8,1.7,2.3-.4,3.1-1.1,1.4-1.9,1.6-3.5Z"/>
      <path class="cls-17" d="M1431.7,538.9v-25.8h3.2v9.2c1.5-1.7,3.3-2.6,5.6-2.6s2.6.3,3.6.8,1.7,1.3,2.2,2.3.7,2.4.7,4.2v11.8h-3.2v-11.8c0-1.6-.3-2.7-1-3.5s-1.7-1.1-2.9-1.1-1.8.2-2.6.7-1.4,1.1-1.8,2-.5,2-.5,3.4v10.2h-3.2Z"/>
      <path class="cls-17" d="M1464.5,532.9l3.3.4c-.5,1.9-1.5,3.4-2.9,4.4s-3.2,1.6-5.3,1.6-4.9-.8-6.5-2.5-2.4-4-2.4-7.1.8-5.6,2.4-7.3,3.7-2.6,6.3-2.6,4.5.8,6.1,2.5,2.4,4.1,2.4,7.2,0,.5,0,.8h-13.9c.1,2.1.7,3.6,1.7,4.7s2.3,1.6,3.9,1.6,2.2-.3,3-.9,1.5-1.6,2-2.9ZM1454.1,527.8h10.4c-.1-1.6-.5-2.7-1.2-3.5-1-1.2-2.3-1.8-3.9-1.8s-2.7.5-3.7,1.5-1.5,2.3-1.6,3.9Z"/>
      <path class="cls-17" d="M1471.7,538.9v-18.7h2.8v2.6c.6-.9,1.4-1.6,2.3-2.2s2.1-.8,3.3-.8,2.5.3,3.4.9,1.5,1.4,1.9,2.4c1.5-2.2,3.4-3.3,5.8-3.3s3.3.5,4.3,1.5,1.5,2.6,1.5,4.7v12.8h-3.1v-11.8c0-1.3-.1-2.2-.3-2.7s-.6-1-1.1-1.3-1.2-.5-1.9-.5c-1.3,0-2.4.4-3.3,1.3s-1.3,2.3-1.3,4.2v10.8h-3.2v-12.1c0-1.4-.3-2.5-.8-3.2s-1.4-1.1-2.5-1.1-1.7.2-2.5.7-1.3,1.2-1.6,2.1-.5,2.2-.5,3.9v9.7h-3.2Z"/>
      <path class="cls-17" d="M1513.9,536.6c-1.2,1-2.3,1.7-3.4,2.1s-2.2.6-3.5.6c-2.1,0-3.6-.5-4.7-1.5s-1.7-2.3-1.7-3.8.2-1.7.6-2.5,1-1.4,1.6-1.8,1.4-.8,2.3-1c.6-.2,1.6-.3,2.8-.5,2.6-.3,4.4-.7,5.6-1.1,0-.4,0-.7,0-.8,0-1.3-.3-2.2-.9-2.7-.8-.7-2-1.1-3.6-1.1s-2.6.3-3.3.8-1.2,1.4-1.6,2.8l-3.1-.4c.3-1.3.7-2.4,1.4-3.2s1.6-1.4,2.8-1.9,2.6-.7,4.2-.7,2.9.2,3.9.6,1.7.8,2.2,1.4.8,1.3,1,2.2c.1.5.2,1.5.2,2.9v4.2c0,2.9,0,4.8.2,5.6s.4,1.5.8,2.2h-3.3c-.3-.7-.5-1.4-.6-2.3ZM1513.6,529.5c-1.1.5-2.9.9-5.2,1.2-1.3.2-2.2.4-2.8.6s-1,.6-1.2,1-.4,1-.4,1.5c0,.8.3,1.5,1,2.1s1.6.8,2.8.8,2.3-.3,3.3-.8,1.6-1.3,2.1-2.2c.3-.7.5-1.8.5-3.2v-1.2Z"/>
      <path class="cls-17" d="M1522.6,538.9v-3.6h3.6v3.6h-3.6Z"/>
      <path class="cls-17" d="M1530.6,529.6c0-3.5,1-6,2.9-7.7,1.6-1.4,3.6-2.1,5.9-2.1s4.7.8,6.3,2.5,2.4,4,2.4,7-.4,4.3-1.1,5.7-1.8,2.4-3.1,3.2-2.9,1.1-4.5,1.1c-2.6,0-4.7-.8-6.3-2.5s-2.4-4.1-2.4-7.2ZM1533.8,529.6c0,2.4.5,4.2,1.6,5.4s2.4,1.8,3.9,1.8,2.9-.6,3.9-1.8,1.6-3,1.6-5.5-.5-4.1-1.6-5.2-2.4-1.8-3.9-1.8-2.9.6-3.9,1.8-1.6,3-1.6,5.4Z"/>
      <path class="cls-17" d="M1551.7,538.9v-18.7h2.8v2.8c.7-1.3,1.4-2.2,2-2.6s1.3-.6,2-.6c1.1,0,2.2.3,3.3,1l-1.1,2.9c-.8-.5-1.5-.7-2.3-.7s-1.3.2-1.9.6-.9,1-1.2,1.7c-.4,1.1-.5,2.4-.5,3.7v9.8h-3.2Z"/>
      <path class="cls-17" d="M1563.2,540.4l3.1.5c.1.9.5,1.6,1.1,2.1.8.6,1.9.9,3.2.9s2.6-.3,3.4-.9,1.3-1.4,1.6-2.5c.2-.6.2-2,.2-4.1-1.4,1.6-3.1,2.4-5.2,2.4s-4.6-.9-6-2.8-2.1-4.1-2.1-6.7.3-3.4,1-4.9,1.6-2.7,2.8-3.5,2.7-1.2,4.3-1.2,4,.9,5.4,2.7v-2.2h2.9v16.1c0,2.9-.3,5-.9,6.2s-1.5,2.2-2.8,2.9-2.9,1.1-4.7,1.1-4-.5-5.4-1.5-2-2.5-2-4.5ZM1565.8,529.2c0,2.4.5,4.2,1.5,5.4s2.2,1.7,3.7,1.7,2.7-.6,3.7-1.7,1.5-2.9,1.5-5.3-.5-4-1.5-5.2-2.2-1.7-3.7-1.7-2.6.6-3.6,1.7-1.5,2.8-1.5,5.1Z"/>
    </g>
  </g>
  <g class="cls-26">
    <g class="cls-26">
      <path class="cls-17" d="M1296.9,409.9v-24.3h4.8l5.8,17.2c.5,1.6.9,2.8,1.2,3.6.3-.9.7-2.2,1.3-3.9l5.8-16.9h4.3v24.3h-3.1v-20.4l-7.1,20.4h-2.9l-7-20.7v20.7h-3.1Z"/>
      <path class="cls-17" d="M1337,404.2l3.1.4c-.5,1.8-1.4,3.2-2.7,4.2-1.3,1-3,1.5-5,1.5s-4.6-.8-6.1-2.4c-1.5-1.6-2.3-3.8-2.3-6.7s.8-5.3,2.3-6.9,3.5-2.5,5.9-2.5,4.3.8,5.8,2.4,2.2,3.9,2.2,6.8,0,.4,0,.8h-13.1c.1,1.9.7,3.4,1.6,4.4,1,1,2.2,1.5,3.7,1.5s2-.3,2.8-.9c.8-.6,1.4-1.5,1.8-2.8ZM1327.2,399.4h9.8c-.1-1.5-.5-2.6-1.1-3.3-1-1.2-2.2-1.7-3.7-1.7s-2.5.5-3.5,1.4c-.9.9-1.5,2.1-1.6,3.7Z"/>
      <path class="cls-17" d="M1350.4,407.2l.4,2.6c-.8.2-1.6.3-2.3.3-1.1,0-1.9-.2-2.5-.5s-1-.8-1.3-1.4c-.2-.6-.4-1.7-.4-3.5v-10.1h-2.2v-2.3h2.2v-4.4l3-1.8v6.2h3v2.3h-3v10.3c0,.9,0,1.4.2,1.6.1.2.3.4.5.6.2.1.6.2,1,.2s.8,0,1.3-.1Z"/>
      <path class="cls-17" d="M1364.8,407.7c-1.1.9-2.2,1.6-3.2,2-1,.4-2.1.6-3.3.6-1.9,0-3.4-.5-4.5-1.4-1-.9-1.6-2.2-1.6-3.6s.2-1.7.6-2.4c.4-.7.9-1.3,1.5-1.7.6-.4,1.4-.8,2.2-1,.6-.2,1.5-.3,2.7-.4,2.4-.3,4.2-.6,5.3-1,0-.4,0-.7,0-.8,0-1.2-.3-2.1-.8-2.6-.8-.7-1.9-1-3.4-1s-2.4.2-3.1.7c-.7.5-1.2,1.4-1.5,2.6l-2.9-.4c.3-1.3.7-2.3,1.3-3,.6-.8,1.5-1.4,2.6-1.8,1.2-.4,2.5-.6,4-.6s2.7.2,3.7.5,1.6.8,2.1,1.3c.4.5.8,1.2.9,2,0,.5.1,1.4.1,2.8v4c0,2.8,0,4.5.2,5.3.1.7.4,1.4.8,2.1h-3.1c-.3-.6-.5-1.3-.6-2.2ZM1364.6,401.1c-1.1.4-2.7.8-4.9,1.1-1.2.2-2.1.4-2.6.6s-.9.5-1.2,1c-.3.4-.4.9-.4,1.4,0,.8.3,1.5.9,2,.6.5,1.5.8,2.6.8s2.2-.3,3.1-.8c.9-.5,1.6-1.2,2-2.1.3-.7.5-1.7.5-3v-1.1Z"/>
      <path class="cls-17" d="M1383.7,409.9v-2.2c-1.1,1.7-2.8,2.6-4.9,2.6s-2.7-.4-3.9-1.2c-1.2-.8-2.1-1.9-2.7-3.2-.6-1.4-1-3-1-4.8s.3-3.4.9-4.8c.6-1.4,1.5-2.5,2.6-3.3s2.5-1.1,3.9-1.1,2,.2,2.8.7c.8.4,1.5,1,2,1.8v-8.7h3v24.3h-2.8ZM1374.2,401.1c0,2.3.5,3.9,1.4,5.1s2.1,1.7,3.4,1.7,2.4-.5,3.3-1.6c.9-1.1,1.4-2.7,1.4-4.9s-.5-4.2-1.4-5.3-2.1-1.7-3.4-1.7-2.4.5-3.3,1.6c-.9,1.1-1.3,2.8-1.3,5.1Z"/>
      <path class="cls-17" d="M1402.6,407.7c-1.1.9-2.2,1.6-3.2,2-1,.4-2.1.6-3.3.6-1.9,0-3.4-.5-4.5-1.4-1-.9-1.6-2.2-1.6-3.6s.2-1.7.6-2.4c.4-.7.9-1.3,1.5-1.7.6-.4,1.4-.8,2.2-1,.6-.2,1.5-.3,2.7-.4,2.4-.3,4.2-.6,5.3-1,0-.4,0-.7,0-.8,0-1.2-.3-2.1-.8-2.6-.8-.7-1.9-1-3.4-1s-2.4.2-3.1.7c-.7.5-1.2,1.4-1.5,2.6l-2.9-.4c.3-1.3.7-2.3,1.3-3,.6-.8,1.5-1.4,2.6-1.8,1.2-.4,2.5-.6,4-.6s2.7.2,3.7.5c.9.4,1.6.8,2.1,1.3.4.5.8,1.2.9,2,0,.5.1,1.4.1,2.8v4c0,2.8,0,4.5.2,5.3.1.7.4,1.4.8,2.1h-3.1c-.3-.6-.5-1.3-.6-2.2ZM1402.4,401.1c-1.1.4-2.7.8-4.9,1.1-1.2.2-2.1.4-2.6.6s-.9.5-1.2,1c-.3.4-.4.9-.4,1.4,0,.8.3,1.5.9,2,.6.5,1.5.8,2.6.8s2.2-.3,3.1-.8c.9-.5,1.6-1.2,2-2.1.3-.7.5-1.7.5-3v-1.1Z"/>
      <path class="cls-17" d="M1416.6,407.2l.4,2.6c-.8.2-1.6.3-2.3.3-1.1,0-1.9-.2-2.5-.5s-1-.8-1.3-1.4c-.2-.6-.4-1.7-.4-3.5v-10.1h-2.2v-2.3h2.2v-4.4l3-1.8v6.2h3v2.3h-3v10.3c0,.9,0,1.4.2,1.6.1.2.3.4.5.6.2.1.6.2,1,.2s.8,0,1.3-.1Z"/>
      <path class="cls-17" d="M1431,407.7c-1.1.9-2.2,1.6-3.2,2-1,.4-2.1.6-3.3.6-1.9,0-3.4-.5-4.5-1.4-1-.9-1.6-2.2-1.6-3.6s.2-1.7.6-2.4c.4-.7.9-1.3,1.5-1.7.6-.4,1.4-.8,2.2-1,.6-.2,1.5-.3,2.7-.4,2.4-.3,4.2-.6,5.3-1,0-.4,0-.7,0-.8,0-1.2-.3-2.1-.8-2.6-.8-.7-1.9-1-3.4-1s-2.4.2-3.1.7c-.7.5-1.2,1.4-1.5,2.6l-2.9-.4c.3-1.3.7-2.3,1.3-3,.6-.8,1.5-1.4,2.6-1.8,1.2-.4,2.5-.6,4-.6s2.7.2,3.7.5,1.6.8,2.1,1.3c.4.5.8,1.2.9,2,0,.5.1,1.4.1,2.8v4c0,2.8,0,4.5.2,5.3.1.7.4,1.4.8,2.1h-3.1c-.3-.6-.5-1.3-.6-2.2ZM1430.7,401.1c-1.1.4-2.7.8-4.9,1.1-1.2.2-2.1.4-2.6.6s-.9.5-1.2,1c-.3.4-.4.9-.4,1.4,0,.8.3,1.5.9,2,.6.5,1.5.8,2.6.8s2.2-.3,3.1-.8c.9-.5,1.6-1.2,2-2.1.3-.7.5-1.7.5-3v-1.1Z"/>
    </g>
  </g>
  <g class="cls-26">
    <g class="cls-26">
      <path class="cls-17" d="M1342.7,675.8l3-.3c.1,1.2.5,2.2,1,3,.5.8,1.3,1.4,2.4,1.9,1.1.5,2.4.7,3.7.7s2.3-.2,3.3-.5c.9-.4,1.6-.9,2.1-1.5.5-.6.7-1.3.7-2.1s-.2-1.4-.7-2c-.4-.6-1.2-1-2.2-1.4-.7-.3-2.1-.7-4.3-1.2-2.2-.5-3.8-1-4.7-1.5-1.2-.6-2-1.4-2.6-2.3-.6-.9-.9-1.9-.9-3s.3-2.4,1-3.4c.7-1.1,1.7-1.9,3.1-2.4,1.3-.6,2.8-.8,4.5-.8s3.4.3,4.8.9c1.4.6,2.4,1.4,3.2,2.6.7,1.1,1.1,2.4,1.2,3.8l-3.1.2c-.2-1.5-.7-2.7-1.7-3.5s-2.4-1.2-4.2-1.2-3.4.4-4.3,1.1c-.9.7-1.3,1.6-1.3,2.6s.3,1.6.9,2.2c.6.6,2.2,1.1,4.9,1.7,2.6.6,4.4,1.1,5.4,1.6,1.4.7,2.5,1.5,3.1,2.5.7,1,1,2.2,1,3.5s-.4,2.5-1.1,3.7c-.7,1.1-1.8,2-3.2,2.7-1.4.6-3,1-4.7,1s-4-.3-5.5-1-2.7-1.6-3.5-2.9c-.8-1.3-1.3-2.7-1.3-4.4Z"/>
      <path class="cls-17" d="M1377.6,677.1l2.9.4c-.3,2-1.1,3.6-2.5,4.8-1.3,1.1-2.9,1.7-4.9,1.7s-4.4-.8-5.8-2.4c-1.5-1.6-2.2-3.8-2.2-6.8s.3-3.6.9-5,1.6-2.5,2.9-3.2c1.3-.7,2.7-1.1,4.2-1.1s3.5.5,4.7,1.5c1.2,1,2,2.3,2.3,4.1l-2.9.4c-.3-1.2-.8-2.1-1.5-2.7s-1.6-.9-2.5-.9c-1.5,0-2.7.5-3.7,1.6-.9,1.1-1.4,2.8-1.4,5.1s.5,4.1,1.4,5.2c.9,1.1,2.1,1.6,3.6,1.6s2.2-.4,2.9-1.1c.8-.7,1.3-1.8,1.5-3.3Z"/>
      <path class="cls-17" d="M1383.1,683.6v-24.3h3v8.7c1.4-1.6,3.2-2.4,5.3-2.4s2.4.3,3.4.8c1,.5,1.7,1.2,2.1,2.1.4.9.6,2.2.6,4v11.2h-3v-11.2c0-1.5-.3-2.6-1-3.3-.6-.7-1.6-1-2.7-1s-1.7.2-2.5.7c-.8.5-1.3,1.1-1.7,1.9s-.5,1.9-.5,3.3v9.6h-3Z"/>
      <path class="cls-17" d="M1414.1,677.9l3.1.4c-.5,1.8-1.4,3.2-2.7,4.2s-3,1.5-5,1.5-4.6-.8-6.1-2.4c-1.5-1.6-2.3-3.8-2.3-6.7s.8-5.3,2.3-6.9,3.5-2.5,5.9-2.5,4.3.8,5.8,2.4,2.2,3.9,2.2,6.8,0,.4,0,.8h-13.1c.1,1.9.7,3.4,1.6,4.4s2.2,1.5,3.7,1.5,2-.3,2.8-.9,1.4-1.5,1.8-2.8ZM1404.3,673.1h9.8c-.1-1.5-.5-2.6-1.1-3.3-1-1.2-2.2-1.7-3.7-1.7s-2.5.5-3.5,1.4c-.9.9-1.5,2.1-1.6,3.7Z"/>
      <path class="cls-17" d="M1420.9,683.6v-17.6h2.7v2.5c.6-.9,1.3-1.6,2.2-2.1.9-.5,2-.8,3.1-.8s2.4.3,3.2.8c.8.5,1.4,1.3,1.8,2.3,1.4-2.1,3.2-3.1,5.4-3.1s3.1.5,4,1.5c.9,1,1.4,2.5,1.4,4.5v12.1h-3v-11.1c0-1.2,0-2.1-.3-2.6-.2-.5-.5-.9-1.1-1.3s-1.1-.5-1.8-.5c-1.2,0-2.3.4-3.1,1.2-.8.8-1.2,2.1-1.2,4v10.2h-3v-11.5c0-1.3-.2-2.3-.7-3s-1.3-1-2.4-1-1.6.2-2.3.7c-.7.4-1.2,1.1-1.6,1.9s-.5,2.1-.5,3.7v9.1h-3Z"/>
      <path class="cls-17" d="M1460.8,681.4c-1.1.9-2.2,1.6-3.2,2-1,.4-2.1.6-3.3.6-1.9,0-3.4-.5-4.5-1.4-1-.9-1.6-2.2-1.6-3.6s.2-1.7.6-2.4c.4-.7.9-1.3,1.5-1.7.6-.4,1.4-.8,2.2-1,.6-.2,1.5-.3,2.7-.4,2.4-.3,4.2-.6,5.3-1,0-.4,0-.7,0-.8,0-1.2-.3-2.1-.8-2.6-.8-.7-1.9-1-3.4-1s-2.4.2-3.1.7c-.7.5-1.2,1.4-1.5,2.6l-2.9-.4c.3-1.3.7-2.3,1.3-3,.6-.8,1.5-1.4,2.6-1.8,1.2-.4,2.5-.6,4-.6s2.7.2,3.7.5,1.6.8,2.1,1.3c.4.5.8,1.2.9,2,0,.5.1,1.4.1,2.8v4c0,2.8,0,4.5.2,5.3.1.7.4,1.4.8,2.1h-3.1c-.3-.6-.5-1.3-.6-2.2ZM1460.5,674.8c-1.1.4-2.7.8-4.9,1.1-1.2.2-2.1.4-2.6.6s-.9.5-1.2,1c-.3.4-.4.9-.4,1.4,0,.8.3,1.5.9,2,.6.5,1.5.8,2.6.8s2.2-.3,3.1-.8c.9-.5,1.6-1.2,2-2.1.3-.7.5-1.7.5-3v-1.1Z"/>
    </g>
  </g>
  <g class="cls-26">
    <g class="cls-26">
      <path class="cls-17" d="M1638.5,508.1v-24.3h8.4c1.9,0,3.3.1,4.3.3,1.4.3,2.6.9,3.6,1.7,1.3,1.1,2.2,2.5,2.9,4.2.6,1.7,1,3.6,1,5.8s-.2,3.5-.6,4.9-1,2.6-1.7,3.5c-.7.9-1.4,1.7-2.2,2.2-.8.5-1.8.9-2.9,1.2s-2.4.4-3.9.4h-8.8ZM1641.7,505.2h5.2c1.6,0,2.9-.1,3.8-.4s1.6-.7,2.2-1.3c.8-.8,1.4-1.8,1.8-3.1.4-1.3.6-2.9.6-4.7s-.4-4.5-1.3-5.9c-.8-1.4-1.9-2.3-3-2.7-.9-.3-2.3-.5-4.2-.5h-5.1v18.6Z"/>
      <path class="cls-17" d="M1674.2,505.9c-1.1.9-2.2,1.6-3.2,2s-2.1.6-3.3.6c-1.9,0-3.4-.5-4.5-1.4-1-.9-1.6-2.2-1.6-3.6s.2-1.7.6-2.4c.4-.7.9-1.3,1.5-1.7s1.4-.8,2.2-1c.6-.2,1.5-.3,2.7-.4,2.4-.3,4.2-.6,5.3-1,0-.4,0-.7,0-.8,0-1.2-.3-2.1-.8-2.6-.8-.7-1.9-1-3.4-1s-2.4.2-3.1.7c-.7.5-1.2,1.4-1.5,2.6l-2.9-.4c.3-1.3.7-2.3,1.3-3,.6-.8,1.5-1.4,2.6-1.8,1.2-.4,2.5-.6,4-.6s2.7.2,3.7.5c.9.4,1.6.8,2.1,1.3.4.5.8,1.2.9,2,0,.5.1,1.4.1,2.8v4c0,2.8,0,4.5.2,5.3.1.7.4,1.4.8,2.1h-3.1c-.3-.6-.5-1.3-.6-2.2ZM1674,499.3c-1.1.4-2.7.8-4.9,1.1-1.2.2-2.1.4-2.6.6-.5.2-.9.5-1.2,1-.3.4-.4.9-.4,1.4,0,.8.3,1.5.9,2s1.5.8,2.6.8,2.2-.3,3.1-.8c.9-.5,1.6-1.2,2-2.1.3-.7.5-1.7.5-3v-1.1Z"/>
      <path class="cls-17" d="M1688.1,505.4l.4,2.6c-.8.2-1.6.3-2.3.3-1.1,0-1.9-.2-2.5-.5s-1-.8-1.3-1.4c-.2-.6-.4-1.7-.4-3.5v-10.1h-2.2v-2.3h2.2v-4.4l3-1.8v6.2h3v2.3h-3v10.3c0,.9,0,1.4.2,1.6s.3.4.5.6.6.2,1,.2.8,0,1.3-.1Z"/>
      <path class="cls-17" d="M1702.6,505.9c-1.1.9-2.2,1.6-3.2,2-1,.4-2.1.6-3.3.6-1.9,0-3.4-.5-4.5-1.4-1-.9-1.6-2.2-1.6-3.6s.2-1.7.6-2.4c.4-.7.9-1.3,1.5-1.7.6-.4,1.4-.8,2.2-1,.6-.2,1.5-.3,2.7-.4,2.4-.3,4.2-.6,5.3-1,0-.4,0-.7,0-.8,0-1.2-.3-2.1-.8-2.6-.8-.7-1.9-1-3.4-1s-2.4.2-3.1.7c-.7.5-1.2,1.4-1.5,2.6l-2.9-.4c.3-1.3.7-2.3,1.3-3,.6-.8,1.5-1.4,2.6-1.8,1.2-.4,2.5-.6,4-.6s2.7.2,3.7.5,1.6.8,2.1,1.3c.4.5.8,1.2.9,2,0,.5.1,1.4.1,2.8v4c0,2.8,0,4.5.2,5.3.1.7.4,1.4.8,2.1h-3.1c-.3-.6-.5-1.3-.6-2.2ZM1702.3,499.3c-1.1.4-2.7.8-4.9,1.1-1.2.2-2.1.4-2.6.6s-.9.5-1.2,1c-.3.4-.4.9-.4,1.4,0,.8.3,1.5.9,2,.6.5,1.5.8,2.6.8s2.2-.3,3.1-.8c.9-.5,1.6-1.2,2-2.1.3-.7.5-1.7.5-3v-1.1Z"/>
    </g>
    <g class="cls-26">
      <path class="cls-17" d="M1623.3,548.9v-24.3h9.2c1.6,0,2.8,0,3.7.2,1.2.2,2.2.6,3,1.1.8.6,1.5,1.3,2,2.3s.7,2.1.7,3.3c0,2.1-.7,3.8-2,5.3-1.3,1.4-3.7,2.2-7.1,2.2h-6.2v9.9h-3.2ZM1626.5,536.1h6.3c2.1,0,3.6-.4,4.4-1.2.9-.8,1.3-1.9,1.3-3.3s-.3-1.9-.8-2.6c-.5-.7-1.2-1.2-2-1.4-.5-.1-1.5-.2-3-.2h-6.2v8.7Z"/>
      <path class="cls-17" d="M1644.5,540.1c0-3.3.9-5.7,2.7-7.3,1.5-1.3,3.4-2,5.5-2s4.4.8,5.9,2.4c1.5,1.6,2.3,3.8,2.3,6.6s-.3,4.1-1,5.4c-.7,1.3-1.7,2.3-3,3s-2.7,1.1-4.3,1.1c-2.5,0-4.5-.8-6-2.4s-2.3-3.9-2.3-6.8ZM1647.6,540.1c0,2.3.5,3.9,1.5,5.1,1,1.1,2.2,1.7,3.7,1.7s2.7-.6,3.7-1.7c1-1.1,1.5-2.8,1.5-5.2s-.5-3.8-1.5-5c-1-1.1-2.2-1.7-3.7-1.7s-2.7.6-3.7,1.7c-1,1.1-1.5,2.8-1.5,5.1Z"/>
      <path class="cls-17" d="M1664.5,548.9v-17.6h2.7v2.7c.7-1.3,1.3-2.1,1.9-2.5s1.2-.6,1.9-.6c1,0,2,.3,3.1,1l-1,2.8c-.7-.4-1.5-.6-2.2-.6s-1.2.2-1.8.6c-.5.4-.9.9-1.1,1.6-.3,1.1-.5,2.2-.5,3.5v9.2h-3Z"/>
      <path class="cls-17" d="M1682.4,546.2l.4,2.6c-.8.2-1.6.3-2.3.3-1.1,0-1.9-.2-2.5-.5s-1-.8-1.3-1.4c-.2-.6-.4-1.7-.4-3.5v-10.1h-2.2v-2.3h2.2v-4.4l3-1.8v6.2h3v2.3h-3v10.3c0,.9,0,1.4.2,1.6.1.2.3.4.5.6.2.1.6.2,1,.2s.8,0,1.3-.1Z"/>
      <path class="cls-17" d="M1696.8,546.7c-1.1.9-2.2,1.6-3.2,2-1,.4-2.1.6-3.3.6-1.9,0-3.4-.5-4.5-1.4-1-.9-1.6-2.2-1.6-3.6s.2-1.7.6-2.4c.4-.7.9-1.3,1.5-1.7.6-.4,1.4-.8,2.2-1,.6-.2,1.5-.3,2.7-.4,2.4-.3,4.2-.6,5.3-1,0-.4,0-.7,0-.8,0-1.2-.3-2.1-.8-2.6-.8-.7-1.9-1-3.4-1s-2.4.2-3.1.7c-.7.5-1.2,1.4-1.5,2.6l-2.9-.4c.3-1.3.7-2.3,1.3-3,.6-.8,1.5-1.4,2.6-1.8,1.2-.4,2.5-.6,4-.6s2.7.2,3.7.5,1.6.8,2.1,1.3c.4.5.8,1.2.9,2,0,.5.1,1.4.1,2.8v4c0,2.8,0,4.5.2,5.3.1.7.4,1.4.8,2.1h-3.1c-.3-.6-.5-1.3-.6-2.2ZM1696.6,540.1c-1.1.4-2.7.8-4.9,1.1-1.2.2-2.1.4-2.6.6s-.9.5-1.2,1c-.3.4-.4.9-.4,1.4,0,.8.3,1.5.9,2,.6.5,1.5.8,2.6.8s2.2-.3,3.1-.8c.9-.5,1.6-1.2,2-2.1.3-.7.5-1.7.5-3v-1.1Z"/>
      <path class="cls-17" d="M1704.1,548.9v-24.3h3v24.3h-3Z"/>
      <path class="cls-17" d="M1710.6,543.6l3-.5c.2,1.2.6,2.1,1.4,2.7.8.6,1.8.9,3.2.9s2.4-.3,3.1-.8c.7-.6,1-1.2,1-2s-.3-1.2-.9-1.6c-.4-.3-1.4-.6-3.1-1-2.2-.6-3.7-1-4.6-1.4-.8-.4-1.5-1-1.9-1.7-.4-.7-.7-1.5-.7-2.4s.2-1.5.5-2.2c.4-.7.8-1.2,1.5-1.7.5-.3,1.1-.6,1.9-.9.8-.2,1.7-.4,2.6-.4,1.4,0,2.6.2,3.6.6,1,.4,1.8.9,2.3,1.6.5.7.8,1.6,1,2.7l-2.9.4c-.1-.9-.5-1.6-1.2-2.1-.6-.5-1.5-.8-2.7-.8s-2.4.2-2.9.7-.9,1-.9,1.6.1.7.4,1c.2.3.6.6,1.1.8.3.1,1.2.4,2.6.8,2.1.6,3.6,1,4.4,1.4.8.4,1.5.9,2,1.6s.7,1.5.7,2.6-.3,1.9-.9,2.8c-.6.9-1.4,1.6-2.5,2-1.1.5-2.3.7-3.7.7-2.3,0-4-.5-5.2-1.4-1.2-1-2-2.4-2.3-4.2Z"/>
    </g>
  </g>
  <path class="cls-18" d="M296.9,110.2s651.6,18.5,975.7,252c0,0-25.4,49.2-24.9,66.1,0,0-588.4-166-950.9-46.7V110.2h.1Z"/>
  <rect class="cls-18" x="561.2" y="67.7" width="275.2" height="214.3"/>
  <g>
    <g>
      <rect class="cls-8" x="575.4" y="129.2" width="244.7" height="133.1"/>
      <rect class="cls-6" x="575.4" y="105.5" width="244.7" height="23.7"/>
      <rect class="cls-18" x="575.4" y="80.3" width="244.7" height="25.2"/>
      <rect class="cls-17" x="581.6" y="87.5" width="184.3" height="11.6" rx="5.6" ry="5.6"/>
      <g>
        <rect class="cls-17" x="581.6" y="140.9" width="230.4" height="30.9"/>
        <line class="cls-22" x1="606.9" y1="150.2" x2="721.3" y2="150.2"/>
        <line class="cls-24" x1="590.1" y1="162.8" x2="738.6" y2="162.8"/>
        <circle class="cls-15" cx="592" cy="150.6" r="4.4"/>
      </g>
      <g>
        <rect class="cls-17" x="582.6" y="178.8" width="230.4" height="30.9"/>
        <line class="cls-22" x1="607.9" y1="188.3" x2="722.1" y2="188.3"/>
        <line class="cls-24" x1="591.1" y1="200.7" x2="766.7" y2="200.7"/>
        <circle class="cls-15" cx="592.8" cy="188.5" r="4.4"/>
      </g>
      <g>
        <rect class="cls-17" x="582.6" y="218.4" width="230.4" height="30.9"/>
        <line class="cls-22" x1="607.9" y1="227.8" x2="696.8" y2="227.8"/>
        <line class="cls-24" x1="591.1" y1="240.3" x2="664.1" y2="240.3"/>
        <circle class="cls-15" cx="592.8" cy="228" r="4.4"/>
      </g>
      <circle class="cls-15" cx="780.9" cy="92.7" r="6.2"/>
    </g>
    <circle class="cls-11" cx="800" cy="92.9" r="5.9"/>
  </g>
  <g class="cls-26">
    <g class="cls-26">
      <path class="cls-17" d="M125.3,239.1v-29.3h10.1c2.3,0,4,.1,5.2.4,1.7.4,3.1,1.1,4.3,2.1,1.5,1.3,2.7,3,3.5,5,.8,2,1.2,4.4,1.2,7s-.3,4.2-.8,5.9c-.5,1.7-1.2,3.1-2,4.3-.8,1.1-1.7,2-2.7,2.7-1,.6-2.1,1.1-3.5,1.5-1.4.3-2.9.5-4.7.5h-10.6ZM129.1,235.6h6.3c1.9,0,3.5-.2,4.6-.5,1.1-.4,2-.9,2.6-1.5s1.6-2.2,2.2-3.7c.5-1.6.8-3.4.8-5.7s-.5-5.4-1.5-7.1c-1-1.6-2.2-2.8-3.7-3.3-1-.4-2.7-.6-5-.6h-6.2v22.4Z"/>
      <path class="cls-17" d="M168.3,236.5c-1.3,1.1-2.6,1.9-3.9,2.4-1.2.5-2.6.7-4,.7-2.3,0-4.1-.6-5.4-1.7-1.3-1.1-1.9-2.6-1.9-4.4s.2-2,.7-2.9c.5-.9,1.1-1.6,1.9-2.1s1.6-.9,2.6-1.2c.7-.2,1.8-.4,3.2-.5,2.9-.3,5.1-.8,6.4-1.2,0-.5,0-.8,0-.9,0-1.5-.3-2.5-1-3.1-.9-.8-2.3-1.2-4.1-1.2s-2.9.3-3.8.9-1.4,1.6-1.8,3.2l-3.5-.5c.3-1.5.8-2.7,1.6-3.7.7-.9,1.8-1.6,3.2-2.1,1.4-.5,3-.8,4.8-.8s3.3.2,4.4.6c1.1.4,2,1,2.5,1.6.5.6.9,1.5,1.1,2.5.1.6.2,1.7.2,3.3v4.8c0,3.3,0,5.5.2,6.4.2.9.5,1.7.9,2.6h-3.8c-.4-.7-.6-1.6-.7-2.6ZM168,228.4c-1.3.5-3.3,1-5.9,1.4-1.5.2-2.5.5-3.1.7-.6.3-1.1.7-1.4,1.2-.3.5-.5,1.1-.5,1.7,0,1,.4,1.8,1.1,2.4s1.8,1,3.2,1,2.6-.3,3.7-.9,1.9-1.4,2.4-2.5c.4-.8.6-2,.6-3.6v-1.3Z"/>
      <path class="cls-17" d="M185.1,235.9l.5,3.2c-1,.2-1.9.3-2.7.3-1.3,0-2.3-.2-3-.6-.7-.4-1.2-1-1.5-1.6-.3-.7-.4-2.1-.4-4.3v-12.2h-2.6v-2.8h2.6v-5.3l3.6-2.2v7.4h3.6v2.8h-3.6v12.4c0,1,0,1.7.2,2,.1.3.3.5.6.7.3.2.7.3,1.2.3s.9,0,1.6-.1Z"/>
      <path class="cls-17" d="M202.5,236.5c-1.3,1.1-2.6,1.9-3.9,2.4-1.2.5-2.6.7-4,.7-2.3,0-4.1-.6-5.4-1.7-1.3-1.1-1.9-2.6-1.9-4.4s.2-2,.7-2.9c.5-.9,1.1-1.6,1.9-2.1s1.6-.9,2.6-1.2c.7-.2,1.8-.4,3.2-.5,2.9-.3,5.1-.8,6.4-1.2,0-.5,0-.8,0-.9,0-1.5-.3-2.5-1-3.1-.9-.8-2.3-1.2-4.1-1.2s-2.9.3-3.8.9-1.4,1.6-1.8,3.2l-3.5-.5c.3-1.5.8-2.7,1.6-3.7.7-.9,1.8-1.6,3.2-2.1,1.4-.5,3-.8,4.8-.8s3.3.2,4.4.6c1.1.4,2,1,2.5,1.6.5.6.9,1.5,1.1,2.5.1.6.2,1.7.2,3.3v4.8c0,3.3,0,5.5.2,6.4.2.9.5,1.7.9,2.6h-3.8c-.4-.7-.6-1.6-.7-2.6ZM202.2,228.4c-1.3.5-3.3,1-5.9,1.4-1.5.2-2.5.5-3.1.7-.6.3-1.1.7-1.4,1.2-.3.5-.5,1.1-.5,1.7,0,1,.4,1.8,1.1,2.4s1.8,1,3.2,1,2.6-.3,3.7-.9c1.1-.6,1.9-1.4,2.4-2.5.4-.8.6-2,.6-3.6v-1.3Z"/>
      <path class="cls-17" d="M223.3,239.1v-29.3h11.1c1.9,0,3.4,0,4.5.3,1.4.2,2.6.7,3.6,1.4,1,.7,1.8,1.6,2.4,2.8.6,1.2.9,2.5.9,4,0,2.5-.8,4.6-2.4,6.3-1.6,1.7-4.5,2.6-8.6,2.6h-7.5v11.9h-3.9ZM227.1,223.7h7.6c2.5,0,4.3-.5,5.3-1.4,1.1-.9,1.6-2.2,1.6-3.9s-.3-2.3-.9-3.2c-.6-.9-1.4-1.5-2.5-1.7-.7-.2-1.9-.3-3.6-.3h-7.5v10.5Z"/>
      <path class="cls-17" d="M250.1,239.1v-21.3h3.2v3.2c.8-1.5,1.6-2.5,2.3-3,.7-.5,1.5-.7,2.3-.7,1.2,0,2.4.4,3.7,1.2l-1.2,3.3c-.9-.5-1.8-.8-2.6-.8s-1.5.2-2.1.7c-.6.5-1.1,1.1-1.3,2-.4,1.3-.6,2.7-.6,4.2v11.1h-3.6Z"/>
      <path class="cls-17" d="M262.5,228.5c0-3.9,1.1-6.9,3.3-8.7,1.8-1.6,4.1-2.4,6.7-2.4s5.3,1,7.2,2.9c1.9,1.9,2.8,4.6,2.8,7.9s-.4,4.9-1.2,6.5c-.8,1.6-2,2.8-3.6,3.7-1.6.9-3.3,1.3-5.1,1.3-3,0-5.4-1-7.2-2.9-1.8-1.9-2.8-4.7-2.8-8.2ZM266.2,228.5c0,2.7.6,4.8,1.8,6.1,1.2,1.4,2.7,2,4.5,2s3.3-.7,4.5-2c1.2-1.4,1.8-3.4,1.8-6.2s-.6-4.6-1.8-6c-1.2-1.4-2.7-2-4.5-2s-3.3.7-4.5,2c-1.2,1.3-1.8,3.4-1.8,6.1Z"/>
      <path class="cls-17" d="M292.5,239.1l-8.1-21.3h3.8l4.6,12.7c.5,1.4.9,2.8,1.4,4.3.3-1.1.8-2.5,1.3-4l4.7-13h3.7l-8,21.3h-3.4Z"/>
      <path class="cls-17" d="M307.1,213.9v-4.1h3.6v4.1h-3.6ZM307.1,239.1v-21.3h3.6v21.3h-3.6Z"/>
      <path class="cls-17" d="M330,239.1v-2.7c-1.3,2.1-3.3,3.2-5.9,3.2s-3.3-.5-4.7-1.4c-1.4-.9-2.5-2.2-3.3-3.9-.8-1.7-1.2-3.6-1.2-5.8s.4-4,1.1-5.8c.7-1.7,1.8-3.1,3.2-4,1.4-.9,3-1.4,4.7-1.4s2.4.3,3.4.8c1,.5,1.8,1.2,2.4,2.1v-10.5h3.6v29.3h-3.3ZM318.6,228.5c0,2.7.6,4.8,1.7,6.1,1.1,1.3,2.5,2,4.1,2s2.9-.6,4-1.9c1.1-1.3,1.7-3.3,1.7-5.9s-.6-5-1.7-6.4-2.5-2-4.1-2-2.9.7-4,2c-1.1,1.3-1.6,3.4-1.6,6.2Z"/>
      <path class="cls-17" d="M353.6,232.3l3.7.5c-.6,2.2-1.7,3.9-3.3,5.1-1.6,1.2-3.6,1.8-6.1,1.8s-5.6-1-7.4-2.9c-1.8-1.9-2.7-4.6-2.7-8.1s.9-6.4,2.8-8.3c1.8-2,4.2-3,7.2-3s5.2,1,7,2.9c1.8,1.9,2.7,4.7,2.7,8.2s0,.5,0,1h-15.9c.1,2.3.8,4.1,2,5.4,1.2,1.2,2.7,1.9,4.4,1.9s2.4-.3,3.4-1c.9-.7,1.7-1.8,2.2-3.3ZM341.7,226.4h11.9c-.2-1.8-.6-3.1-1.4-4-1.1-1.4-2.6-2.1-4.5-2.1s-3,.6-4.2,1.7c-1.1,1.1-1.8,2.6-1.9,4.4Z"/>
      <path class="cls-17" d="M361.8,239.1v-21.3h3.2v3.2c.8-1.5,1.6-2.5,2.3-3,.7-.5,1.5-.7,2.3-.7,1.2,0,2.4.4,3.7,1.2l-1.2,3.3c-.9-.5-1.8-.8-2.6-.8s-1.5.2-2.1.7c-.6.5-1.1,1.1-1.3,2-.4,1.3-.6,2.7-.6,4.2v11.1h-3.6Z"/>
      <path class="cls-17" d="M374,232.8l3.6-.6c.2,1.4.8,2.5,1.7,3.3.9.8,2.2,1.1,3.8,1.1s2.9-.3,3.7-1,1.2-1.5,1.2-2.4-.4-1.5-1.1-1.9c-.5-.3-1.7-.7-3.7-1.2-2.6-.7-4.5-1.2-5.5-1.7-1-.5-1.8-1.2-2.3-2-.5-.9-.8-1.8-.8-2.9s.2-1.8.7-2.6c.4-.8,1-1.5,1.8-2,.6-.4,1.3-.8,2.3-1.1s2-.4,3.1-.4c1.7,0,3.1.2,4.4.7,1.3.5,2.2,1.1,2.8,2,.6.8,1,1.9,1.2,3.3l-3.5.5c-.2-1.1-.6-1.9-1.4-2.6-.8-.6-1.9-.9-3.3-.9s-2.8.3-3.5.8c-.7.5-1.1,1.2-1.1,1.9s.1.9.4,1.3c.3.4.8.7,1.4,1,.4.1,1.4.4,3.2.9,2.5.7,4.3,1.2,5.3,1.7,1,.4,1.8,1.1,2.4,1.9.6.8.9,1.9.9,3.1s-.3,2.3-1.1,3.4c-.7,1.1-1.7,1.9-3,2.5-1.3.6-2.8.9-4.5.9-2.8,0-4.9-.6-6.3-1.7-1.4-1.1-2.4-2.8-2.8-5.1Z"/>
    </g>
  </g>
  <g class="cls-26">
    <g class="cls-26">
      <path class="cls-17" d="M581,306.1v-24.3h4.8l5.8,17.2c.5,1.6.9,2.8,1.2,3.6.3-.9.7-2.2,1.3-3.9l5.8-16.9h4.3v24.3h-3.1v-20.4l-7.1,20.4h-2.9l-7-20.7v20.7h-3.1Z"/>
      <path class="cls-17" d="M621.1,300.4l3.1.4c-.5,1.8-1.4,3.2-2.7,4.2-1.3,1-3,1.5-5,1.5s-4.6-.8-6.1-2.4c-1.5-1.6-2.3-3.8-2.3-6.7s.8-5.3,2.3-6.9,3.5-2.5,5.9-2.5,4.3.8,5.8,2.4,2.2,3.9,2.2,6.8,0,.4,0,.8h-13.1c.1,1.9.7,3.4,1.6,4.4,1,1,2.2,1.5,3.7,1.5s2-.3,2.8-.9c.8-.6,1.4-1.5,1.8-2.8ZM611.3,295.6h9.8c-.1-1.5-.5-2.6-1.1-3.3-1-1.2-2.2-1.7-3.7-1.7s-2.5.5-3.5,1.4c-.9.9-1.5,2.1-1.6,3.7Z"/>
      <path class="cls-17" d="M634.5,303.4l.4,2.6c-.8.2-1.6.3-2.3.3-1.1,0-1.9-.2-2.5-.5s-1-.8-1.3-1.4c-.2-.6-.4-1.7-.4-3.5v-10.1h-2.2v-2.3h2.2v-4.4l3-1.8v6.2h3v2.3h-3v10.3c0,.9,0,1.4.2,1.6.1.2.3.4.5.6.2.1.6.2,1,.2s.8,0,1.3-.1Z"/>
      <path class="cls-17" d="M648.9,303.9c-1.1.9-2.2,1.6-3.2,2-1,.4-2.1.6-3.3.6-1.9,0-3.4-.5-4.5-1.4-1-.9-1.6-2.2-1.6-3.6s.2-1.7.6-2.4c.4-.7.9-1.3,1.5-1.7.6-.4,1.4-.8,2.2-1,.6-.2,1.5-.3,2.7-.4,2.4-.3,4.2-.6,5.3-1,0-.4,0-.7,0-.8,0-1.2-.3-2.1-.8-2.6-.8-.7-1.9-1-3.4-1s-2.4.2-3.1.7c-.7.5-1.2,1.4-1.5,2.6l-2.9-.4c.3-1.3.7-2.3,1.3-3,.6-.8,1.5-1.4,2.6-1.8,1.2-.4,2.5-.6,4-.6s2.7.2,3.7.5,1.6.8,2.1,1.3c.4.5.8,1.2.9,2,0,.5.1,1.4.1,2.8v4c0,2.8,0,4.5.2,5.3.1.7.4,1.4.8,2.1h-3.1c-.3-.6-.5-1.3-.6-2.2ZM648.7,297.3c-1.1.4-2.7.8-4.9,1.1-1.2.2-2.1.4-2.6.6s-.9.5-1.2,1c-.3.4-.4.9-.4,1.4,0,.8.3,1.5.9,2,.6.5,1.5.8,2.6.8s2.2-.3,3.1-.8c.9-.5,1.6-1.2,2-2.1.3-.7.5-1.7.5-3v-1.1Z"/>
      <path class="cls-17" d="M667.8,306.1v-2.2c-1.1,1.7-2.8,2.6-4.9,2.6s-2.7-.4-3.9-1.2c-1.2-.8-2.1-1.9-2.7-3.2-.6-1.4-1-3-1-4.8s.3-3.4.9-4.8c.6-1.4,1.5-2.5,2.6-3.3s2.5-1.1,3.9-1.1,2,.2,2.8.7c.8.4,1.5,1,2,1.8v-8.7h3v24.3h-2.8ZM658.3,297.3c0,2.3.5,3.9,1.4,5.1s2.1,1.7,3.4,1.7,2.4-.5,3.3-1.6c.9-1.1,1.4-2.7,1.4-4.9s-.5-4.2-1.4-5.3-2.1-1.7-3.4-1.7-2.4.5-3.3,1.6c-.9,1.1-1.3,2.8-1.3,5.1Z"/>
      <path class="cls-17" d="M686.7,303.9c-1.1.9-2.2,1.6-3.2,2-1,.4-2.1.6-3.3.6-1.9,0-3.4-.5-4.5-1.4-1-.9-1.6-2.2-1.6-3.6s.2-1.7.6-2.4c.4-.7.9-1.3,1.5-1.7.6-.4,1.4-.8,2.2-1,.6-.2,1.5-.3,2.7-.4,2.4-.3,4.2-.6,5.3-1,0-.4,0-.7,0-.8,0-1.2-.3-2.1-.8-2.6-.8-.7-1.9-1-3.4-1s-2.4.2-3.1.7c-.7.5-1.2,1.4-1.5,2.6l-2.9-.4c.3-1.3.7-2.3,1.3-3,.6-.8,1.5-1.4,2.6-1.8,1.2-.4,2.5-.6,4-.6s2.7.2,3.7.5,1.6.8,2.1,1.3c.4.5.8,1.2.9,2,0,.5.1,1.4.1,2.8v4c0,2.8,0,4.5.2,5.3.1.7.4,1.4.8,2.1h-3.1c-.3-.6-.5-1.3-.6-2.2ZM686.5,297.3c-1.1.4-2.7.8-4.9,1.1-1.2.2-2.1.4-2.6.6s-.9.5-1.2,1c-.3.4-.4.9-.4,1.4,0,.8.3,1.5.9,2,.6.5,1.5.8,2.6.8s2.2-.3,3.1-.8c.9-.5,1.6-1.2,2-2.1.3-.7.5-1.7.5-3v-1.1Z"/>
      <path class="cls-17" d="M700.7,303.4l.4,2.6c-.8.2-1.6.3-2.3.3-1.1,0-1.9-.2-2.5-.5s-1-.8-1.3-1.4c-.2-.6-.4-1.7-.4-3.5v-10.1h-2.2v-2.3h2.2v-4.4l3-1.8v6.2h3v2.3h-3v10.3c0,.9,0,1.4.2,1.6.1.2.3.4.5.6.2.1.6.2,1,.2s.8,0,1.3-.1Z"/>
      <path class="cls-17" d="M715.1,303.9c-1.1.9-2.2,1.6-3.2,2-1,.4-2.1.6-3.3.6-1.9,0-3.4-.5-4.5-1.4-1-.9-1.6-2.2-1.6-3.6s.2-1.7.6-2.4c.4-.7.9-1.3,1.5-1.7.6-.4,1.4-.8,2.2-1,.6-.2,1.5-.3,2.7-.4,2.4-.3,4.2-.6,5.3-1,0-.4,0-.7,0-.8,0-1.2-.3-2.1-.8-2.6-.8-.7-1.9-1-3.4-1s-2.4.2-3.1.7c-.7.5-1.2,1.4-1.5,2.6l-2.9-.4c.3-1.3.7-2.3,1.3-3,.6-.8,1.5-1.4,2.6-1.8,1.2-.4,2.5-.6,4-.6s2.7.2,3.7.5,1.6.8,2.1,1.3c.4.5.8,1.2.9,2,0,.5.1,1.4.1,2.8v4c0,2.8,0,4.5.2,5.3.1.7.4,1.4.8,2.1h-3.1c-.3-.6-.5-1.3-.6-2.2ZM714.8,297.3c-1.1.4-2.7.8-4.9,1.1-1.2.2-2.1.4-2.6.6s-.9.5-1.2,1c-.3.4-.4.9-.4,1.4,0,.8.3,1.5.9,2,.6.5,1.5.8,2.6.8s2.2-.3,3.1-.8c.9-.5,1.6-1.2,2-2.1.3-.7.5-1.7.5-3v-1.1Z"/>
      <path class="cls-17" d="M743.7,296.6v-2.9h10.3s0,9,0,9c-1.6,1.3-3.2,2.2-4.9,2.8-1.7.6-3.4,1-5.2,1s-4.6-.5-6.5-1.5c-2-1-3.4-2.5-4.4-4.4s-1.5-4.1-1.5-6.5.5-4.6,1.5-6.6c1-2.1,2.4-3.6,4.3-4.6s4-1.5,6.4-1.5,3.4.3,4.8.9c1.4.6,2.5,1.4,3.3,2.4s1.4,2.3,1.8,4l-2.9.8c-.4-1.2-.8-2.2-1.4-2.9s-1.3-1.3-2.3-1.7c-1-.4-2.1-.6-3.4-.6s-2.7.2-3.8.7c-1.1.4-1.9,1-2.6,1.8-.7.7-1.2,1.5-1.5,2.4-.6,1.5-.9,3.1-.9,4.9s.4,4,1.1,5.4c.7,1.5,1.8,2.5,3.3,3.3s2.9,1.1,4.5,1.1,2.8-.3,4.1-.8c1.3-.5,2.3-1.1,3-1.7v-4.5h-7.2Z"/>
      <path class="cls-17" d="M769.9,306.1v-2.6c-1.4,2-3.2,3-5.6,3s-2-.2-2.9-.6c-.9-.4-1.6-.9-2-1.5-.4-.6-.7-1.3-.9-2.2-.1-.6-.2-1.5-.2-2.8v-10.9h3v9.8c0,1.6,0,2.6.2,3.2.2.8.6,1.4,1.2,1.9.6.4,1.4.7,2.3.7s1.7-.2,2.5-.7c.8-.5,1.3-1.1,1.7-1.9.3-.8.5-1.9.5-3.4v-9.4h3v17.6h-2.7Z"/>
      <path class="cls-17" d="M777.3,285.2v-3.4h3v3.4h-3ZM777.3,306.1v-17.6h3v17.6h-3Z"/>
      <path class="cls-17" d="M796.3,306.1v-2.2c-1.1,1.7-2.8,2.6-4.9,2.6s-2.7-.4-3.9-1.2c-1.2-.8-2.1-1.9-2.7-3.2-.6-1.4-1-3-1-4.8s.3-3.4.9-4.8c.6-1.4,1.5-2.5,2.6-3.3s2.5-1.1,3.9-1.1,2,.2,2.8.7c.8.4,1.5,1,2,1.8v-8.7h3v24.3h-2.8ZM786.8,297.3c0,2.3.5,3.9,1.4,5.1s2.1,1.7,3.4,1.7,2.4-.5,3.3-1.6c.9-1.1,1.4-2.7,1.4-4.9s-.5-4.2-1.4-5.3-2.1-1.7-3.4-1.7-2.4.5-3.3,1.6c-.9,1.1-1.3,2.8-1.3,5.1Z"/>
      <path class="cls-17" d="M815.8,300.4l3.1.4c-.5,1.8-1.4,3.2-2.7,4.2s-3,1.5-5,1.5-4.6-.8-6.1-2.4c-1.5-1.6-2.3-3.8-2.3-6.7s.8-5.3,2.3-6.9,3.5-2.5,5.9-2.5,4.3.8,5.8,2.4,2.2,3.9,2.2,6.8,0,.4,0,.8h-13.1c.1,1.9.7,3.4,1.6,4.4s2.2,1.5,3.7,1.5,2-.3,2.8-.9,1.4-1.5,1.8-2.8ZM806,295.6h9.8c-.1-1.5-.5-2.6-1.1-3.3-1-1.2-2.2-1.7-3.7-1.7s-2.5.5-3.5,1.4c-.9.9-1.5,2.1-1.6,3.7Z"/>
      <path class="cls-17" d="M821.5,300.8l3-.5c.2,1.2.6,2.1,1.4,2.7.8.6,1.8.9,3.2.9s2.4-.3,3.1-.8c.7-.6,1-1.2,1-2s-.3-1.2-.9-1.6c-.4-.3-1.4-.6-3.1-1-2.2-.6-3.7-1-4.6-1.4-.8-.4-1.5-1-1.9-1.7-.4-.7-.7-1.5-.7-2.4s.2-1.5.5-2.2c.4-.7.8-1.2,1.5-1.7.5-.3,1.1-.6,1.9-.9.8-.2,1.7-.4,2.6-.4,1.4,0,2.6.2,3.6.6,1,.4,1.8.9,2.3,1.6.5.7.8,1.6,1,2.7l-2.9.4c-.1-.9-.5-1.6-1.2-2.1-.6-.5-1.5-.8-2.7-.8s-2.4.2-2.9.7-.9,1-.9,1.6.1.7.4,1c.2.3.6.6,1.1.8.3.1,1.2.4,2.6.8,2.1.6,3.6,1,4.4,1.4.8.4,1.5.9,2,1.6s.7,1.5.7,2.6-.3,1.9-.9,2.8c-.6.9-1.4,1.6-2.5,2-1.1.5-2.3.7-3.7.7-2.3,0-4-.5-5.2-1.4-1.2-1-2-2.4-2.3-4.2Z"/>
    </g>
  </g>
  <path class="cls-12" d="M979.1,326.4h-3.1v-3.1c0-3.4-2.7-6.1-6.1-6.1h0c-3.4,0-6.1,2.7-6.1,6.1v3.1h-3.1c-3.4,0-6.1,2.7-6.1,6.1h0c0,3.4,2.7,6.1,6.1,6.1h3.1v3.1c0,3.4,2.7,6.1,6.1,6.1h0c3.4,0,6.1-2.7,6.1-6.1v-3.1h3.1c3.4,0,6.1-2.7,6.1-6.1h0c0-3.4-2.7-6.1-6.1-6.1Z"/>
  <path class="cls-12" d="M938,230.2h-4.1v-4.1c0-4.4-3.5-7.9-7.9-7.9h0c-4.4,0-7.9,3.5-7.9,7.9v4.1h-4.1c-4.4,0-7.9,3.5-7.9,7.9h0c0,4.4,3.5,7.9,7.9,7.9h4.1v4.1c0,4.4,3.5,7.9,7.9,7.9h0c4.4,0,7.9-3.5,7.9-7.9v-4.1h4.1c4.4,0,7.9-3.5,7.9-7.9h0c0-4.4-3.5-7.9-7.9-7.9h0Z"/>
  <path class="cls-12" d="M1079.5,342.8h-2.6v-2.6c0-2.8-2.2-5-5-5h0c-2.8,0-5,2.2-5,5v2.6h-2.6c-2.8,0-5,2.2-5,5h0c0,2.8,2.2,5,5,5h2.6v2.6c0,2.8,2.2,5,5,5h0c2.8,0,5-2.2,5-5v-2.6h2.6c2.8,0,5-2.2,5-5h0c0-2.8-2.2-5-5-5Z"/>
  <path class="cls-12" d="M1160.7,317.2h-2.6v-2.6c0-2.8-2.2-5-5-5h0c-2.8,0-5,2.2-5,5v2.6h-2.6c-2.8,0-5,2.2-5,5h0c0,2.8,2.2,5,5,5h2.6v2.6c0,2.8,2.2,5,5,5h0c2.8,0,5-2.2,5-5v-2.6h2.6c2.8,0,5-2.2,5-5h0c0-2.8-2.2-5-5-5Z"/>
  <path class="cls-7" d="M1250.2,392.1l-21.4-24.7-4.4,10.6c-10.4-4.8-26.6-12.5-36.2-16.9-74.8-33.8-152.3-63-231.9-83.8-31.6-8-63.7-15.4-96.1-19l-1.7,30.5h5.4c29.3,2,58.3,6.4,87.3,11.7,77.7,14.5,154.7,37.4,228.9,64.5,12.4,4.6,29.9,11.4,42.9,16.4l-4.4,10.7h31.6Z"/>
  <path class="cls-18" d="M296.9,985.6s646.5-19.6,968-266.3c0,0-25.2-52-24.7-69.9,0,0-583.8,175.4-943.4,49.4v286.9h0Z"/>
  <rect class="cls-18" x="555.7" y="854.2" width="275.2" height="214.3"/>
  <g>
    <rect class="cls-8" x="574.3" y="922.1" width="238.1" height="129.5"/>
    <rect class="cls-6" x="574.3" y="898.8" width="238.1" height="23.1"/>
    <rect class="cls-9" x="574.3" y="874.4" width="238.1" height="24.3"/>
    <path class="cls-17" d="M586.1,881.4h150.3c3.1,0,5.7,2.6,5.7,5.7h0c0,3.1-2.6,5.7-5.7,5.7h-150.3c-3.1,0-5.7-2.6-5.7-5.7h0c0-3.1,2.6-5.7,5.7-5.7Z"/>
    <circle class="cls-6" cx="756.9" cy="886.5" r="6.1"/>
    <circle class="cls-11" cx="775.6" cy="886.7" r="5.7"/>
    <circle class="cls-6" cx="795.3" cy="887.1" r="6.1"/>
    <rect class="cls-8" x="574.3" y="849.7" width="238.1" height="24.3"/>
    <rect class="cls-16" x="574.3" y="837.6" width="46.6" height="12.1"/>
    <rect class="cls-6" x="620.8" y="837.6" width="46.6" height="12.1"/>
    <g>
      <g>
        <rect class="cls-17" x="580.4" y="933.3" width="224.2" height="30.1"/>
        <path class="cls-4" d="M672.9,952.1h-78.3c-1.3,0-2.1-2.1-2.1-4.7s1.1-4.7,2.1-4.7h78.3c1.3,0,2.1,2.1,2.1,4.7s-1.1,4.7-2.1,4.7Z"/>
      </g>
      <rect class="cls-9" x="716.7" y="933.3" width="88.1" height="30.1"/>
      <rect class="cls-1" x="725.4" y="942.8" width="31.5" height="12.1"/>
      <rect class="cls-15" x="766.3" y="942.8" width="31.5" height="12.1"/>
    </g>
    <g>
      <g>
        <rect class="cls-17" x="580.4" y="971.8" width="224.2" height="30.1"/>
        <path class="cls-4" d="M672.9,990.4h-78.3c-1.3,0-2.1-2.1-2.1-4.7s1.1-4.7,2.1-4.7h78.3c1.3,0,2.1,2.1,2.1,4.7s-1.1,4.7-2.1,4.7Z"/>
      </g>
      <rect class="cls-9" x="716.7" y="971.8" width="88.1" height="30.1"/>
      <rect class="cls-1" x="725.4" y="981.1" width="31.5" height="12.1"/>
      <rect class="cls-15" x="766.3" y="981.1" width="31.5" height="12.1"/>
    </g>
    <g>
      <g>
        <rect class="cls-17" x="580.4" y="1007.8" width="224.2" height="30.1"/>
        <path class="cls-4" d="M672.9,1026.4h-78.3c-1.3,0-2.1-2.1-2.1-4.7s1.1-4.7,2.1-4.7h78.3c1.3,0,2.1,2.1,2.1,4.7s-1.1,4.7-2.1,4.7Z"/>
      </g>
      <rect class="cls-9" x="716.7" y="1007.8" width="88.1" height="30.1"/>
      <rect class="cls-1" x="725.4" y="1017.1" width="31.5" height="12.1"/>
      <rect class="cls-15" x="766.3" y="1017.1" width="31.5" height="12.1"/>
    </g>
  </g>
  <g class="cls-26">
    <g class="cls-26">
      <path class="cls-17" d="M556.3,788.1l3-.3c.1,1.2.5,2.2,1,3,.5.8,1.3,1.4,2.4,1.9,1.1.5,2.4.7,3.7.7s2.3-.2,3.3-.5c.9-.4,1.6-.9,2.1-1.5.5-.6.7-1.3.7-2.1s-.2-1.4-.7-2c-.4-.6-1.2-1-2.2-1.4-.7-.3-2.1-.7-4.3-1.2-2.2-.5-3.8-1-4.7-1.5-1.2-.6-2-1.4-2.6-2.3-.6-.9-.9-1.9-.9-3s.3-2.4,1-3.4c.7-1.1,1.7-1.9,3.1-2.4,1.3-.6,2.8-.8,4.5-.8s3.4.3,4.8.9c1.4.6,2.4,1.4,3.2,2.6.7,1.1,1.1,2.4,1.2,3.8l-3.1.2c-.2-1.5-.7-2.7-1.7-3.5-1-.8-2.4-1.2-4.2-1.2s-3.4.4-4.3,1.1c-.9.7-1.3,1.6-1.3,2.6s.3,1.6.9,2.2c.6.6,2.2,1.1,4.9,1.7,2.6.6,4.4,1.1,5.4,1.6,1.4.7,2.5,1.5,3.1,2.5.7,1,1,2.2,1,3.5s-.4,2.5-1.1,3.7c-.7,1.1-1.8,2-3.2,2.7-1.4.6-3,1-4.7,1s-4-.3-5.5-1c-1.5-.6-2.7-1.6-3.5-2.9-.8-1.3-1.3-2.7-1.3-4.4Z"/>
      <path class="cls-17" d="M591.2,789.4l2.9.4c-.3,2-1.1,3.6-2.5,4.8-1.3,1.1-2.9,1.7-4.9,1.7s-4.4-.8-5.8-2.4c-1.5-1.6-2.2-3.8-2.2-6.8s.3-3.6.9-5,1.6-2.5,2.9-3.2c1.3-.7,2.7-1.1,4.2-1.1s3.5.5,4.7,1.5c1.2,1,2,2.3,2.3,4.1l-2.9.4c-.3-1.2-.8-2.1-1.5-2.7-.7-.6-1.6-.9-2.5-.9-1.5,0-2.7.5-3.7,1.6-.9,1.1-1.4,2.8-1.4,5.1s.5,4.1,1.4,5.2c.9,1.1,2.1,1.6,3.6,1.6s2.2-.4,2.9-1.1c.8-.7,1.3-1.8,1.5-3.3Z"/>
      <path class="cls-17" d="M596.7,795.9v-24.3h3v8.7c1.4-1.6,3.2-2.4,5.3-2.4s2.4.3,3.4.8c1,.5,1.7,1.2,2.1,2.1.4.9.6,2.2.6,4v11.2h-3v-11.2c0-1.5-.3-2.6-1-3.3-.6-.7-1.6-1-2.7-1s-1.7.2-2.5.7c-.8.5-1.3,1.1-1.7,1.9s-.5,1.9-.5,3.3v9.6h-3Z"/>
      <path class="cls-17" d="M627.7,790.2l3.1.4c-.5,1.8-1.4,3.2-2.7,4.2s-3,1.5-5,1.5-4.6-.8-6.1-2.4c-1.5-1.6-2.3-3.8-2.3-6.7s.8-5.3,2.3-6.9,3.5-2.5,5.9-2.5,4.3.8,5.8,2.4,2.2,3.9,2.2,6.8,0,.4,0,.8h-13.1c.1,1.9.7,3.4,1.6,4.4s2.2,1.5,3.7,1.5,2-.3,2.8-.9,1.4-1.5,1.8-2.8ZM617.9,785.4h9.8c-.1-1.5-.5-2.6-1.1-3.3-1-1.2-2.2-1.7-3.7-1.7s-2.5.5-3.5,1.4c-.9.9-1.5,2.1-1.6,3.7Z"/>
      <path class="cls-17" d="M634.5,795.9v-17.6h2.7v2.5c.6-.9,1.3-1.6,2.2-2.1.9-.5,2-.8,3.1-.8s2.4.3,3.2.8c.8.5,1.4,1.3,1.8,2.3,1.4-2.1,3.2-3.1,5.4-3.1s3.1.5,4,1.5c.9,1,1.4,2.5,1.4,4.5v12.1h-3v-11.1c0-1.2,0-2.1-.3-2.6-.2-.5-.5-.9-1.1-1.3s-1.1-.5-1.8-.5c-1.2,0-2.3.4-3.1,1.2-.8.8-1.2,2.1-1.2,4v10.2h-3v-11.5c0-1.3-.2-2.3-.7-3s-1.3-1-2.4-1-1.6.2-2.3.7c-.7.4-1.2,1.1-1.6,1.9s-.5,2.1-.5,3.7v9.1h-3Z"/>
      <path class="cls-17" d="M674.4,793.7c-1.1.9-2.2,1.6-3.2,2-1,.4-2.1.6-3.3.6-1.9,0-3.4-.5-4.5-1.4-1-.9-1.6-2.2-1.6-3.6s.2-1.7.6-2.4c.4-.7.9-1.3,1.5-1.7.6-.4,1.4-.8,2.2-1,.6-.2,1.5-.3,2.7-.4,2.4-.3,4.2-.6,5.3-1,0-.4,0-.7,0-.8,0-1.2-.3-2.1-.8-2.6-.8-.7-1.9-1-3.4-1s-2.4.2-3.1.7c-.7.5-1.2,1.4-1.5,2.6l-2.9-.4c.3-1.3.7-2.3,1.3-3,.6-.8,1.5-1.4,2.6-1.8,1.2-.4,2.5-.6,4-.6s2.7.2,3.7.5,1.6.8,2.1,1.3c.4.5.8,1.2.9,2,0,.5.1,1.4.1,2.8v4c0,2.8,0,4.5.2,5.3.1.7.4,1.4.8,2.1h-3.1c-.3-.6-.5-1.3-.6-2.2ZM674.1,787.1c-1.1.4-2.7.8-4.9,1.1-1.2.2-2.1.4-2.6.6s-.9.5-1.2,1c-.3.4-.4.9-.4,1.4,0,.8.3,1.5.9,2,.6.5,1.5.8,2.6.8s2.2-.3,3.1-.8c.9-.5,1.6-1.2,2-2.1.3-.7.5-1.7.5-3v-1.1Z"/>
      <path class="cls-17" d="M691.6,795.9v-24.3h9.2c1.6,0,2.8,0,3.7.2,1.2.2,2.2.6,3,1.1.8.6,1.5,1.3,2,2.3.5,1,.7,2.1.7,3.3,0,2.1-.7,3.8-2,5.3-1.3,1.4-3.7,2.2-7.1,2.2h-6.2v9.9h-3.2ZM694.8,783.1h6.3c2.1,0,3.6-.4,4.4-1.2s1.3-1.9,1.3-3.3-.3-1.9-.8-2.6c-.5-.7-1.2-1.2-2-1.4-.5-.1-1.5-.2-3-.2h-6.2v8.7Z"/>
      <path class="cls-17" d="M713.8,795.9v-24.3h3v24.3h-3Z"/>
      <path class="cls-17" d="M733,793.7c-1.1.9-2.2,1.6-3.2,2-1,.4-2.1.6-3.3.6-1.9,0-3.4-.5-4.5-1.4-1-.9-1.6-2.2-1.6-3.6s.2-1.7.6-2.4c.4-.7.9-1.3,1.5-1.7.6-.4,1.4-.8,2.2-1,.6-.2,1.5-.3,2.7-.4,2.4-.3,4.2-.6,5.3-1,0-.4,0-.7,0-.8,0-1.2-.3-2.1-.8-2.6-.8-.7-1.9-1-3.4-1s-2.4.2-3.1.7c-.7.5-1.2,1.4-1.5,2.6l-2.9-.4c.3-1.3.7-2.3,1.3-3,.6-.8,1.5-1.4,2.6-1.8,1.2-.4,2.5-.6,4-.6s2.7.2,3.7.5,1.6.8,2.1,1.3c.4.5.8,1.2.9,2,0,.5.1,1.4.1,2.8v4c0,2.8,0,4.5.2,5.3.1.7.4,1.4.8,2.1h-3.1c-.3-.6-.5-1.3-.6-2.2ZM732.7,787.1c-1.1.4-2.7.8-4.9,1.1-1.2.2-2.1.4-2.6.6s-.9.5-1.2,1c-.3.4-.4.9-.4,1.4,0,.8.3,1.5.9,2,.6.5,1.5.8,2.6.8s2.2-.3,3.1-.8c.9-.5,1.6-1.2,2-2.1.3-.7.5-1.7.5-3v-1.1Z"/>
      <path class="cls-17" d="M740.2,802.7l-.3-2.8c.7.2,1.2.3,1.7.3s1.2-.1,1.6-.3.7-.5,1-.9c.2-.3.5-1,.9-2.2,0-.2.1-.4.3-.7l-6.7-17.7h3.2l3.7,10.2c.5,1.3.9,2.7,1.3,4.1.3-1.4.8-2.7,1.2-4l3.8-10.3h3l-6.7,17.9c-.7,1.9-1.3,3.3-1.7,4-.5,1-1.1,1.7-1.8,2.2-.7.5-1.5.7-2.5.7s-1.2-.1-1.9-.4Z"/>
      <path class="cls-17" d="M756.8,797.4l2.9.4c.1.9.5,1.5,1,2,.7.6,1.8.8,3,.8s2.5-.3,3.2-.8,1.3-1.3,1.5-2.3c.2-.6.2-1.9.2-3.8-1.3,1.5-2.9,2.3-4.9,2.3s-4.3-.9-5.6-2.6-2-3.8-2-6.3.3-3.2.9-4.7c.6-1.4,1.5-2.5,2.6-3.3,1.2-.8,2.5-1.2,4.1-1.2s3.8.8,5.1,2.5v-2.1h2.8v15.2c0,2.7-.3,4.7-.8,5.8-.6,1.1-1.4,2-2.7,2.7-1.2.7-2.7,1-4.5,1s-3.8-.5-5.1-1.4c-1.3-.9-1.9-2.4-1.9-4.3ZM759.3,786.8c0,2.3.5,4,1.4,5.1s2.1,1.6,3.5,1.6,2.5-.5,3.5-1.6c.9-1.1,1.4-2.7,1.4-5s-.5-3.8-1.4-4.9c-1-1.1-2.1-1.6-3.5-1.6s-2.5.5-3.4,1.6c-.9,1.1-1.4,2.7-1.4,4.8Z"/>
      <path class="cls-17" d="M776.2,795.9v-17.6h2.7v2.7c.7-1.3,1.3-2.1,1.9-2.5.6-.4,1.2-.6,1.9-.6,1,0,2,.3,3.1,1l-1,2.8c-.7-.4-1.5-.6-2.2-.6s-1.2.2-1.8.6c-.5.4-.9.9-1.1,1.6-.3,1.1-.5,2.2-.5,3.5v9.2h-3Z"/>
      <path class="cls-17" d="M786.5,787.1c0-3.3.9-5.7,2.7-7.3,1.5-1.3,3.4-2,5.5-2s4.4.8,5.9,2.4c1.5,1.6,2.3,3.8,2.3,6.6s-.3,4.1-1,5.4c-.7,1.3-1.7,2.3-3,3-1.3.7-2.7,1.1-4.3,1.1-2.5,0-4.5-.8-6-2.4-1.5-1.6-2.3-3.9-2.3-6.8ZM789.5,787.1c0,2.3.5,3.9,1.5,5.1,1,1.1,2.2,1.7,3.7,1.7s2.7-.6,3.7-1.7,1.5-2.8,1.5-5.2-.5-3.8-1.5-5c-1-1.1-2.2-1.7-3.7-1.7s-2.7.6-3.7,1.7-1.5,2.8-1.5,5.1Z"/>
      <path class="cls-17" d="M818.1,795.9v-2.6c-1.4,2-3.2,3-5.6,3s-2-.2-2.9-.6c-.9-.4-1.6-.9-2-1.5-.4-.6-.7-1.3-.9-2.2-.1-.6-.2-1.5-.2-2.8v-10.9h3v9.8c0,1.6,0,2.6.2,3.2.2.8.6,1.4,1.2,1.9.6.4,1.4.7,2.3.7s1.7-.2,2.5-.7c.8-.5,1.3-1.1,1.7-1.9.3-.8.5-1.9.5-3.4v-9.4h3v17.6h-2.7Z"/>
      <path class="cls-17" d="M825.4,795.9v-17.6h2.7v2.5c1.3-1.9,3.2-2.9,5.6-2.9s2,.2,2.9.6c.9.4,1.6.9,2,1.5s.8,1.4.9,2.2c.1.6.2,1.5.2,2.9v10.8h-3v-10.7c0-1.2-.1-2.1-.3-2.7-.2-.6-.6-1.1-1.2-1.4-.6-.4-1.3-.5-2.1-.5-1.3,0-2.4.4-3.3,1.2-.9.8-1.4,2.3-1.4,4.6v9.6h-3Z"/>
      <path class="cls-17" d="M855.8,795.9v-2.2c-1.1,1.7-2.8,2.6-4.9,2.6s-2.7-.4-3.9-1.2c-1.2-.8-2.1-1.9-2.7-3.2-.6-1.4-1-3-1-4.8s.3-3.4.9-4.8c.6-1.4,1.5-2.5,2.6-3.3s2.5-1.1,3.9-1.1,2,.2,2.8.7c.8.4,1.5,1,2,1.8v-8.7h3v24.3h-2.8ZM846.3,787.1c0,2.3.5,3.9,1.4,5.1s2.1,1.7,3.4,1.7,2.4-.5,3.3-1.6c.9-1.1,1.4-2.7,1.4-4.9s-.5-4.2-1.4-5.3-2.1-1.7-3.4-1.7-2.4.5-3.3,1.6c-.9,1.1-1.3,2.8-1.3,5.1Z"/>
    </g>
  </g>
  <g>
    <circle class="cls-21" cx="555.7" cy="497.6" r="40.9"/>
    <path class="cls-9" d="M528.5,482.6v45.9l11.3,5.4v-34.6l-8.9-17.3c-.6-1.2-2.4-.8-2.4.6h0Z"/>
    <path class="cls-9" d="M582.9,482.7v45.1c0,.5-.2.9-.7,1.1l-9.8,5.7c-.9.5-2,0-2-1.1v-32.1c0-.2,0-.4.2-.6l9.8-18.8c.7-1.2,2.5-.8,2.5.6h0Z"/>
    <path class="cls-16" d="M560.4,513c-2.1,3.7-7.3,3.7-9.4,0l-20.2-35.9c-1.4-2.5-.5-5.6,2-7s5.6-.5,7,2l13.8,24.6c.9,1.6,3.2,1.6,4,0l13.5-24.5c1.4-2.5,4.5-3.4,7-2s3.4,4.5,2,7l-19.7,35.9h0Z"/>
  </g>
  <polygon class="cls-16" points="1854.8 501.1 1967.1 513.3 1967.1 543.4 1854.8 555.7 1854.8 501.1 1854.8 501.1"/>
  <g>
    <circle class="cls-21" cx="1800.3" cy="522.3" r="63.4"/>
    <path class="cls-15" d="M1745.4,515.5l16.1,1.9c2.5-21.3,21.9-36.6,43.1-34.1,21.3,2.5,36.6,21.9,34.1,43.1l16.1,1.9c3.6-30.2-18-57.6-48.2-61.1-30.2-3.6-57.6,18-61.1,48.2h0Z"/>
    <path class="cls-6" d="M1798.6,482.9v12.1c16.2,0,29.4,13,29.4,29.1s-13,29.3-29.1,29.4v12.1c22.9,0,41.3-18.7,41.2-41.6,0-22.9-18.7-41.3-41.6-41.2h0Z"/>
    <path class="cls-18" d="M1798.6,494.9c-16.2,0-29.3,13.2-29.3,29.3v53.3l16.9,6.5v-33.2c3.7,1.8,8,2.8,12.5,2.8,16.2,0,29.3-13.2,29.3-29.3s-13.2-29.3-29.3-29.3h0ZM1800.3,537.3c-7.2,0-13.1-5.8-13.1-13.1s5.8-13.1,13.1-13.1,13.1,5.8,13.1,13.1-5.8,13.1-13.1,13.1Z"/>
  </g>
  <g>
    <g>
      <circle class="cls-17" cx="555.7" cy="392.1" r="46"/>
      <path class="cls-9" d="M555.7,440.2c-26.5,0-48.1-21.6-48.1-48.1s21.6-48.1,48.1-48.1,48.1,21.6,48.1,48.1-21.6,48.1-48.1,48.1ZM555.7,348.1c-24.2,0-44,19.7-44,44s19.7,44,44,44,44-19.7,44-44-19.7-44-44-44Z"/>
    </g>
    <path class="cls-15" d="M559.9,432l-.3-11.7c-15.5.4-28.4-11.9-28.8-27.5-.4-15.5,11.9-28.4,27.5-28.8l-.3-11.7c-22,.5-39.4,18.7-38.9,40.7s18.7,39.4,40.7,38.9h0Z"/>
    <path class="cls-16" d="M587.1,391.2l-8,.2c.2,10.7-8.2,19.6-18.9,19.8-10.7.2-19.6-8.2-19.8-18.9l-8,.2c.4,15.2,12.9,27.1,28.1,26.8,15.2-.4,27.1-12.9,26.8-28.1h-.2Z"/>
    <rect class="cls-16" x="558.5" y="383.3" width="28.5" height="8.8"/>
  </g>
  <g class="cls-26">
    <g class="cls-26">
      <path class="cls-9" d="M612,396.8v-24.3h4.8l5.8,17.2c.5,1.6.9,2.8,1.2,3.6.3-.9.7-2.2,1.3-3.9l5.8-16.9h4.3v24.3h-3.1v-20.4l-7.1,20.4h-2.9l-7-20.7v20.7h-3.1Z"/>
      <path class="cls-9" d="M652.1,391.1l3.1.4c-.5,1.8-1.4,3.2-2.7,4.2-1.3,1-3,1.5-5,1.5s-4.6-.8-6.1-2.4c-1.5-1.6-2.3-3.8-2.3-6.7s.8-5.3,2.3-6.9,3.5-2.5,5.9-2.5,4.3.8,5.8,2.4,2.2,3.9,2.2,6.8,0,.4,0,.8h-13.1c.1,1.9.7,3.4,1.6,4.4,1,1,2.2,1.5,3.7,1.5s2-.3,2.8-.9c.8-.6,1.4-1.5,1.8-2.8ZM642.3,386.3h9.8c-.1-1.5-.5-2.6-1.1-3.3-1-1.2-2.2-1.7-3.7-1.7s-2.5.5-3.5,1.4c-.9.9-1.5,2.1-1.6,3.7Z"/>
      <path class="cls-9" d="M665.5,394.1l.4,2.6c-.8.2-1.6.3-2.3.3-1.1,0-1.9-.2-2.5-.5s-1-.8-1.3-1.4c-.2-.6-.4-1.7-.4-3.5v-10.1h-2.2v-2.3h2.2v-4.4l3-1.8v6.2h3v2.3h-3v10.3c0,.9,0,1.4.2,1.6.1.2.3.4.5.6.2.1.6.2,1,.2s.8,0,1.3-.1Z"/>
      <path class="cls-9" d="M679.9,394.6c-1.1.9-2.2,1.6-3.2,2-1,.4-2.1.6-3.3.6-1.9,0-3.4-.5-4.5-1.4-1-.9-1.6-2.2-1.6-3.6s.2-1.7.6-2.4c.4-.7.9-1.3,1.5-1.7.6-.4,1.4-.8,2.2-1,.6-.2,1.5-.3,2.7-.4,2.4-.3,4.2-.6,5.3-1,0-.4,0-.7,0-.8,0-1.2-.3-2.1-.8-2.6-.8-.7-1.9-1-3.4-1s-2.4.2-3.1.7c-.7.5-1.2,1.4-1.5,2.6l-2.9-.4c.3-1.3.7-2.3,1.3-3,.6-.8,1.5-1.4,2.6-1.8,1.2-.4,2.5-.6,4-.6s2.7.2,3.7.5,1.6.8,2.1,1.3c.4.5.8,1.2.9,2,0,.5.1,1.4.1,2.8v4c0,2.8,0,4.5.2,5.3.1.7.4,1.4.8,2.1h-3.1c-.3-.6-.5-1.3-.6-2.2ZM679.7,388c-1.1.4-2.7.8-4.9,1.1-1.2.2-2.1.4-2.6.6s-.9.5-1.2,1c-.3.4-.4.9-.4,1.4,0,.8.3,1.5.9,2,.6.5,1.5.8,2.6.8s2.2-.3,3.1-.8c.9-.5,1.6-1.2,2-2.1.3-.7.5-1.7.5-3v-1.1Z"/>
      <path class="cls-9" d="M698.8,396.8v-2.2c-1.1,1.7-2.8,2.6-4.9,2.6s-2.7-.4-3.9-1.2c-1.2-.8-2.1-1.9-2.7-3.2-.6-1.4-1-3-1-4.8s.3-3.4.9-4.8c.6-1.4,1.5-2.5,2.6-3.3s2.5-1.1,3.9-1.1,2,.2,2.8.7c.8.4,1.5,1,2,1.8v-8.7h3v24.3h-2.8ZM689.3,388c0,2.3.5,3.9,1.4,5.1s2.1,1.7,3.4,1.7,2.4-.5,3.3-1.6c.9-1.1,1.4-2.7,1.4-4.9s-.5-4.2-1.4-5.3-2.1-1.7-3.4-1.7-2.4.5-3.3,1.6c-.9,1.1-1.3,2.8-1.3,5.1Z"/>
      <path class="cls-9" d="M717.7,394.6c-1.1.9-2.2,1.6-3.2,2-1,.4-2.1.6-3.3.6-1.9,0-3.4-.5-4.5-1.4-1-.9-1.6-2.2-1.6-3.6s.2-1.7.6-2.4c.4-.7.9-1.3,1.5-1.7.6-.4,1.4-.8,2.2-1,.6-.2,1.5-.3,2.7-.4,2.4-.3,4.2-.6,5.3-1,0-.4,0-.7,0-.8,0-1.2-.3-2.1-.8-2.6-.8-.7-1.9-1-3.4-1s-2.4.2-3.1.7c-.7.5-1.2,1.4-1.5,2.6l-2.9-.4c.3-1.3.7-2.3,1.3-3,.6-.8,1.5-1.4,2.6-1.8,1.2-.4,2.5-.6,4-.6s2.7.2,3.7.5,1.6.8,2.1,1.3c.4.5.8,1.2.9,2,0,.5.1,1.4.1,2.8v4c0,2.8,0,4.5.2,5.3.1.7.4,1.4.8,2.1h-3.1c-.3-.6-.5-1.3-.6-2.2ZM717.5,388c-1.1.4-2.7.8-4.9,1.1-1.2.2-2.1.4-2.6.6s-.9.5-1.2,1c-.3.4-.4.9-.4,1.4,0,.8.3,1.5.9,2,.6.5,1.5.8,2.6.8s2.2-.3,3.1-.8c.9-.5,1.6-1.2,2-2.1.3-.7.5-1.7.5-3v-1.1Z"/>
      <path class="cls-9" d="M731.7,394.1l.4,2.6c-.8.2-1.6.3-2.3.3-1.1,0-1.9-.2-2.5-.5s-1-.8-1.3-1.4c-.2-.6-.4-1.7-.4-3.5v-10.1h-2.2v-2.3h2.2v-4.4l3-1.8v6.2h3v2.3h-3v10.3c0,.9,0,1.4.2,1.6.1.2.3.4.5.6.2.1.6.2,1,.2s.8,0,1.3-.1Z"/>
      <path class="cls-9" d="M746.1,394.6c-1.1.9-2.2,1.6-3.2,2-1,.4-2.1.6-3.3.6-1.9,0-3.4-.5-4.5-1.4-1-.9-1.6-2.2-1.6-3.6s.2-1.7.6-2.4c.4-.7.9-1.3,1.5-1.7.6-.4,1.4-.8,2.2-1,.6-.2,1.5-.3,2.7-.4,2.4-.3,4.2-.6,5.3-1,0-.4,0-.7,0-.8,0-1.2-.3-2.1-.8-2.6-.8-.7-1.9-1-3.4-1s-2.4.2-3.1.7c-.7.5-1.2,1.4-1.5,2.6l-2.9-.4c.3-1.3.7-2.3,1.3-3,.6-.8,1.5-1.4,2.6-1.8,1.2-.4,2.5-.6,4-.6s2.7.2,3.7.5,1.6.8,2.1,1.3c.4.5.8,1.2.9,2,0,.5.1,1.4.1,2.8v4c0,2.8,0,4.5.2,5.3.1.7.4,1.4.8,2.1h-3.1c-.3-.6-.5-1.3-.6-2.2ZM745.8,388c-1.1.4-2.7.8-4.9,1.1-1.2.2-2.1.4-2.6.6s-.9.5-1.2,1c-.3.4-.4.9-.4,1.4,0,.8.3,1.5.9,2,.6.5,1.5.8,2.6.8s2.2-.3,3.1-.8c.9-.5,1.6-1.2,2-2.1.3-.7.5-1.7.5-3v-1.1Z"/>
      <path class="cls-9" d="M774.7,387.3v-2.9h10.3s0,9,0,9c-1.6,1.3-3.2,2.2-4.9,2.8-1.7.6-3.4,1-5.2,1s-4.6-.5-6.5-1.5c-2-1-3.4-2.5-4.4-4.4s-1.5-4.1-1.5-6.5.5-4.6,1.5-6.6c1-2.1,2.4-3.6,4.3-4.6s4-1.5,6.4-1.5,3.4.3,4.8.9c1.4.6,2.5,1.4,3.3,2.4s1.4,2.3,1.8,4l-2.9.8c-.4-1.2-.8-2.2-1.4-2.9s-1.3-1.3-2.3-1.7c-1-.4-2.1-.6-3.4-.6s-2.7.2-3.8.7c-1.1.4-1.9,1-2.6,1.8-.7.7-1.2,1.5-1.5,2.4-.6,1.5-.9,3.1-.9,4.9s.4,4,1.1,5.4c.7,1.5,1.8,2.5,3.3,3.3s2.9,1.1,4.5,1.1,2.8-.3,4.1-.8c1.3-.5,2.3-1.1,3-1.7v-4.5h-7.2Z"/>
      <path class="cls-9" d="M801.5,391.1l3.1.4c-.5,1.8-1.4,3.2-2.7,4.2s-3,1.5-5,1.5-4.6-.8-6.1-2.4c-1.5-1.6-2.3-3.8-2.3-6.7s.8-5.3,2.3-6.9,3.5-2.5,5.9-2.5,4.3.8,5.8,2.4,2.2,3.9,2.2,6.8,0,.4,0,.8h-13.1c.1,1.9.7,3.4,1.6,4.4s2.2,1.5,3.7,1.5,2-.3,2.8-.9,1.4-1.5,1.8-2.8ZM791.7,386.3h9.8c-.1-1.5-.5-2.6-1.1-3.3-1-1.2-2.2-1.7-3.7-1.7s-2.5.5-3.5,1.4c-.9.9-1.5,2.1-1.6,3.7Z"/>
      <path class="cls-9" d="M808.3,396.8v-17.6h2.7v2.5c1.3-1.9,3.2-2.9,5.6-2.9s2,.2,2.9.6c.9.4,1.6.9,2,1.5s.8,1.4.9,2.2c.1.6.2,1.5.2,2.9v10.8h-3v-10.7c0-1.2-.1-2.1-.3-2.7-.2-.6-.6-1.1-1.2-1.4-.6-.4-1.3-.5-2.1-.5-1.3,0-2.4.4-3.3,1.2-.9.8-1.4,2.3-1.4,4.6v9.6h-3Z"/>
      <path class="cls-9" d="M839.3,391.1l3.1.4c-.5,1.8-1.4,3.2-2.7,4.2s-3,1.5-5,1.5-4.6-.8-6.1-2.4c-1.5-1.6-2.3-3.8-2.3-6.7s.8-5.3,2.3-6.9,3.5-2.5,5.9-2.5,4.3.8,5.8,2.4,2.2,3.9,2.2,6.8,0,.4,0,.8h-13.1c.1,1.9.7,3.4,1.6,4.4s2.2,1.5,3.7,1.5,2-.3,2.8-.9,1.4-1.5,1.8-2.8ZM829.5,386.3h9.8c-.1-1.5-.5-2.6-1.1-3.3-1-1.2-2.2-1.7-3.7-1.7s-2.5.5-3.5,1.4c-.9.9-1.5,2.1-1.6,3.7Z"/>
      <path class="cls-9" d="M846.1,396.8v-17.6h2.7v2.7c.7-1.3,1.3-2.1,1.9-2.5.6-.4,1.2-.6,1.9-.6,1,0,2,.3,3.1,1l-1,2.8c-.7-.4-1.5-.6-2.2-.6s-1.2.2-1.8.6c-.5.4-.9.9-1.1,1.6-.3,1.1-.5,2.2-.5,3.5v9.2h-3Z"/>
      <path class="cls-9" d="M868.9,394.6c-1.1.9-2.2,1.6-3.2,2-1,.4-2.1.6-3.3.6-1.9,0-3.4-.5-4.5-1.4-1-.9-1.6-2.2-1.6-3.6s.2-1.7.6-2.4c.4-.7.9-1.3,1.5-1.7.6-.4,1.4-.8,2.2-1,.6-.2,1.5-.3,2.7-.4,2.4-.3,4.2-.6,5.3-1,0-.4,0-.7,0-.8,0-1.2-.3-2.1-.8-2.6-.8-.7-1.9-1-3.4-1s-2.4.2-3.1.7c-.7.5-1.2,1.4-1.5,2.6l-2.9-.4c.3-1.3.7-2.3,1.3-3,.6-.8,1.5-1.4,2.6-1.8,1.2-.4,2.5-.6,4-.6s2.7.2,3.7.5,1.6.8,2.1,1.3c.4.5.8,1.2.9,2,0,.5.1,1.4.1,2.8v4c0,2.8,0,4.5.2,5.3.1.7.4,1.4.8,2.1h-3.1c-.3-.6-.5-1.3-.6-2.2ZM868.7,388c-1.1.4-2.7.8-4.9,1.1-1.2.2-2.1.4-2.6.6s-.9.5-1.2,1c-.3.4-.4.9-.4,1.4,0,.8.3,1.5.9,2,.6.5,1.5.8,2.6.8s2.2-.3,3.1-.8c.9-.5,1.6-1.2,2-2.1.3-.7.5-1.7.5-3v-1.1Z"/>
      <path class="cls-9" d="M882.9,394.1l.4,2.6c-.8.2-1.6.3-2.3.3-1.1,0-1.9-.2-2.5-.5s-1-.8-1.3-1.4c-.2-.6-.4-1.7-.4-3.5v-10.1h-2.2v-2.3h2.2v-4.4l3-1.8v6.2h3v2.3h-3v10.3c0,.9,0,1.4.2,1.6.1.2.3.4.5.6.2.1.6.2,1,.2s.8,0,1.3-.1Z"/>
      <path class="cls-9" d="M884.7,388c0-3.3.9-5.7,2.7-7.3,1.5-1.3,3.4-2,5.5-2s4.4.8,5.9,2.4c1.5,1.6,2.3,3.8,2.3,6.6s-.3,4.1-1,5.4c-.7,1.3-1.7,2.3-3,3-1.3.7-2.7,1.1-4.3,1.1-2.5,0-4.5-.8-6-2.4-1.5-1.6-2.3-3.9-2.3-6.8ZM887.8,388c0,2.3.5,3.9,1.5,5.1,1,1.1,2.2,1.7,3.7,1.7s2.7-.6,3.7-1.7,1.5-2.8,1.5-5.2-.5-3.8-1.5-5c-1-1.1-2.2-1.7-3.7-1.7s-2.7.6-3.7,1.7-1.5,2.8-1.5,5.1Z"/>
      <path class="cls-9" d="M904.7,396.8v-17.6h2.7v2.7c.7-1.3,1.3-2.1,1.9-2.5.6-.4,1.2-.6,1.9-.6,1,0,2,.3,3.1,1l-1,2.8c-.7-.4-1.5-.6-2.2-.6s-1.2.2-1.8.6c-.5.4-.9.9-1.1,1.6-.3,1.1-.5,2.2-.5,3.5v9.2h-3Z"/>
    </g>
  </g>
  <g class="cls-26">
    <g class="cls-26">
      <path class="cls-9" d="M618.1,508.8v-24.3h4.8l5.8,17.2c.5,1.6.9,2.8,1.2,3.6.3-.9.7-2.2,1.3-3.9l5.8-16.9h4.3v24.3h-3.1v-20.4l-7.1,20.4h-2.9l-7-20.7v20.7h-3.1Z"/>
      <path class="cls-9" d="M658.2,503.1l3.1.4c-.5,1.8-1.4,3.2-2.7,4.2-1.3,1-3,1.5-5,1.5s-4.6-.8-6.1-2.4c-1.5-1.6-2.3-3.8-2.3-6.7s.8-5.3,2.3-6.9,3.5-2.5,5.9-2.5,4.3.8,5.8,2.4,2.2,3.9,2.2,6.8,0,.4,0,.8h-13.1c.1,1.9.7,3.4,1.6,4.4,1,1,2.2,1.5,3.7,1.5s2-.3,2.8-.9c.8-.6,1.4-1.5,1.8-2.8ZM648.4,498.3h9.8c-.1-1.5-.5-2.6-1.1-3.3-1-1.2-2.2-1.7-3.7-1.7s-2.5.5-3.5,1.4c-.9.9-1.5,2.1-1.6,3.7Z"/>
      <path class="cls-9" d="M671.6,506.1l.4,2.6c-.8.2-1.6.3-2.3.3-1.1,0-1.9-.2-2.5-.5s-1-.8-1.3-1.4c-.2-.6-.4-1.7-.4-3.5v-10.1h-2.2v-2.3h2.2v-4.4l3-1.8v6.2h3v2.3h-3v10.3c0,.9,0,1.4.2,1.6.1.2.3.4.5.6.2.1.6.2,1,.2s.8,0,1.3-.1Z"/>
      <path class="cls-9" d="M686,506.6c-1.1.9-2.2,1.6-3.2,2-1,.4-2.1.6-3.3.6-1.9,0-3.4-.5-4.5-1.4-1-.9-1.6-2.2-1.6-3.6s.2-1.7.6-2.4c.4-.7.9-1.3,1.5-1.7.6-.4,1.4-.8,2.2-1,.6-.2,1.5-.3,2.7-.4,2.4-.3,4.2-.6,5.3-1,0-.4,0-.7,0-.8,0-1.2-.3-2.1-.8-2.6-.8-.7-1.9-1-3.4-1s-2.4.2-3.1.7c-.7.5-1.2,1.4-1.5,2.6l-2.9-.4c.3-1.3.7-2.3,1.3-3,.6-.8,1.5-1.4,2.6-1.8,1.2-.4,2.5-.6,4-.6s2.7.2,3.7.5,1.6.8,2.1,1.3c.4.5.8,1.2.9,2,0,.5.1,1.4.1,2.8v4c0,2.8,0,4.5.2,5.3.1.7.4,1.4.8,2.1h-3.1c-.3-.6-.5-1.3-.6-2.2ZM685.8,500c-1.1.4-2.7.8-4.9,1.1-1.2.2-2.1.4-2.6.6s-.9.5-1.2,1c-.3.4-.4.9-.4,1.4,0,.8.3,1.5.9,2,.6.5,1.5.8,2.6.8s2.2-.3,3.1-.8c.9-.5,1.6-1.2,2-2.1.3-.7.5-1.7.5-3v-1.1Z"/>
      <path class="cls-9" d="M704.9,508.8v-2.2c-1.1,1.7-2.8,2.6-4.9,2.6s-2.7-.4-3.9-1.2c-1.2-.8-2.1-1.9-2.7-3.2-.6-1.4-1-3-1-4.8s.3-3.4.9-4.8c.6-1.4,1.5-2.5,2.6-3.3s2.5-1.1,3.9-1.1,2,.2,2.8.7c.8.4,1.5,1,2,1.8v-8.7h3v24.3h-2.8ZM695.4,500c0,2.3.5,3.9,1.4,5.1s2.1,1.7,3.4,1.7,2.4-.5,3.3-1.6c.9-1.1,1.4-2.7,1.4-4.9s-.5-4.2-1.4-5.3-2.1-1.7-3.4-1.7-2.4.5-3.3,1.6c-.9,1.1-1.3,2.8-1.3,5.1Z"/>
      <path class="cls-9" d="M723.8,506.6c-1.1.9-2.2,1.6-3.2,2-1,.4-2.1.6-3.3.6-1.9,0-3.4-.5-4.5-1.4-1-.9-1.6-2.2-1.6-3.6s.2-1.7.6-2.4c.4-.7.9-1.3,1.5-1.7.6-.4,1.4-.8,2.2-1,.6-.2,1.5-.3,2.7-.4,2.4-.3,4.2-.6,5.3-1,0-.4,0-.7,0-.8,0-1.2-.3-2.1-.8-2.6-.8-.7-1.9-1-3.4-1s-2.4.2-3.1.7c-.7.5-1.2,1.4-1.5,2.6l-2.9-.4c.3-1.3.7-2.3,1.3-3,.6-.8,1.5-1.4,2.6-1.8,1.2-.4,2.5-.6,4-.6s2.7.2,3.7.5,1.6.8,2.1,1.3c.4.5.8,1.2.9,2,0,.5.1,1.4.1,2.8v4c0,2.8,0,4.5.2,5.3.1.7.4,1.4.8,2.1h-3.1c-.3-.6-.5-1.3-.6-2.2ZM723.6,500c-1.1.4-2.7.8-4.9,1.1-1.2.2-2.1.4-2.6.6s-.9.5-1.2,1c-.3.4-.4.9-.4,1.4,0,.8.3,1.5.9,2,.6.5,1.5.8,2.6.8s2.2-.3,3.1-.8c.9-.5,1.6-1.2,2-2.1.3-.7.5-1.7.5-3v-1.1Z"/>
      <path class="cls-9" d="M737.8,506.1l.4,2.6c-.8.2-1.6.3-2.3.3-1.1,0-1.9-.2-2.5-.5s-1-.8-1.3-1.4c-.2-.6-.4-1.7-.4-3.5v-10.1h-2.2v-2.3h2.2v-4.4l3-1.8v6.2h3v2.3h-3v10.3c0,.9,0,1.4.2,1.6.1.2.3.4.5.6.2.1.6.2,1,.2s.8,0,1.3-.1Z"/>
      <path class="cls-9" d="M752.2,506.6c-1.1.9-2.2,1.6-3.2,2-1,.4-2.1.6-3.3.6-1.9,0-3.4-.5-4.5-1.4-1-.9-1.6-2.2-1.6-3.6s.2-1.7.6-2.4c.4-.7.9-1.3,1.5-1.7.6-.4,1.4-.8,2.2-1,.6-.2,1.5-.3,2.7-.4,2.4-.3,4.2-.6,5.3-1,0-.4,0-.7,0-.8,0-1.2-.3-2.1-.8-2.6-.8-.7-1.9-1-3.4-1s-2.4.2-3.1.7c-.7.5-1.2,1.4-1.5,2.6l-2.9-.4c.3-1.3.7-2.3,1.3-3,.6-.8,1.5-1.4,2.6-1.8,1.2-.4,2.5-.6,4-.6s2.7.2,3.7.5,1.6.8,2.1,1.3c.4.5.8,1.2.9,2,0,.5.1,1.4.1,2.8v4c0,2.8,0,4.5.2,5.3.1.7.4,1.4.8,2.1h-3.1c-.3-.6-.5-1.3-.6-2.2ZM751.9,500c-1.1.4-2.7.8-4.9,1.1-1.2.2-2.1.4-2.6.6s-.9.5-1.2,1c-.3.4-.4.9-.4,1.4,0,.8.3,1.5.9,2,.6.5,1.5.8,2.6.8s2.2-.3,3.1-.8c.9-.5,1.6-1.2,2-2.1.3-.7.5-1.7.5-3v-1.1Z"/>
      <path class="cls-9" d="M776.4,508.8l-9.4-24.3h3.5l6.3,17.7c.5,1.4.9,2.7,1.3,4,.4-1.3.8-2.7,1.3-4l6.6-17.7h3.3l-9.5,24.3h-3.3Z"/>
      <path class="cls-9" d="M800.7,506.6c-1.1.9-2.2,1.6-3.2,2-1,.4-2.1.6-3.3.6-1.9,0-3.4-.5-4.5-1.4-1-.9-1.6-2.2-1.6-3.6s.2-1.7.6-2.4c.4-.7.9-1.3,1.5-1.7.6-.4,1.4-.8,2.2-1,.6-.2,1.5-.3,2.7-.4,2.4-.3,4.2-.6,5.3-1,0-.4,0-.7,0-.8,0-1.2-.3-2.1-.8-2.6-.8-.7-1.9-1-3.4-1s-2.4.2-3.1.7c-.7.5-1.2,1.4-1.5,2.6l-2.9-.4c.3-1.3.7-2.3,1.3-3,.6-.8,1.5-1.4,2.6-1.8,1.2-.4,2.5-.6,4-.6s2.7.2,3.7.5,1.6.8,2.1,1.3c.4.5.8,1.2.9,2,0,.5.1,1.4.1,2.8v4c0,2.8,0,4.5.2,5.3.1.7.4,1.4.8,2.1h-3.1c-.3-.6-.5-1.3-.6-2.2ZM800.5,500c-1.1.4-2.7.8-4.9,1.1-1.2.2-2.1.4-2.6.6s-.9.5-1.2,1c-.3.4-.4.9-.4,1.4,0,.8.3,1.5.9,2,.6.5,1.5.8,2.6.8s2.2-.3,3.1-.8c.9-.5,1.6-1.2,2-2.1.3-.7.5-1.7.5-3v-1.1Z"/>
      <path class="cls-9" d="M808,508.8v-24.3h3v24.3h-3Z"/>
      <path class="cls-9" d="M815.7,487.9v-3.4h3v3.4h-3ZM815.7,508.8v-17.6h3v17.6h-3Z"/>
      <path class="cls-9" d="M834.7,508.8v-2.2c-1.1,1.7-2.8,2.6-4.9,2.6s-2.7-.4-3.9-1.2c-1.2-.8-2.1-1.9-2.7-3.2-.6-1.4-1-3-1-4.8s.3-3.4.9-4.8c.6-1.4,1.5-2.5,2.6-3.3s2.5-1.1,3.9-1.1,2,.2,2.8.7c.8.4,1.5,1,2,1.8v-8.7h3v24.3h-2.8ZM825.2,500c0,2.3.5,3.9,1.4,5.1s2.1,1.7,3.4,1.7,2.4-.5,3.3-1.6c.9-1.1,1.4-2.7,1.4-4.9s-.5-4.2-1.4-5.3-2.1-1.7-3.4-1.7-2.4.5-3.3,1.6c-.9,1.1-1.3,2.8-1.3,5.1Z"/>
      <path class="cls-9" d="M853.6,506.6c-1.1.9-2.2,1.6-3.2,2-1,.4-2.1.6-3.3.6-1.9,0-3.4-.5-4.5-1.4-1-.9-1.6-2.2-1.6-3.6s.2-1.7.6-2.4c.4-.7.9-1.3,1.5-1.7.6-.4,1.4-.8,2.2-1,.6-.2,1.5-.3,2.7-.4,2.4-.3,4.2-.6,5.3-1,0-.4,0-.7,0-.8,0-1.2-.3-2.1-.8-2.6-.8-.7-1.9-1-3.4-1s-2.4.2-3.1.7c-.7.5-1.2,1.4-1.5,2.6l-2.9-.4c.3-1.3.7-2.3,1.3-3,.6-.8,1.5-1.4,2.6-1.8,1.2-.4,2.5-.6,4-.6s2.7.2,3.7.5,1.6.8,2.1,1.3c.4.5.8,1.2.9,2,0,.5.1,1.4.1,2.8v4c0,2.8,0,4.5.2,5.3.1.7.4,1.4.8,2.1h-3.1c-.3-.6-.5-1.3-.6-2.2ZM853.4,500c-1.1.4-2.7.8-4.9,1.1-1.2.2-2.1.4-2.6.6s-.9.5-1.2,1c-.3.4-.4.9-.4,1.4,0,.8.3,1.5.9,2,.6.5,1.5.8,2.6.8s2.2-.3,3.1-.8c.9-.5,1.6-1.2,2-2.1.3-.7.5-1.7.5-3v-1.1Z"/>
      <path class="cls-9" d="M867.6,506.1l.4,2.6c-.8.2-1.6.3-2.3.3-1.1,0-1.9-.2-2.5-.5s-1-.8-1.3-1.4c-.2-.6-.4-1.7-.4-3.5v-10.1h-2.2v-2.3h2.2v-4.4l3-1.8v6.2h3v2.3h-3v10.3c0,.9,0,1.4.2,1.6.1.2.3.4.5.6.2.1.6.2,1,.2s.8,0,1.3-.1Z"/>
      <path class="cls-9" d="M869.4,500c0-3.3.9-5.7,2.7-7.3,1.5-1.3,3.4-2,5.5-2s4.4.8,5.9,2.4c1.5,1.6,2.3,3.8,2.3,6.6s-.3,4.1-1,5.4c-.7,1.3-1.7,2.3-3,3-1.3.7-2.7,1.1-4.3,1.1-2.5,0-4.5-.8-6-2.4-1.5-1.6-2.3-3.9-2.3-6.8ZM872.4,500c0,2.3.5,3.9,1.5,5.1,1,1.1,2.2,1.7,3.7,1.7s2.7-.6,3.7-1.7,1.5-2.8,1.5-5.2-.5-3.8-1.5-5c-1-1.1-2.2-1.7-3.7-1.7s-2.7.6-3.7,1.7-1.5,2.8-1.5,5.1Z"/>
      <path class="cls-9" d="M889.4,508.8v-17.6h2.7v2.7c.7-1.3,1.3-2.1,1.9-2.5.6-.4,1.2-.6,1.9-.6,1,0,2,.3,3.1,1l-1,2.8c-.7-.4-1.5-.6-2.2-.6s-1.2.2-1.8.6c-.5.4-.9.9-1.1,1.6-.3,1.1-.5,2.2-.5,3.5v9.2h-3Z"/>
    </g>
  </g>
  <g class="cls-26">
    <g class="cls-26">
      <path class="cls-17" d="M127.6,853v-29.3h11.1c1.9,0,3.4,0,4.5.3,1.4.2,2.6.7,3.6,1.4,1,.7,1.8,1.6,2.4,2.8.6,1.2.9,2.5.9,4,0,2.5-.8,4.6-2.4,6.3-1.6,1.7-4.5,2.6-8.6,2.6h-7.5v11.9h-3.9ZM131.4,837.6h7.6c2.5,0,4.3-.5,5.3-1.4,1.1-.9,1.6-2.2,1.6-3.9s-.3-2.3-.9-3.2c-.6-.9-1.4-1.5-2.5-1.7-.7-.2-1.9-.3-3.6-.3h-7.5v10.5Z"/>
      <path class="cls-17" d="M153.1,842.4c0-3.9,1.1-6.9,3.3-8.7,1.8-1.6,4.1-2.4,6.7-2.4s5.3,1,7.2,2.9c1.9,1.9,2.8,4.6,2.8,7.9s-.4,4.9-1.2,6.5c-.8,1.6-2,2.8-3.6,3.7-1.6.9-3.3,1.3-5.1,1.3-3,0-5.4-1-7.2-2.9-1.8-1.9-2.8-4.7-2.8-8.2ZM156.8,842.4c0,2.7.6,4.8,1.8,6.1,1.2,1.4,2.7,2,4.5,2s3.3-.7,4.5-2c1.2-1.4,1.8-3.4,1.8-6.2s-.6-4.6-1.8-6c-1.2-1.4-2.7-2-4.5-2s-3.3.7-4.5,2c-1.2,1.3-1.8,3.4-1.8,6.1Z"/>
      <path class="cls-17" d="M177.2,853v-21.3h3.2v3.2c.8-1.5,1.6-2.5,2.3-3,.7-.5,1.5-.7,2.3-.7,1.2,0,2.4.4,3.7,1.2l-1.2,3.3c-.9-.5-1.8-.8-2.6-.8s-1.5.2-2.1.7c-.6.5-1.1,1.1-1.3,2-.4,1.3-.6,2.7-.6,4.2v11.1h-3.6Z"/>
      <path class="cls-17" d="M198.8,849.8l.5,3.2c-1,.2-1.9.3-2.7.3-1.3,0-2.3-.2-3-.6-.7-.4-1.2-1-1.5-1.6-.3-.7-.4-2.1-.4-4.3v-12.2h-2.6v-2.8h2.6v-5.3l3.6-2.2v7.4h3.6v2.8h-3.6v12.4c0,1,0,1.7.2,2,.1.3.3.5.6.7.3.2.7.3,1.2.3s.9,0,1.6-.1Z"/>
      <path class="cls-17" d="M216.2,850.4c-1.3,1.1-2.6,1.9-3.9,2.4-1.2.5-2.6.7-4,.7-2.3,0-4.1-.6-5.4-1.7-1.3-1.1-1.9-2.6-1.9-4.4s.2-2,.7-2.9c.5-.9,1.1-1.6,1.9-2.1s1.6-.9,2.6-1.2c.7-.2,1.8-.4,3.2-.5,2.9-.3,5.1-.8,6.4-1.2,0-.5,0-.8,0-.9,0-1.5-.3-2.5-1-3.1-.9-.8-2.3-1.2-4.1-1.2s-2.9.3-3.8.9-1.4,1.6-1.8,3.2l-3.5-.5c.3-1.5.8-2.7,1.6-3.7.7-.9,1.8-1.6,3.2-2.1,1.4-.5,3-.8,4.8-.8s3.3.2,4.4.6c1.1.4,2,1,2.5,1.6.5.6.9,1.5,1.1,2.5.1.6.2,1.7.2,3.3v4.8c0,3.3,0,5.5.2,6.4.2.9.5,1.7.9,2.6h-3.8c-.4-.7-.6-1.6-.7-2.6ZM215.9,842.3c-1.3.5-3.3,1-5.9,1.4-1.5.2-2.5.5-3.1.7-.6.3-1.1.7-1.4,1.2-.3.5-.5,1.1-.5,1.7,0,1,.4,1.8,1.1,2.4s1.8,1,3.2,1,2.6-.3,3.7-.9c1.1-.6,1.9-1.4,2.4-2.5.4-.8.6-2,.6-3.6v-1.3Z"/>
      <path class="cls-17" d="M225,853v-29.3h3.6v29.3h-3.6Z"/>
      <path class="cls-17" d="M127.6,902.2v-29.3h10.1c2.3,0,4,.1,5.2.4,1.7.4,3.1,1.1,4.3,2.1,1.5,1.3,2.7,3,3.5,5,.8,2,1.2,4.4,1.2,7s-.3,4.2-.8,5.9c-.5,1.7-1.2,3.1-2,4.3-.8,1.1-1.7,2-2.7,2.7-1,.6-2.1,1.1-3.5,1.5-1.4.3-2.9.5-4.7.5h-10.6ZM131.4,898.7h6.3c1.9,0,3.5-.2,4.6-.5,1.1-.4,2-.9,2.6-1.5s1.6-2.2,2.2-3.7c.5-1.6.8-3.4.8-5.7s-.5-5.4-1.5-7.1c-1-1.6-2.2-2.8-3.7-3.3-1-.4-2.7-.6-5-.6h-6.2v22.4Z"/>
      <path class="cls-17" d="M171.3,895.4l3.7.5c-.6,2.2-1.7,3.9-3.3,5.1-1.6,1.2-3.6,1.8-6.1,1.8s-5.6-1-7.4-2.9c-1.8-1.9-2.7-4.6-2.7-8.1s.9-6.4,2.8-8.3c1.8-2,4.2-3,7.2-3s5.2,1,7,2.9c1.8,1.9,2.7,4.7,2.7,8.2s0,.5,0,1h-15.9c.1,2.3.8,4.1,2,5.4,1.2,1.2,2.7,1.9,4.4,1.9s2.4-.3,3.4-1c.9-.7,1.7-1.8,2.2-3.3ZM159.4,889.5h11.9c-.2-1.8-.6-3.1-1.4-4-1.1-1.4-2.6-2.1-4.5-2.1s-3,.6-4.2,1.7c-1.1,1.1-1.8,2.6-1.9,4.4Z"/>
      <path class="cls-17" d="M185.4,902.2l-8.1-21.3h3.8l4.6,12.7c.5,1.4.9,2.8,1.4,4.3.3-1.1.8-2.5,1.3-4l4.7-13h3.7l-8,21.3h-3.4Z"/>
      <path class="cls-17" d="M214.6,895.4l3.7.5c-.6,2.2-1.7,3.9-3.3,5.1-1.6,1.2-3.6,1.8-6.1,1.8s-5.6-1-7.4-2.9c-1.8-1.9-2.7-4.6-2.7-8.1s.9-6.4,2.8-8.3c1.8-2,4.2-3,7.2-3s5.2,1,7,2.9c1.8,1.9,2.7,4.7,2.7,8.2s0,.5,0,1h-15.9c.1,2.3.8,4.1,2,5.4,1.2,1.2,2.7,1.9,4.4,1.9s2.4-.3,3.4-1c.9-.7,1.7-1.8,2.2-3.3ZM202.7,889.5h11.9c-.2-1.8-.6-3.1-1.4-4-1.1-1.4-2.6-2.1-4.5-2.1s-3,.6-4.2,1.7c-1.1,1.1-1.8,2.6-1.9,4.4Z"/>
      <path class="cls-17" d="M222.7,902.2v-29.3h3.6v29.3h-3.6Z"/>
      <path class="cls-17" d="M230.6,891.6c0-3.9,1.1-6.9,3.3-8.7,1.8-1.6,4.1-2.4,6.7-2.4s5.3,1,7.2,2.9c1.9,1.9,2.8,4.6,2.8,7.9s-.4,4.9-1.2,6.5c-.8,1.6-2,2.8-3.6,3.7-1.6.9-3.3,1.3-5.1,1.3-3,0-5.4-1-7.2-2.9-1.8-1.9-2.8-4.7-2.8-8.2ZM234.3,891.6c0,2.7.6,4.8,1.8,6.1,1.2,1.4,2.7,2,4.5,2s3.3-.7,4.5-2c1.2-1.4,1.8-3.4,1.8-6.2s-.6-4.6-1.8-6c-1.2-1.4-2.7-2-4.5-2s-3.3.7-4.5,2c-1.2,1.3-1.8,3.4-1.8,6.1Z"/>
      <path class="cls-17" d="M254.7,910.3v-29.4h3.3v2.8c.8-1.1,1.6-1.9,2.6-2.4,1-.5,2.2-.8,3.5-.8s3.4.5,4.8,1.4c1.4.9,2.4,2.3,3.1,4,.7,1.7,1.1,3.6,1.1,5.6s-.4,4.1-1.2,5.9c-.8,1.7-1.9,3.1-3.4,4-1.5.9-3.1,1.4-4.7,1.4s-2.3-.3-3.2-.8-1.7-1.1-2.4-1.9v10.4h-3.6ZM258,891.7c0,2.7.6,4.8,1.7,6.1,1.1,1.3,2.4,2,4,2s3-.7,4.1-2c1.1-1.4,1.7-3.5,1.7-6.3s-.6-4.7-1.7-6.1c-1.1-1.3-2.4-2-4-2s-2.9.7-4.1,2.2c-1.2,1.4-1.8,3.5-1.8,6.3Z"/>
      <path class="cls-17" d="M292.1,895.4l3.7.5c-.6,2.2-1.7,3.9-3.3,5.1-1.6,1.2-3.6,1.8-6.1,1.8s-5.6-1-7.4-2.9c-1.8-1.9-2.7-4.6-2.7-8.1s.9-6.4,2.8-8.3c1.8-2,4.2-3,7.2-3s5.2,1,7,2.9c1.8,1.9,2.7,4.7,2.7,8.2s0,.5,0,1h-15.9c.1,2.3.8,4.1,2,5.4,1.2,1.2,2.7,1.9,4.4,1.9s2.4-.3,3.4-1c.9-.7,1.7-1.8,2.2-3.3ZM280.3,889.5h11.9c-.2-1.8-.6-3.1-1.4-4-1.1-1.4-2.6-2.1-4.5-2.1s-3,.6-4.2,1.7c-1.1,1.1-1.8,2.6-1.9,4.4Z"/>
      <path class="cls-17" d="M300.3,902.2v-21.3h3.2v3.2c.8-1.5,1.6-2.5,2.3-3,.7-.5,1.5-.7,2.3-.7,1.2,0,2.4.4,3.7,1.2l-1.2,3.3c-.9-.5-1.8-.8-2.6-.8s-1.5.2-2.1.7c-.6.5-1.1,1.1-1.3,2-.4,1.3-.6,2.7-.6,4.2v11.1h-3.6Z"/>
      <path class="cls-17" d="M312.5,895.9l3.6-.6c.2,1.4.8,2.5,1.7,3.3.9.8,2.2,1.1,3.8,1.1s2.9-.3,3.7-1,1.2-1.5,1.2-2.4-.4-1.5-1.1-1.9c-.5-.3-1.7-.7-3.7-1.2-2.6-.7-4.5-1.2-5.5-1.7-1-.5-1.8-1.2-2.3-2-.5-.9-.8-1.8-.8-2.9s.2-1.8.7-2.6c.4-.8,1-1.5,1.8-2,.6-.4,1.3-.8,2.3-1.1s2-.4,3.1-.4c1.7,0,3.1.2,4.4.7,1.3.5,2.2,1.1,2.8,2,.6.8,1,1.9,1.2,3.3l-3.5.5c-.2-1.1-.6-1.9-1.4-2.6-.8-.6-1.9-.9-3.3-.9s-2.8.3-3.5.8c-.7.5-1.1,1.2-1.1,1.9s.1.9.4,1.3c.3.4.8.7,1.4,1,.4.1,1.4.4,3.2.9,2.5.7,4.3,1.2,5.3,1.7,1,.4,1.8,1.1,2.4,1.9.6.8.9,1.9.9,3.1s-.3,2.3-1.1,3.4c-.7,1.1-1.7,1.9-3,2.5-1.3.6-2.8.9-4.5.9-2.8,0-4.9-.6-6.3-1.7-1.4-1.1-2.4-2.8-2.8-5.1Z"/>
    </g>
  </g>
  <path class="cls-14" d="M1255.3,688.9l-21.4,22.1-4.4-9.5c-10.4,4.3-26.6,11.1-36.2,15.1-74.8,30.2-152.3,56.4-231.9,75-31.6,7.2-63.7,13.8-96.1,17l-1.7-27.3h5.4c29.3-1.8,58.3-5.7,87.3-10.5,77.7-13,154.7-33.5,228.9-57.7,12.4-4.1,29.9-10.2,42.9-14.7l-4.4-9.5h31.6Z"/>
  <g class="cls-26">
    <g class="cls-26">
      <path class="cls-9" d="M1922.4,228.3v-25.6h5.4c2.6,0,4.6.3,6.1.8,1.6.5,3.1,1.3,4.4,2.5,2.6,2.4,4,5.6,4,9.5s-1.4,7.1-4.1,9.6c-1.4,1.2-2.8,2.1-4.3,2.5-1.4.5-3.4.7-6,.7h-5.3ZM1926.2,224.7h1.7c1.7,0,3.2-.2,4.3-.5,1.2-.4,2.2-1,3.1-1.8,1.9-1.7,2.9-4,2.9-6.8s-.9-5.1-2.8-6.8c-1.7-1.6-4.2-2.3-7.5-2.3h-1.7v18.4Z"/>
      <path class="cls-9" d="M1945.8,205.4c0-.7.2-1.2.7-1.7s1-.7,1.7-.7,1.3.2,1.7.7c.5.5.7,1,.7,1.7s-.2,1.3-.7,1.7c-.5.5-1,.7-1.7.7s-1.3-.2-1.7-.7-.7-1.1-.7-1.7ZM1950.1,212.1v16.2h-3.7v-16.2h3.7Z"/>
      <path class="cls-9" d="M1964.2,214.9l-3.1,1.6c-.5-1-1.1-1.5-1.8-1.5s-.6.1-.9.3c-.2.2-.4.5-.4.9,0,.6.7,1.2,2.2,1.8,2,.9,3.3,1.6,4,2.4s1,1.7,1,2.9-.6,2.9-1.7,3.9c-1.1,1-2.5,1.5-4.1,1.5-2.7,0-4.6-1.3-5.8-4l3.2-1.5c.4.8.8,1.3,1,1.5.5.4,1,.6,1.6.6,1.3,0,1.9-.6,1.9-1.7s-.5-1.3-1.5-1.9c-.4-.2-.8-.4-1.1-.5s-.8-.4-1.1-.5c-1.1-.5-1.8-1.1-2.3-1.6-.6-.7-.8-1.5-.8-2.6s.5-2.6,1.4-3.5c1-.9,2.2-1.4,3.6-1.4,2.1,0,3.6,1.1,4.6,3.2Z"/>
      <path class="cls-9" d="M1981.2,212.8v5c-.9-1-1.6-1.8-2.3-2.1-.7-.4-1.4-.6-2.3-.6-1.4,0-2.6.5-3.5,1.5s-1.4,2.2-1.4,3.7.4,2.8,1.3,3.7c.9,1,2.1,1.5,3.5,1.5s1.7-.2,2.4-.6c.7-.4,1.4-1.1,2.3-2.2v4.9c-1.5.8-3,1.2-4.5,1.2-2.5,0-4.6-.8-6.3-2.4-1.7-1.6-2.5-3.6-2.5-6.1s.9-4.4,2.6-6.1,3.8-2.5,6.3-2.5,3.1.4,4.5,1.1Z"/>
      <path class="cls-9" d="M1984,220.1c0-2.3.8-4.3,2.5-6s3.7-2.5,6.1-2.5,4.5.8,6.1,2.5c1.7,1.6,2.5,3.7,2.5,6.1s-.8,4.5-2.5,6.1c-1.7,1.6-3.7,2.4-6.2,2.4s-4.5-.8-6.1-2.5c-1.6-1.6-2.5-3.7-2.5-6.2ZM1987.9,220.2c0,1.6.4,2.9,1.3,3.8.9,1,2.1,1.4,3.5,1.4s2.6-.5,3.5-1.4,1.3-2.2,1.3-3.8-.4-2.8-1.3-3.8c-.9-1-2.1-1.4-3.5-1.4s-2.6.5-3.5,1.4-1.3,2.2-1.3,3.7Z"/>
      <path class="cls-9" d="M2006.6,212.1l4.2,9.1,4.2-9.1h4.2l-8.4,17.3-8.3-17.3h4.2Z"/>
      <path class="cls-9" d="M2035.8,221.1h-11.6c0,1.3.5,2.4,1.3,3.2.8.8,1.7,1.2,2.9,1.2s1.7-.2,2.3-.7c.6-.4,1.3-1.3,2-2.5l3.2,1.8c-.5.8-1,1.5-1.5,2.1-.5.6-1.1,1.1-1.7,1.5-.6.4-1.3.7-2,.8s-1.5.3-2.3.3c-2.4,0-4.3-.8-5.8-2.3-1.5-1.6-2.2-3.6-2.2-6.2s.7-4.6,2.1-6.2c1.4-1.6,3.3-2.3,5.7-2.3s4.3.8,5.6,2.3c1.4,1.5,2.1,3.6,2.1,6.3v.9ZM2032,218c-.5-2-1.8-3-3.8-3s-.9,0-1.3.2c-.4.1-.8.3-1.1.6-.3.3-.6.6-.8.9s-.4.8-.5,1.2h7.5Z"/>
      <path class="cls-9" d="M2039.9,212.1h3.7v1.4c.7-.7,1.3-1.2,1.8-1.5.5-.3,1.2-.4,1.9-.4s2,.3,3.1,1l-1.7,3.4c-.7-.5-1.4-.8-2.1-.8-2,0-3.1,1.5-3.1,4.6v8.4h-3.7v-16.2Z"/>
      <path class="cls-9" d="M2064.3,212.1h3.8v16.2h-3.8v-1.7c-1.5,1.4-3.2,2.2-5,2.2s-4.1-.8-5.5-2.4c-1.5-1.6-2.2-3.7-2.2-6.2s.7-4.4,2.2-6.1,3.3-2.4,5.4-2.4,3.6.8,5.1,2.3v-1.9ZM2055.4,220.2c0,1.5.4,2.8,1.2,3.8.9,1,1.9,1.5,3.2,1.5s2.5-.5,3.4-1.4c.9-1,1.3-2.2,1.3-3.8s-.4-2.8-1.3-3.8c-.9-1-2-1.4-3.3-1.4s-2.4.5-3.2,1.5c-.9,1-1.3,2.2-1.3,3.7Z"/>
      <path class="cls-9" d="M2076.5,200.3v13.7c1.5-1.5,3.2-2.3,5.1-2.3s4,.8,5.4,2.4c1.5,1.6,2.2,3.6,2.2,6s-.7,4.5-2.2,6.2c-1.5,1.6-3.3,2.4-5.5,2.4s-3.5-.7-5-2.2v1.7h-3.7v-28h3.7ZM2085.4,220.3c0-1.5-.4-2.8-1.3-3.8-.9-1-1.9-1.5-3.2-1.5s-2.5.5-3.4,1.4c-.9,1-1.3,2.2-1.3,3.7s.4,2.8,1.3,3.8c.8,1,1.9,1.4,3.3,1.4s2.4-.5,3.2-1.4c.9-1,1.3-2.2,1.3-3.7Z"/>
      <path class="cls-9" d="M2096.9,200.3v28h-3.7v-28h3.7Z"/>
      <path class="cls-9" d="M2116.3,221.1h-11.6c0,1.3.5,2.4,1.3,3.2.8.8,1.7,1.2,2.9,1.2s1.7-.2,2.3-.7c.6-.4,1.3-1.3,2-2.5l3.2,1.8c-.5.8-1,1.5-1.5,2.1-.5.6-1.1,1.1-1.7,1.5-.6.4-1.3.7-2,.8s-1.5.3-2.3.3c-2.4,0-4.3-.8-5.8-2.3-1.5-1.6-2.2-3.6-2.2-6.2s.7-4.6,2.1-6.2c1.4-1.6,3.3-2.3,5.7-2.3s4.3.8,5.6,2.3c1.4,1.5,2.1,3.6,2.1,6.3v.9ZM2112.5,218c-.5-2-1.8-3-3.8-3s-.9,0-1.3.2c-.4.1-.8.3-1.1.6-.3.3-.6.6-.8.9s-.4.8-.5,1.2h7.5Z"/>
      <path class="cls-9" d="M2130.7,228.3l5.4-27.6,8.8,19.9,9.1-19.9,4.8,27.6h-4l-2.5-15.5-7.6,16.7-7.4-16.7-2.8,15.5h-4Z"/>
      <path class="cls-9" d="M2178.3,221.1h-11.6c0,1.3.5,2.4,1.3,3.2.8.8,1.7,1.2,2.9,1.2s1.7-.2,2.3-.7c.6-.4,1.3-1.3,2-2.5l3.2,1.8c-.5.8-1,1.5-1.5,2.1-.5.6-1.1,1.1-1.7,1.5-.6.4-1.3.7-2,.8s-1.5.3-2.3.3c-2.4,0-4.3-.8-5.8-2.3-1.5-1.6-2.2-3.6-2.2-6.2s.7-4.6,2.1-6.2c1.4-1.6,3.3-2.3,5.7-2.3s4.3.8,5.6,2.3c1.4,1.5,2.1,3.6,2.1,6.3v.9ZM2174.5,218c-.5-2-1.8-3-3.8-3s-.9,0-1.3.2c-.4.1-.8.3-1.1.6-.3.3-.6.6-.8.9s-.4.8-.5,1.2h7.5Z"/>
      <path class="cls-9" d="M2186.6,215.6v12.7h-3.7v-12.7h-1.6v-3.5h1.6v-5.9h3.7v5.9h2.9v3.5h-2.9Z"/>
      <path class="cls-9" d="M2204.2,212.1h3.8v16.2h-3.8v-1.7c-1.5,1.4-3.2,2.2-5,2.2s-4.1-.8-5.5-2.4c-1.5-1.6-2.2-3.7-2.2-6.2s.7-4.4,2.2-6.1,3.3-2.4,5.4-2.4,3.6.8,5.1,2.3v-1.9ZM2195.4,220.2c0,1.5.4,2.8,1.2,3.8.9,1,1.9,1.5,3.2,1.5s2.5-.5,3.4-1.4c.9-1,1.3-2.2,1.3-3.8s-.4-2.8-1.3-3.8c-.9-1-2-1.4-3.3-1.4s-2.4.5-3.2,1.5c-.9,1-1.3,2.2-1.3,3.7Z"/>
      <path class="cls-9" d="M2224.6,200.3h3.8v28h-3.8v-1.7c-1.5,1.4-3.1,2.2-5,2.2s-4.1-.8-5.5-2.4c-1.5-1.6-2.2-3.7-2.2-6.2s.7-4.4,2.2-6c1.4-1.6,3.2-2.4,5.4-2.4s3.6.8,5.1,2.3v-13.7ZM2215.7,220.2c0,1.5.4,2.8,1.2,3.8.9,1,1.9,1.5,3.2,1.5s2.5-.5,3.4-1.4c.9-1,1.3-2.2,1.3-3.8s-.4-2.8-1.3-3.8c-.9-1-2-1.4-3.3-1.4s-2.4.5-3.2,1.5c-.9,1-1.3,2.2-1.3,3.7Z"/>
      <path class="cls-9" d="M2245,212.1h3.8v16.2h-3.8v-1.7c-1.5,1.4-3.2,2.2-5,2.2s-4.1-.8-5.5-2.4c-1.5-1.6-2.2-3.7-2.2-6.2s.7-4.4,2.2-6.1,3.3-2.4,5.4-2.4,3.6.8,5.1,2.3v-1.9ZM2236.1,220.2c0,1.5.4,2.8,1.2,3.8.9,1,1.9,1.5,3.2,1.5s2.5-.5,3.4-1.4c.9-1,1.3-2.2,1.3-3.8s-.4-2.8-1.3-3.8c-.9-1-2-1.4-3.3-1.4s-2.4.5-3.2,1.5c-.9,1-1.3,2.2-1.3,3.7Z"/>
      <path class="cls-9" d="M2257.3,215.6v12.7h-3.7v-12.7h-1.6v-3.5h1.6v-5.9h3.7v5.9h2.9v3.5h-2.9Z"/>
      <path class="cls-9" d="M2275,212.1h3.8v16.2h-3.8v-1.7c-1.5,1.4-3.2,2.2-5,2.2s-4.1-.8-5.5-2.4c-1.5-1.6-2.2-3.7-2.2-6.2s.7-4.4,2.2-6.1,3.3-2.4,5.4-2.4,3.6.8,5.1,2.3v-1.9ZM2266.1,220.2c0,1.5.4,2.8,1.2,3.8.9,1,1.9,1.5,3.2,1.5s2.5-.5,3.4-1.4c.9-1,1.3-2.2,1.3-3.8s-.4-2.8-1.3-3.8c-.9-1-2-1.4-3.3-1.4s-2.4.5-3.2,1.5c-.9,1-1.3,2.2-1.3,3.7Z"/>
    </g>
  </g>
  <g>
    <circle class="cls-16" cx="2105.4" cy="113" r="57.1"/>
    <path class="cls-23" d="M2071,98.5s32.5-39.5,69,0"/>
    <path class="cls-23" d="M2139.9,120s-32.5,39.5-69,0"/>
    <circle class="cls-25" cx="2104.8" cy="110" r="12.8" transform="translate(1659.7 2170.1) rotate(-80.8)"/>
  </g>
  <g id="KEyWrg.tif">
    <g>
      <path class="cls-3" d="M2083.1,327.1c1.9-4.1,4.6-7.7,7.7-10.9,7.2-7.2,15.8-11.4,26-12.5.2,0,.4,0,.5-.2h7.4c1.4.5,3,.5,4.5.7,7.5,1.4,14.1,4.8,19.8,9.8.4.3.5.6,0,1-3.8,3.7-7.4,7.4-11.2,11.2-.3.3-.6.5-1,0-9.4-8.5-24.9-8-34.2,2.5-2.4,2.6-4.1,5.8-5.4,9.1-4.7-3.6-9.4-7.3-14.1-10.9h0Z"/>
      <path class="cls-10" d="M2161.8,348.2c-.4,1-.2,2-.3,3-.6,6.6-2.3,12.9-5.8,18.6-1.8,3.1-4.1,6-6.8,8.4-1.2-1-2.4-1.9-3.6-2.9-3.4-2.6-6.7-5.2-10.1-7.8,3.8-2.6,6.6-6.1,8-10.6.5-1.5,0-2.2-1.6-2.2h-19.7c-.7,0-1-.2-1-1v-14.6c0-.6.2-.9.9-.9h38.3c.7,0,.9.2,1,.9.3,2.1.6,4.2.6,6.3s0,.4.2.5v2.2h-.2Z"/>
      <path class="cls-5" d="M2135.2,367.6c3.4,2.6,6.7,5.2,10.1,7.8,1.2,1,2.4,1.9,3.6,2.9-4.1,3.8-8.8,6.6-14.2,8.2-13.8,4.1-26.6,2.5-38.6-5.8-5.6-3.9-9.9-9-13-15.1,0-.2,0-.3-.2-.5,4.7-3.6,9.4-7.3,14.1-10.9,1.6,4.4,4,8.2,7.5,11.3,8.2,7.3,20.7,8.3,30.1,2.5.2,0,.3-.2.5-.2h0Z"/>
      <path class="cls-2" d="M2097.1,354.1c-4.7,3.6-9.4,7.3-14.1,10.9-2.6-4.9-4-10.1-4.4-15.6-.6-7.4.7-14.6,3.9-21.3.2-.3.4-.6.6-1,4.7,3.6,9.4,7.3,14.1,10.9-.9,3-1.4,5.9-1.3,9,0,2.5.6,4.8,1.3,7.1h0Z"/>
    </g>
  </g>
  <rect class="cls-16" x="2501" width="304.6" height="1080"/>
  <g class="cls-26">
    <g class="cls-26">
      <path class="cls-17" d="M2564.4,142.1h-10.3v6.2h10v3.6h-10v8.6h10.3v3.6h-14.1v-25.6h14.1v3.6Z"/>
      <path class="cls-17" d="M2568.8,147.9h3.8v1.5c1.3-1.3,2.8-1.9,4.4-1.9s3.3.6,4.4,1.8c.9,1,1.4,2.7,1.4,4.9v9.9h-3.8v-9c0-1.6-.2-2.7-.7-3.3-.4-.6-1.2-.9-2.4-.9s-2.1.4-2.6,1.2c-.5.8-.8,2.2-.8,4.2v7.8h-3.8v-16.2Z"/>
      <path class="cls-17" d="M2599.3,136.1h3.8v28h-3.8v-1.7c-1.5,1.4-3.1,2.2-5,2.2s-4.1-.8-5.5-2.4c-1.5-1.6-2.2-3.7-2.2-6.2s.7-4.4,2.2-6c1.4-1.6,3.2-2.4,5.4-2.4s3.6.8,5.1,2.3v-13.7ZM2590.5,156c0,1.5.4,2.8,1.2,3.8.9,1,1.9,1.5,3.2,1.5s2.5-.5,3.4-1.4c.9-1,1.3-2.2,1.3-3.8s-.4-2.8-1.3-3.8c-.9-1-2-1.4-3.3-1.4s-2.4.5-3.2,1.5c-.9,1-1.3,2.2-1.3,3.7Z"/>
      <path class="cls-17" d="M2622.9,138.5v15.4c0,2.2.4,3.8,1.1,4.8,1.1,1.5,2.6,2.2,4.5,2.2s3.5-.7,4.5-2.2c.7-1,1.1-2.6,1.1-4.8v-15.4h3.9v16.5c0,2.7-.8,4.9-2.5,6.7-1.9,1.9-4.2,2.9-7,2.9s-5.1-1-7-2.9c-1.7-1.7-2.5-4-2.5-6.7v-16.5h3.9Z"/>
      <path class="cls-17" d="M2652.8,150.7l-3.1,1.6c-.5-1-1.1-1.5-1.8-1.5s-.6.1-.9.3c-.2.2-.4.5-.4.9,0,.6.7,1.2,2.2,1.8,2,.9,3.3,1.6,4,2.4s1,1.7,1,2.9-.6,2.9-1.7,3.9c-1.1,1-2.5,1.5-4.1,1.5-2.7,0-4.6-1.3-5.8-4l3.2-1.5c.4.8.8,1.3,1,1.5.5.4,1,.6,1.6.6,1.3,0,1.9-.6,1.9-1.7s-.5-1.3-1.5-1.9c-.4-.2-.8-.4-1.1-.5s-.8-.4-1.1-.5c-1.1-.5-1.8-1.1-2.3-1.6-.6-.7-.8-1.5-.8-2.6s.5-2.6,1.4-3.5c1-.9,2.2-1.4,3.6-1.4,2.1,0,3.6,1.1,4.6,3.2Z"/>
      <path class="cls-17" d="M2671.9,156.9h-11.6c0,1.3.5,2.4,1.3,3.2.8.8,1.7,1.2,2.9,1.2s1.7-.2,2.3-.7c.6-.4,1.3-1.3,2-2.5l3.2,1.8c-.5.8-1,1.5-1.5,2.1-.5.6-1.1,1.1-1.7,1.5-.6.4-1.3.7-2,.8s-1.5.3-2.3.3c-2.4,0-4.3-.8-5.8-2.3-1.5-1.6-2.2-3.6-2.2-6.2s.7-4.6,2.1-6.2c1.4-1.6,3.3-2.3,5.7-2.3s4.3.8,5.6,2.3c1.4,1.5,2.1,3.6,2.1,6.3v.9ZM2668.1,153.8c-.5-2-1.8-3-3.8-3s-.9,0-1.3.2c-.4.1-.8.3-1.1.6-.3.3-.6.6-.8.9s-.4.8-.5,1.2h7.5Z"/>
      <path class="cls-17" d="M2676,147.9h3.7v1.4c.7-.7,1.3-1.2,1.8-1.5.5-.3,1.2-.4,1.9-.4s2,.3,3.1,1l-1.7,3.4c-.7-.5-1.4-.8-2.1-.8-2,0-3.1,1.5-3.1,4.6v8.4h-3.7v-16.2Z"/>
      <path class="cls-17" d="M2698.1,150.7l-3.1,1.6c-.5-1-1.1-1.5-1.8-1.5s-.6.1-.9.3c-.2.2-.4.5-.4.9,0,.6.7,1.2,2.2,1.8,2,.9,3.3,1.6,4,2.4s1,1.7,1,2.9-.6,2.9-1.7,3.9c-1.1,1-2.5,1.5-4.1,1.5-2.7,0-4.6-1.3-5.8-4l3.2-1.5c.4.8.8,1.3,1,1.5.5.4,1,.6,1.6.6,1.3,0,1.9-.6,1.9-1.7s-.5-1.3-1.5-1.9c-.4-.2-.8-.4-1.1-.5s-.8-.4-1.1-.5c-1.1-.5-1.8-1.1-2.3-1.6-.6-.7-.8-1.5-.8-2.6s.5-2.6,1.4-3.5c1-.9,2.2-1.4,3.6-1.4,2.1,0,3.6,1.1,4.6,3.2Z"/>
      <path class="cls-17" d="M2725.1,135.8l3.1,1.4-14.7,34-3.1-1.4,14.6-34Z"/>
    </g>
    <g class="cls-26">
      <path class="cls-17" d="M2557,194l7.9,10.9h-4.7l-7.3-10.5h-.7v10.5h-3.9v-25.6h4.5c3.4,0,5.8.6,7.3,1.9,1.7,1.4,2.5,3.3,2.5,5.6s-.5,3.4-1.6,4.7c-1,1.3-2.4,2.1-4.1,2.5ZM2552.1,191h1.2c3.7,0,5.5-1.4,5.5-4.2s-1.8-3.9-5.3-3.9h-1.4v8.1Z"/>
      <path class="cls-17" d="M2582.2,197.7h-11.6c0,1.3.5,2.4,1.3,3.2.8.8,1.7,1.2,2.9,1.2s1.7-.2,2.3-.7c.6-.4,1.3-1.3,2-2.5l3.2,1.8c-.5.8-1,1.5-1.5,2.1-.5.6-1.1,1.1-1.7,1.5-.6.4-1.3.7-2,.8-.7.2-1.5.3-2.3.3-2.4,0-4.3-.8-5.8-2.3-1.5-1.6-2.2-3.6-2.2-6.2s.7-4.6,2.1-6.2c1.4-1.6,3.3-2.3,5.7-2.3s4.3.8,5.6,2.3c1.4,1.5,2.1,3.6,2.1,6.3v.9ZM2578.4,194.6c-.5-2-1.8-3-3.8-3s-.9,0-1.3.2c-.4.1-.8.3-1.1.6-.3.3-.6.6-.8.9s-.4.8-.5,1.2h7.5Z"/>
      <path class="cls-17" d="M2595.7,191.5l-3.1,1.6c-.5-1-1.1-1.5-1.8-1.5s-.6.1-.9.3c-.2.2-.4.5-.4.9,0,.6.7,1.2,2.2,1.8,2,.9,3.3,1.6,4,2.4s1,1.7,1,2.9-.6,2.9-1.7,3.9c-1.1,1-2.5,1.5-4.1,1.5-2.7,0-4.6-1.3-5.8-4l3.2-1.5c.4.8.8,1.3,1,1.5.5.4,1,.6,1.6.6,1.3,0,1.9-.6,1.9-1.7s-.5-1.3-1.5-1.9c-.4-.2-.8-.4-1.1-.5-.4-.2-.8-.4-1.1-.5-1.1-.5-1.8-1.1-2.3-1.6-.6-.7-.8-1.5-.8-2.6s.5-2.6,1.4-3.5c1-.9,2.2-1.4,3.6-1.4,2.1,0,3.6,1.1,4.6,3.2Z"/>
      <path class="cls-17" d="M2614.8,197.7h-11.6c0,1.3.5,2.4,1.3,3.2.8.8,1.7,1.2,2.9,1.2s1.7-.2,2.3-.7c.6-.4,1.3-1.3,2-2.5l3.2,1.8c-.5.8-1,1.5-1.5,2.1-.5.6-1.1,1.1-1.7,1.5-.6.4-1.3.7-2,.8s-1.5.3-2.3.3c-2.4,0-4.3-.8-5.8-2.3-1.5-1.6-2.2-3.6-2.2-6.2s.7-4.6,2.1-6.2c1.4-1.6,3.3-2.3,5.7-2.3s4.3.8,5.6,2.3c1.4,1.5,2.1,3.6,2.1,6.3v.9ZM2611,194.6c-.5-2-1.8-3-3.8-3s-.9,0-1.3.2c-.4.1-.8.3-1.1.6-.3.3-.6.6-.8.9s-.4.8-.5,1.2h7.5Z"/>
      <path class="cls-17" d="M2630.8,188.7h3.8v16.2h-3.8v-1.7c-1.5,1.4-3.2,2.2-5,2.2s-4.1-.8-5.5-2.4c-1.5-1.6-2.2-3.7-2.2-6.2s.7-4.4,2.2-6.1,3.3-2.4,5.4-2.4,3.6.8,5.1,2.3v-1.9ZM2621.9,196.8c0,1.5.4,2.8,1.2,3.8.9,1,1.9,1.5,3.2,1.5s2.5-.5,3.4-1.4c.9-1,1.3-2.2,1.3-3.8s-.4-2.8-1.3-3.8c-.9-1-2-1.4-3.3-1.4s-2.4.5-3.2,1.5c-.9,1-1.3,2.2-1.3,3.7Z"/>
      <path class="cls-17" d="M2639.3,188.7h3.7v1.4c.7-.7,1.3-1.2,1.8-1.5.5-.3,1.2-.4,1.9-.4s2,.3,3.1,1l-1.7,3.4c-.7-.5-1.4-.8-2.1-.8-2,0-3.1,1.5-3.1,4.6v8.4h-3.7v-16.2Z"/>
      <path class="cls-17" d="M2664.3,189.4v5c-.9-1-1.6-1.8-2.3-2.1-.7-.4-1.4-.6-2.3-.6-1.4,0-2.6.5-3.5,1.5s-1.4,2.2-1.4,3.7.4,2.8,1.3,3.7c.9,1,2.1,1.5,3.5,1.5s1.7-.2,2.4-.6c.7-.4,1.4-1.1,2.3-2.2v4.9c-1.5.8-3,1.2-4.5,1.2-2.5,0-4.6-.8-6.3-2.4-1.7-1.6-2.5-3.6-2.5-6.1s.9-4.4,2.6-6.1,3.8-2.5,6.3-2.5,3.1.4,4.5,1.1Z"/>
      <path class="cls-17" d="M2668.8,176.9h3.7v13.2c1.3-1.2,2.8-1.8,4.4-1.8s3.3.6,4.4,1.8c.9,1,1.4,2.7,1.4,4.9v9.9h-3.7v-9.6c0-1.3-.2-2.2-.7-2.8-.5-.6-1.2-.9-2.2-.9s-2.2.4-2.8,1.2c-.5.8-.8,2.2-.8,4.2v7.8h-3.7v-28Z"/>
      <path class="cls-17" d="M2702.2,197.7h-11.6c0,1.3.5,2.4,1.3,3.2.8.8,1.7,1.2,2.9,1.2s1.7-.2,2.3-.7c.6-.4,1.3-1.3,2-2.5l3.2,1.8c-.5.8-1,1.5-1.5,2.1-.5.6-1.1,1.1-1.7,1.5-.6.4-1.3.7-2,.8s-1.5.3-2.3.3c-2.4,0-4.3-.8-5.8-2.3-1.5-1.6-2.2-3.6-2.2-6.2s.7-4.6,2.1-6.2c1.4-1.6,3.3-2.3,5.7-2.3s4.3.8,5.6,2.3c1.4,1.5,2.1,3.6,2.1,6.3v.9ZM2698.3,194.6c-.5-2-1.8-3-3.8-3s-.9,0-1.3.2c-.4.1-.8.3-1.1.6-.3.3-.6.6-.8.9s-.4.8-.5,1.2h7.5Z"/>
      <path class="cls-17" d="M2706.2,188.7h3.7v1.4c.7-.7,1.3-1.2,1.8-1.5.5-.3,1.2-.4,1.9-.4s2,.3,3.1,1l-1.7,3.4c-.7-.5-1.4-.8-2.1-.8-2,0-3.1,1.5-3.1,4.6v8.4h-3.7v-16.2Z"/>
      <path class="cls-17" d="M2728.3,191.5l-3.1,1.6c-.5-1-1.1-1.5-1.8-1.5s-.6.1-.9.3c-.2.2-.4.5-.4.9,0,.6.7,1.2,2.2,1.8,2,.9,3.3,1.6,4,2.4s1,1.7,1,2.9-.6,2.9-1.7,3.9c-1.1,1-2.5,1.5-4.1,1.5-2.7,0-4.6-1.3-5.8-4l3.2-1.5c.4.8.8,1.3,1,1.5.5.4,1,.6,1.6.6,1.3,0,1.9-.6,1.9-1.7s-.5-1.3-1.5-1.9c-.4-.2-.8-.4-1.1-.5s-.8-.4-1.1-.5c-1.1-.5-1.8-1.1-2.3-1.6-.6-.7-.8-1.5-.8-2.6s.5-2.6,1.4-3.5c1-.9,2.2-1.4,3.6-1.4,2.1,0,3.6,1.1,4.6,3.2Z"/>
    </g>
  </g>
  <path class="cls-6" d="M2805.6,458.6s-73.6-48.8-106.7-38c0,0-50.5,24-30.6,46.3l-4.6,95.1-34.2,60.4,33.9,25.6,5,60.4,89.3,4.1v56.2l-164.6,88.5v222.5h212.6V458.6h0Z"/>
  <g class="cls-26">
    <g class="cls-26">
      <path class="cls-9" d="M2027.7,519.9v10.4h-3.9v-25.6h4.4c2.1,0,3.8.1,4.9.4,1.1.3,2.1.9,2.9,1.7,1.5,1.4,2.2,3.3,2.2,5.4s-.8,4.2-2.4,5.6-3.7,2.1-6.4,2.1h-1.8ZM2027.7,516.3h1.4c3.6,0,5.3-1.4,5.3-4.1s-1.8-4-5.5-4h-1.3v8.1Z"/>
      <path class="cls-9" d="M2041.4,514.1h3.7v1.4c.7-.7,1.3-1.2,1.8-1.5.5-.3,1.2-.4,1.9-.4s2,.3,3.1,1l-1.7,3.4c-.7-.5-1.4-.8-2.1-.8-2,0-3.1,1.5-3.1,4.6v8.4h-3.7v-16.2Z"/>
      <path class="cls-9" d="M2053.1,522.1c0-2.3.8-4.3,2.5-6s3.7-2.5,6.1-2.5,4.5.8,6.1,2.5c1.7,1.6,2.5,3.7,2.5,6.1s-.8,4.5-2.5,6.1c-1.7,1.6-3.7,2.4-6.2,2.4s-4.5-.8-6.1-2.5c-1.6-1.6-2.5-3.7-2.5-6.2ZM2056.9,522.2c0,1.6.4,2.9,1.3,3.8.9,1,2.1,1.4,3.5,1.4s2.6-.5,3.5-1.4,1.3-2.2,1.3-3.8-.4-2.8-1.3-3.8c-.9-1-2.1-1.4-3.5-1.4s-2.6.5-3.5,1.4-1.3,2.2-1.3,3.7Z"/>
      <path class="cls-9" d="M2073.7,507.4c0-.7.2-1.2.7-1.7s1-.7,1.7-.7,1.3.2,1.7.7c.5.5.7,1,.7,1.7s-.2,1.3-.7,1.7c-.5.5-1,.7-1.7.7s-1.3-.2-1.7-.7-.7-1.1-.7-1.7ZM2078,514.1v25h-3.7v-25h3.7Z"/>
      <path class="cls-9" d="M2097.5,523.1h-11.6c0,1.3.5,2.4,1.3,3.2.8.8,1.7,1.2,2.9,1.2s1.7-.2,2.3-.7c.6-.4,1.3-1.3,2-2.5l3.2,1.8c-.5.8-1,1.5-1.5,2.1-.5.6-1.1,1.1-1.7,1.5-.6.4-1.3.7-2,.8s-1.5.3-2.3.3c-2.4,0-4.3-.8-5.8-2.3-1.5-1.6-2.2-3.6-2.2-6.2s.7-4.6,2.1-6.2c1.4-1.6,3.3-2.3,5.7-2.3s4.3.8,5.6,2.3c1.4,1.5,2.1,3.6,2.1,6.3v.9ZM2093.6,520c-.5-2-1.8-3-3.8-3s-.9,0-1.3.2c-.4.1-.8.3-1.1.6-.3.3-.6.6-.8.9s-.4.8-.5,1.2h7.5Z"/>
      <path class="cls-9" d="M2114.1,514.8v5c-.9-1-1.6-1.8-2.3-2.1-.7-.4-1.4-.6-2.3-.6-1.4,0-2.6.5-3.5,1.5s-1.4,2.2-1.4,3.7.4,2.8,1.3,3.7c.9,1,2.1,1.5,3.5,1.5s1.7-.2,2.4-.6c.7-.4,1.4-1.1,2.3-2.2v4.9c-1.5.8-3,1.2-4.5,1.2-2.5,0-4.6-.8-6.3-2.4-1.7-1.6-2.5-3.6-2.5-6.1s.9-4.4,2.6-6.1,3.8-2.5,6.3-2.5,3.1.4,4.5,1.1Z"/>
      <path class="cls-9" d="M2121.6,517.6v12.7h-3.7v-12.7h-1.6v-3.5h1.6v-5.9h3.7v5.9h2.9v3.5h-2.9Z"/>
      <path class="cls-9" d="M2124.7,520.5h7.4v3.3h-7.4v-3.3Z"/>
      <path class="cls-9" d="M2149.7,508.5l-3.1,1.9c-.6-1-1.1-1.7-1.7-2-.6-.4-1.3-.5-2.1-.5s-2,.3-2.7.9c-.7.6-1.1,1.4-1.1,2.3s.9,2.3,2.8,3l2.6,1c2.1.8,3.6,1.9,4.6,3.1,1,1.2,1.4,2.7,1.4,4.5s-.8,4.3-2.4,5.8c-1.6,1.5-3.5,2.3-5.9,2.3s-4.1-.7-5.5-2c-1.4-1.3-2.3-3.2-2.7-5.6l3.9-.9c.2,1.5.5,2.5.9,3.1.8,1.1,2,1.7,3.5,1.7s2.2-.4,3-1.2,1.2-1.8,1.2-3.1,0-1-.2-1.4c-.1-.4-.4-.8-.6-1.1-.3-.3-.7-.7-1.1-1-.5-.3-1-.6-1.7-.9l-2.5-1c-3.5-1.5-5.3-3.7-5.3-6.5s.7-3.5,2.2-4.8c1.5-1.3,3.3-2,5.5-2s5.3,1.4,6.9,4.3Z"/>
      <path class="cls-9" d="M2158,539.1h-3.7v-25h3.7v1.8c1.5-1.5,3.1-2.2,5-2.2s4.1.8,5.5,2.5c1.5,1.6,2.2,3.7,2.2,6.2s-.7,4.4-2.2,6.1c-1.4,1.6-3.3,2.4-5.4,2.4s-3.6-.8-5.1-2.3v10.6ZM2166.9,522.3c0-1.5-.4-2.8-1.3-3.8-.9-1-1.9-1.5-3.2-1.5s-2.5.5-3.3,1.4-1.3,2.2-1.3,3.8.4,2.8,1.3,3.8c.8,1,1.9,1.4,3.3,1.4s2.4-.5,3.2-1.5c.9-1,1.3-2.2,1.3-3.7Z"/>
      <path class="cls-9" d="M2189.4,523.1h-11.6c0,1.3.5,2.4,1.3,3.2.8.8,1.7,1.2,2.9,1.2s1.7-.2,2.3-.7c.6-.4,1.3-1.3,2-2.5l3.2,1.8c-.5.8-1,1.5-1.5,2.1-.5.6-1.1,1.1-1.7,1.5-.6.4-1.3.7-2,.8s-1.5.3-2.3.3c-2.4,0-4.3-.8-5.8-2.3-1.5-1.6-2.2-3.6-2.2-6.2s.7-4.6,2.1-6.2c1.4-1.6,3.3-2.3,5.7-2.3s4.3.8,5.6,2.3c1.4,1.5,2.1,3.6,2.1,6.3v.9ZM2185.6,520c-.5-2-1.8-3-3.8-3s-.9,0-1.3.2c-.4.1-.8.3-1.1.6-.3.3-.6.6-.8.9s-.4.8-.5,1.2h7.5Z"/>
      <path class="cls-9" d="M2206.1,514.8v5c-.9-1-1.6-1.8-2.3-2.1-.7-.4-1.4-.6-2.3-.6-1.4,0-2.6.5-3.5,1.5s-1.4,2.2-1.4,3.7.4,2.8,1.3,3.7c.9,1,2.1,1.5,3.5,1.5s1.7-.2,2.4-.6c.7-.4,1.4-1.1,2.3-2.2v4.9c-1.5.8-3,1.2-4.5,1.2-2.5,0-4.6-.8-6.3-2.4-1.7-1.6-2.5-3.6-2.5-6.1s.9-4.4,2.6-6.1,3.8-2.5,6.3-2.5,3.1.4,4.5,1.1Z"/>
      <path class="cls-9" d="M2209.1,507.4c0-.7.2-1.2.7-1.7s1-.7,1.7-.7,1.3.2,1.7.7c.5.5.7,1,.7,1.7s-.2,1.3-.7,1.7c-.5.5-1,.7-1.7.7s-1.3-.2-1.7-.7-.7-1.1-.7-1.7ZM2213.4,514.1v16.2h-3.7v-16.2h3.7Z"/>
      <path class="cls-9" d="M2222,517.6v12.7h-3.8v-12.7h-1.3v-3.5h1.3v-6.2c0-2,.4-3.5,1.1-4.3,1-1.2,2.4-1.8,4.2-1.8s1.5.2,2.5.6v3.8l-.4-.2c-.8-.4-1.5-.6-2-.6s-1.1.2-1.3.7c-.2.5-.3,1.4-.3,2.7v5.3h4.1v3.5h-4.1Z"/>
      <path class="cls-9" d="M2228.4,507.4c0-.7.2-1.2.7-1.7s1-.7,1.7-.7,1.3.2,1.7.7c.5.5.7,1,.7,1.7s-.2,1.3-.7,1.7c-.5.5-1,.7-1.7.7s-1.3-.2-1.7-.7-.7-1.1-.7-1.7ZM2232.7,514.1v16.2h-3.7v-16.2h3.7Z"/>
      <path class="cls-9" d="M2250,514.8v5c-.9-1-1.6-1.8-2.3-2.1-.7-.4-1.4-.6-2.3-.6-1.4,0-2.6.5-3.5,1.5s-1.4,2.2-1.4,3.7.4,2.8,1.3,3.7c.9,1,2.1,1.5,3.5,1.5s1.7-.2,2.4-.6c.7-.4,1.4-1.1,2.3-2.2v4.9c-1.5.8-3,1.2-4.5,1.2-2.5,0-4.6-.8-6.3-2.4-1.7-1.6-2.5-3.6-2.5-6.1s.9-4.4,2.6-6.1,3.8-2.5,6.3-2.5,3.1.4,4.5,1.1Z"/>
    </g>
    <g class="cls-26">
      <path class="cls-9" d="M2044.5,571.1v-25.6h5.4c2.6,0,4.6.3,6.1.8,1.6.5,3.1,1.3,4.4,2.5,2.6,2.4,4,5.6,4,9.5s-1.4,7.1-4.1,9.6c-1.4,1.2-2.8,2.1-4.3,2.5-1.4.5-3.4.7-6,.7h-5.3ZM2048.4,567.5h1.7c1.7,0,3.2-.2,4.3-.5,1.2-.4,2.2-1,3.1-1.8,1.9-1.7,2.9-4,2.9-6.8s-.9-5.1-2.8-6.8c-1.7-1.6-4.2-2.3-7.5-2.3h-1.7v18.4Z"/>
      <path class="cls-9" d="M2080.4,554.9h3.8v16.2h-3.8v-1.7c-1.5,1.4-3.2,2.2-5,2.2s-4.1-.8-5.5-2.4c-1.5-1.6-2.2-3.7-2.2-6.2s.7-4.4,2.2-6.1,3.3-2.4,5.4-2.4,3.6.8,5.1,2.3v-1.9ZM2071.5,563c0,1.5.4,2.8,1.2,3.8.9,1,1.9,1.5,3.2,1.5s2.5-.5,3.4-1.4c.9-1,1.3-2.2,1.3-3.8s-.4-2.8-1.3-3.8c-.9-1-2-1.4-3.3-1.4s-2.4.5-3.2,1.5c-.9,1-1.3,2.2-1.3,3.7Z"/>
      <path class="cls-9" d="M2092.7,558.4v12.7h-3.7v-12.7h-1.6v-3.5h1.6v-5.9h3.7v5.9h2.9v3.5h-2.9Z"/>
      <path class="cls-9" d="M2110.4,554.9h3.8v16.2h-3.8v-1.7c-1.5,1.4-3.2,2.2-5,2.2s-4.1-.8-5.5-2.4c-1.5-1.6-2.2-3.7-2.2-6.2s.7-4.4,2.2-6.1,3.3-2.4,5.4-2.4,3.6.8,5.1,2.3v-1.9ZM2101.5,563c0,1.5.4,2.8,1.2,3.8.9,1,1.9,1.5,3.2,1.5s2.5-.5,3.4-1.4c.9-1,1.3-2.2,1.3-3.8s-.4-2.8-1.3-3.8c-.9-1-2-1.4-3.3-1.4s-2.4.5-3.2,1.5c-.9,1-1.3,2.2-1.3,3.7Z"/>
      <path class="cls-9" d="M2133.9,560.7v10.4h-3.9v-25.6h4.4c2.1,0,3.8.1,4.9.4,1.1.3,2.1.9,2.9,1.7,1.5,1.4,2.2,3.3,2.2,5.4s-.8,4.2-2.4,5.6-3.7,2.1-6.4,2.1h-1.8ZM2133.9,557.1h1.4c3.6,0,5.3-1.4,5.3-4.1s-1.8-4-5.5-4h-1.3v8.1Z"/>
      <path class="cls-9" d="M2145.9,562.9c0-2.3.8-4.3,2.5-6s3.7-2.5,6.1-2.5,4.5.8,6.1,2.5c1.7,1.6,2.5,3.7,2.5,6.1s-.8,4.5-2.5,6.1c-1.7,1.6-3.7,2.4-6.2,2.4s-4.5-.8-6.1-2.5c-1.6-1.6-2.5-3.7-2.5-6.2ZM2149.8,563c0,1.6.4,2.9,1.3,3.8.9,1,2.1,1.4,3.5,1.4s2.6-.5,3.5-1.4,1.3-2.2,1.3-3.8-.4-2.8-1.3-3.8c-.9-1-2.1-1.4-3.5-1.4s-2.6.5-3.5,1.4-1.3,2.2-1.3,3.7Z"/>
      <path class="cls-9" d="M2167.1,554.9h3.7v1.4c.7-.7,1.3-1.2,1.8-1.5.5-.3,1.2-.4,1.9-.4s2,.3,3.1,1l-1.7,3.4c-.7-.5-1.4-.8-2.1-.8-2,0-3.1,1.5-3.1,4.6v8.4h-3.7v-16.2Z"/>
      <path class="cls-9" d="M2184.9,558.4v12.7h-3.7v-12.7h-1.6v-3.5h1.6v-5.9h3.7v5.9h2.9v3.5h-2.9Z"/>
      <path class="cls-9" d="M2202.6,554.9h3.8v16.2h-3.8v-1.7c-1.5,1.4-3.2,2.2-5,2.2s-4.1-.8-5.5-2.4c-1.5-1.6-2.2-3.7-2.2-6.2s.7-4.4,2.2-6.1,3.3-2.4,5.4-2.4,3.6.8,5.1,2.3v-1.9ZM2193.7,563c0,1.5.4,2.8,1.2,3.8.9,1,1.9,1.5,3.2,1.5s2.5-.5,3.4-1.4c.9-1,1.3-2.2,1.3-3.8s-.4-2.8-1.3-3.8c-.9-1-2-1.4-3.3-1.4s-2.4.5-3.2,1.5c-.9,1-1.3,2.2-1.3,3.7Z"/>
      <path class="cls-9" d="M2214.8,543.1v28h-3.7v-28h3.7Z"/>
      <path class="cls-9" d="M2228.9,557.7l-3.1,1.6c-.5-1-1.1-1.5-1.8-1.5s-.6.1-.9.3c-.2.2-.4.5-.4.9,0,.6.7,1.2,2.2,1.8,2,.9,3.3,1.6,4,2.4s1,1.7,1,2.9-.6,2.9-1.7,3.9c-1.1,1-2.5,1.5-4.1,1.5-2.7,0-4.6-1.3-5.8-4l3.2-1.5c.4.8.8,1.3,1,1.5.5.4,1,.6,1.6.6,1.3,0,1.9-.6,1.9-1.7s-.5-1.3-1.5-1.9c-.4-.2-.8-.4-1.1-.5s-.8-.4-1.1-.5c-1.1-.5-1.8-1.1-2.3-1.6-.6-.7-.8-1.5-.8-2.6s.5-2.6,1.4-3.5c1-.9,2.2-1.4,3.6-1.4,2.1,0,3.6,1.1,4.6,3.2Z"/>
    </g>
  </g>
  <g id="pwcE3q">
    <g>
      <path class="cls-17" d="M2120.5,914.6c53.6-.2,97.1-44,96.8-97.5-.3-53.3-43.6-96.5-96.9-96.6-53.5,0-97.2,43.5-97.2,97.1s43.8,97.2,97.3,97h0Z"/>
      <path class="cls-6" d="M2120.5,914.6c-53.5.2-97.3-43.4-97.3-97s43.7-97.2,97.2-97.1c53.3,0,96.6,43.3,96.9,96.6.3,53.5-43.2,97.3-96.8,97.5h0ZM2031.1,821.2c.8,16.2,5.1,30.3,13.3,43.1.9,1.3,3.5,2.7,4.9,2.3,9.2-2.4,18.2-5.3,27.3-8-1.5-12.6-2.9-24.9-4.4-37.4h-41.2,0ZM2209.2,821.2h-41.1c-1.5,12.7-2.9,25.1-4.3,37.3,9.1,2.7,18,5.5,26.9,7.9,1.5.4,4.3-.6,5.1-1.8,8.3-13,13-27.2,13.4-43.4h0ZM2209.2,812.6c-.8-15.4-5-28.7-12.6-40.9-1.1-1.7-4.2-3.8-5.8-3.4-9.2,2.3-18.2,5.2-27.2,7.9,1.5,12.4,3,24.4,4.4,36.3h41.2ZM2076.7,776.2c-9.1-2.7-17.7-5.4-26.5-7.7-1.7-.4-4.8.6-5.6,1.9-8.1,12.7-12.8,26.5-13.2,42h41.1c1.5-12.3,2.8-24.1,4.3-36.3h-.1ZM2084.4,857.6c11.6-.9,21.3-1.6,31.3-2.4v-34h-35.5c1.4,12.3,2.7,24.1,4.1,36.3h0ZM2156.1,857.6c1.3-12.5,2.6-24.4,3.9-36.3h-35.5v33.9c10.3.8,20,1.5,31.6,2.4h0ZM2084.4,777.2c-1.4,12-2.7,23.4-4.1,35.3h35.6v-33c-10.3-.8-20-1.5-31.5-2.4h0ZM2155.9,777.3c-11.3.8-21.2,1.6-31.4,2.4v32.9h35.7c-1.5-12.1-2.8-23.5-4.2-35.3h-.1ZM2087.5,865.2c4.7,21.4,16.7,37.8,28.2,39.7v-41.7c-9.7.7-18.7,1.3-28.2,2ZM2124.5,905.2c12.9-3.3,26.9-23.9,27.5-40.2-8.9-.6-17.9-1.2-27.5-1.8v42ZM2116,728.5c-17.8,8.6-23.2,24.2-29.1,41.1,10.3.7,19.4,1.4,29.1,2.1v-43.2h0ZM2124.6,728.4v43.3c9.8-.8,18.8-1.5,29-2.3-6.1-17-11.5-32.3-29-41.1h0ZM2051.1,761.1c10.2,2.7,18.8,5,26.7,7.1,6.2-12.7,11.9-24.4,17.8-36.5-17.2,4.9-31.5,14.1-44.5,29.4ZM2095.5,903.1c-6-12.3-11.6-24.1-17.7-36.6-8.3,2.3-16.9,4.6-26.7,7.4,12.9,14.8,27.1,24.2,44.4,29.2h0ZM2189.3,761c-13.1-15.1-27.1-24.5-44.3-29.2,6,12.3,11.6,23.9,17.6,36.4,8-2.2,16.6-4.5,26.7-7.2ZM2145,903.1c17.4-5.1,31.7-14.4,44.4-29.3-10.1-2.7-18.8-5-26.7-7.1-6.1,12.6-11.6,24-17.6,36.4h0Z"/>
      <path class="cls-17" d="M2031.1,821.2h41.2c1.5,12.5,2.9,24.8,4.4,37.4-9.1,2.7-18.1,5.6-27.3,8-1.4.4-4.1-1-4.9-2.3-8.2-12.8-12.5-26.9-13.3-43.1h0Z"/>
      <path class="cls-17" d="M2209.2,821.2c-.4,16.2-5.1,30.4-13.4,43.4-.8,1.2-3.6,2.2-5.1,1.8-9-2.4-17.8-5.2-26.9-7.9,1.4-12.3,2.8-24.6,4.3-37.3h41.1,0Z"/>
      <path class="cls-17" d="M2209.2,812.6h-41.1c-1.5-12-2.9-23.9-4.4-36.3,9-2.7,18-5.6,27.2-7.9,1.6-.4,4.7,1.6,5.8,3.4,7.5,12.2,11.8,25.5,12.6,40.9h-.1Z"/>
      <path class="cls-17" d="M2076.7,776.2c-1.4,12.2-2.8,24-4.3,36.3h-41.1c.4-15.5,5.1-29.3,13.2-42,.9-1.4,4-2.4,5.6-1.9,8.7,2.2,17.3,5,26.5,7.7h.1Z"/>
      <path class="cls-17" d="M2084.4,857.6c-1.4-12.3-2.7-24-4.1-36.3h35.5v34c-10,.8-19.8,1.5-31.3,2.4h0Z"/>
      <path class="cls-17" d="M2156.1,857.6c-11.6-.9-21.3-1.6-31.6-2.4v-33.9h35.5c-1.3,12-2.6,23.8-3.9,36.3h0Z"/>
      <path class="cls-17" d="M2084.4,777.2c11.5.9,21.2,1.6,31.5,2.4v33h-35.6c1.4-11.9,2.7-23.3,4.1-35.3h0Z"/>
      <path class="cls-17" d="M2155.9,777.3c1.4,11.8,2.8,23.2,4.2,35.3h-35.7v-32.9c10.2-.8,20.2-1.5,31.4-2.4h.1Z"/>
      <path class="cls-17" d="M2087.5,865.2c9.5-.7,18.5-1.3,28.2-2v41.7c-11.6-1.9-23.5-18.3-28.2-39.7Z"/>
      <path class="cls-17" d="M2124.5,905.2v-42c9.6.6,18.5,1.2,27.5,1.8-.5,16.3-14.6,36.8-27.5,40.2Z"/>
      <path class="cls-17" d="M2116,728.5v43.2c-9.7-.7-18.8-1.3-29.1-2.1,5.9-16.9,11.3-32.5,29.1-41.1h0Z"/>
      <path class="cls-17" d="M2124.6,728.4c17.5,8.7,22.9,24.1,29,41.1-10.2.8-19.2,1.5-29,2.3v-43.3h0Z"/>
      <path class="cls-17" d="M2051.1,761.1c13-15.3,27.3-24.5,44.5-29.4-5.9,12.1-11.6,23.8-17.8,36.5-7.9-2.1-16.5-4.4-26.7-7.1Z"/>
      <path class="cls-17" d="M2095.5,903.1c-17.3-5-31.5-14.4-44.4-29.2,9.8-2.7,18.4-5.1,26.7-7.4,6,12.5,11.7,24.2,17.7,36.6h0Z"/>
      <path class="cls-17" d="M2189.3,761c-10.1,2.7-18.7,5-26.7,7.2-6.1-12.5-11.7-24.1-17.6-36.4,17.2,4.7,31.2,14.1,44.3,29.2Z"/>
      <path class="cls-17" d="M2145,903.1c6-12.4,11.5-23.8,17.6-36.4,7.9,2.1,16.7,4.4,26.7,7.1-12.7,15-27,24.2-44.4,29.3h0Z"/>
    </g>
  </g>
  <g id="yS4D7p">
    <g>
      <path class="cls-9" d="M2550.1,610.7c9.6,8.7,19,17.3,28.3,25.9,6.4,5.9,13.2,11.5,18.8,18,7.7,9,6.9,17.7-.8,25.2-7.2,7-15.2,7.6-24.1.4-6.3-5.2-11.7-11.5-17.3-17.6-8.9-9.7-17.6-19.6-26.8-29.9-22.8,14.4-47.2,18.3-72.9,9.9-18.9-6.2-33.6-17.9-43.9-34.8-21.1-34.7-14.2-78.9,16.2-105.4,29.4-25.6,74.6-26.5,105-2.3,32.1,25.5,41.3,71.8,17.4,110.6h0ZM2549.6,564.2c0-37.4-30.7-67.9-68.1-67.9-37.3,0-68,30.6-68.1,67.9-.2,38,30.9,68.8,69,68.5,37.4-.3,67.3-30.8,67.2-68.6h0Z"/>
      <path class="cls-17" d="M2549.6,564.2c0,37.7-29.8,68.3-67.2,68.6-38,.3-69.1-30.5-69-68.5.2-37.3,30.8-67.9,68.1-67.9s68,30.5,68.1,67.9h0Z"/>
    </g>
  </g>
  <polygon class="cls-16" points="1992.4 528.4 1958.1 484 1958.1 570.2 1992.4 528.4"/>
  <path class="cls-16" d="M2113.7,643.7h-6.2v-6.2c0-6.6-5.4-12-12-12h0c-6.6,0-12,5.4-12,12v6.2h-6.2c-6.6,0-12,5.4-12,12h0c0,6.6,5.4,12,12,12h6.2v6.2c0,6.6,5.4,12,12,12h0c6.6,0,12-5.4,12-12v-6.2h6.2c6.6,0,12-5.4,12-12h0c0-6.6-5.4-12-12-12Z"/>
  <path class="cls-16" d="M2269.9,626.2h-4.3v-4.3c0-4.6-3.8-8.4-8.4-8.4h0c-4.6,0-8.4,3.8-8.4,8.4v4.3h-4.3c-4.6,0-8.4,3.8-8.4,8.4h0c0,4.6,3.8,8.4,8.4,8.4h4.3v4.3c0,4.6,3.8,8.4,8.4,8.4h0c4.6,0,8.4-3.8,8.4-8.4v-4.3h4.3c4.6,0,8.4-3.8,8.4-8.4h0c0-4.6-3.8-8.4-8.4-8.4Z"/>
  <path class="cls-16" d="M2210.2,450.5h-4.3v-4.3c0-4.6-3.8-8.4-8.4-8.4h0c-4.6,0-8.4,3.8-8.4,8.4v4.3h-4.3c-4.6,0-8.4,3.8-8.4,8.4h0c0,4.6,3.8,8.4,8.4,8.4h4.3v4.3c0,4.6,3.8,8.4,8.4,8.4h0c4.6,0,8.4-3.8,8.4-8.4v-4.3h4.3c4.6,0,8.4-3.8,8.4-8.4h0c0-4.6-3.8-8.4-8.4-8.4Z"/>
  <g>
    <rect class="cls-16" x="502.8" y="724.4" width="7.2" height="162.2" transform="translate(-444.4 841.3) rotate(-60)"/>
    <path class="cls-16" d="M487.1,797.6c-2,0-3.5-1.5-3.7-3.5l-8.7-108.3c0-2,1.5-3.7,3.5-4,2,0,3.7,1.2,4,3.5l8.7,108.3c0,2-1.5,3.7-3.5,4h-.3Z"/>
    <path class="cls-16" d="M483.4,748.4c-.7,0-1.5,0-2.2-.7-1.7-1.2-2-3.5-.7-5.2l42.2-58.9c1.2-1.7,3.5-2,5.2-.7,1.7,1.2,2,3.5.7,5.2l-42.2,58.9c-.7,1-2,1.5-3,1.5h0Z"/>
    <circle class="cls-16" cx="480.4" cy="681.3" r="17.4"/>
    <circle class="cls-16" cx="426.8" cy="759.8" r="17.4"/>
    <circle class="cls-16" cx="487.1" cy="792.6" r="17.4"/>
    <circle class="cls-16" cx="532.6" cy="676.1" r="17.4"/>
  </g>
  <path class="cls-17" d="M1564.2,451.1l-4.2,4.2c20.4,20.4,31.7,47.6,31.7,76.4,0,59.6-48.5,108.1-108.1,108.1s-108.1-48.5-108.1-108.1,48.5-108.1,108.1-108.1,11.7.5,17.4,1.4l-1.3,6.7,21.4-3.5-18.2-13.6-.9,4.5c-6.1-1-12.3-1.5-18.6-1.5-62.9,0-114.1,51.2-114.1,114.1s51.2,114.1,114.1,114.1,114.1-51.2,114.1-114.1-11.9-59.1-33.4-80.7Z"/>
  <path class="cls-16" d="M2053.8,347.8l-54.2-27.7,4,21.6c-121,13.7-171.7,69.4-171.7,69.4-14,18.2,15.6,55.7,15.6,55.7,54.7-66,144.1-86.4,162.5-90l3.4,18.5,40.3-47.5Z"/>
  <path class="cls-16" d="M2045,692.2l-54.2,24.7,4-19.3c-121-12.3-171.7-62-171.7-62-14-16.3,15.6-49.8,15.6-49.8,54.7,59.1,144.1,77.3,162.5,80.5l3.4-16.5,40.3,42.5Z"/>
  <g>
    <path class="cls-9" d="M2029.1,405.2l-3.1,1.9c-.6-1-1.1-1.7-1.7-2-.6-.4-1.3-.5-2.1-.5s-2,.3-2.7.9c-.7.6-1.1,1.4-1.1,2.3s.9,2.3,2.8,3l2.6,1c2.1.8,3.6,1.9,4.6,3.1s1.4,2.7,1.4,4.5-.8,4.3-2.4,5.8c-1.6,1.5-3.5,2.3-5.9,2.3s-4.1-.7-5.5-2c-1.4-1.3-2.3-3.2-2.7-5.6l3.9-.9c.2,1.5.5,2.5.9,3.1.8,1.1,2,1.7,3.5,1.7s2.2-.4,3-1.2c.8-.8,1.2-1.8,1.2-3.1s0-1-.2-1.4c-.1-.4-.4-.8-.6-1.1-.3-.3-.7-.7-1.1-1-.5-.3-1-.6-1.7-.9l-2.5-1c-3.5-1.5-5.3-3.7-5.3-6.5s.7-3.5,2.2-4.8c1.5-1.3,3.3-2,5.5-2s5.3,1.4,6.9,4.3Z"/>
    <path class="cls-9" d="M2048.4,419.8h-11.6c0,1.3.5,2.4,1.3,3.2.8.8,1.7,1.2,2.9,1.2s1.7-.2,2.3-.7c.6-.4,1.3-1.3,2-2.5l3.2,1.8c-.5.8-1,1.5-1.5,2.1-.5.6-1.1,1.1-1.7,1.5s-1.3.7-2,.8c-.7.2-1.5.3-2.3.3-2.4,0-4.3-.8-5.8-2.3-1.5-1.6-2.2-3.6-2.2-6.2s.7-4.6,2.1-6.2c1.4-1.6,3.3-2.3,5.7-2.3s4.3.8,5.6,2.3c1.4,1.5,2.1,3.6,2.1,6.3v.9ZM2044.6,416.7c-.5-2-1.8-3-3.8-3s-.9,0-1.3.2c-.4.1-.8.3-1.1.6-.3.3-.6.6-.8.9s-.4.8-.5,1.2h7.5Z"/>
    <path class="cls-9" d="M2064.4,410.8h3.8v16.2h-3.8v-1.7c-1.5,1.4-3.2,2.2-5,2.2s-4.1-.8-5.5-2.4c-1.5-1.6-2.2-3.7-2.2-6.2s.7-4.4,2.2-6.1c1.5-1.6,3.3-2.4,5.4-2.4s3.6.8,5.1,2.3v-1.9ZM2055.6,418.8c0,1.5.4,2.8,1.2,3.8.9,1,1.9,1.5,3.2,1.5s2.5-.5,3.4-1.4c.9-1,1.3-2.2,1.3-3.8s-.4-2.8-1.3-3.8c-.9-1-2-1.4-3.3-1.4s-2.4.5-3.2,1.5c-.9,1-1.3,2.2-1.3,3.7Z"/>
    <path class="cls-9" d="M2072.9,410.8h3.7v1.4c.7-.7,1.3-1.2,1.8-1.5.5-.3,1.2-.4,1.9-.4s2,.3,3.1,1l-1.7,3.4c-.7-.5-1.4-.8-2.1-.8-2,0-3.1,1.5-3.1,4.6v8.4h-3.7v-16.2Z"/>
    <path class="cls-9" d="M2097.9,411.5v5c-.9-1-1.6-1.8-2.3-2.1-.7-.4-1.4-.6-2.3-.6-1.4,0-2.6.5-3.5,1.5-.9,1-1.4,2.2-1.4,3.7s.4,2.8,1.3,3.7c.9,1,2.1,1.5,3.5,1.5s1.7-.2,2.4-.6c.7-.4,1.4-1.1,2.3-2.2v4.9c-1.5.8-3,1.2-4.5,1.2-2.5,0-4.6-.8-6.3-2.4-1.7-1.6-2.5-3.6-2.5-6.1s.9-4.4,2.6-6.1,3.8-2.5,6.3-2.5,3.1.4,4.5,1.1Z"/>
    <path class="cls-9" d="M2102.4,398.9h3.7v13.2c1.3-1.2,2.8-1.8,4.4-1.8s3.3.6,4.4,1.8c.9,1,1.4,2.7,1.4,4.9v9.9h-3.7v-9.6c0-1.3-.2-2.2-.7-2.8-.5-.6-1.2-.9-2.2-.9s-2.2.4-2.8,1.2c-.5.8-.8,2.2-.8,4.2v7.8h-3.7v-28Z"/>
    <path class="cls-9" d="M2146.4,405h-10.3v6.2h10v3.6h-10v8.6h10.3v3.6h-14.1v-25.6h14.1v3.6Z"/>
    <path class="cls-9" d="M2150.7,410.8h3.8v1.5c1.3-1.3,2.8-1.9,4.4-1.9s3.3.6,4.4,1.8c.9,1,1.4,2.7,1.4,4.9v9.9h-3.8v-9c0-1.6-.2-2.7-.7-3.3-.4-.6-1.2-.9-2.4-.9s-2.1.4-2.6,1.2c-.5.8-.8,2.2-.8,4.2v7.8h-3.8v-16.2Z"/>
    <path class="cls-9" d="M2185,426.6c0,.8,0,1.4,0,2,0,.6-.1,1.1-.2,1.5-.3,1.2-.8,2.3-1.6,3.1-1.5,1.7-3.5,2.5-6,2.5s-3.9-.6-5.3-1.7c-1.4-1.2-2.3-2.9-2.5-5h3.8c.1.8.4,1.4.7,1.8.8,1,1.9,1.5,3.4,1.5,2.7,0,4.1-1.7,4.1-5v-2.3c-1.5,1.5-3.2,2.3-5.1,2.3s-4-.8-5.4-2.4c-1.4-1.6-2.1-3.6-2.1-6.1s.7-4.4,2-6c1.4-1.7,3.3-2.6,5.6-2.6s3.7.8,5.1,2.3v-1.8h3.7v15.8ZM2181.4,418.9c0-1.6-.4-2.8-1.3-3.8-.9-1-1.9-1.4-3.3-1.4s-2.5.5-3.4,1.6c-.7.9-1.1,2.2-1.1,3.7s.4,2.7,1.1,3.6c.8,1,1.9,1.5,3.4,1.5s2.6-.5,3.4-1.6c.8-.9,1.1-2.1,1.1-3.6Z"/>
    <path class="cls-9" d="M2189.2,404.1c0-.7.2-1.2.7-1.7.5-.5,1-.7,1.7-.7s1.3.2,1.7.7c.5.5.7,1,.7,1.7s-.2,1.3-.7,1.7c-.5.5-1,.7-1.7.7s-1.3-.2-1.7-.7c-.5-.5-.7-1.1-.7-1.7ZM2193.5,410.8v16.2h-3.7v-16.2h3.7Z"/>
    <path class="cls-9" d="M2198.2,410.8h3.8v1.5c1.3-1.3,2.8-1.9,4.4-1.9s3.3.6,4.4,1.8c.9,1,1.4,2.7,1.4,4.9v9.9h-3.8v-9c0-1.6-.2-2.7-.7-3.3-.4-.6-1.2-.9-2.4-.9s-2.1.4-2.6,1.2c-.5.8-.8,2.2-.8,4.2v7.8h-3.8v-16.2Z"/>
    <path class="cls-9" d="M2231.6,419.8h-11.6c0,1.3.5,2.4,1.3,3.2.8.8,1.7,1.2,2.9,1.2s1.7-.2,2.3-.7c.6-.4,1.3-1.3,2-2.5l3.2,1.8c-.5.8-1,1.5-1.5,2.1-.5.6-1.1,1.1-1.7,1.5s-1.3.7-2,.8c-.7.2-1.5.3-2.3.3-2.4,0-4.3-.8-5.8-2.3-1.5-1.6-2.2-3.6-2.2-6.2s.7-4.6,2.1-6.2c1.4-1.6,3.3-2.3,5.7-2.3s4.3.8,5.6,2.3c1.4,1.5,2.1,3.6,2.1,6.3v.9ZM2227.7,416.7c-.5-2-1.8-3-3.8-3s-.9,0-1.3.2c-.4.1-.8.3-1.1.6-.3.3-.6.6-.8.9s-.4.8-.5,1.2h7.5Z"/>
    <path class="cls-9" d="M2245.1,413.6l-3.1,1.6c-.5-1-1.1-1.5-1.8-1.5s-.6.1-.9.3c-.2.2-.4.5-.4.9,0,.6.7,1.2,2.2,1.8,2,.9,3.3,1.6,4,2.4.7.7,1,1.7,1,2.9s-.6,2.9-1.7,3.9c-1.1,1-2.5,1.5-4.1,1.5-2.7,0-4.6-1.3-5.8-4l3.2-1.5c.4.8.8,1.3,1,1.5.5.4,1,.6,1.6.6,1.3,0,1.9-.6,1.9-1.7s-.5-1.3-1.5-1.9c-.4-.2-.8-.4-1.1-.5-.4-.2-.8-.4-1.1-.5-1.1-.5-1.8-1.1-2.3-1.6-.6-.7-.8-1.5-.8-2.6s.5-2.6,1.4-3.5c1-.9,2.2-1.4,3.6-1.4,2.1,0,3.6,1.1,4.6,3.2Z"/>
  </g>
  <polyline class="cls-20" points="2283.1 296.5 2336.7 303.6 2342.1 545.8 2377 565.5 2344.3 587.3 2337.8 861 2287.3 874.9"/>
  <path class="cls-16" d="M411.4,197.1h0l-4.1,2.2-.6-2.4,5.1-2.7h2.7v23.4h-3.1v-20.4Z"/>
  <path class="cls-16" d="M336.9,868.9v-1.9l2.5-2.4c6-5.7,8.7-8.7,8.7-12.2,0-2.4-1.2-4.6-4.6-4.6s-3.9,1.1-5,2l-1-2.2c1.6-1.4,3.9-2.4,6.6-2.4,5,0,7.2,3.5,7.2,6.8s-3.1,7.8-8.1,12.6l-1.9,1.7h0c0,0,10.5,0,10.5,0v2.6h-14.9Z"/>
  <path class="cls-16" d="M850.5,328.2c.9.6,3,1.5,5.2,1.5,4.1,0,5.3-2.6,5.3-4.5,0-3.3-3-4.7-6-4.7h-1.8v-2.4h1.8c2.3,0,5.2-1.2,5.2-4s-1.2-3.5-4.1-3.5-3.7.8-4.7,1.5l-.8-2.3c1.2-.9,3.6-1.8,6.1-1.8,4.6,0,6.7,2.7,6.7,5.6s-1.4,4.5-4.3,5.5h0c2.9.6,5.2,2.8,5.2,6.1s-2.9,7-8.5,7-4.9-.8-6.1-1.6l.9-2.4Z"/>
  <path class="cls-16" d="M880.5,771.3v-6.4h-10.9v-2.1l10.4-14.9h3.4v14.5h3.3v2.5h-3.3v6.4h-3ZM880.5,762.4v-7.8c0-1.2,0-2.4.1-3.7h-.1c-.7,1.4-1.3,2.4-1.9,3.5l-5.7,8h0c0,0,7.7,0,7.7,0Z"/>
  <path class="cls-16" d="M1678.4,442.7h-8.9l-.9,6c.5,0,1-.1,1.9-.1,1.8,0,3.6.4,5,1.3,1.8,1,3.3,3.1,3.3,6,0,4.6-3.6,8-8.7,8s-4.7-.7-5.8-1.4l.8-2.4c1,.6,2.9,1.3,5,1.3s5.5-1.9,5.5-5.1c0-3-2.1-5.2-6.7-5.2s-2.4.1-3.2.3l1.5-11.2h11.2v2.7Z"/>
  <path class="cls-16" d="M2308,188.5c-.6,0-1.5,0-2.4.1-5,.8-7.6,4.5-8.1,8.3h.1c1.1-1.5,3.1-2.7,5.7-2.7,4.1,0,7.1,3,7.1,7.6s-2.9,8.2-7.8,8.2-8.3-3.9-8.3-10,1.7-8.2,4-10.5c1.9-1.9,4.5-3.1,7.5-3.5.9-.1,1.7-.2,2.3-.2v2.6ZM2307.1,202c0-3.3-1.9-5.4-4.8-5.4s-3.7,1.2-4.5,2.9c-.2.4-.4.8-.4,1.4,0,3.9,1.8,6.7,5.1,6.7s4.6-2.3,4.6-5.6Z"/>
</svg>