<?xml version="1.0" encoding="utf-8"?>
<!-- Generator: Adobe Illustrator 24.0.1, SVG Export Plug-In . SVG Version: 6.00 Build 0)  -->
<svg version="1.1" id="Layer_1" xmlns="http://www.w3.org/2000/svg" xmlns:xlink="http://www.w3.org/1999/xlink" x="0px" y="0px"
	 viewBox="0 0 1024 670" style="enable-background:new 0 0 1024 670;" xml:space="preserve">
<g>
	<path style="fill:none;stroke:#4A7D8F;stroke-miterlimit:10;" d="M19,670c0-263.4,213.6-477,477-477s477,213.6,477,477"/>
	<path style="fill:none;stroke:#4A7D8F;stroke-width:0.9531;stroke-miterlimit:10;" d="M23.2,670c0-251.8,204.2-456,456-456
		s456,204.2,456,456"/>
	<path style="fill:none;stroke:#4A7D8F;stroke-width:0.9062;stroke-miterlimit:10;" d="M27.4,670c0-240.2,194.8-435,435-435
		s435,194.8,435,435"/>
	<path style="fill:none;stroke:#4A7D8F;stroke-width:0.8594;stroke-miterlimit:10;" d="M31.6,670c0-228.6,185.4-414,414-414
		s414,185.4,414,414"/>
	<path style="fill:none;stroke:#4A7D8F;stroke-width:0.8125;stroke-miterlimit:10;" d="M35.8,670c0-217.1,176-393,393-393
		s393,176,393,393"/>
	<path style="fill:none;stroke:#4A7D8F;stroke-width:0.7656;stroke-miterlimit:10;" d="M39.9,670c0-205.5,166.6-372,372-372
		s372,166.6,372,372"/>
	<path style="fill:none;stroke:#4A7D8F;stroke-width:0.7188;stroke-miterlimit:10;" d="M44.1,670c0-193.9,157.2-351,351-351
		s351,157.2,351,351"/>
	<path style="fill:none;stroke:#4A7D8F;stroke-width:0.6719;stroke-miterlimit:10;" d="M48.3,670c0-182.3,147.8-330,330-330
		s330,147.8,330,330"/>
	<path style="fill:none;stroke:#4A7D8F;stroke-width:0.625;stroke-miterlimit:10;" d="M52.5,670c0-170.7,138.4-309,309-309
		s309,138.4,309,309"/>
	<path style="fill:none;stroke:#4A7D8F;stroke-width:0.5781;stroke-miterlimit:10;" d="M56.7,670c0-159.1,128.9-288,288-288
		s288,128.9,288,288"/>
	<path style="fill:none;stroke:#4A7D8F;stroke-width:0.5312;stroke-miterlimit:10;" d="M60.9,670c0-147.5,119.5-267,267-267
		s267,119.5,267,267"/>
	<path style="fill:none;stroke:#4A7D8F;stroke-width:0.4844;stroke-miterlimit:10;" d="M65.1,670c0-135.9,110.1-246,246-246
		s246,110.1,246,246"/>
	<path style="fill:none;stroke:#4A7D8F;stroke-width:0.4375;stroke-miterlimit:10;" d="M69.3,670c0-124.3,100.7-225,225-225
		s225,100.7,225,225"/>
	<path style="fill:none;stroke:#4A7D8F;stroke-width:0.3906;stroke-miterlimit:10;" d="M73.5,670c0-112.7,91.3-204,204-204
		s204,91.3,204,204"/>
	<path style="fill:none;stroke:#4A7D8F;stroke-width:0.3438;stroke-miterlimit:10;" d="M77.6,670c0-101.1,81.9-183,183-183
		s183,81.9,183,183"/>
	<path style="fill:none;stroke:#4A7D8F;stroke-width:0.2969;stroke-miterlimit:10;" d="M81.8,670c0-89.5,72.5-162,162-162
		s162,72.5,162,162"/>
	<path style="fill:none;stroke:#4A7D8F;stroke-width:0.25;stroke-miterlimit:10;" d="M86,670c0-77.9,63.1-141,141-141
		s141,63.1,141,141"/>
</g>
</svg>
