<?xml version="1.0" encoding="utf-8"?>
<!-- Generator: Adobe Illustrator 24.2.1, SVG Export Plug-In . SVG Version: 6.00 Build 0)  -->
<svg version="1.1" id="Layer_1" xmlns="http://www.w3.org/2000/svg" xmlns:xlink="http://www.w3.org/1999/xlink" x="0px" y="0px"
	 viewBox="0 0 200 200" style="enable-background:new 0 0 200 200;" xml:space="preserve">
<style type="text/css">
	.st0{fill:#7F7F7F;}
	.st1{fill:#AB58BA;}
	.st2{fill:#4A7D8F;}
	.st3{fill:#FFFFFF;}
</style>
<g>
	<polygon class="st0" points="34.6,105.1 32.4,101.1 165.4,26.5 167.6,30.5 	"/>
</g>
<g>
	<line class="st1" x1="33.5" y1="103.1" x2="166.5" y2="171.5"/>
	<polygon class="st1" points="165.5,173.5 32.5,105.1 34.5,101.1 167.5,169.5 	"/>
</g>
<path class="st2" d="M52.4,114.4H14.6c-5.5,0-10-4.5-10-10v-2.7c0-5.5,4.5-10,10-10h37.8c5.5,0,10,4.5,10,10v2.7
	C62.4,109.9,57.9,114.4,52.4,114.4z"/>
<path class="st2" d="M114.6,153.2H76.8c-5.5,0-10-4.5-10-10v-2.7c0-5.5,4.5-10,10-10h37.8c5.5,0,10,4.5,10,10v2.7
	C124.6,148.7,120.1,153.2,114.6,153.2z"/>
<path class="st1" d="M185.4,39.8h-37.8c-5.5,0-10-4.5-10-10v-2.7c0-5.5,4.5-10,10-10h37.8c5.5,0,10,4.5,10,10v2.7
	C195.4,35.3,190.9,39.8,185.4,39.8z"/>
<path class="st2" d="M185.4,182.8h-37.8c-5.5,0-10-4.5-10-10v-2.7c0-5.5,4.5-10,10-10h37.8c5.5,0,10,4.5,10,10v2.7
	C195.4,178.3,190.9,182.8,185.4,182.8z"/>
<ellipse class="st1" cx="100" cy="65.8" rx="19.3" ry="19.6"/>
<path class="st3" d="M111.2,63.8H102v-9.4c0-1.1-0.9-2-2-2s-2,0.9-2,2v9.4h-9.2c-1.1,0-2,0.9-2,2c0,1.1,0.9,2,2,2H98v9.4
	c0,1.1,0.9,2,2,2s2-0.9,2-2v-9.4h9.2c1.1,0,2-0.9,2-2C113.2,64.7,112.3,63.8,111.2,63.8z"/>
</svg>
