<?xml version="1.0" encoding="utf-8"?>
<!-- Generator: Adobe Illustrator 24.2.1, SVG Export Plug-In . SVG Version: 6.00 Build 0)  -->
<svg version="1.1" id="Layer_1" xmlns="http://www.w3.org/2000/svg" xmlns:xlink="http://www.w3.org/1999/xlink" x="0px" y="0px"
	 viewBox="0 0 1920 606" style="enable-background:new 0 0 1920 606;" xml:space="preserve">
<style type="text/css">
	.st0{fill:none;stroke:#FFFFFF;stroke-width:2;stroke-miterlimit:10;}
	.st1{fill:none;stroke:#FFFFFF;stroke-width:1.95;stroke-miterlimit:10;}
	.st2{fill:none;stroke:#FFFFFF;stroke-width:1.9;stroke-miterlimit:10;}
	.st3{fill:none;stroke:#FFFFFF;stroke-width:1.85;stroke-miterlimit:10;}
	.st4{fill:none;stroke:#FFFFFF;stroke-width:1.8;stroke-miterlimit:10;}
	.st5{fill:none;stroke:#FFFFFF;stroke-width:1.75;stroke-miterlimit:10;}
	.st6{fill:none;stroke:#FFFFFF;stroke-width:1.7;stroke-miterlimit:10;}
	.st7{fill:none;stroke:#FFFFFF;stroke-width:1.65;stroke-miterlimit:10;}
	.st8{fill:none;stroke:#FFFFFF;stroke-width:1.6;stroke-miterlimit:10;}
	.st9{fill:none;stroke:#FFFFFF;stroke-width:1.55;stroke-miterlimit:10;}
	.st10{fill:none;stroke:#FFFFFF;stroke-width:1.5;stroke-miterlimit:10;}
	.st11{fill:none;stroke:#FFFFFF;stroke-width:1.45;stroke-miterlimit:10;}
	.st12{fill:none;stroke:#FFFFFF;stroke-width:1.4;stroke-miterlimit:10;}
	.st13{fill:none;stroke:#FFFFFF;stroke-width:1.35;stroke-miterlimit:10;}
	.st14{fill:none;stroke:#FFFFFF;stroke-width:1.3;stroke-miterlimit:10;}
	.st15{fill:none;stroke:#FFFFFF;stroke-width:1.25;stroke-miterlimit:10;}
	.st16{fill:none;stroke:#FFFFFF;stroke-width:1.2;stroke-miterlimit:10;}
	.st17{fill:none;stroke:#FFFFFF;stroke-width:1.15;stroke-miterlimit:10;}
	.st18{fill:none;stroke:#FFFFFF;stroke-width:1.1;stroke-miterlimit:10;}
	.st19{fill:none;stroke:#FFFFFF;stroke-width:1.05;stroke-miterlimit:10;}
	.st20{fill:none;stroke:#FFFFFF;stroke-miterlimit:10;}
	.st21{fill:none;stroke:#FFFFFF;stroke-width:0.975;stroke-miterlimit:10;}
	.st22{fill:none;stroke:#FFFFFF;stroke-width:0.95;stroke-miterlimit:10;}
	.st23{fill:none;stroke:#FFFFFF;stroke-width:0.925;stroke-miterlimit:10;}
	.st24{fill:none;stroke:#FFFFFF;stroke-width:0.9;stroke-miterlimit:10;}
	.st25{fill:none;stroke:#FFFFFF;stroke-width:0.875;stroke-miterlimit:10;}
	.st26{fill:none;stroke:#FFFFFF;stroke-width:0.85;stroke-miterlimit:10;}
	.st27{fill:none;stroke:#FFFFFF;stroke-width:0.825;stroke-miterlimit:10;}
	.st28{fill:none;stroke:#FFFFFF;stroke-width:0.8;stroke-miterlimit:10;}
	.st29{fill:none;stroke:#FFFFFF;stroke-width:0.775;stroke-miterlimit:10;}
	.st30{fill:none;stroke:#FFFFFF;stroke-width:0.75;stroke-miterlimit:10;}
	.st31{fill:none;stroke:#FFFFFF;stroke-width:0.725;stroke-miterlimit:10;}
	.st32{fill:none;stroke:#FFFFFF;stroke-width:0.7;stroke-miterlimit:10;}
	.st33{fill:none;stroke:#FFFFFF;stroke-width:0.675;stroke-miterlimit:10;}
	.st34{fill:none;stroke:#FFFFFF;stroke-width:0.65;stroke-miterlimit:10;}
	.st35{fill:none;stroke:#FFFFFF;stroke-width:0.625;stroke-miterlimit:10;}
	.st36{fill:none;stroke:#FFFFFF;stroke-width:0.6;stroke-miterlimit:10;}
	.st37{fill:none;stroke:#FFFFFF;stroke-width:0.575;stroke-miterlimit:10;}
	.st38{fill:none;stroke:#FFFFFF;stroke-width:0.55;stroke-miterlimit:10;}
	.st39{fill:none;stroke:#FFFFFF;stroke-width:0.525;stroke-miterlimit:10;}
	.st40{fill:none;stroke:#FFFFFF;stroke-width:0.5;stroke-miterlimit:10;}
	.op{opacity:.3;}
</style>
<g class="op">
	<path class="st0" d="M0.5,142.5C0.5,142.5,273,590,470,479s279.5-659.5,890.5-194.5C1678,526.1,1921,78,1921,78"/>
	<path class="st1" d="M0.5,151.2c0,0,282.7,436.7,480.7,324.4c199.6-113.3,280.6-641.4,883.2-191.1
		c308.5,230.5,546.5-191.7,556.5-188"/>
	<path class="st2" d="M0.5,161.9c0,0,292.9,425.8,491.9,312.3C694.6,358.7,774-149,1368.3,286.5
		c299.5,219.4,532.5-176.9,552.5-169.5"/>
	<path class="st3" d="M0.5,177.1c0,0,303,415,503,300.3c204.9-117.8,282.6-605,868.7-184.3c290.4,208.4,518.5-162.1,548.5-151"/>
	<path class="st4" d="M0.5,192.3c0,0,313.2,404.2,514.2,288.2c207.5-120.1,283.4-586.7,861.5-181
		c281.2,197.4,504.6-147.3,544.5-132.4"/>
	<path class="st5" d="M0.5,207.4c0,0,323.4,393.3,525.4,276.1C736,361.2,810.1-84.8,1380.1,306c272,186.5,490.6-132.5,540.5-113.9"
		/>
	<path class="st6" d="M0.5,222.6c0,0,333.6,382.5,536.5,264c212.8-124.6,284.8-550,847-174.2c262.7,175.6,476.6-117.7,536.5-95.4"/>
	<path class="st7" d="M0.5,237.6c0,0,343.8,371.7,547.7,252c215.4-126.9,285.4-531.5,839.7-170.8
		c253.3,164.8,462.6-102.9,532.5-76.9"/>
	<path class="st8" d="M0.5,252.7c0,0,354,360.8,558.9,239.9c218-129.2,285.8-513,832.5-167.4c243.9,154.1,448.6-88.1,528.5-58.4"/>
	<path class="st9" d="M0.5,267.6c0,0,364.1,350,570.1,227.8c220.7-131.4,286-494.3,825.2-164c234.3,143.5,434.6-73.3,524.5-39.9"/>
	<path class="st10" d="M0.5,282.6c0,0,374.3,339.2,581.2,215.8c223.3-133.7,286.1-475.4,818-160.6c224.7,133,420.6-58.5,520.5-21.4"
		/>
	<path class="st11" d="M0.5,297.4c0,0,384.5,328.4,592.4,203.7c225.9-136,286.1-456.3,810.7-157.2c215,122.6,406.6-43.7,516.5-2.9"
		/>
	<path class="st12" d="M0.5,312.2c0,0,394.7,317.5,603.6,191.6C832.7,365.5,890,66.7,1407.6,349.9
		c205.3,112.3,392.7-28.8,512.5,15.7"/>
	<path class="st13" d="M0.5,326.8c0,0,404.9,306.7,614.8,179.5c231.2-140.5,285.5-417.5,796.2-150.5
		c195.4,102.2,378.7-14,508.6,34.2"/>
	<path class="st14" d="M0.5,341.4c0,0,415.1,295.9,626,167.5c233.8-142.8,284.9-397.5,788.9-147.1c185.5,92.2,364.7,0.8,504.6,52.7"
		/>
	<path class="st15" d="M0.5,355.8c0,0,425.2,285,637.1,155.4c236.5-145,284-377.1,781.7-143.7c175.5,82.3,350.7,15.6,500.6,71.2"/>
	<path class="st16" d="M0.5,370.1c0,0,435.4,274.2,648.3,143.3c239.1-147.3,283-356.2,774.4-140.3c165.4,72.7,336.7,30.4,496.6,89.7
		"/>
	<path class="st17" d="M0.5,384.1c0,0,445.6,263.4,659.5,131.2c241.7-149.6,281.7-334.5,767.2-136.9
		c155.3,63.2,322.7,45.2,492.6,108.2"/>
	<path class="st18" d="M0.5,397.9c0,0,455.8,252.5,670.7,119.1c244.3-151.9,280.1-311.9,759.9-133.5
		c145.1,53.9,308.7,60,488.6,126.7"/>
	<path class="st19" d="M0.5,411.4c0,0,466,241.7,681.8,107.1c247-154.1,278.4-288.1,752.7-130.1c134.9,44.9,294.8,74.8,484.6,145.2"
		/>
	<path class="st20" d="M0.5,424.5c0,0,476.2,230.9,693,95c316-198,275-316,1226,37"/>
	<path class="st21" d="M0.5,439.8c0,0,460.3,200.6,678.8,76C942.4,364.6,976,232.5,1511.7,414.5c110.5,37.6,254.7,87.1,407.9,137.5"
		/>
	<path class="st22" d="M0.5,454.9c0,0,444.9,171,664.5,57c264.3-137.2,314.9-292.7,843-99.1c110.4,40.5,266.2,93.3,411.6,134.4"/>
	<path class="st23" d="M0.5,469.9c0,0,429.1,141,650.2,38c265.1-123.5,333-301.9,853.6-96.8c110.3,43.5,277.7,99.5,415.3,131.2"/>
	<path class="st24" d="M0.5,484.7c0,0,413.4,111.1,636,19c265.9-109.9,351.1-310.8,864.1-94.5c110.2,46.5,289.1,105.7,419.1,128.1"
		/>
	<path class="st25" d="M0.5,499.2c0,0,397.6,81,621.8,0c266.6-96.4,369.1-319.6,874.7-92.2c110.1,49.5,300.6,111.9,422.8,125"/>
	<path class="st26" d="M0.5,513c0,0,381.7,51,607.5-19c267.3-82.9,387.1-328.2,885.2-89.9c109.9,52.6,312.1,118.1,426.6,121.8"/>
	<path class="st27" d="M0.5,524.9c0,0,365.8,20.9,593.2-38c267.9-69.4,405.1-336.6,895.8-87.7c109.8,55.7,323.6,124.3,430.3,118.7"
		/>
	<path class="st28" d="M0.5,531.4c0,0,349.9-9.2,579-57c268.5-56,422.9-344.8,906.3-85.4c109.6,58.8,335.1,130.5,434.1,115.6"/>
	<path class="st29" d="M0.5,536.2c0,0,334-39.4,564.8-76c269-42.7,440.8-352.9,916.9-83.1c109.5,62,346.6,136.7,437.8,112.5"/>
	<path class="st30" d="M0.5,540.9c0,0,318-69.7,550.5-95c269.6-29.4,458.5-360.8,927.4-80.8c109.3,65.2,358.1,143,441.6,109.3"/>
	<path class="st31" d="M0.5,545.6c0,0,302.1-100,536.2-114c270.1-16.2,476.1-368.6,938-78.5c109.1,68.5,369.6,149.2,445.3,106.2"/>
	<path class="st32" d="M0.5,550.2c0,0,286.1-130.3,522-133c270.7-3.1,493.7-376.2,948.6-76.3c108.9,71.8,381.1,155.4,449,103.1"/>
	<path class="st33" d="M0.5,554.9c0,0,270.1-160.8,507.8-152c271.2,10,511.1-383.8,959.1-74c108.6,75.1,392.6,161.6,452.8,99.9"/>
	<path class="st34" d="M0.5,559.6c0,0,254.2-191.2,493.5-171c271.8,23,528.5-391.2,969.7-71.7c108.3,78.4,404.1,167.8,456.5,96.8"/>
	<path class="st35" d="M0.5,564.3c0,0,238.3-221.8,479.2-190c272.4,35.9,545.7-398.5,980.2-69.4c108,81.8,415.5,174,460.3,93.7"/>
	<path class="st36" d="M0.5,568.9c0,0,222.4-252.4,465-209c273,48.8,562.9-405.8,990.8-67.1c107.7,85.2,427,180.2,464,90.5"/>
	<path class="st37" d="M0.5,573.6c0,0,206.6-283,450.8-228c273.7,61.7,579.9-412.9,1001.3-64.8c107.3,88.6,438.5,186.4,467.8,87.4"
		/>
	<path class="st38" d="M0.5,578.2c0,0,190.8-313.7,436.5-247c274.4,74.5,596.8-420,1011.9-62.6c106.9,92.1,450,192.6,471.5,84.3"/>
	<path class="st39" d="M0.5,582.9c0,0,175.2-344.8,422.2-266c275.3,86.8,613.6-427.1,1022.4-60.3c106.5,95.5,461.5,198.8,475.3,81.1
		"/>
	<path class="st40" d="M0.5,587.5c0,0,159.4-375.1,408-285c276,100,630.3-434.1,1033-58c106,99,473,205,479,78"/>
</g>
</svg>
