<?xml version="1.0" encoding="utf-8"?>
<!-- Generator: Adobe Illustrator 24.0.1, SVG Export Plug-In . SVG Version: 6.00 Build 0)  -->
<svg version="1.1" id="Layer_1_copy" xmlns="http://www.w3.org/2000/svg" xmlns:xlink="http://www.w3.org/1999/xlink" x="0px"
	 y="0px" viewBox="0 0 1853.5 653" style="enable-background:new 0 0 1853.5 653;" xml:space="preserve">
<g>
	<path style="fill:#FFFFFF;" d="M1817.3,548H396.1c-6.6,0-12-5.4-12-12V261.8c0-6.6,5.4-12,12-12h1421.2c6.6,0,12,5.4,12,12V536
		C1829.3,542.6,1823.9,548,1817.3,548z"/>
	<g>
		<g>
			<path style="fill:#FFFFFF;" d="M316.3,628c-6.4,0-12.6-2.8-16.8-7.6c-46.7-53.5-75.8-105.8-86.3-155.4
				c-8.4-39.3-4.8-76.6,10.1-108.7c-6.1-9.8-11.1-20.4-14.8-31.5c-3.2-9.7-6.2-12.7-7.3-13.5c-0.5-0.4-1.6-1.2-6.3-1.2
				c-4.2,0-9.7,0.7-15.4,1.5c-8,1.1-17.1,2.3-27.2,2.3c-28.1,0-52.9-9.9-75.8-30.4c-31.7-28.3-48-65.5-47.3-107.8
				c0.6-31.1,10.2-54.5,12.1-58.9l0.4-0.9c0.2-0.4,0.4-0.8,0.6-1.4l0.4-0.9l0.3-0.7c0.6-1.2,1.1-2.3,1.8-3.5l0.1-0.1l0.6-1.1
				c1-2,2.1-4,3.3-6l0.1-0.1c0.3-0.4,0.5-0.9,0.8-1.3c0,0,0,0,0-0.1c1.1-1.9,2.3-3.8,3.6-5.7c0,0,0.1-0.1,0.1-0.2
				c0.3-0.5,0.6-0.9,0.9-1.4l0.2-0.2c0.3-0.5,0.6-1,1-1.4c0,0,0-0.1,0.1-0.1c1.1-1.5,2.2-3.1,3.3-4.7l0.1-0.2c0.4-0.5,0.7-1,1.1-1.4
				l0.3-0.5c0.3-0.4,0.7-0.9,1-1.3l0.4-0.5c0.4-0.5,0.7-0.9,1.1-1.4l0,0c12.2-15.2,26.3-27.5,41.9-36.6c20.8-12.1,44-18.2,68.9-18.2
				c4.2,0,8.5,0.2,12.8,0.5c54.4,4.5,76.7,35.1,91.4,55.3c9.9,13.7,12.7,16,15.8,16c1.8,0,6-0.5,13.7-4.1
				c13.6-6.4,28-10.6,42.8-12.7c1-0.1,2-0.2,3-0.2c6.9,0,13.4,3.2,17.7,8.7c4.9,6.3,6,14.8,2.9,22.2l-9.1,21.8
				c6.4-1.2,11.9-1.6,15.8-1.8h0.1c1.1-0.1,2.2-0.1,3.2-0.1h2c0.4,0,0.8,0,1.3,0h0.8h0.7c1,0,2,0.1,3.1,0.2l1.1,0.1
				c1.8,0.1,3.6,0.3,5.5,0.6l1.4,0.2c1.7,0.2,3.5,0.5,5.3,0.8h0.1l0,0c0.4,0.1,0.9,0.2,1.3,0.2h0.2c0.4,0.1,0.9,0.2,1.4,0.3
				c0,0,0,0,0.1,0c1.5,0.3,3,0.6,4.5,1h0.2l0,0c0.5,0.1,0.9,0.2,1.4,0.3l0.4,0.1c0.5,0.1,0.9,0.2,1.4,0.4l0.4,0.1
				c0.5,0.1,0.9,0.2,1.4,0.4c16.5,4.5,31.2,11.9,43.7,21.9c16.7,13.4,28.9,31.1,36.1,52.6c6.2,18.6,7.3,35.7,3.1,52.5
				c-3.5,14.1-9.9,24.8-15,33.4c-2.2,3.8-5.6,9.4-6.1,11.7c0.4,0.7,1.7,2.9,5.7,6.5c5.5,4.9,10.6,10.4,15.1,16.2l18.8-0.2
				c7.8,0,15.1,4.1,19.1,10.8c20.7,34.3,26.9,75.9,18,120.2c-10.1,50.4-39.3,103.4-86.8,157.8c-4.2,4.8-10.4,7.6-16.8,7.6H316.3V628
				z"/>
		</g>
		<g>
			<path style="fill:#7F4285;" d="M489.3,354.8c-5.2-8.7-11.6-16.2-18.7-22.5c-40.9-36.4,27.9-48.2,5.9-113.7
				c-21.9-65.4-91.3-64-91.3-64s-69.4-1.5-91.3,64c-21.9,65.4,46.8,77.3,5.9,113.7c-7.7,6.8-14.5,15.1-20,24.7"/>
			<path style="fill:#7F4285;" d="M350.9,248c1.1,5.3,2.6,10.6,4.4,16c3.6,10.6,8.2,21.3,11.5,31.9c1.7,5.3,2.9,10.6,3.8,16
				c0.8,5.3,1.2,10.6,1.1,16c-0.1,5.3-0.6,10.6-1.6,16c-0.7,3.7-1.2,8.4-2.5,12.1l34.4-0.1c-1.2-3.6-2.7-8.3-3.4-12
				c-1.1-5.3-1.6-10.6-1.6-16c-0.1-5.3,0.3-10.6,1.1-16c0.8-5.3,2.1-10.6,3.8-16c3.2-10.6,7.9-21.3,11.5-31.9
				c1.8-5.3,3.3-10.6,4.4-16c1.1-5.3,1.7-10.6,1.9-16c0.2-5.3-0.2-10.6-0.5-16c-0.3-5.3-0.8-10.6-1.3-16c-1-10.6-2.4-21.3-4.1-31.9
				c-0.5-3.2-1.1-6.4-1.7-9.7c-15.2-4.2-26.8-3.9-26.8-3.9s-12.6-0.3-28.7,4.5c-0.6,3-1.1,6.1-1.6,9.1c-1.7,10.6-3.1,21.3-4.1,31.9
				c-0.5,5.3-0.9,10.6-1.3,16c-0.3,5.3-0.7,10.6-0.5,16C349.2,237.3,349.8,242.7,350.9,248z"/>
			<g>
				<path style="fill:#E6B2ED;" d="M406.3,266.8c-7.3,0.6-14.6,0.9-21.9,0.9c-12.8,0-25.4-0.9-37.9-2.8c-14.2-2.2-26-5.2-34.8-8
					c5,32.3,35.7,57.1,72.8,57.1c36.9,0,67.4-24.5,72.7-56.4C440.4,262.3,423.3,265.4,406.3,266.8z"/>
				<path style="fill:#E6B2ED;" d="M347.4,260.6c19.1,2.9,38.9,3.5,58.6,1.8c17.3-1.5,34.6-4.7,51.9-9.6c0.1-1.7,0.2-3.5,0.2-5.2
					c0-26.4-17.1-49.3-41.9-60l0,0l0.1,0.3l0.3,1.2c0.1,0.4,0.1,0.8,0.2,1.2l0.1,0.6v0.3v0.3c0.1,0.8,0.2,1.6,0.2,2.4
					c0.1,1.6,0.1,3.2,0,4.8c-0.1,0.8-0.1,1.6-0.3,2.4c-0.1,0.4-0.1,0.8-0.2,1.2l-0.2,1.2c-0.1,0.4-0.2,0.8-0.3,1.2
					c-0.1,0.4-0.2,0.8-0.3,1.2c-0.2,0.8-0.5,1.5-0.7,2.3c-0.5,1.5-1.2,3-1.9,4.4c-3,5.7-7.5,10.5-12.9,13.8l-1,0.6l-0.5,0.3
					l-0.5,0.3l-1.1,0.5l-1.1,0.5l-0.5,0.2l-0.5,0.2l-1.1,0.4c-0.4,0.1-0.7,0.2-1.1,0.4l-0.6,0.2c-0.2,0.1-0.4,0.1-0.6,0.2l-1.1,0.3
					c-0.4,0.1-0.8,0.2-1.1,0.3l-0.6,0.1c-0.1,0-0.2,0-0.3,0.1l-0.3,0.1c-0.4,0.1-0.8,0.1-1.2,0.2c-1.6,0.2-3.3,0.3-4.9,0.2
					c-1.6-0.1-3.3-0.3-4.8-0.6c-1.6-0.3-3.1-0.8-4.6-1.4s-2.9-1.3-4.3-2.1c-1.3-0.8-2.6-1.7-3.8-2.8c-2.3-2.1-4.3-4.5-5.8-7.1
					c-0.2-0.3-0.4-0.7-0.5-1c-0.2-0.3-0.3-0.7-0.5-1l-0.4-1c-0.1-0.3-0.3-0.7-0.4-1c-0.1-0.2-0.1-0.3-0.2-0.5l-0.2-0.5
					c-0.1-0.2-0.1-0.4-0.2-0.5l-0.1-0.5c-0.2-0.7-0.3-1.4-0.4-2.1l-0.1-1.1c0-0.1,0-0.2,0-0.3v-0.3l-0.1-0.6c-0.1-0.8-0.1-1.5,0-2.3
					c0-1.5,0.3-3,0.6-4.4c0.4-1.4,0.9-2.8,1.5-4c0.7-1.3,1.4-2.4,2.3-3.5c0.2-0.3,0.4-0.5,0.7-0.8l0.3-0.4c0.1-0.1,0.2-0.2,0.4-0.4
					l0.4-0.3l0.4-0.3c0.1-0.1,0.2-0.2,0.4-0.3l0.4-0.3c1.1-0.8,2.2-1.5,3.3-2c0.3-0.1,0.6-0.3,0.9-0.4s0.6-0.2,0.9-0.3
					c0.3-0.1,0.6-0.2,0.9-0.3c0.3-0.1,0.6-0.1,0.9-0.2l0.9-0.1l0.9-0.1c0.3,0,0.6,0,0.9,0h0.9v0.1c-2,1.2-3.6,2.7-4.8,4.3
					c-0.6,0.8-1.1,1.7-1.5,2.5c-0.4,0.9-0.7,1.8-0.9,2.6c-0.2,0.9-0.3,1.8-0.4,2.6c0,0.2,0,0.4,0,0.6v0.6l0.1,0.6
					c0,0.2,0,0.4,0.1,0.6c0.1,0.8,0.3,1.6,0.6,2.3c0.1,0.4,0.3,0.7,0.5,1l0.1,0.2l0.1,0.1c0,0,0,0.1,0.1,0.1l0.3,0.5
					c0.2,0.3,0.4,0.7,0.6,1l0.2,0.2c0.1,0.1,0.1,0.2,0.2,0.2l0.2,0.2c0.1,0.1,0.1,0.2,0.2,0.2l0.4,0.4l0.4,0.4
					c0.1,0.1,0.3,0.3,0.4,0.4s0.3,0.3,0.4,0.4l0.2,0.2c0.1,0.1,0.1,0.1,0.2,0.2l0.2,0.2c0.1,0.1,0.1,0.1,0.2,0.2
					c0.2,0.1,0.3,0.2,0.4,0.3l0.4,0.3c0.6,0.4,1.2,0.7,1.9,1c0.2,0.1,0.3,0.1,0.5,0.2s0.3,0.1,0.5,0.2l0.5,0.2
					c0.1,0,0.2,0.1,0.2,0.1l0.2,0.1c0.6,0.2,1.3,0.3,1.9,0.4s1.3,0.1,1.9,0.1s1.2-0.1,1.8-0.2c0.6-0.1,1.2-0.3,1.7-0.5
					c0.1-0.1,0.3-0.1,0.4-0.2h0.1c0,0,0.1,0,0.1-0.1l0.2-0.1c0.2-0.1,0.3-0.1,0.5-0.2l0.5-0.2c0.1,0,0.2-0.1,0.2-0.1l0.2-0.1
					l0.4-0.2l0.4-0.3l0.2-0.1l0.2-0.1c0.1-0.1,0.3-0.2,0.4-0.3l0.4-0.3l0.2-0.1l0.2-0.2c0.1-0.1,0.3-0.2,0.4-0.3l0.4-0.3l0.2-0.2
					l0.2-0.2c0.1-0.1,0.2-0.2,0.4-0.3l0.3-0.4l0.2-0.2l0.2-0.2l0.3-0.4c0.1-0.1,0.2-0.3,0.3-0.4l0.2-0.2l0.1-0.2l0.3-0.4
					c0.1-0.1,0.2-0.3,0.3-0.4c0.1-0.1,0.2-0.3,0.3-0.4c0.1-0.1,0.2-0.3,0.2-0.4c0.1-0.3,0.3-0.6,0.4-0.8c0.1-0.1,0.1-0.3,0.2-0.4
					s0.1-0.3,0.2-0.4c1-2.3,1.4-4.8,1.2-7.2c0-0.3-0.1-0.6-0.1-0.9v-0.1v-0.1v-0.2c0-0.2,0-0.3-0.1-0.5c0-0.2-0.1-0.3-0.1-0.5
					c0-0.1,0-0.1-0.1-0.2l-0.1-0.3c-0.1-0.3-0.2-0.7-0.3-1c-0.4-1.4-1-2.7-1.7-3.9c-1.4-2.5-3.3-4.6-5.6-6.3
					c-0.1-0.1-0.2-0.1-0.3-0.2c-0.4,0-0.8,0-1.2,0c-40.6,0-73.6,29.7-73.6,66.4c0,1.5,0.1,3,0.2,4.4
					C320.6,255.1,333,258.4,347.4,260.6z"/>
			</g>
			<g>
				<g>
					<ellipse style="fill:#FFFFFF;" cx="344.2" cy="263.3" rx="19.5" ry="29"/>
					<path style="fill:#7F4285;" d="M350.9,270c-3.7,0-6.7-3-6.7-6.7l0,0c0-3.7,3-6.7,6.7-6.7h7.5c-1.9-8.9-7.5-15.4-14.2-15.4
						c-8.2,0-14.9,9.9-14.9,22.1c0,12.2,6.7,22.1,14.9,22.1c6.6,0,12.2-6.5,14.2-15.4H350.9z"/>
				</g>
				<g>
					<ellipse style="fill:#FFFFFF;" cx="424.9" cy="263.3" rx="19.5" ry="29"/>
					<path style="fill:#7F4285;" d="M431.6,270c-3.7,0-6.7-3-6.7-6.7l0,0c0-3.7,3-6.7,6.7-6.7h7.5c-1.9-8.9-7.5-15.4-14.2-15.4
						c-8.2,0-14.9,9.9-14.9,22.1c0,12.2,6.7,22.1,14.9,22.1c6.6,0,12.2-6.5,14.2-15.4H431.6z"/>
				</g>
			</g>
		</g>
		<g>
			<path style="fill:#7F4285;" d="M279.3,355.4c-23.6,41.5-21.1,108,52.6,192.4h52.8h52.6c75-85.8,76.2-153.1,51.3-194.5"/>
			<path style="fill:#7F4285;" d="M337.6,454c2.1,21.3,6.4,42.6,13.5,63.8c3.3,10,7.4,19.9,12.2,29.9h42c4.8-10,8.8-19.9,12.2-29.9
				c7.1-21.3,11.4-42.6,13.5-63.8c0.5-5.3,0.9-10.6,1.2-16c0.2-5.3-0.1-10.6-1.1-16c-0.9-5.3-2.5-10.6-4.5-16
				c-2.1-5.3-4.6-10.6-7.4-16c-5.5-10.6-11.8-21.3-15.9-31.9c-0.7-1.7-1.3-2.2-1.8-3.9l-34.4,0.1c-0.5,1.6-1.1,2.1-1.8,3.8
				c-4.1,10.6-10.3,21.3-15.9,31.9c-2.8,5.3-5.3,10.6-7.4,16c-2.1,5.3-3.6,10.6-4.5,16c-0.9,5.3-1.3,10.6-1.1,16
				C336.7,443.4,337,448.7,337.6,454z"/>
		</g>
		<g>
			<path style="fill:#17718C;" d="M353.3,103.9c-13,1.8-25.2,5.5-36.4,10.8c-64.2,30.1-43.2-57.8-132.2-65.1
				c-89.1-7.3-122.8,76-122.8,76s-37.2,81.8,29.5,141.3s115.9-16.3,138.3,51c4.2,12.6,10.5,25,19.1,36.3"/>
			<path style="fill:#17718C;" d="M155.5,214c6.9,1.4,14,2.4,21.2,2.9c14.5,1.2,29.5,1.1,43.9,2.6c7.2,0.8,14.2,2,20.9,3.7
				c6.8,1.7,13.3,4,19.6,6.8c6.3,2.8,12.4,6.1,18.2,10.1c4,2.8,9.4,5.8,13.1,9.1l17.4-41c-5-0.4-11.3-1.1-16-2.1
				c-6.9-1.5-13.5-3.6-19.8-6.2c-6.4-2.6-12.5-5.8-18.4-9.5c-5.9-3.7-11.6-8-17.1-12.6c-11-9.3-21.3-20.3-32.1-30
				c-5.4-4.9-11-9.4-16.8-13.4s-11.8-7.5-18-10.4c-6.2-3-12.8-5.2-19.3-7.6c-6.5-2.3-13.1-4.5-19.6-6.6
				c-13.2-4.2-26.5-8.1-40.1-11.4c-4.1-1-8.2-2-12.4-2.9c-12.8,16-18.4,29.9-18.4,29.9s-6.7,14.8-9.3,36.5c3.3,2.2,6.7,4.4,10,6.6
				c11.8,7.5,23.7,14.6,35.9,21.2c6.1,3.3,12.2,6.5,18.3,9.7c6.2,3.1,12.3,6.3,18.7,8.7C142,210.6,148.7,212.5,155.5,214z"/>
			<g>
				<path style="fill:#85CBE0;" d="M206.2,157.7c-3,9-6.4,17.9-10.1,26.5c-6.5,15.2-14.1,29.8-22.7,43.6
					c-9.8,15.9-19.5,28.3-27.3,37.4c41,10.5,86.2-13.3,105.2-57.5c18.8-43.9,5.3-92.7-30-115.4C218.3,114.8,213.2,136.7,206.2,157.7
					z"/>
				<path style="fill:#85CBE0;" d="M168.7,224.5c13.2-21.3,24-44.4,32.1-68.8c7.1-21.3,12.1-43.6,15.1-66.6c-2-1.1-4-2-6.1-2.9
					c-31.5-13.5-67.4-4.8-92.8,19.2l0,0l0.4,0.1l1.5,0.3c0.5,0.1,1,0.2,1.5,0.4l0.8,0.2l0.4,0.1l0.4,0.1c1,0.3,2,0.6,3,1
					c2,0.7,3.9,1.6,5.7,2.5c0.9,0.5,1.8,1,2.7,1.6c0.4,0.3,0.9,0.5,1.3,0.8l1.3,0.9c0.4,0.3,0.8,0.6,1.3,0.9c0.4,0.3,0.8,0.6,1.2,1
					c0.8,0.7,1.6,1.3,2.3,2.1c1.5,1.4,2.9,2.9,4.2,4.5c5.2,6.4,8.6,14.2,9.8,22.3l0.2,1.5l0.1,0.8l0.1,0.8l0.1,1.5v1.5v0.8v0.8v1.3
					c0,0.5-0.1,1-0.1,1.5l-0.1,0.8c0,0.3-0.1,0.5-0.1,0.7l-0.2,1.5c-0.1,0.5-0.2,1-0.3,1.5l-0.1,0.7c0,0.1,0,0.2-0.1,0.4l-0.1,0.4
					c-0.1,0.5-0.3,1-0.4,1.5c-0.6,2-1.3,4-2.2,6c-0.9,1.9-2,3.7-3.2,5.5c-1.2,1.7-2.6,3.3-4,4.8c-1.5,1.5-3,2.8-4.7,4
					s-3.4,2.2-5.2,3.1c-3.6,1.7-7.5,2.8-11.4,3.2c-0.5,0.1-1,0.1-1.5,0.1s-1,0.1-1.5,0.1h-1.5c-0.5,0-1,0-1.4-0.1
					c-0.2,0-0.5,0-0.7-0.1l-0.7-0.1c-0.2,0-0.5,0-0.7-0.1l-0.7-0.1c-0.9-0.1-1.9-0.4-2.8-0.6l-1.4-0.4c-0.1,0-0.2-0.1-0.3-0.1
					l-0.4-0.1l-0.7-0.2c-0.9-0.3-1.8-0.7-2.7-1.1c-1.8-0.8-3.4-1.8-4.9-3c-1.5-1.1-2.8-2.5-4-3.9s-2.2-2.9-3-4.5
					c-0.2-0.4-0.4-0.8-0.6-1.2l-0.3-0.6c-0.1-0.2-0.2-0.4-0.2-0.6l-0.2-0.6l-0.2-0.6c-0.1-0.2-0.1-0.4-0.2-0.6l-0.2-0.6
					c-0.4-1.7-0.6-3.3-0.7-5c0-0.4,0-0.8,0-1.2c0-0.4,0.1-0.8,0.1-1.2c0-0.4,0.1-0.8,0.1-1.2c0.1-0.4,0.1-0.8,0.2-1.2l0.3-1.1
					l0.3-1.1c0.1-0.4,0.3-0.7,0.4-1.1l0.5-1h0.2c0.4,3,1.3,5.7,2.7,8c0.6,1.1,1.4,2.2,2.2,3.1s1.7,1.8,2.7,2.5
					c0.9,0.7,1.9,1.3,2.9,1.8c0.2,0.1,0.5,0.2,0.8,0.3l0.8,0.3l0.8,0.2c0.3,0.1,0.5,0.1,0.8,0.2c1,0.3,2,0.4,3,0.4c0.5,0,1,0,1.5,0
					h0.4h0.2c0.1,0,0.1,0,0.2,0l0.8-0.1c0.5-0.1,1-0.1,1.5-0.3l0.4-0.1c0.1,0,0.2-0.1,0.4-0.1l0.4-0.1c0.1,0,0.2-0.1,0.4-0.1
					l0.7-0.2l0.7-0.3c0.2-0.1,0.5-0.2,0.7-0.3c0.2-0.1,0.4-0.2,0.7-0.3l0.3-0.1c0.1,0,0.2-0.1,0.3-0.2l0.3-0.2
					c0.1-0.1,0.2-0.1,0.3-0.2c0.2-0.1,0.4-0.2,0.6-0.4l0.6-0.4c0.8-0.5,1.5-1.1,2.1-1.7c0.2-0.2,0.3-0.3,0.5-0.5s0.3-0.3,0.5-0.5
					l0.4-0.5c0.1-0.1,0.1-0.2,0.2-0.3l0.2-0.3c0.5-0.7,1-1.4,1.4-2.1s0.7-1.5,1-2.2c0.3-0.8,0.5-1.5,0.7-2.3s0.3-1.5,0.3-2.3
					c0-0.2,0-0.4,0-0.6v-0.1c0,0,0-0.1,0-0.2v-0.3c0-0.2,0-0.4,0-0.7v-0.7c0-0.1,0-0.2,0-0.3v-0.3l-0.1-0.7l-0.1-0.6v-0.3l-0.1-0.3
					c0-0.2-0.1-0.4-0.1-0.6l-0.1-0.6l-0.1-0.3l-0.1-0.3c-0.1-0.2-0.1-0.4-0.2-0.6l-0.2-0.6l-0.1-0.3l-0.1-0.3
					c-0.1-0.2-0.1-0.4-0.2-0.6l-0.3-0.6l-0.1-0.3l-0.1-0.3l-0.3-0.6c-0.1-0.2-0.2-0.4-0.3-0.5l-0.1-0.3l-0.2-0.3l-0.3-0.5
					c-0.1-0.2-0.2-0.3-0.3-0.5s-0.2-0.3-0.4-0.5c-0.1-0.2-0.2-0.3-0.4-0.5c-0.3-0.3-0.5-0.6-0.8-1c-0.1-0.2-0.3-0.3-0.4-0.5
					c-0.1-0.1-0.3-0.3-0.4-0.4c-2.3-2.3-5-4.1-8-5.1c-0.4-0.1-0.8-0.2-1.1-0.3H114h-0.1l-0.3-0.1c-0.2,0-0.4-0.1-0.6-0.1
					c-0.2,0-0.4-0.1-0.6-0.1c-0.1,0-0.2,0-0.3-0.1h-0.3c-0.5-0.1-0.9-0.1-1.4-0.2c-1.8-0.2-3.7-0.2-5.5,0c-3.6,0.4-7.2,1.6-10.4,3.5
					c-0.1,0.1-0.3,0.2-0.4,0.3c-0.2,0.5-0.4,1-0.6,1.4C72.7,187.8,91.3,242.2,135,261c1.8,0.8,3.6,1.4,5.4,2.1
					C148.5,253.7,158.8,240.6,168.7,224.5z"/>
			</g>
			<g>
				<g>
					
						<ellipse transform="matrix(0.3944 -0.9189 0.9189 0.3944 -107.9344 295.618)" style="fill:#FFFFFF;" cx="170.3" cy="229.7" rx="25.3" ry="37.6"/>
					<path style="fill:#175F75;" d="M181.8,225.3c-1.9,4.4-7,6.4-11.4,4.6l0,0c-4.4-1.9-6.4-7-4.6-11.4l3.8-8.9
						c-11.6-2.3-22.1,1.1-25.5,9c-4.2,9.8,4.2,22.7,18.7,29c14.5,6.2,29.7,3.4,33.9-6.4c3.4-7.9-1.4-17.9-11.1-24.7L181.8,225.3z"/>
				</g>
				<g>
					
						<ellipse transform="matrix(0.3944 -0.9189 0.9189 0.3944 5.294 275.3091)" style="fill:#FFFFFF;" cx="211.5" cy="133.6" rx="25.3" ry="37.6"/>
					<path style="fill:#175F75;" d="M223,129.2c-1.9,4.4-7,6.4-11.4,4.6l0,0c-4.4-1.9-6.4-7-4.6-11.4l3.8-8.9
						c-11.6-2.3-22.1,1.1-25.5,9c-4.2,9.8,4.2,22.7,18.7,29c14.5,6.2,29.7,3.4,33.9-6.4c3.4-7.9-1.4-17.9-11.1-24.7L223,129.2z"/>
				</g>
			</g>
		</g>
	</g>
	<g>
		<path style="fill:#17718C;" d="M248.2,356.6c-30.6,53.7-27.4,139.9,68.1,249.1h68.3h68.3c97.1-111.1,98.7-198.3,66.5-251.8"/>
		<path style="fill:#17718C;" d="M323.7,484.3c2.7,27.6,8.2,55.1,17.5,82.7c4.3,12.9,9.5,25.8,15.8,38.7h54.5
			c6.2-12.9,11.5-25.8,15.8-38.7c9.3-27.6,14.8-55.1,17.5-82.7c0.7-6.9,1.2-13.8,1.5-20.7s-0.2-13.8-1.4-20.7
			c-1.2-6.9-3.2-13.8-5.9-20.7c-2.7-6.9-5.9-13.8-9.6-20.7c-7.2-13.8-15.3-27.6-20.6-41.3c-0.8-2.2-1.6-2.8-2.3-5l-44.5,0.2
			c-0.7,2.1-1.5,2.7-2.3,4.9c-5.3,13.8-13.4,27.6-20.6,41.3c-3.6,6.9-6.9,13.8-9.6,20.7s-4.7,13.8-5.9,20.7
			c-1.2,6.9-1.7,13.8-1.4,20.7S323,477.5,323.7,484.3z"/>
	</g>
	<g>
		<path style="fill:#2F83A6;" d="M590.5,454.8L608,351.5h26.6l20.7,55.1l20.5-55.1h26.6l17.5,103.3h-26.6l-8.9-59.4L660,454.8h-10.7
			l-23.1-59.4l-8.9,59.4H590.5z"/>
		<path style="fill:#2F83A6;" d="M795.7,374.3h-31.9v17.3h30.1v22.7h-30.1v17.8h31.9v22.7h-58.8V351.6h58.8V374.3z"/>
		<path style="fill:#2F83A6;" d="M854.2,374.3v80.5h-26.8v-80.5h-22.1v-22.7h71v22.7H854.2z"/>
		<path style="fill:#2F83A6;" d="M946.7,436.9h-38.4l-6.2,17.9h-28.6l39.3-103.3h29.3l39.3,103.3h-28.6L946.7,436.9z M939.6,416.5
			l-12.1-34.4l-12.1,34.4H939.6z"/>
		<path style="fill:#2F83A6;" d="M993.2,351.6h39.7c7,0,13.6,1.4,19.8,4.2c6.2,2.8,11.6,6.6,16.2,11.3s8.2,10.2,10.9,16.4
			c2.6,6.3,4,12.8,4,19.7c0,6.8-1.3,13.3-3.9,19.5c-2.6,6.3-6.2,11.8-10.8,16.5c-4.6,4.8-10,8.5-16.2,11.4
			c-6.2,2.8-12.8,4.2-19.9,4.2h-39.7L993.2,351.6L993.2,351.6z M1020.1,432.1h6.2c4.7,0,8.8-0.7,12.5-2.2s6.7-3.5,9.2-6
			c2.5-2.6,4.4-5.6,5.8-9.1c1.3-3.5,2-7.4,2-11.6c0-4.1-0.7-7.9-2.1-11.5s-3.3-6.6-5.8-9.2c-2.5-2.6-5.6-4.6-9.2-6
			c-3.7-1.5-7.8-2.2-12.3-2.2h-6.2L1020.1,432.1L1020.1,432.1z"/>
		<path style="fill:#2F83A6;" d="M1159.8,436.9h-38.4l-6.2,17.9h-28.6l39.3-103.3h29.3l39.3,103.3h-28.6L1159.8,436.9z
			 M1152.7,416.5l-12.1-34.4l-12.1,34.4H1152.7z"/>
		<path style="fill:#2F83A6;" d="M1241,374.3v80.5h-26.8v-80.5h-22.1v-22.7h71v22.7H1241z"/>
		<path style="fill:#2F83A6;" d="M1333.5,436.9h-38.4l-6.2,17.9h-28.6l39.3-103.3h29.3l39.3,103.3h-28.6L1333.5,436.9z
			 M1326.4,416.5l-12.1-34.4l-12.1,34.4H1326.4z"/>
		<path style="fill:#BA66C6;" d="M1406.9,454.8h-26.8V351.6h42.7c11.6,0,20.5,3,26.6,9c6.2,6,9.2,14.5,9.2,25.5s-3.1,19.5-9.2,25.5
			c-6.2,6-15,9-26.6,9h-15.9L1406.9,454.8L1406.9,454.8z M1406.9,399h8.9c9.9,0,14.8-4.3,14.8-12.9c0-8.6-4.9-12.9-14.8-12.9h-8.9
			V399z"/>
		<path style="fill:#BA66C6;" d="M1499.8,351.6v80.5h32.2v22.7h-59V351.6H1499.8z"/>
		<path style="fill:#BA66C6;" d="M1570.7,351.6v56.2c0,3,0.1,6.1,0.3,9.2c0.2,3.2,0.9,6,2.1,8.6c1.1,2.6,2.9,4.6,5.4,6.2
			c2.5,1.6,5.9,2.4,10.4,2.4s7.9-0.8,10.3-2.4c2.4-1.6,4.2-3.7,5.4-6.2c1.2-2.6,1.9-5.4,2.1-8.6c0.2-3.2,0.3-6.2,0.3-9.2v-56.2h26.7
			v59.9c0,16.1-3.7,27.8-11,35.2c-7.4,7.4-18.7,11.1-33.9,11.1c-15.3,0-26.6-3.7-34-11.1c-7.4-7.4-11.1-19.1-11.1-35.2v-59.9H1570.7
			z"/>
		<path style="fill:#BA66C6;" d="M1712.2,378c-2.9-2.4-5.8-4.1-8.8-5.3c-2.9-1.1-5.8-1.7-8.5-1.7c-3.5,0-6.3,0.8-8.5,2.5
			c-2.2,1.6-3.3,3.8-3.3,6.4c0,1.8,0.5,3.3,1.6,4.5s2.5,2.2,4.3,3.1c1.8,0.9,3.8,1.6,6,2.3c2.2,0.6,4.5,1.3,6.6,2.1
			c8.8,2.9,15.2,6.8,19.2,11.7c4.1,4.9,6.1,11.3,6.1,19.1c0,5.3-0.9,10.1-2.7,14.4c-1.8,4.3-4.4,8-7.8,11c-3.4,3.1-7.6,5.4-12.6,7.1
			c-5,1.7-10.6,2.5-16.9,2.5c-13.1,0-25.2-3.9-36.3-11.6l11.5-21.6c4,3.6,8,6.2,11.9,7.9s7.8,2.6,11.6,2.6c4.4,0,7.6-1,9.8-3
			c2.1-2,3.2-4.3,3.2-6.8c0-1.6-0.3-2.9-0.8-4s-1.5-2.2-2.7-3.2c-1.3-1-2.9-1.8-5-2.7c-2.1-0.8-4.5-1.7-7.5-2.7
			c-3.5-1.1-6.9-2.3-10.2-3.6c-3.3-1.3-6.3-3.1-8.9-5.3s-4.7-5-6.3-8.3c-1.6-3.3-2.4-7.6-2.4-12.7c0-5.1,0.8-9.7,2.5-13.9
			s4.1-7.7,7.1-10.7c3.1-3,6.8-5.3,11.2-6.9c4.4-1.6,9.4-2.5,14.9-2.5c5.1,0,10.5,0.7,16,2.1c5.6,1.4,10.9,3.5,16,6.2L1712.2,378z"
			/>
	</g>
</g>
</svg>
