<?xml version="1.0" encoding="utf-8"?>
<!-- Generator: Adobe Illustrator 23.0.1, SVG Export Plug-In . SVG Version: 6.00 Build 0)  -->
<svg version="1.1" id="Layer_1" xmlns="http://www.w3.org/2000/svg" xmlns:xlink="http://www.w3.org/1999/xlink" x="0px" y="0px"
	 viewBox="0 0 322 299" style="enable-background:new 0 0 322 299;" xml:space="preserve">
<style type="text/css">
	.st0{fill:#43318d;}
	.st1{fill:#d83f88;}
	.st2{fill:#2b1b3c;}
</style>
<rect x="77.84" y="6.75" class="st0" width="3.73" height="275.89"/>
<path class="st1" d="M282.11,118.69c-10.92-4.09-30.91,0.05-42.15,12.53c-5.94,6.6-14.26,20.99-3.16,43.19
	c2.28,4.57,2.65,8.6,1.15,12.69c-1.95,5.31-6.63,10.1-11.63,13.95c-1.51-32.02-20.56-58.71-46.38-67.77
	c-0.35-1.97-0.82-4.02-1.44-6.11l0,0c22.41-35.72-3.8-28.92-16.05-24.37C155,96.8,144.59,92.08,130.1,90.08l0.01,0
	c-8.01-46.02-26.57-11.03-31.64-0.27c-1.25,0.12-2.5,0.24-3.78,0.39v59.6c-4.94,3.62-8.16,9.44-8.16,16.04
	c0,6.59,3.22,12.42,8.16,16.04v98.47c0,0,53.09,6.06,68.8-0.08c0,0,0.01-0.01,0.01-0.01c26.68-1.34,49.22-20.8,58.45-47.87
	c4.21-1.81,30.95-14.06,39.3-36.62c3.9-10.54,3.13-21.77-2.21-32.47c-4.93-9.87-2.04-13.62-1.09-14.85
	c3.87-5.03,12.81-6.9,15.72-6.38c6.36,2.22,13.35-1.04,15.72-7.37C291.8,128.26,288.54,121.09,282.11,118.69z"/>
<path class="st1" d="M76.59,183.23v-28.58l-29.83,9.94c0,0-13.67-14.91-22.37,0c-8.7,14.91,26.1,18.64,26.1,18.64H76.59z"/>
<path class="st0" d="M289.1,249.71c0-4.46-3.62-8.08-8.08-8.08s-8.08,3.62-8.08,8.08c0,0.22,0.02,0.43,0.03,0.64
	c-0.02-0.01-0.03-0.02-0.03-0.02h-2.49c-0.01,0-0.02,0-0.03,0c0.02-0.21,0.03-0.41,0.03-0.62c0-4.46-3.62-8.08-8.08-8.08
	s-8.08,3.62-8.08,8.08c0,4.21,3.22,7.66,7.32,8.04c-0.7,1.88-1.11,4-1.11,6.25c0,3.08,0.75,5.9,1.99,8.19l-1.99,5.48h23.61
	c1.18-8.86-1.29-15.47-4.2-19.97c0.36,0.05,0.72,0.08,1.09,0.08C285.49,257.79,289.1,254.18,289.1,249.71z"/>
<g>
	<polygon class="st2" points="150.79,129.79 133.69,121.91 159.64,114.11 158.13,117.37 139.2,122.29 152.08,127.87 	"/>
	
		<ellipse transform="matrix(0.4186 -0.9082 0.9082 0.4186 -32.0479 167.4974)" class="st2" cx="114.79" cy="108.78" rx="7.32" ry="4.72"/>
	
		<ellipse transform="matrix(0.4186 -0.9082 0.9082 0.4186 -38.0914 183.2368)" class="st2" cx="124.06" cy="121.37" rx="2.12" ry="3.3"/>
	<polygon class="st2" points="122.22,133.25 125.58,125.97 132.97,132.49 131.79,135.06 126.31,128.9 124.8,134.44 	"/>
</g>
<g>
	<path class="st1" d="M141.49,40.36c2.18-2.33,5.18-3.49,9-3.49c3.53,0,6.35,0.99,8.47,2.98c2.12,1.99,3.18,4.53,3.18,7.63
		c0,1.87-0.38,3.4-1.15,4.56c-0.77,1.17-2.35,2.88-4.73,5.15c-1.74,1.64-2.86,3.04-3.39,4.18c-0.52,1.14-0.78,2.83-0.78,5.05h-4.72
		c0-2.53,0.3-4.57,0.9-6.12s1.94-3.32,4.01-5.32l2.16-2.1c0.65-0.6,1.18-1.23,1.58-1.88c0.73-1.15,1.1-2.34,1.1-3.58
		c0-1.73-0.53-3.24-1.59-4.51s-2.8-1.91-5.24-1.91c-3.02,0-5.1,1.1-6.26,3.29c-0.65,1.22-1.02,2.98-1.11,5.28h-4.72
		C138.22,45.76,139.31,42.69,141.49,40.36z M147.26,70.83h5.28v5.52h-5.28V70.83z"/>
</g>
</svg>
