<?xml version="1.0" encoding="utf-8"?>
<!-- Generator: Adobe Illustrator 25.0.0, SVG Export Plug-In . SVG Version: 6.00 Build 0)  -->
<svg version="1.1" id="Layer_1" xmlns="http://www.w3.org/2000/svg" xmlns:xlink="http://www.w3.org/1999/xlink" x="0px" y="0px"
	 viewBox="0 0 137.6 85" style="enable-background:new 0 0 137.6 85;" xml:space="preserve">
<style type="text/css">
	.st0{fill:#6C276F;}
	.st1{fill:#81DCEC;}
	.st2{fill:#743E7D;}
	.st3{fill:#B5E7F5;}
	.st4{fill:#CEECF3;}
	.st5{fill:#337989;}
	.st6{fill:#DDDDDD;}
	.st7{fill:#8391A5;}
</style>
<g>
	<g id="_x33_Dnsvt.tif">
		<g>
			<path class="st0" d="M43.6,62.7c-3.2-4.4-6.5-8.7-7.8-14.2c-1.2-4.9-0.6-9.4,1.9-13.8c6-10.4,15-15.8,27-16c2,0,2.9-0.5,2.7-2.6
				c-0.1-1,0-2,0.2-3c1-6,3.1-7,8.1-3.7c1.5,1,1.7,0.3,2.4-0.8c2.6-4.3,5.4-4.9,9.6-1.8c8.3,6.2,11.7,15.2,13.1,24.9
				c1.3,8.4,0,16.6-4,24.2c-2-1.8-1-5-3.3-6.7l0,0.1c-0.3-4-2.3-7.6-3.4-11.4c-0.5-1.6-1.3-1.1-2.3-0.7c-3.8,1.5-7.8,2.6-11.8,3.4
				c-6.4,1.3-12.8,0.8-19.2-0.3c-1.9-0.3-3.7-0.6-3,2.4c0.5,2.3,0.7,4.9-0.3,6.9c-2.4,4.8-2.7,9.8-3.1,15c-0.2,2.5-1.5,3.4-3.6,1.4
				C45.8,65,44.7,63.9,43.6,62.7z"/>
			<path class="st1" d="M46.8,66.2c0.3,2.2,0.9,4.4,0.6,6.7c-4.8-0.1-6.7-5-3.9-10.1C44.7,63.9,45.8,65,46.8,66.2z"/>
			<path class="st2" d="M93.5,49.4c-0.6,0.7-0.2,1.5-0.2,2.2c0.1,2.7-1.3,4.1-3.9,4.5c-4.2,0.5-8.4,1.5-12.6,0.6l0,0
				c0.4-1.4-0.1-2.4-1.6-2.4c-1.4,0-2.2,0.8-1.8,2.4l0,0c-0.6-0.1-0.7,0.3-0.7,0.7l0,0c-4.6,2.1-9.7,2-14.6,2.4
				c-2.9,0.2-3.5-2.5-3.8-4.9c-0.3-2.5,0.7-4.3,3.1-4.7c3.7-0.7,7.5-1,11.2-1.4c1.7-0.2,3,0.5,4,1.9c1.4,2.1,2.5,2.3,3.4-0.3
				c0.6-1.8,1.8-2.7,3.6-2.9c2.7-0.3,5.5-0.5,8.2-0.8C90.8,46.3,92.3,47.4,93.5,49.4C93.6,49.5,93.5,49.4,93.5,49.4z M72.1,54
				c-0.1-2.6-1.1-4.2-3.9-3.8c-3.3,0.4-6.6,0.8-9.9,1.3c-2.3,0.3-2.8,1.8-2.5,3.9c0.3,2.1,1.2,3.6,3.7,3.3c3.3-0.4,6.6-0.8,9.9-1.3
				C71.3,57,72.3,55.9,72.1,54z M77.5,51.7c0.1,3.4,1.4,4.5,4.6,4.1c2.4-0.3,4.8-0.7,7.2-1c2.3-0.3,2.9-1.7,2.6-3.8
				c-0.3-2.1-1.1-3.7-3.5-3.4c-2.8,0.3-5.6,0.8-8.5,1.2C78,49,77.2,50,77.5,51.7z"/>
			<g>
				<path class="st3" d="M96.8,56.1c-2-1.8-1.1-5-3.3-6.7c-0.3-4-2.3-7.6-3.4-11.3c-0.5-1.6-1.3-1.1-2.3-0.7
					c-3.8,1.5-7.8,2.6-11.8,3.4c-6.4,1.3-12.8,0.8-19.2-0.3c-1.9-0.3-3.7-0.6-3,2.4c0.5,2.3,0.7,4.9-0.3,6.9
					c-2.4,4.8-2.7,9.8-3.1,15c-0.2,2.5-1.5,3.4-3.6,1.4c0.3,2.2,0.9,4.4,0.6,6.7c0.8,1.4,0.8,3.3,2.8,4c4.1,0,7.4-0.6,11-1
					c5.6-0.6,11.2-1.1,16.8-1.6c5.6-0.5,10.3-1.1,16.4-1.7c1.9-0.7,1.9-1.1,2.6-2.6c0-0.2,0-0.5,0-0.7
					C97.3,64.1,96.8,60.6,96.8,56.1z M84.2,40.9c1,0.1,1.8,0.5,1.7,1.6c-0.2,1.1-1.2,1.1-2.1,1.1c-0.8,0-1.6,0-1.6-1.1
					C82.2,41,83.3,41.1,84.2,40.9z M61.7,43.4c0.9-0.1,1.9,0,1.8,1.2c-0.1,1.6-1.4,1.3-2.4,1.5c-1,0-2,0-1.9-1.2
					C59.3,43.5,60.7,43.5,61.7,43.4z M89.5,56.1c-4.2,0.5-8.4,1.5-12.6,0.6c0,0,0,0,0,0c-1.1,0-2.2,0-3.4,0c0,0.5-0.1,0.7-0.7,0.7
					c0,0,0,0,0,0c-4.6,2.1-9.7,2-14.6,2.4c-2.9,0.2-3.5-2.5-3.8-4.9c-0.3-2.5,0.7-4.3,3.1-4.7c3.7-0.7,7.5-1,11.2-1.4
					c1.7-0.2,3,0.5,4,1.9c1.4,2.1,2.5,2.3,3.4-0.3c0.6-1.8,1.8-2.7,3.6-2.9c2.7-0.3,5.5-0.5,8.2-0.8c2.8-0.3,4.2,0.9,5.5,2.9
					c-0.6,0.7-0.2,1.5-0.2,2.2C93.4,54.3,92.1,55.8,89.5,56.1z"/>
				<path class="st3" d="M73.5,56.8C73.5,56.8,73.5,56.8,73.5,56.8C73.5,56.7,73.5,56.7,73.5,56.8L73.5,56.8z"/>
			</g>
			<path class="st0" d="M61.2,46.1c-1,0-2,0-1.9-1.2c0.1-1.5,1.4-1.4,2.5-1.5c0.9-0.1,1.9,0,1.8,1.2C63.4,46.2,62.1,46,61.2,46.1z"
				/>
			<path class="st2" d="M84.2,40.9c1,0.1,1.8,0.5,1.7,1.6c-0.2,1.1-1.2,1.1-2.1,1.1c-0.8,0-1.6,0-1.6-1.1
				C82.2,41,83.3,41.1,84.2,40.9z"/>
			<path class="st4" d="M72.1,54c0.2,1.9-0.8,3.1-2.8,3.3c-3.3,0.5-6.6,0.8-9.9,1.3c-2.5,0.3-3.3-1.2-3.7-3.3
				c-0.3-2.1,0.2-3.5,2.5-3.9c3.3-0.4,6.6-0.9,9.9-1.3C71.1,49.8,72,51.4,72.1,54z M64.9,53.9c0-0.7-0.4-1.3-1.3-1.4
				c-0.9,0-1.5,0.3-1.5,1.3c0,0.9,0.4,1.5,1.3,1.6C64.3,55.5,64.8,55,64.9,53.9z"/>
			<path class="st4" d="M77.5,51.7c-0.3-1.7,0.6-2.7,2.4-3c2.8-0.4,5.6-0.9,8.5-1.2c2.5-0.3,3.3,1.4,3.5,3.4
				c0.3,2.1-0.4,3.5-2.6,3.8c-2.4,0.3-4.8,0.6-7.2,1C78.8,56.2,77.6,55.1,77.5,51.7z M86.2,51.8c-0.1-0.9-0.7-1.4-1.5-1.4
				c-0.9,0-1.5,0.6-1.5,1.4c0,1,0.6,1.6,1.7,1.5C85.7,53.3,86.2,52.7,86.2,51.8z"/>
			<path class="st3" d="M76.9,56.7c-1.1,0-2.3,0-3.4,0c-0.4-1.6,0.4-2.4,1.8-2.4C76.7,54.4,77.2,55.3,76.9,56.7z"/>
			<path class="st3" d="M73.5,56.7c0,0.5-0.1,0.8-0.7,0.7C72.8,57,72.9,56.6,73.5,56.7z"/>
			<path class="st4" d="M64.9,53.9c-0.1,1.1-0.6,1.6-1.5,1.5c-0.9-0.1-1.3-0.7-1.3-1.6c0-1,0.7-1.3,1.5-1.3
				C64.6,52.6,64.9,53.2,64.9,53.9z"/>
			<path class="st4" d="M86.2,51.8c0,0.9-0.5,1.5-1.3,1.6c-1.1,0.1-1.7-0.5-1.7-1.5c0-0.9,0.6-1.4,1.5-1.4
				C85.5,50.4,86.1,50.9,86.2,51.8z"/>
		</g>
	</g>
</g>
<g>
	<path class="st0" d="M65.1,56.3l-1.6-1.2l-1.1,1.7c-0.2,0.2-0.3,0.4-0.4,0.5c-0.1,0.1-0.3,0.2-0.5,0.2c-0.2,0-0.4,0-0.6-0.1
		c-0.2-0.1-0.3-0.2-0.3-0.3c0-0.1,0.1-0.4,0.3-0.7l1.4-2.1l-1.7-1.2c-0.3-0.2-0.5-0.4-0.5-0.6c0-0.1,0-0.3,0.2-0.4
		c0.1-0.1,0.3-0.2,0.6-0.3c0.2,0,0.4,0,0.6,0c0.2,0.1,0.3,0.2,0.6,0.3l1.4,1l1-1.4c0.2-0.2,0.3-0.4,0.4-0.5c0.1-0.1,0.3-0.2,0.5-0.2
		c0.2,0,0.5,0,0.6,0.1c0.2,0.1,0.3,0.2,0.3,0.3c0,0.1,0,0.2,0,0.3c-0.1,0.1-0.1,0.2-0.2,0.4L64.6,54l2,1.5c0.3,0.2,0.5,0.4,0.5,0.6
		c0,0.1,0,0.3-0.2,0.4c-0.1,0.1-0.3,0.2-0.6,0.3c-0.2,0-0.4,0-0.6,0C65.6,56.6,65.4,56.5,65.1,56.3z"/>
</g>
<g>
	<path class="st0" d="M86.3,53.7l-1.6-1.2l-1.1,1.7c-0.2,0.2-0.3,0.4-0.4,0.5c-0.1,0.1-0.3,0.2-0.5,0.2c-0.2,0-0.4,0-0.6-0.1
		c-0.2-0.1-0.3-0.2-0.3-0.3c0-0.1,0.1-0.4,0.3-0.7l1.4-2.1l-1.7-1.2c-0.3-0.2-0.5-0.4-0.5-0.6c0-0.1,0-0.3,0.2-0.4
		c0.1-0.1,0.3-0.2,0.6-0.3c0.2,0,0.4,0,0.6,0c0.2,0.1,0.3,0.2,0.6,0.3l1.4,1l1-1.4c0.2-0.2,0.3-0.4,0.4-0.5c0.1-0.1,0.3-0.2,0.5-0.2
		c0.2,0,0.5,0,0.6,0.1c0.2,0.1,0.3,0.2,0.3,0.3c0,0.1,0,0.2,0,0.3c-0.1,0.1-0.1,0.2-0.2,0.4l-1.2,1.7l2,1.5c0.3,0.2,0.5,0.4,0.5,0.6
		c0,0.1,0,0.3-0.2,0.4c-0.1,0.1-0.3,0.2-0.6,0.3c-0.2,0-0.4,0-0.6,0C86.8,54,86.6,53.9,86.3,53.7z"/>
</g>
<ellipse class="st5" cx="75.2" cy="60.7" rx="2.1" ry="3.3"/>
<path class="st6" d="M29.4,20.8c-1.5-5.1-7.1-7.9-12.4-6.3s-8.4,7-6.8,12.1c1,3.3,3.7,5.6,6.9,6.4c0,0.4,0.1,0.7,0.2,1.1
	c0.9,2.8,3.6,2.1,6.5,1.3s4.6-1.6,3.8-4.4c-0.1-0.3-0.2-0.6-0.4-0.9C29.4,27.7,30.4,24.2,29.4,20.8z"/>
<circle class="st7" cx="15.7" cy="27" r="3.4"/>
<circle class="st7" cx="24.6" cy="24.3" r="3.4"/>
<g>
	<path class="st7" d="M24.3,31.5c-0.2,0.1-0.4,0-0.5-0.2c-0.7-0.8-1.5-1.5-1.8-1.6c-0.2,0.1-0.5,1.3-0.7,2.3c0,0.3-0.3,0.5-0.6,0.4
		c-0.3,0-0.5-0.3-0.4-0.6c0.2-1.1,0.6-2.9,1.4-3.2c0,0,0,0,0,0c0.9-0.2,2.1,1.1,2.8,1.9c0.2,0.2,0.1,0.5-0.1,0.7
		C24.4,31.5,24.3,31.5,24.3,31.5z"/>
</g>
<path class="st6" d="M128.7,36.6c1-5.2-2.7-10.3-8.1-11.3c-5.5-1-10.7,2.4-11.7,7.6c-0.6,3.4,0.7,6.7,3.2,8.9
	c-0.1,0.3-0.2,0.7-0.3,1.1c-0.5,2.9,2.2,3.6,5.1,4.1c2.9,0.5,4.8,0.7,5.4-2.1c0.1-0.3,0.1-0.7,0.1-1C125.6,42.7,128.1,40,128.7,36.6
	z"/>
<circle class="st7" cx="113.7" cy="35.7" r="3.4"/>
<circle class="st7" cx="122.9" cy="37.4" r="3.4"/>
<g>
	<path class="st7" d="M119.3,43.7c-0.2,0-0.4-0.2-0.4-0.4c-0.2-1-0.6-2.1-0.8-2.2c-0.2,0-1.1,0.9-1.7,1.8c-0.2,0.2-0.5,0.3-0.7,0.1
		c-0.2-0.2-0.3-0.5-0.1-0.7c0.6-0.9,1.8-2.3,2.7-2.1c0,0,0,0,0,0c0.9,0.2,1.4,1.9,1.6,3c0.1,0.3-0.1,0.5-0.4,0.6
		C119.4,43.7,119.3,43.7,119.3,43.7z"/>
</g>
</svg>
