<?xml version="1.0" encoding="UTF-8"?>
<svg id="Layer_3" data-name="Layer 3" xmlns="http://www.w3.org/2000/svg" version="1.1" viewBox="0 0 1920 1080">
  <defs>
    <style>
      .cls-1 {
        fill: #a4b3b7;
      }

      .cls-1, .cls-2, .cls-3, .cls-4 {
        stroke-width: 0px;
      }

      .cls-2 {
        fill: #43318d;
      }

      .cls-3 {
        fill: #d83f87;
        isolation: isolate;
      }

      .cls-4 {
        fill: #8265a7;
      }
    </style>
  </defs>
  <path class="cls-2" d="M94.9,76.4v137.1c182.3,0,330.1,147.8,330.1,330.1s-147.8,330.1-330.1,330.1v137.1c258,0,467.2-209.2,467.2-467.2S352.9,76.4,94.9,76.4Z"/>
  <path class="cls-4" d="M461,0H0v94.1c112.5-25.7,234.7-9.3,341,55.4,216.4,131.8,285,414.2,153.2,630.6l162.8,99.2C839.2,580.1,750.8,191.7,461,0Z"/>
  <path class="cls-3" d="M0,230.4v101.3c94.5-49.3,213.6-25.6,281.3,61.6l73.8-57.3C269.3,225.6,125.2,187.2,0,230.4Z"/>
  <path class="cls-1" d="M1920,625.2v-74.6c-81.7-37.2-181.3-21.9-248.2,45.6-85.8,86.6-85.1,226.2,1.4,312l45.6-46c-61.2-60.6-61.6-159.3-1-220.5,54.9-55.4,141-61,202.2-16.6Z"/>
  <path class="cls-4" d="M1920,929.4c-88,51.9-202.9,32.2-268-50.2-71-89.9-55.7-220.4,34.2-291.5l-53.4-67.6c-127.3,100.5-148.9,285.2-48.4,412.4,81.6,103.3,218.8,137,335.7,92.1v-95.2Z"/>
</svg>