<?xml version="1.0" encoding="UTF-8"?>
<svg id="Layer_1" data-name="Layer 1" xmlns="http://www.w3.org/2000/svg" version="1.1" viewBox="0 0 249.4 249.4">
  <defs>
    <style>
      .cls-1 {
        fill: #23b5b5;
      }

      .cls-1, .cls-2, .cls-3, .cls-4, .cls-5, .cls-6, .cls-7, .cls-8, .cls-9 {
        stroke-width: 0px;
      }

      .cls-2 {
        fill: #cecece;
      }

      .cls-3 {
        fill: #a4b3b7;
      }

      .cls-4 {
        fill: #f4f4f4;
      }

      .cls-5 {
        fill: #43318d;
      }

      .cls-6 {
        fill: #dd3c57;
      }

      .cls-7 {
        fill: #8265a7;
      }

      .cls-8 {
        fill: #d83f87;
      }

      .cls-9 {
        fill: #fff;
      }
    </style>
  </defs>
  <g>
    <rect class="cls-8" x="17.6" y="85.5" width="65.3" height="2.9" transform="translate(50.2 -13.5) rotate(30)"/>
    <path class="cls-8" d="M42.5,83.7c-.8,0-1.4-.6-1.5-1.4l-3.5-43.6c0-.8.6-1.5,1.4-1.6.8,0,1.5.5,1.6,1.4l3.5,43.6c0,.8-.6,1.5-1.4,1.6,0,0,0,0-.1,0Z"/>
    <path class="cls-8" d="M41,63.9c-.3,0-.6,0-.9-.3-.7-.5-.8-1.4-.3-2.1l17-23.7c.5-.7,1.4-.8,2.1-.3.7.5.8,1.4.3,2.1l-17,23.7c-.3.4-.8.6-1.2.6Z"/>
    <circle class="cls-8" cx="39.8" cy="36.9" r="7"/>
    <circle class="cls-8" cx="18.2" cy="68.5" r="7"/>
    <circle class="cls-8" cx="42.5" cy="81.7" r="7"/>
    <circle class="cls-8" cx="60.8" cy="34.8" r="7"/>
  </g>
  <g>
    <rect class="cls-4" x="70.7" y="100.9" width="112.5" height="61.2"/>
    <rect class="cls-3" x="70.7" y="89.9" width="112.5" height="10.9"/>
    <rect class="cls-5" x="70.7" y="78.4" width="112.5" height="11.5"/>
    <rect class="cls-9" x="73.6" y="81.7" width="76.4" height="5.4" rx="2.7" ry="2.7"/>
    <circle class="cls-3" cx="157" cy="84.1" r="2.9"/>
    <circle class="cls-6" cx="165.8" cy="84.2" r="2.7"/>
    <circle class="cls-3" cx="175.1" cy="84.4" r="2.9"/>
    <rect class="cls-4" x="70.7" y="66.7" width="112.5" height="11.5"/>
    <rect class="cls-8" x="70.7" y="61" width="22" height="5.7"/>
    <rect class="cls-3" x="92.7" y="61" width="22" height="5.7"/>
    <g>
      <g>
        <rect class="cls-9" x="73.6" y="106.2" width="105.9" height="14.2"/>
        <path class="cls-2" d="M117.3,115.1h-37c-.6,0-1-1-1-2.2s.5-2.2,1-2.2h37c.6,0,1,1,1,2.2s-.5,2.2-1,2.2Z"/>
      </g>
      <rect class="cls-5" x="138" y="106.2" width="41.6" height="14.2"/>
      <rect class="cls-1" x="142.1" y="110.7" width="14.9" height="5.7"/>
      <rect class="cls-7" x="161.4" y="110.7" width="14.9" height="5.7"/>
    </g>
    <g>
      <g>
        <rect class="cls-9" x="73.6" y="124.4" width="105.9" height="14.2"/>
        <path class="cls-2" d="M117.3,133.2h-37c-.6,0-1-1-1-2.2s.5-2.2,1-2.2h37c.6,0,1,1,1,2.2s-.5,2.2-1,2.2Z"/>
      </g>
      <rect class="cls-5" x="138" y="124.4" width="41.6" height="14.2"/>
      <rect class="cls-1" x="142.1" y="128.8" width="14.9" height="5.7"/>
      <rect class="cls-7" x="161.4" y="128.8" width="14.9" height="5.7"/>
    </g>
    <g>
      <g>
        <rect class="cls-9" x="73.6" y="141.4" width="105.9" height="14.2"/>
        <path class="cls-2" d="M117.3,150.2h-37c-.6,0-1-1-1-2.2s.5-2.2,1-2.2h37c.6,0,1,1,1,2.2s-.5,2.2-1,2.2Z"/>
      </g>
      <rect class="cls-5" x="138" y="141.4" width="41.6" height="14.2"/>
      <rect class="cls-1" x="142.1" y="145.8" width="14.9" height="5.7"/>
      <rect class="cls-7" x="161.4" y="145.8" width="14.9" height="5.7"/>
    </g>
  </g>
  <path class="cls-3" d="M116.8,21v25.9c34.6-.2,62.7,27.7,62.8,62.1s-27.7,62.5-62.1,62.7v25.9c48.9-.2,88.3-39.9,88-88.7-.2-48.8-39.9-88.1-88.7-87.9Z"/>
  <path class="cls-8" d="M230,54l-33.4,15.9c21.1,44.4,2.2,97.5-42.1,118.6-44.4,21.1-97.5,2.2-118.6-42.1l-33.4,15.9c29.9,62.8,105,89.5,167.8,59.6,62.8-29.9,89.5-105,59.6-167.8Z"/>
</svg>