<?xml version="1.0" encoding="utf-8"?>
<!-- Generator: Adobe Illustrator 24.0.1, SVG Export Plug-In . SVG Version: 6.00 Build 0)  -->
<svg version="1.1" id="Layer_1" xmlns="http://www.w3.org/2000/svg" xmlns:xlink="http://www.w3.org/1999/xlink" x="0px" y="0px"
	 viewBox="0 0 400 400" style="enable-background:new 0 0 400 400;" xml:space="preserve">
<polyline style="fill:none;stroke:#6C757D;stroke-width:2;stroke-miterlimit:10;" points="79,107 79,80 175,79 200,49 226,79 
	326,79 326,109 "/>
<circle style="fill:none;stroke:#6C757D;stroke-width:2;stroke-miterlimit:10;" cx="79" cy="118" r="6"/>
<circle style="fill:none;stroke:#6C757D;stroke-width:2;stroke-miterlimit:10;" cx="326" cy="118" r="6"/>
<polyline style="fill:none;stroke:#6C757D;stroke-width:2;stroke-miterlimit:10;" points="30,175.1 30,148.1 68.5,148 78.5,130 
	88.9,148 129,147.9 129,177.9 "/>
<circle style="fill:none;stroke:#6C757D;stroke-width:2;stroke-miterlimit:10;" cx="30" cy="189" r="6"/>
<circle style="fill:none;stroke:#6C757D;stroke-width:2;stroke-miterlimit:10;" cx="129" cy="189" r="6"/>
<polyline style="fill:none;stroke:#6C757D;stroke-width:2;stroke-miterlimit:10;" points="80,245.1 80,218.1 118.5,218 128.5,200 
	138.9,218 179,217.9 179,247.9 "/>
<circle style="fill:none;stroke:#6C757D;stroke-width:2;stroke-miterlimit:10;" cx="80" cy="259" r="6"/>
<circle style="fill:none;stroke:#6C757D;stroke-width:2;stroke-miterlimit:10;" cx="179" cy="259" r="6"/>
<polyline style="fill:none;stroke:#6C757D;stroke-width:2;stroke-miterlimit:10;" points="277,180.1 277,153.1 315.5,153 325.5,135 
	335.9,153 376,152.9 376,182.9 "/>
<circle style="fill:none;stroke:#6C757D;stroke-width:2;stroke-miterlimit:10;" cx="277" cy="194" r="6"/>
<circle style="fill:none;stroke:#6C757D;stroke-width:2;stroke-miterlimit:10;" cx="376" cy="194" r="6"/>
<polyline style="fill:none;stroke:#6C757D;stroke-width:2;stroke-miterlimit:10;" points="227,250.1 227,223.1 265.5,223 275.5,205 
	285.9,223 326,222.9 326,252.9 "/>
<polyline style="fill:none;stroke:#6C757D;stroke-width:2;stroke-miterlimit:10;" points="177,325.1 177,298.1 215.5,298 225.5,280 
	235.9,298 276,297.9 276,327.9 "/>
<circle style="fill:none;stroke:#6C757D;stroke-width:2;stroke-miterlimit:10;" cx="227" cy="264" r="6"/>
<circle style="fill:none;stroke:#6C757D;stroke-width:2;stroke-miterlimit:10;" cx="326" cy="264" r="6"/>
<circle style="fill:none;stroke:#6C757D;stroke-width:2;stroke-miterlimit:10;" cx="200" cy="37" r="6"/>
<line style="fill:none;stroke:#6C757D;stroke-width:2;stroke-miterlimit:10;" x1="194" y1="320" x2="259" y2="320"/>
<line style="fill:none;stroke:#6C757D;stroke-width:2;stroke-miterlimit:10;" x1="195" y1="338" x2="260" y2="338"/>
<line style="fill:none;stroke:#6C757D;stroke-width:2;stroke-miterlimit:10;" x1="195" y1="356" x2="260" y2="356"/>
<line style="fill:none;stroke:#6C757D;stroke-width:2;stroke-miterlimit:10;" x1="195" y1="370" x2="260" y2="370"/>
</svg>
