<?xml version="1.0" encoding="UTF-8"?>
<svg id="Layer_1" data-name="Layer 1" xmlns="http://www.w3.org/2000/svg" version="1.1" viewBox="0 0 249.4 249.4">
  <defs>
    <style>
      .cls-1 {
        fill: #fff;
        stroke: #43318d;
        stroke-miterlimit: 10;
        stroke-width: 9px;
      }

      .cls-2 {
        fill: #43318d;
      }

      .cls-2, .cls-3 {
        stroke-width: 0px;
      }

      .cls-3 {
        fill: #d83f87;
      }
    </style>
  </defs>
  <circle class="cls-1" cx="124.7" cy="124.7" r="99.7"/>
  <path class="cls-2" d="M58.4,88.1v111.9s27.5,13.1,27.5,13.1v-84.2l-21.6-42.2c-1.5-2.9-5.9-1.9-5.9,1.4Z"/>
  <path class="cls-2" d="M190.9,88.3v109.8c0,1.1-.6,2.2-1.6,2.8l-23.9,14c-2.2,1.3-4.9-.3-4.9-2.8v-78.1c0-.5.1-1,.4-1.5l23.9-45.7c1.6-3,6.1-1.9,6.1,1.5Z"/>
  <path class="cls-3" d="M136.1,162.1c-5,9-17.9,9.1-23,0l-49.1-87.5c-3.4-6-1.2-13.6,4.8-17,6-3.4,13.6-1.2,17,4.8l33.6,60c2.2,3.9,7.7,3.8,9.8,0l32.9-59.8c3.3-6,10.9-8.3,17-4.9,6,3.3,8.3,10.9,4.9,17l-48.1,87.5Z"/>
</svg>