<?xml version="1.0" encoding="UTF-8"?>
<svg id="Layer_1" data-name="Layer 1" xmlns="http://www.w3.org/2000/svg" xmlns:xlink="http://www.w3.org/1999/xlink" version="1.1" viewBox="0 0 249.4 249.4">
  <defs>
    <style>
      .cls-1 {
        fill: #56436e;
      }

      .cls-1, .cls-2, .cls-3, .cls-4, .cls-5, .cls-6, .cls-7, .cls-8, .cls-9, .cls-10, .cls-11, .cls-12, .cls-13, .cls-14, .cls-15, .cls-16, .cls-17, .cls-18, .cls-19, .cls-20, .cls-21 {
        stroke-width: 0px;
      }

      .cls-22 {
        clip-path: url(#clippath);
      }

      .cls-2, .cls-23 {
        fill: none;
      }

      .cls-3 {
        fill: #4e3d64;
      }

      .cls-4 {
        fill: #555d5f;
      }

      .cls-5 {
        fill: #697375;
      }

      .cls-24 {
        clip-path: url(#clippath-1);
      }

      .cls-25 {
        clip-path: url(#clippath-3);
      }

      .cls-26 {
        clip-path: url(#clippath-2);
      }

      .cls-6 {
        fill: #596163;
      }

      .cls-7 {
        fill: #4b3b61;
      }

      .cls-8 {
        fill: #443557;
      }

      .cls-9 {
        fill: #46375a;
      }

      .cls-23 {
        stroke: #fff;
        stroke-linecap: round;
        stroke-miterlimit: 10;
        stroke-width: 4px;
      }

      .cls-10 {
        fill: #513f68;
      }

      .cls-11 {
        fill: #423455;
      }

      .cls-12 {
        fill: #8f9ca0;
      }

      .cls-13 {
        fill: #715892;
      }

      .cls-14 {
        fill: #5f686a;
      }

      .cls-15 {
        fill: #5c6466;
      }

      .cls-16 {
        fill: #626b6e;
      }

      .cls-17 {
        fill: #6c7679;
      }

      .cls-27 {
        isolation: isolate;
      }

      .cls-18 {
        fill: #53416b;
      }

      .cls-19 {
        fill: #666f71;
      }

      .cls-20 {
        fill: #49395e;
      }

      .cls-21 {
        fill: #d83f87;
      }
    </style>
    <clipPath id="clippath">
      <path class="cls-2" d="M104.6,194.6l-22.8-12.4c11.1,6,24.2,8.6,38.3,6.6l22.8,12.4c-14.1,2-27.2-.6-38.3-6.6Z"/>
    </clipPath>
    <clipPath id="clippath-1">
      <path class="cls-2" d="M88.6,224l-22.8-12.4c-28.4-15.4-47.2-47-47.1-86,.1-60.5,45.6-115.9,101.7-123.8l22.8,12.4c-56.1,7.9-101.6,63.3-101.7,123.8,0,39,18.7,70.5,47.1,86Z"/>
    </clipPath>
    <clipPath id="clippath-2">
      <path class="cls-2" d="M158.2,73.4l22.8,12.4c14.2,7.7,23.6,23.5,23.6,43,0,30.3-22.9,58-50.9,62l-22.8-12.4c28.1-3.9,50.9-31.7,50.9-62s-9.4-35.3-23.6-43Z"/>
    </clipPath>
    <clipPath id="clippath-3">
      <path class="cls-2" d="M169.5,52.5l22.8,12.4c-11.1-6-24.3-8.6-38.4-6.6l-22.8-12.4c14.1-2,27.3.6,38.4,6.6Z"/>
    </clipPath>
  </defs>
  <circle class="cls-21" cx="135.5" cy="124.7" r="42.7"/>
  <g class="cls-27">
    <g class="cls-27">
      <g class="cls-22">
        <g class="cls-27">
          <path class="cls-19" d="M104.6,194.6l-22.8-12.4c.7.4,1.4.8,2.2,1.1l22.8,12.4c-.7-.4-1.5-.7-2.2-1.1"/>
          <path class="cls-5" d="M106.7,195.7l-22.8-12.4c3.6,1.8,7.4,3.2,11.3,4.2l22.8,12.4c-4-1-7.7-2.4-11.3-4.2"/>
          <path class="cls-17" d="M118.1,199.9l-22.8-12.4c7.7,2,16.1,2.5,24.8,1.3l22.8,12.4c-8.7,1.2-17.1.7-24.8-1.3"/>
        </g>
      </g>
    </g>
    <g class="cls-27">
      <g class="cls-24">
        <g class="cls-27">
          <path class="cls-4" d="M88.6,224l-22.8-12.4c-28.4-15.4-47.2-47-47.1-86s2.8-29.5,7.8-43.1l22.8,12.4c-5,13.6-7.8,28.2-7.8,43.1,0,39,18.7,70.5,47.1,86"/>
          <path class="cls-6" d="M49.3,94.9l-22.8-12.4c2.2-5.9,4.7-11.6,7.7-17.1l22.8,12.4c-3,5.5-5.5,11.2-7.7,17.1"/>
          <path class="cls-15" d="M57,77.8l-22.8-12.4c2.5-4.6,5.3-9.1,8.3-13.4l22.8,12.4c-3,4.3-5.8,8.8-8.3,13.4"/>
          <path class="cls-14" d="M65.3,64.4l-22.8-12.4c2.8-4,5.9-7.9,9.1-11.6l22.8,12.4c-3.2,3.7-6.3,7.6-9.1,11.6"/>
          <path class="cls-16" d="M74.4,52.8l-22.8-12.4c3.3-3.7,6.7-7.2,10.4-10.5l22.8,12.4c-3.6,3.3-7.1,6.8-10.4,10.5"/>
          <path class="cls-19" d="M84.8,42.4l-22.8-12.4c3.9-3.5,8-6.8,12.3-9.7l22.8,12.4c-4.3,3-8.4,6.2-12.3,9.7"/>
          <path class="cls-5" d="M97,32.6l-22.8-12.4c5.2-3.6,10.8-6.8,16.5-9.5l22.8,12.4c-5.7,2.7-11.2,5.9-16.5,9.5"/>
          <path class="cls-17" d="M113.5,23.1l-22.8-12.4c9.4-4.4,19.4-7.5,29.7-8.9l22.8,12.4c-10.3,1.5-20.3,4.5-29.7,8.9"/>
        </g>
      </g>
    </g>
    <path class="cls-12" d="M143.2,14.2v32.1c-39.7,5.6-71.8,44.7-71.9,87.5s32,72.9,71.6,67.3v32.1c-56.1,7.9-101.5-34.8-101.4-95.3.1-60.5,45.6-115.9,101.7-123.8Z"/>
  </g>
  <g class="cls-27">
    <polygon class="cls-11" points="153.6 213.6 130.8 201.2 130.8 178.4 153.6 190.8 153.6 213.6"/>
    <g class="cls-27">
      <g class="cls-26">
        <g class="cls-27">
          <path class="cls-1" d="M153.6,190.8l-22.8-12.4c5.2-.7,10.2-2.3,14.9-4.5l22.8,12.4c-4.7,2.2-9.7,3.7-14.9,4.5"/>
          <path class="cls-18" d="M168.5,186.3l-22.8-12.4c2.9-1.3,5.6-2.9,8.3-4.8l22.8,12.4c-2.6,1.8-5.4,3.4-8.3,4.8"/>
          <path class="cls-10" d="M176.7,181.6l-22.8-12.4c2.1-1.5,4.2-3.1,6.1-4.9l22.8,12.4c-2,1.8-4,3.4-6.1,4.9"/>
          <path class="cls-3" d="M182.9,176.7l-22.8-12.4c1.8-1.6,3.6-3.4,5.2-5.2l22.8,12.4c-1.6,1.9-3.4,3.6-5.2,5.2"/>
          <path class="cls-7" d="M188.1,171.5l-22.8-12.4c1.6-1.8,3.2-3.8,4.6-5.8l22.8,12.4c-1.4,2-2.9,4-4.6,5.8"/>
          <path class="cls-20" d="M192.6,165.7l-22.8-12.4c1.5-2.1,2.9-4.4,4.1-6.7l22.8,12.4c-1.3,2.3-2.6,4.6-4.1,6.7"/>
          <path class="cls-9" d="M196.8,158.9l-22.8-12.4c1.5-2.7,2.8-5.6,3.8-8.6l22.8,12.4c-1.1,2.9-2.4,5.8-3.8,8.6"/>
          <path class="cls-8" d="M200.6,150.4l-22.8-12.4c2.5-6.8,3.9-14.1,3.9-21.6,0-19.5-9.4-35.3-23.6-43l22.8,12.4c14.2,7.7,23.6,23.5,23.6,43s-1.4,14.8-3.9,21.6"/>
        </g>
      </g>
    </g>
    <path class="cls-13" d="M153.9,58.3c39.7-5.6,71.9,24.6,71.8,67.5,0,42.9-32.3,82.1-72.1,87.7v-22.8c28.1-3.9,50.9-31.7,51-62s-22.7-51.7-50.7-47.7v-22.8Z"/>
    <g class="cls-27">
      <g class="cls-25">
        <g class="cls-27">
          <path class="cls-1" d="M153.9,58.3l-22.8-12.4c8.7-1.2,17.1-.7,24.9,1.3l22.8,12.4c-7.7-2-16.1-2.5-24.9-1.3"/>
          <path class="cls-18" d="M178.7,59.6l-22.8-12.4c4,1,7.8,2.4,11.4,4.2l22.8,12.4c-3.6-1.8-7.4-3.2-11.4-4.2"/>
          <path class="cls-10" d="M190.1,63.8l-22.8-12.4c.7.4,1.5.7,2.2,1.1l22.8,12.4c-.7-.4-1.5-.8-2.2-1.1"/>
        </g>
      </g>
    </g>
    <polygon class="cls-11" points="153.8 81.1 131 68.7 131.1 45.9 153.9 58.3 153.8 81.1"/>
  </g>
  <path class="cls-23" d="M109.8,113.9s24.3-29.5,51.6,0"/>
  <path class="cls-23" d="M161.3,129.9s-24.3,29.5-51.6,0"/>
  <circle class="cls-23" cx="135.5" cy="122.6" r="9.6"/>
</svg>