<?xml version="1.0" encoding="UTF-8"?>
<svg id="Layer_1" data-name="Layer 1" xmlns="http://www.w3.org/2000/svg" version="1.1" viewBox="0 0 249.4 249.4">
  <defs>
    <style>
      .cls-1 {
        fill: #8265a7;
      }

      .cls-1, .cls-2, .cls-3 {
        stroke-width: 0px;
      }

      .cls-2 {
        fill: #d83f87;
      }

      .cls-3 {
        fill: #fff;
      }

      .cls-4 {
        fill: none;
        stroke: #8265a7;
        stroke-miterlimit: 10;
      }
    </style>
  </defs>
  <g>
    <line class="cls-4" x1="19.6" y1="85.9" x2="122.9" y2="119.5"/>
    <line class="cls-4" x1="36.1" y1="54.1" x2="122.9" y2="119.5"/>
    <line class="cls-4" x1="62.1" y1="29.4" x2="122.9" y2="119.5"/>
    <line class="cls-4" x1="94.8" y1="14.6" x2="122.9" y2="119.5"/>
    <line class="cls-4" x1="130.4" y1="11.1" x2="122.9" y2="119.5"/>
    <line class="cls-4" x1="165.3" y1="19.5" x2="122.9" y2="119.5"/>
    <line class="cls-4" x1="195.5" y1="38.7" x2="122.9" y2="119.5"/>
    <line class="cls-4" x1="217.8" y1="66.8" x2="122.9" y2="119.5"/>
    <line class="cls-4" x1="229.8" y1="100.6" x2="122.9" y2="119.5"/>
    <line class="cls-4" x1="230.1" y1="136.4" x2="122.9" y2="119.5"/>
    <line class="cls-4" x1="218.8" y1="170.4" x2="122.9" y2="119.5"/>
    <line class="cls-4" x1="196.9" y1="198.9" x2="122.9" y2="119.5"/>
    <line class="cls-4" x1="167" y1="218.7" x2="122.9" y2="119.5"/>
    <line class="cls-4" x1="132.3" y1="227.6" x2="122.9" y2="119.5"/>
    <line class="cls-4" x1="96.6" y1="224.8" x2="122.9" y2="119.5"/>
    <line class="cls-4" x1="63.7" y1="210.5" x2="122.9" y2="119.5"/>
    <line class="cls-4" x1="37.3" y1="186.3" x2="122.9" y2="119.5"/>
    <line class="cls-4" x1="20.2" y1="154.8" x2="122.9" y2="119.5"/>
    <line class="cls-4" x1="14.3" y1="119.5" x2="122.9" y2="119.5"/>
  </g>
  <path class="cls-2" d="M17.3,122.5h26.4c.7,20.5,9.1,39.7,23.7,54.3,15.3,15.3,35.7,23.7,57.3,23.7,21.6,0,42-8.4,57.3-23.7s22.9-33.8,23.7-54.3h26.4c-.8,27.6-11.8,53.4-31.4,73-20.3,20.3-47.3,31.5-76,31.5-28.7,0-55.7-11.2-76-31.5-19.6-19.6-30.7-45.4-31.4-73M14.3,119.5c0,61,49.4,110.4,110.4,110.4,61,0,110.4-49.4,110.4-110.4h-32.4c0,43.1-34.9,78-78,78-43.1,0-78-34.9-78-78H14.3Z"/>
  <path class="cls-2" d="M124.7,45c19.9,0,38.6,7.7,52.6,21.8,13.4,13.4,21,30.9,21.7,49.6h-16.7c-.7-14.3-6.6-27.6-16.8-37.8-10.9-10.9-25.4-16.9-40.8-16.9-15.4,0-29.9,6-40.8,16.9-10.2,10.2-16.1,23.5-16.8,37.8h-16.7c.7-18.8,8.4-36.3,21.7-49.6,14.1-14.1,32.8-21.8,52.6-21.8M124.7,42c-42.8,0-77.5,34.7-77.5,77.5h22.7c0-30.2,24.5-54.7,54.7-54.7,30.2,0,54.7,24.5,54.7,54.7h22.7c0-42.8-34.7-77.5-77.5-77.5h0Z"/>
  <path class="cls-1" d="M125.9,67.1c28.8,1.6,51.8,26.4,51.8,56.6s-23,55-51.8,56.6v-11.5c22.8-1.6,40.8-21.2,40.8-45.1s-18.1-43.5-40.8-45.1v-11.5M122.9,64.1v17.5c22.5,0,40.8,18.9,40.8,42.2s-18.3,42.2-40.8,42.2v17.5c31.9,0,57.8-26.7,57.8-59.7s-25.9-59.7-57.8-59.7h0Z"/>
  <circle class="cls-2" cx="121.3" cy="123.3" r="42.7"/>
  <polygon class="cls-3" points="99.2 125.9 116.2 145.3 150.2 109.9 142.2 102.3 118.6 127.3 108.6 115.1 99.2 125.9"/>
</svg>