<?xml version="1.0" encoding="UTF-8"?>
<svg id="Layer_1" data-name="Layer 1" xmlns="http://www.w3.org/2000/svg" version="1.1" viewBox="0 0 535 387">
  <defs>
    <style>
      .cls-1 {
        fill: #fff;
        stroke-width: 0px;
      }
    </style>
  </defs>
  <g>
    <path class="cls-1" d="M47.1,311.2c1.8,0,3.4.3,4.8,1,1.4.7,2.5,1.6,3.5,2.8.9,1.2,1.7,2.6,2.1,4.2.5,1.6.7,3.3.7,5s-.4,4.6-1.3,6.6c-.8,2-2.1,3.6-3.7,4.7-1.6,1.2-3.7,1.8-6.1,1.8h-9.1c-.5,0-1-.2-1.4-.5-.4-.4-.5-.8-.5-1.4v-22.3c0-.5.2-1,.5-1.4.4-.4.8-.5,1.4-.5h9.1ZM46.7,333.7c1.7,0,3.2-.4,4.3-1.3,1.1-.9,1.9-2,2.4-3.5.5-1.4.8-3,.8-4.7s-.1-2.4-.4-3.6-.7-2.2-1.3-3c-.6-.9-1.4-1.6-2.3-2.1-.9-.5-2.1-.8-3.4-.8h-7.1l.3-.3v19.6l-.2-.4h6.9Z"/>
    <path class="cls-1" d="M72.1,316.1l-8.4,20.1c-.1.4-.4.7-.7.9-.3.2-.6.3-1,.3-.6,0-1-.2-1.3-.5-.3-.3-.4-.7-.4-1.2s0-.4.1-.6l9.5-22.9c.1-.4.4-.7.7-1,.3-.2.7-.3,1.1-.3.4,0,.8.1,1.1.3.3.2.6.5.7.9l9.4,22.6c0,.2.1.5.1.7,0,.5-.2,1-.5,1.3-.4.3-.8.5-1.2.5s-.7-.1-1-.4c-.3-.2-.5-.5-.7-.9l-8.5-20h1ZM65.2,330.9l1.7-3.6h10.6l.6,3.6h-12.9Z"/>
    <path class="cls-1" d="M86.7,314.7c-.5,0-1-.2-1.3-.5-.4-.3-.6-.8-.6-1.3s.2-1,.6-1.3c.4-.3.8-.5,1.3-.5h16.9c.5,0,1,.2,1.4.5s.5.8.5,1.3-.2,1-.5,1.3c-.4.3-.8.5-1.4.5h-16.9ZM95.2,337.3c-.6,0-1.1-.2-1.5-.5-.4-.4-.6-.8-.6-1.4v-22.4h4v22.4c0,.5-.2,1-.6,1.4-.4.4-.9.5-1.4.5Z"/>
    <path class="cls-1" d="M119.1,316.1l-8.4,20.1c-.1.4-.4.7-.7.9-.3.2-.6.3-1,.3-.6,0-1-.2-1.3-.5-.3-.3-.4-.7-.4-1.2s0-.4.1-.6l9.5-22.9c.1-.4.4-.7.7-1,.3-.2.7-.3,1.1-.3.4,0,.8.1,1.1.3.3.2.6.5.7.9l9.4,22.6c0,.2.1.5.1.7,0,.5-.2,1-.5,1.3-.4.3-.8.5-1.2.5s-.7-.1-1-.4c-.3-.2-.5-.5-.7-.9l-8.5-20h1ZM112.2,330.9l1.7-3.6h10.6l.6,3.6h-12.9Z"/>
    <path class="cls-1" d="M155.1,311.2c1.8,0,3.4.3,4.8,1,1.4.7,2.5,1.6,3.5,2.8.9,1.2,1.7,2.6,2.1,4.2.5,1.6.7,3.3.7,5s-.4,4.6-1.3,6.6c-.8,2-2.1,3.6-3.7,4.7-1.6,1.2-3.7,1.8-6.1,1.8h-9.1c-.5,0-1-.2-1.4-.5-.4-.4-.5-.8-.5-1.4v-22.3c0-.5.2-1,.5-1.4.4-.4.8-.5,1.4-.5h9.1ZM154.7,333.7c1.7,0,3.2-.4,4.3-1.3,1.1-.9,1.9-2,2.4-3.5.5-1.4.8-3,.8-4.7s-.1-2.4-.4-3.6-.7-2.2-1.3-3c-.6-.9-1.4-1.6-2.3-2.1-.9-.5-2.1-.8-3.4-.8h-7.1l.3-.3v19.6l-.2-.4h6.9Z"/>
    <path class="cls-1" d="M174.7,335.4c0,.5-.2,1-.6,1.4-.4.4-.8.5-1.4.5s-1.1-.2-1.4-.5c-.3-.4-.5-.8-.5-1.4v-22.3c0-.5.2-1,.6-1.4.4-.4.9-.5,1.5-.5s.9.2,1.3.5c.4.4.6.8.6,1.4v22.3Z"/>
    <path class="cls-1" d="M188.8,337.7c-1.8,0-3.4-.2-4.8-.7-1.4-.5-2.7-1.3-4-2.4-.3-.2-.5-.5-.6-.8-.1-.3-.2-.6-.2-.9,0-.5.2-.9.5-1.3.3-.4.8-.6,1.3-.6s.8.1,1.1.4c.9.9,1.9,1.5,3,2,1,.4,2.2.7,3.6.7s1.9-.2,2.7-.5c.8-.3,1.5-.8,2-1.3.5-.5.7-1.2.7-1.9,0-.9-.3-1.6-.8-2.2-.5-.6-1.2-1.1-2.2-1.5-1-.4-2.1-.7-3.5-1-1.2-.2-2.4-.6-3.4-1-1-.4-1.8-.9-2.5-1.5-.7-.6-1.2-1.3-1.6-2.2-.4-.8-.6-1.8-.6-2.9s.4-2.8,1.2-3.9c.8-1.1,1.9-2,3.2-2.6,1.4-.6,2.9-.9,4.6-.9s3,.2,4.4.7c1.4.5,2.5,1.1,3.3,2,.6.5.9,1.1.9,1.7s-.2.9-.5,1.3c-.4.4-.8.6-1.3.6s-.6,0-.9-.3c-.4-.4-.9-.8-1.6-1.1s-1.4-.6-2.1-.8c-.8-.2-1.5-.3-2.2-.3-1.1,0-2.1.2-2.9.5-.8.3-1.4.7-1.8,1.3-.4.5-.6,1.2-.6,1.9s.2,1.5.7,2.1c.5.5,1.2,1,2,1.3.9.3,1.9.6,3,.9,1.4.3,2.6.6,3.7,1s2,.9,2.7,1.4c.7.6,1.3,1.3,1.7,2.2.4.9.6,2,.6,3.2s-.4,2.8-1.3,3.9c-.8,1.1-2,2-3.3,2.6s-2.9.9-4.6.9Z"/>
    <path class="cls-1" d="M221.2,312.7c.5.3.9.7,1,1.3,0,.6,0,1.1-.5,1.6-.3.4-.6.6-1,.7-.4,0-.9,0-1.3-.3-.7-.4-1.4-.7-2.3-.9-.8-.2-1.6-.3-2.5-.3-1.4,0-2.7.2-3.8.7-1.1.5-2.1,1.1-2.9,2-.8.8-1.4,1.9-1.9,3-.4,1.2-.7,2.5-.7,3.9s.2,3,.7,4.2c.5,1.2,1.1,2.2,2,3.1.8.8,1.8,1.5,2.9,1.9,1.1.4,2.4.6,3.7.6s1.7,0,2.5-.3c.8-.2,1.6-.5,2.3-.9.4-.2.9-.3,1.3-.2.4,0,.8.3,1.1.7.4.5.5,1.1.4,1.6,0,.5-.4.9-.9,1.2-.6.3-1.3.7-2.1.9-.7.3-1.5.5-2.3.6-.8.1-1.6.2-2.4.2-1.8,0-3.5-.3-5.1-.9-1.6-.6-3-1.5-4.3-2.6-1.2-1.1-2.2-2.5-2.9-4.2-.7-1.7-1.1-3.6-1.1-5.7s.3-3.7,1-5.3c.7-1.6,1.6-3,2.8-4.2,1.2-1.2,2.6-2.1,4.2-2.8,1.6-.7,3.4-1,5.3-1s2.4.1,3.5.4c1.1.3,2.2.7,3.2,1.3Z"/>
    <path class="cls-1" d="M250.2,324.2c0,1.9-.3,3.7-.9,5.3-.6,1.6-1.5,3.1-2.6,4.3-1.1,1.2-2.5,2.2-4,2.9-1.5.7-3.2,1-5.1,1s-3.5-.3-5.1-1c-1.5-.7-2.9-1.6-4-2.9-1.1-1.2-2-2.6-2.6-4.3-.6-1.6-.9-3.4-.9-5.3s.3-3.7.9-5.3c.6-1.6,1.5-3.1,2.6-4.3,1.1-1.2,2.5-2.2,4-2.9,1.5-.7,3.2-1,5.1-1s3.5.3,5.1,1c1.5.7,2.9,1.6,4,2.9,1.1,1.2,2,2.6,2.6,4.3.6,1.6.9,3.4.9,5.3ZM246.1,324.2c0-1.8-.4-3.5-1.1-5-.7-1.5-1.8-2.6-3-3.5-1.3-.8-2.8-1.3-4.5-1.3s-3.1.4-4.4,1.3c-1.3.8-2.3,2-3,3.5-.7,1.5-1.1,3.1-1.1,5s.4,3.5,1.1,5c.7,1.5,1.7,2.6,3,3.5,1.3.8,2.8,1.3,4.4,1.3s3.2-.4,4.5-1.3c1.3-.8,2.3-2,3-3.5.7-1.5,1.1-3.1,1.1-5Z"/>
    <path class="cls-1" d="M273.8,311.1c.5,0,1,.2,1.3.5.4.3.6.8.6,1.3s0,.5-.2.8l-9.4,22.3c-.2.4-.5.7-.8.9-.3.2-.7.3-1,.3-.3,0-.7-.1-1-.3-.3-.2-.6-.5-.7-.9l-9.4-22.4c0-.1-.1-.3-.1-.4,0-.1,0-.3,0-.4,0-.6.2-1.1.7-1.4.4-.3.9-.5,1.3-.5.8,0,1.4.4,1.8,1.2l8.5,20.3h-1.1l8.1-20.3c.3-.8.9-1.2,1.7-1.2Z"/>
    <path class="cls-1" d="M281.8,311.2h12.9c.5,0,1,.2,1.4.5.4.3.5.8.5,1.3s-.2.9-.5,1.3c-.4.3-.8.5-1.4.5h-11.2l.4-.6v8.4l-.3-.4h9.5c.5,0,1,.2,1.4.5.4.3.5.8.5,1.3s-.2.9-.5,1.3c-.4.3-.8.5-1.4.5h-9.4l.3-.3v8.6l-.3-.3h11.1c.5,0,1,.2,1.4.5.4.4.5.8.5,1.3s-.2,1-.5,1.3-.8.5-1.4.5h-12.9c-.5,0-1-.2-1.4-.5-.4-.4-.5-.8-.5-1.4v-22.3c0-.5.2-1,.5-1.4.4-.4.8-.5,1.4-.5Z"/>
    <path class="cls-1" d="M303.4,337.3c-.6,0-1.1-.2-1.6-.5-.4-.4-.7-.8-.7-1.4v-22.3c0-.5.2-1,.5-1.4.4-.4.8-.5,1.4-.5h10.5c1.3,0,2.6.3,3.7,1,1.1.7,2,1.6,2.7,2.7.7,1.2,1,2.5,1,4s-.2,1.9-.6,2.8c-.4.9-.9,1.7-1.6,2.4-.7.7-1.4,1.2-2.3,1.6l-.4-.7c.8.3,1.4.7,2,1.2.6.5,1,1.1,1.4,1.8.3.7.5,1.4.5,2.3,0,.8.1,1.4.2,1.9,0,.5.2.9.3,1.3.1.3.3.6.7.7.4.2.7.6.8,1.1.1.5,0,.9-.3,1.3-.2.3-.5.5-.9.6-.3,0-.7,0-1,0-.3,0-.6-.2-.9-.3-.4-.2-.8-.6-1.2-1.1-.4-.5-.7-1.1-1-1.9-.2-.8-.4-1.9-.4-3.2s0-1.2-.3-1.6c-.2-.4-.5-.8-.8-1.1-.3-.3-.8-.5-1.2-.6-.5-.1-1-.2-1.6-.2h-7.9l.5-.8v8.9c0,.5-.1,1-.4,1.4-.3.4-.7.5-1.2.5ZM304.6,324h8.9c.6,0,1.1-.2,1.6-.7.5-.4,1-1,1.3-1.8.3-.8.5-1.6.5-2.6s-.4-2.2-1.1-3c-.7-.8-1.5-1.2-2.5-1.2h-8.7l.4-.9v10.9l-.5-.8Z"/>
    <path class="cls-1" d="M342.9,311.1c.5,0,.9.2,1.3.6.4.4.6.8.6,1.3s0,.4,0,.6c0,.2-.2.4-.3.6l-8.5,12.1.6-2.2v11.4c0,.5-.2,1-.6,1.4-.4.4-.8.5-1.3.5s-1-.2-1.3-.5c-.4-.4-.6-.8-.6-1.4v-11.1l.3,1.1-8.2-11c-.2-.3-.3-.5-.4-.8,0-.2-.1-.5-.1-.7,0-.5.2-1,.7-1.3.4-.3.9-.5,1.3-.5s1.1.3,1.5.9l7.5,10.2h-.9c0-.1,7-10.2,7-10.2.4-.6.9-.9,1.6-.9Z"/>
    <path class="cls-1" d="M360.7,311.2h12.9c.5,0,1,.2,1.4.5.4.3.5.8.5,1.3s-.2.9-.5,1.3c-.4.3-.8.5-1.4.5h-11.2l.4-.6v8.4l-.3-.4h9.5c.5,0,1,.2,1.4.5.4.3.5.8.5,1.3s-.2.9-.5,1.3c-.4.3-.8.5-1.4.5h-9.4l.3-.3v8.6l-.3-.3h11.1c.5,0,1,.2,1.4.5.4.4.5.8.5,1.3s-.2,1-.5,1.3-.8.5-1.4.5h-12.9c-.5,0-1-.2-1.4-.5-.4-.4-.5-.8-.5-1.4v-22.3c0-.5.2-1,.5-1.4.4-.4.8-.5,1.4-.5Z"/>
    <path class="cls-1" d="M399.7,311.2c.5,0,.9.2,1.2.5s.5.8.5,1.3v22.5c0,.5-.2,1-.5,1.4-.4.4-.8.5-1.4.5s-.5,0-.8-.1c-.3,0-.5-.2-.6-.4l-15.3-19.9.9-.5v19.2c0,.5-.2.9-.5,1.2s-.7.5-1.2.5-.9-.2-1.3-.5c-.3-.3-.5-.7-.5-1.2v-22.5c0-.5.2-1,.5-1.4.4-.4.8-.5,1.4-.5s.6,0,.9.2c.3.1.5.3.7.5l15,19.5-.6.5v-18.9c0-.5.2-.9.5-1.3s.7-.5,1.3-.5Z"/>
    <path class="cls-1" d="M419.6,337.7c-1.9,0-3.7-.3-5.3-1-1.6-.7-3.1-1.6-4.3-2.9-1.2-1.2-2.2-2.7-2.9-4.3-.7-1.6-1-3.4-1-5.3s.3-3.6,1-5.3c.7-1.6,1.7-3,2.9-4.3,1.2-1.2,2.7-2.2,4.3-2.9,1.6-.7,3.4-1,5.3-1s2.4.1,3.5.4c1.1.3,2.2.7,3.1,1.2.3.2.6.4.7.7.1.3.2.6.2.9,0,.5-.2.9-.5,1.3-.3.4-.8.6-1.3.6s-.3,0-.5,0c-.2,0-.3-.1-.5-.2-.7-.3-1.4-.6-2.2-.8-.8-.2-1.6-.3-2.5-.3-1.8,0-3.4.4-4.9,1.3-1.4.9-2.6,2-3.4,3.5-.8,1.5-1.3,3.1-1.3,4.9s.4,3.4,1.3,4.9c.8,1.5,2,2.6,3.4,3.5,1.4.9,3.1,1.3,4.9,1.3s1.8-.1,2.8-.3c1-.2,1.8-.5,2.5-.8l-.3,1v-7.1l.6.5h-4.9c-.5,0-1-.2-1.4-.5-.4-.3-.5-.8-.5-1.3s.2-1,.5-1.3c.4-.3.8-.5,1.4-.5h6.4c.5,0,1,.2,1.4.5.4.4.5.8.5,1.4v8.3c0,.4,0,.7-.3,1-.2.3-.4.5-.7.7-1.1.7-2.4,1.3-3.8,1.7-1.4.4-2.8.6-4.2.6Z"/>
    <path class="cls-1" d="M437.4,335.4c0,.5-.2,1-.6,1.4-.4.4-.8.5-1.4.5s-1.1-.2-1.4-.5c-.3-.4-.5-.8-.5-1.4v-22.3c0-.5.2-1,.6-1.4.4-.4.9-.5,1.5-.5s.9.2,1.3.5c.4.4.6.8.6,1.4v22.3Z"/>
    <path class="cls-1" d="M463,311.2c.5,0,.9.2,1.2.5s.5.8.5,1.3v22.5c0,.5-.2,1-.5,1.4-.4.4-.8.5-1.4.5s-.5,0-.8-.1c-.3,0-.5-.2-.6-.4l-15.3-19.9.9-.5v19.2c0,.5-.2.9-.5,1.2s-.7.5-1.2.5-.9-.2-1.3-.5c-.3-.3-.5-.7-.5-1.2v-22.5c0-.5.2-1,.5-1.4.4-.4.8-.5,1.4-.5s.6,0,.9.2c.3.1.5.3.7.5l15,19.5-.6.5v-18.9c0-.5.2-.9.5-1.3s.7-.5,1.3-.5Z"/>
    <path class="cls-1" d="M472.7,311.2h12.9c.5,0,1,.2,1.4.5.4.3.5.8.5,1.3s-.2.9-.5,1.3c-.4.3-.8.5-1.4.5h-11.2l.4-.6v8.4l-.3-.4h9.5c.5,0,1,.2,1.4.5.4.3.5.8.5,1.3s-.2.9-.5,1.3c-.4.3-.8.5-1.4.5h-9.4l.3-.3v8.6l-.3-.3h11.1c.5,0,1,.2,1.4.5.4.4.5.8.5,1.3s-.2,1-.5,1.3-.8.5-1.4.5h-12.9c-.5,0-1-.2-1.4-.5-.4-.4-.5-.8-.5-1.4v-22.3c0-.5.2-1,.5-1.4.4-.4.8-.5,1.4-.5Z"/>
  </g>
  <g>
    <path class="cls-1" d="M279.7,137.2v-25.1c-33.6,0-60.7,27.1-60.7,60.7s27.1,60.7,60.7,60.7v-25.1c-15.7,0-28.9-10.2-33.7-24.2h33.7v-20.6h-34.3c4-15.2,17.9-26.4,34.3-26.4h0Z"/>
    <path class="cls-1" d="M280.1,87v25.2c33.5,0,60.7,27.1,60.7,60.7s-27.1,60.7-60.7,60.7v25.2c47.3,0,85.9-38.4,85.9-85.9s-38.4-85.9-85.9-85.9h0Z"/>
    <path class="cls-1" d="M280.5,295.1v-36.1c-47.9,0-87-39-87-87s39-87,87-87v-36.1c-68,0-123,55.1-123,123s55.1,123,123,123h0v.3Z"/>
  </g>
</svg>