<?xml version="1.0" encoding="utf-8"?>
<!-- Generator: Adobe Illustrator 27.3.1, SVG Export Plug-In . SVG Version: 6.00 Build 0)  -->
<svg version="1.1" id="Layer_1" xmlns="http://www.w3.org/2000/svg" xmlns:xlink="http://www.w3.org/1999/xlink" x="0px" y="0px"
	 viewBox="0 0 300 300" style="enable-background:new 0 0 300 300;" xml:space="preserve">
<style type="text/css">
	.st0{fill:#FFFFFF;}
	.st1{fill:#1C9AB7;}
	.st2{fill:#7C2F8E;}
	.st3{fill:#52B4CE;}
	.st4{fill:#B25DC6;}
</style>
<path class="st0" d="M119.5,127.3c7.2-6.7,13.7-13,20.4-19c1.8-1.6,2-2.8,1-5c-9.2-20.8-1.3-41.9,19.1-50.8c6.1-2.7,12.5-4,19.1-4.5
	c2.8-0.2,4.4-2.5,3.4-4.9c-0.4-1-1.5-1.9-2.5-2.4c-13.4-7-27.6-8.9-42.3-5.8c-11.9,2.5-22.9,7.1-31.9,15.6
	c-10.5,10-20.9,20.2-31.4,30.3c-1.8,1.8-2.9,3.7-2.8,6.4c0.1,1.9-0.2,3.9-0.3,5.8c-0.4,6.3-3.6,9.3-10,9.2c-3.3-0.1-6.6-0.4-9.8-0.4
	c-1.3,0-2.8,0.5-3.8,1.4c-5.8,5.1-11.4,10.4-17.1,15.6c-2.2,2.1-2.3,3.4-0.3,5.7c11.6,12.6,23.2,25.1,34.8,37.7
	c2.1,2.2,3,2.2,5.2,0.3c6.5-5.7,13-11.5,19.5-17.1c1.3-1.1,1.6-2,0.9-3.7c-3.1-7.3-0.4-15.1,6.7-20c5.8-4,13.6-3.2,19.2,2.1
	C117.6,124.7,118.5,126,119.5,127.3z M130.6,137.7c0.3,0.4,0.5,0.8,0.8,1.1c7.7,9.3,15.3,18.7,23.1,27.9
	c25.6,30.2,51.2,60.3,76.9,90.4c4.9,5.8,11.2,9,18.8,9.5c10.8,0.8,19.1-5.7,20.6-16.3c1.3-8.8-1.5-16.3-7.6-22.5
	c-5.8-5.9-11.8-11.7-17.7-17.5c-27.2-27.1-54.3-54.2-81.5-81.2c-3.8-3.8-7.8-7.5-11.7-11.3C145,124.5,137.8,131.1,130.6,137.7z"/>
<path class="st1" d="M119.5,127.3c-1.1-1.3-1.9-2.6-3-3.6c-5.6-5.3-13.3-6.1-19.2-2.1c-7.1,4.9-9.8,12.7-6.7,20
	c0.7,1.7,0.4,2.5-0.9,3.7c-6.6,5.6-13,11.4-19.5,17.1c-2.3,2-3.2,2-5.2-0.3c-11.6-12.5-23.2-25.1-34.8-37.7c-2.1-2.2-2-3.6,0.3-5.7
	c5.6-5.3,11.3-10.5,17.1-15.6c0.9-0.8,2.5-1.3,3.8-1.4c3.3-0.1,6.6,0.3,9.8,0.4c6.4,0.1,9.6-2.9,10-9.2c0.1-1.9,0.4-3.9,0.3-5.8
	c-0.1-2.6,1-4.6,2.8-6.4c10.5-10.1,20.9-20.3,31.4-30.3c9-8.6,20-13.1,31.9-15.6c14.8-3.1,28.9-1.1,42.3,5.8c1,0.5,2,1.4,2.5,2.4
	c1,2.4-0.6,4.6-3.4,4.9c-6.6,0.5-13,1.8-19.1,4.5c-20.4,8.9-28.3,30-19.1,50.8c1,2.2,0.8,3.4-1,5
	C133.2,114.3,126.7,120.6,119.5,127.3z"/>
<path class="st2" d="M130.6,137.7c7.2-6.7,14.4-13.3,21.7-20c3.9,3.8,7.8,7.5,11.7,11.3c27.2,27.1,54.3,54.2,81.5,81.2
	c5.9,5.9,11.9,11.6,17.7,17.5c6.2,6.2,8.9,13.8,7.6,22.5c-1.6,10.6-9.9,17.1-20.6,16.3c-7.6-0.6-13.9-3.8-18.8-9.5
	c-25.6-30.1-51.3-60.2-76.9-90.4c-7.8-9.2-15.4-18.6-23.1-27.9C131.1,138.5,130.9,138.2,130.6,137.7z"/>
<polygon class="st3" points="90.8,141.6 51.4,101.8 30.3,124.4 65.1,162.1 "/>
<polygon class="st4" points="131.4,138.8 119.5,127.3 142.5,105 152.3,117.7 "/>
<polygon class="st3" points="74.4,80.7 105.8,114.8 131.1,91 98.6,57.3 "/>
</svg>
