<?xml version="1.0" encoding="UTF-8"?>
<svg id="Layer_1" data-name="Layer 1" xmlns="http://www.w3.org/2000/svg" version="1.1" viewBox="0 0 249.4 249.4">
  <defs>
    <style>
      .cls-1 {
        fill: #43318d;
      }

      .cls-1, .cls-2, .cls-3, .cls-4 {
        stroke-width: 0px;
      }

      .cls-2 {
        fill: #8265a7;
      }

      .cls-3 {
        fill: #d83f87;
      }

      .cls-4 {
        fill: #fff;
      }
    </style>
  </defs>
  <g>
    <circle class="cls-4" cx="124.7" cy="124.7" r="100.2"/>
    <path class="cls-1" d="M124.7,229.4c-57.7,0-104.7-47-104.7-104.7S67,20,124.7,20s104.7,47,104.7,104.7-47,104.7-104.7,104.7ZM124.7,29c-52.8,0-95.7,42.9-95.7,95.7s42.9,95.7,95.7,95.7,95.7-42.9,95.7-95.7S177.4,29,124.7,29Z"/>
  </g>
  <path class="cls-2" d="M133.7,211.5l-.6-25.4c-33.8.8-61.8-26-62.6-59.8-.8-33.8,26-61.8,59.8-62.6l-.6-25.4c-47.8,1.1-85.7,40.8-84.6,88.6,1.1,47.8,40.8,85.7,88.6,84.6h0Z"/>
  <path class="cls-3" d="M192.9,122.8l-17.5.4c.5,23.3-17.9,42.6-41.2,43.2-23.3.5-42.6-17.9-43.2-41.2l-17.5.4c.8,33,28.1,59.1,61.1,58.3,33-.8,59.1-28.1,58.3-61.1h0Z"/>
  <rect class="cls-3" x="130.8" y="105.6" width="62" height="19.2"/>
</svg>