<?xml version="1.0" encoding="UTF-8"?>
<svg id="Layer_1" data-name="Layer 1" xmlns="http://www.w3.org/2000/svg" version="1.1" viewBox="0 0 249.4 249.4">
  <defs>
    <style>
      .cls-1 {
        fill: #fff;
        stroke: #43318d;
        stroke-miterlimit: 10;
        stroke-width: 9px;
      }

      .cls-2 {
        fill: #a4b3b7;
      }

      .cls-2, .cls-3, .cls-4 {
        stroke-width: 0px;
      }

      .cls-3 {
        fill: #8265a7;
      }

      .cls-4 {
        fill: #2a1b3c;
      }
    </style>
  </defs>
  <circle class="cls-1" cx="124.7" cy="124.7" r="99.7"/>
  <path class="cls-3" d="M38.3,114l25.3,3c3.9-33.6,34.4-57.6,67.9-53.7s57.6,34.4,53.7,67.9l25.3,3c5.6-47.5-28.4-90.6-75.9-96.1-47.5-5.6-90.6,28.4-96.1,75.9h0Z"/>
  <path class="cls-2" d="M122,62.7v19.1c25.5-.1,46.2,20.4,46.3,45.8s-20.4,46.1-45.8,46.2v19.1c36-.2,65-29.4,64.9-65.4-.2-36-29.4-65-65.4-64.8Z"/>
  <path class="cls-4" d="M122,81.6c-25.5,0-46.1,20.7-46.1,46.1v83.9l26.6,10.2v-52.3c5.9,2.8,12.6,4.4,19.6,4.4,25.5,0,46.1-20.7,46.1-46.1s-20.7-46.1-46.1-46.1ZM124.7,148.3c-11.4,0-20.6-9.2-20.6-20.6s9.2-20.6,20.6-20.6,20.6,9.2,20.6,20.6-9.2,20.6-20.6,20.6Z"/>
</svg>