<?xml version="1.0" encoding="UTF-8"?>
<svg id="Layer_1" data-name="Layer 1" xmlns="http://www.w3.org/2000/svg" version="1.1" viewBox="0 0 249.4 249.4">
  <defs>
    <style>
      .cls-1 {
        fill: #a4b3b7;
      }

      .cls-1, .cls-2, .cls-3, .cls-4, .cls-5, .cls-6, .cls-7 {
        stroke-width: 0px;
      }

      .cls-2 {
        fill: #f4f4f4;
      }

      .cls-8 {
        stroke: #4874ff;
        stroke-width: 7px;
      }

      .cls-8, .cls-9 {
        fill: none;
        stroke-linecap: round;
        stroke-miterlimit: 10;
      }

      .cls-3 {
        fill: #43318d;
      }

      .cls-9 {
        stroke: #cecece;
        stroke-width: 3px;
      }

      .cls-4 {
        fill: #dd3c57;
      }

      .cls-5 {
        fill: #8265a7;
      }

      .cls-6 {
        fill: #fff;
      }

      .cls-7 {
        fill: #2a1b3c;
      }
    </style>
  </defs>
  <path class="cls-3" d="M109.6,4.6l.2,34.5c45.9-.2,83.2,36.8,83.5,82.7.2,45.9-36.8,83.2-82.7,83.5l.2,34.5c64.9-.3,117.3-53.2,117-118.1-.3-64.9-53.2-117.3-118.1-117Z"/>
  <g>
    <g>
      <rect class="cls-2" x="49.8" y="96.1" width="149.8" height="81.5"/>
      <rect class="cls-1" x="49.8" y="81.6" width="149.8" height="14.5"/>
      <rect class="cls-7" x="49.8" y="66.2" width="149.8" height="15.4"/>
      <rect class="cls-6" x="53.6" y="70.6" width="112.8" height="7.1" rx="3.4" ry="3.4"/>
      <g>
        <rect class="cls-6" x="53.6" y="103.3" width="141" height="18.9"/>
        <line class="cls-8" x1="69.1" y1="109" x2="139.1" y2="109"/>
        <line class="cls-9" x1="58.8" y1="116.7" x2="149.7" y2="116.7"/>
        <circle class="cls-5" cx="60" cy="109.2" r="2.7"/>
      </g>
      <g>
        <rect class="cls-6" x="54.2" y="126.5" width="141" height="18.9"/>
        <line class="cls-8" x1="69.7" y1="132.3" x2="139.6" y2="132.3"/>
        <line class="cls-9" x1="59.4" y1="139.9" x2="166.9" y2="139.9"/>
        <circle class="cls-5" cx="60.5" cy="132.4" r="2.7"/>
      </g>
      <g>
        <rect class="cls-6" x="54.2" y="150.7" width="141" height="18.9"/>
        <line class="cls-8" x1="69.7" y1="156.5" x2="124.1" y2="156.5"/>
        <line class="cls-9" x1="59.4" y1="164.1" x2="104.1" y2="164.1"/>
        <circle class="cls-5" cx="60.5" cy="156.6" r="2.7"/>
      </g>
      <circle class="cls-5" cx="175.6" cy="73.8" r="3.8"/>
    </g>
    <circle class="cls-4" cx="187.3" cy="73.9" r="3.6"/>
  </g>
  <path class="cls-5" d="M109.1,205.7v-24.6c-32.7,0-59.2-26.5-59.2-59.2,0-32.7,26.5-59.2,59.2-59.2v-24.6c-46.3,0-83.8,37.5-83.8,83.8s37.5,83.8,83.8,83.8h0Z"/>
</svg>