<?xml version="1.0" encoding="utf-8"?>
<!-- Generator: Adobe Illustrator 25.0.0, SVG Export Plug-In . SVG Version: 6.00 Build 0)  -->
<svg version="1.1" id="Layer_1" xmlns="http://www.w3.org/2000/svg" xmlns:xlink="http://www.w3.org/1999/xlink" x="0px" y="0px"
	 viewBox="0 0 137.6 85" style="enable-background:new 0 0 137.6 85;" xml:space="preserve">
<style type="text/css">
	.st0{fill:#6C276F;}
	.st1{fill:#B5E7F5;}
	.st2{fill:#81DCEC;}
	.st3{fill:#743E7D;}
	.st4{fill:#CEECF3;}
	.st5{fill:#307A82;}
	.st6{fill:#FFC950;}
</style>
<g>
	<g id="_x33_Dnsvt.tif">
		<g>
			<path class="st0" d="M43.6,62.7c-3.2-4.4-6.5-8.7-7.8-14.2c-1.2-4.9-0.6-9.4,1.9-13.8c6-10.4,15-15.8,27-16c2,0,2.9-0.5,2.7-2.6
				c-0.1-1,0-2,0.2-3c1-6,3.1-7,8.1-3.7c1.5,1,1.7,0.3,2.4-0.8c2.6-4.3,5.4-4.9,9.6-1.8c8.3,6.2,11.7,15.2,13.1,24.9
				c1.3,8.4,0,16.6-4,24.2c-2-1.8-1-5-3.3-6.7l0,0.1c-0.3-4-2.3-7.6-3.4-11.4c-0.5-1.6-1.3-1.1-2.3-0.7c-3.8,1.5-7.8,2.6-11.8,3.4
				c-6.4,1.3-12.8,0.8-19.2-0.3c-1.9-0.3-3.7-0.6-3,2.4c0.5,2.3,0.7,4.9-0.3,6.9c-2.4,4.8-2.7,9.8-3.1,15c-0.2,2.5-1.5,3.4-3.6,1.4
				C45.8,65,44.7,63.9,43.6,62.7z"/>
			<path class="st1" d="M93.5,49.4c2.2,1.7,1.3,4.9,3.3,6.7c0,4.5,0.4,8,0.1,13.2c0,0.2,0,0.5,0,0.7c-0.7,1.5-0.6,1.8-2.6,2.6
				c-6,0.5-10.8,1.2-16.4,1.7c-5.6,0.5-11.2,0.9-16.8,1.6c-3.6,0.4-6.9,1-11,1c-1.9-0.6-2-2.5-2.8-4c0.3-2.3-0.3-4.4-0.6-6.7
				c2.2,2.1,3.4,1.2,3.6-1.4c0.4-5.1,0.7-10.2,3.1-15c1-2,0.8-4.6,0.3-6.9c-0.6-3.1,1.1-2.8,3-2.4c6.4,1.1,12.8,1.6,19.2,0.3
				c4-0.8,8-1.9,11.8-3.4c1-0.4,1.8-0.9,2.3,0.7C91.3,41.9,93.3,45.4,93.5,49.4c-1.3-2-2.7-3.1-5.5-2.8c-2.7,0.3-5.5,0.5-8.2,0.8
				c-1.8,0.2-3,1.2-3.6,2.9c-0.9,2.7-2.1,2.4-3.4,0.3c-0.9-1.4-2.2-2.1-4-1.9c-3.7,0.5-7.5,0.8-11.2,1.4c-2.4,0.4-3.4,2.3-3.1,4.7
				c0.3,2.4,0.9,5.2,3.8,4.9c4.9-0.4,10-0.3,14.6-2.4c0.5,1.2-0.5,2.1-0.6,3.1c0,1.1-1.3,2.4,0.5,3.1c2,0.8,3.8,0.7,5.6-0.6
				c1.5-1.1,0.3-2.1,0-3.2c-0.4-1.1-1.6-1.8-1.5-3.2c4.3,0.9,8.4-0.1,12.6-0.6c2.6-0.3,4-1.8,3.9-4.5C93.3,50.9,92.9,50.1,93.5,49.4
				z M61.2,46.1c0.9-0.1,2.3,0.1,2.4-1.5c0.1-1.2-0.9-1.3-1.8-1.2c-1.1,0.1-2.4,0.1-2.5,1.5C59.2,46.1,60.2,46.1,61.2,46.1z
				 M84.2,40.9c-0.9,0.2-2,0.1-2,1.5c0,1.1,0.9,1.1,1.6,1.1c0.9,0,1.9,0,2.1-1.1C86.1,41.4,85.3,41,84.2,40.9z"/>
			<path class="st2" d="M46.8,66.2c0.3,2.2,0.9,4.4,0.6,6.7c-4.8-0.1-6.7-5-3.9-10.1C44.7,63.9,45.8,65,46.8,66.2z"/>
			<path class="st3" d="M93.5,49.4c-0.6,0.7-0.2,1.5-0.2,2.2c0.1,2.7-1.3,4.1-3.9,4.5c-4.2,0.5-8.4,1.5-12.6,0.6l0,0
				c0.4-1.4-0.1-2.4-1.6-2.4c-1.4,0-2.2,0.8-1.8,2.4l0,0c-0.6-0.1-0.7,0.3-0.7,0.7l0,0c-4.6,2.1-9.7,2-14.6,2.4
				c-2.9,0.2-3.5-2.5-3.8-4.9c-0.3-2.5,0.7-4.3,3.1-4.7c3.7-0.7,7.5-1,11.2-1.4c1.7-0.2,3,0.5,4,1.9c1.4,2.1,2.5,2.3,3.4-0.3
				c0.6-1.8,1.8-2.7,3.6-2.9c2.7-0.3,5.5-0.5,8.2-0.8C90.8,46.3,92.3,47.4,93.5,49.4C93.6,49.5,93.5,49.4,93.5,49.4z M72.1,54
				c-0.1-2.6-1.1-4.2-3.9-3.8c-3.3,0.4-6.6,0.8-9.9,1.3c-2.3,0.3-2.8,1.8-2.5,3.9c0.3,2.1,1.2,3.6,3.7,3.3c3.3-0.4,6.6-0.8,9.9-1.3
				C71.3,57,72.3,55.9,72.1,54z M77.5,51.7c0.1,3.4,1.4,4.5,4.6,4.1c2.4-0.3,4.8-0.7,7.2-1c2.3-0.3,2.9-1.7,2.6-3.8
				c-0.3-2.1-1.1-3.7-3.5-3.4c-2.8,0.3-5.6,0.8-8.5,1.2C78,49,77.2,50,77.5,51.7z"/>
			<path class="st1" d="M76.9,56.7c-0.1,1.4,1.1,2,1.5,3.2c0.3,1.1,1.5,2.1,0,3.2c-1.8,1.3-3.6,1.4-5.6,0.6c-1.8-0.7-0.6-2-0.5-3.1
				c0-1.1,1-2,0.6-3.1c0,0,0,0,0,0c0.6,0.1,0.7-0.2,0.7-0.7l0,0C74.6,56.7,75.7,56.7,76.9,56.7L76.9,56.7z"/>
			<path class="st0" d="M61.2,46.1c-1,0-2,0-1.9-1.2c0.1-1.5,1.4-1.4,2.5-1.5c0.9-0.1,1.9,0,1.8,1.2C63.4,46.2,62.1,46,61.2,46.1z"
				/>
			<path class="st3" d="M84.2,40.9c1,0.1,1.8,0.5,1.7,1.6c-0.2,1.1-1.2,1.1-2.1,1.1c-0.8,0-1.6,0-1.6-1.1
				C82.2,41,83.3,41.1,84.2,40.9z"/>
			<path class="st4" d="M72.1,54c0.2,1.9-0.8,3.1-2.8,3.3c-3.3,0.5-6.6,0.8-9.9,1.3c-2.5,0.3-3.3-1.2-3.7-3.3
				c-0.3-2.1,0.2-3.5,2.5-3.9c3.3-0.4,6.6-0.9,9.9-1.3C71.1,49.8,72,51.4,72.1,54z M64.9,53.9c0-0.7-0.4-1.3-1.3-1.4
				c-0.9,0-1.5,0.3-1.5,1.3c0,0.9,0.4,1.5,1.3,1.6C64.3,55.5,64.8,55,64.9,53.9z"/>
			<path class="st4" d="M77.5,51.7c-0.3-1.7,0.6-2.7,2.4-3c2.8-0.4,5.6-0.9,8.5-1.2c2.5-0.3,3.3,1.4,3.5,3.4
				c0.3,2.1-0.4,3.5-2.6,3.8c-2.4,0.3-4.8,0.6-7.2,1C78.8,56.2,77.6,55.1,77.5,51.7z M86.2,51.8c-0.1-0.9-0.7-1.4-1.5-1.4
				c-0.9,0-1.5,0.6-1.5,1.4c0,1,0.6,1.6,1.7,1.5C85.7,53.3,86.2,52.7,86.2,51.8z"/>
			<path class="st1" d="M76.9,56.7c-1.1,0-2.3,0-3.4,0c-0.4-1.6,0.4-2.4,1.8-2.4C76.7,54.4,77.2,55.3,76.9,56.7z"/>
			<path class="st1" d="M73.5,56.7c0,0.5-0.1,0.8-0.7,0.7C72.8,57,72.9,56.6,73.5,56.7z"/>
			<path class="st4" d="M64.9,53.9c-0.1,1.1-0.6,1.6-1.5,1.5c-0.9-0.1-1.3-0.7-1.3-1.6c0-1,0.7-1.3,1.5-1.3
				C64.6,52.6,64.9,53.2,64.9,53.9z"/>
			<path class="st4" d="M86.2,51.8c0,0.9-0.5,1.5-1.3,1.6c-1.1,0.1-1.7-0.5-1.7-1.5c0-0.9,0.6-1.4,1.5-1.4
				C85.5,50.4,86.1,50.9,86.2,51.8z"/>
		</g>
	</g>
</g>
<g>
	<path class="st0" d="M87.6,52c-0.1-0.1-2-1.8-6,1l-0.6-0.8c4.7-3.4,7.1-1,7.3-0.9L87.6,52z"/>
</g>
<g>
	<path class="st0" d="M66.9,53.9l-0.4,0.9c-4.2-1.9-5.6,0.6-5.7,0.7l-0.9-0.5C60,55,61.8,51.6,66.9,53.9z"/>
</g>
<path class="st5" d="M81.2,59.1l-14.4,1.3c0,0,2.5,8.4,8.4,8.1C81.2,68.3,81.2,59.1,81.2,59.1z"/>
<path class="st6" d="M31.3,28.7l-5.5,0.1c-0.3,0-0.7,0.2-0.8,0.5l-3,4.6c-0.5,0.7-1.6,0.6-1.9-0.2l-1.8-5.2
	c-0.1-0.3-0.4-0.6-0.7-0.7l-5.3-1.4c-0.8-0.2-1-1.3-0.4-1.8l4.4-3.4c0.3-0.2,0.4-0.5,0.4-0.9l-0.3-5.5c0-0.9,0.9-1.4,1.6-0.9
	l4.5,3.1c0.3,0.2,0.6,0.2,1,0.1l5.2-2c0.8-0.3,1.6,0.4,1.4,1.3l-1.6,5.3c-0.1,0.3,0,0.7,0.2,1l3.5,4.3
	C32.6,27.7,32.1,28.7,31.3,28.7z"/>
<path class="st6" d="M119.1,41.1l-2.3-2.9c-0.1-0.2-0.4-0.3-0.6-0.3l-3.7,0.2c-0.6,0-0.9-0.6-0.6-1.1l2.1-3.1
	c0.1-0.2,0.2-0.4,0.1-0.6l-1.3-3.4c-0.2-0.5,0.3-1.1,0.8-0.9l3.5,1c0.2,0.1,0.5,0,0.6-0.1l2.9-2.3c0.4-0.4,1.1-0.1,1.1,0.5l0.1,3.7
	c0,0.2,0.1,0.4,0.3,0.6l3.1,2c0.5,0.3,0.4,1-0.1,1.2l-3.5,1.3c-0.2,0.1-0.4,0.3-0.4,0.5l-0.9,3.6C120.2,41.4,119.5,41.6,119.1,41.1z
	"/>
</svg>
