<?xml version="1.0" encoding="UTF-8"?>
<svg id="Layer_1" data-name="Layer 1" xmlns="http://www.w3.org/2000/svg" xmlns:xlink="http://www.w3.org/1999/xlink" version="1.1" viewBox="0 0 400 369">
  <defs>
    <style>
      .cls-1 {
        fill: url(#linear-gradient);
      }

      .cls-1, .cls-2 {
        stroke-width: 0px;
      }

      .cls-2 {
        fill: #fff;
      }
    </style>
    <linearGradient id="linear-gradient" x1="31.5" y1="184.5" x2="361.9" y2="184.5" gradientUnits="userSpaceOnUse">
      <stop offset="0" stop-color="#0b596b"/>
      <stop offset="1" stop-color="#8b43b2"/>
    </linearGradient>
  </defs>
  <circle class="cls-1" cx="196.7" cy="184.5" r="165.2"/>
  <g>
    <path class="cls-2" d="M109.4,145.5c.8.6,1.3,1.3,1.5,2.2.1.9-.1,1.7-.7,2.6-.5.7-1.1,1.1-1.9,1.1-.7,0-1.5-.1-2.3-.5-2.6-1.8-5.5-3.1-8.6-4.1-3.1-1-6.4-1.5-9.8-1.5s-8.3.8-12,2.3c-3.7,1.6-6.9,3.7-9.7,6.6-2.8,2.8-4.9,6.2-6.4,10.1-1.5,3.9-2.3,8.2-2.3,12.8s.8,9.2,2.3,13.1c1.6,3.9,3.7,7.3,6.5,10.1,2.8,2.8,6,5,9.7,6.5,3.7,1.5,7.6,2.2,11.9,2.2s6.7-.5,9.8-1.5c3.1-1,5.9-2.3,8.6-4,.7-.4,1.4-.6,2.2-.5.8.1,1.4.5,2,1.2.6.8.8,1.6.6,2.5-.1.9-.6,1.6-1.4,2-1.8,1.1-3.8,2.2-6.2,3.2-2.4,1-4.9,1.8-7.6,2.4-2.7.6-5.4.8-8,.8-5.1,0-9.9-.9-14.3-2.8-4.5-1.8-8.4-4.4-11.9-7.8-3.4-3.4-6.1-7.4-8.1-12-2-4.7-3-9.8-3-15.6s1-10.5,2.9-15.1c1.9-4.6,4.6-8.6,8-12,3.4-3.4,7.3-6.1,11.9-8,4.5-1.9,9.4-2.9,14.5-2.9s7.9.6,11.6,1.7c3.7,1.1,7.1,2.7,10.2,4.8Z"/>
    <path class="cls-2" d="M128,214.1c-1.1,0-1.9-.3-2.6-1-.7-.6-1-1.4-1-2.2v-67.8c0-.8.3-1.6.9-2.2.6-.6,1.4-1,2.3-1h28.6c4,0,7.6.9,10.8,2.6,3.2,1.7,5.7,4.1,7.5,7.1,1.8,3,2.7,6.5,2.7,10.4s-.6,5.9-1.7,8.5c-1.1,2.6-2.7,4.8-4.8,6.6-2,1.8-4.3,3.2-6.9,4.1l-3.7-1.3c2.6.3,5,1.1,7.3,2.6,2.3,1.4,4.1,3.4,5.5,5.9,1.4,2.5,2.1,5.5,2.2,8.9,0,3,.2,5.4.5,7.1.2,1.7.6,3,1.1,3.8.5.8,1.1,1.5,1.9,2,.7.4,1.2,1,1.4,1.8.2.8.2,1.5-.3,2.2-.3.6-.7,1-1.3,1.2-.6.2-1.1.4-1.7.4s-1.1-.1-1.6-.4c-1.1-.6-2.1-1.4-3.1-2.6-1-1.2-1.8-3-2.5-5.3-.7-2.3-1-5.6-1-9.7s-.4-5-1.3-6.7c-.9-1.7-2-3.1-3.4-4.1-1.4-1-2.9-1.7-4.6-2-1.7-.4-3.2-.5-4.7-.5h-24.7l1.2-1.6v30c0,.8-.3,1.6-.8,2.2-.6.6-1.3,1-2.2,1ZM130,176.6h26.6c2.4-.2,4.6-1,6.7-2.3,2.1-1.3,3.8-3.2,5.1-5.7,1.3-2.4,2-5.2,2-8.4s-1.4-7.4-4.1-10c-2.7-2.6-6.3-4-10.6-4h-25.3l.7-1.4v33.2l-1.2-1.5Z"/>
    <path class="cls-2" d="M198.6,140h38.7c.9,0,1.7.3,2.3.9.6.6,1,1.4,1,2.3s-.3,1.7-1,2.2c-.6.6-1.4.8-2.3.8h-36.3l1.1-1.8v29.7l-1.2-1.4h31.7c.9,0,1.7.3,2.3,1,.6.6,1,1.4,1,2.2s-.3,1.7-1,2.2c-.6.6-1.4.8-2.3.8h-31.4l1-1.1v30.5l-.5-.6h35.8c.9,0,1.7.3,2.3,1,.6.6,1,1.4,1,2.2s-.3,1.7-1,2.2c-.6.6-1.4.8-2.3.8h-38.7c-.9,0-1.7-.3-2.3-1-.6-.6-.9-1.4-.9-2.2v-67.8c0-.8.3-1.6.9-2.2.6-.6,1.4-1,2.3-1Z"/>
    <path class="cls-2" d="M262.2,210.8c0,.9-.4,1.7-1.1,2.3-.7.6-1.4,1-2.3,1s-1.9-.3-2.4-1c-.6-.6-.8-1.4-.8-2.3v-67.5c0-.9.3-1.7,1-2.3s1.4-1,2.4-1,1.6.3,2.3,1c.7.6,1,1.4,1,2.3v67.5Z"/>
    <path class="cls-2" d="M312.1,140c5.2,0,9.8,1,13.7,3,3.9,2,7.1,4.7,9.7,8.2,2.6,3.5,4.5,7.5,5.7,11.9s1.9,9.1,1.9,14-1.1,13-3.3,18.6-5.6,10.1-10.2,13.4c-4.6,3.4-10.4,5-17.4,5h-27c-.9,0-1.7-.3-2.3-1-.6-.6-.9-1.4-.9-2.2v-67.8c0-.8.3-1.6.9-2.2.6-.6,1.4-1,2.3-1h27ZM311.1,207.9c5.9,0,10.7-1.4,14.5-4.1,3.7-2.8,6.4-6.5,8.2-11.2,1.7-4.7,2.6-9.9,2.6-15.5s-.5-7.9-1.4-11.6c-1-3.7-2.4-7-4.4-9.9s-4.6-5.1-7.8-6.8c-3.2-1.7-7-2.5-11.5-2.5h-23.2l.7-.8v63.5l-.6-1.1h23.1Z"/>
  </g>
</svg>