<?xml version="1.0" encoding="utf-8"?>
<!-- Generator: Adobe Illustrator 27.9.3, SVG Export Plug-In . SVG Version: 9.03 Build 53313)  -->
<svg version="1.1" id="Layer_1" xmlns="http://www.w3.org/2000/svg" xmlns:xlink="http://www.w3.org/1999/xlink" x="0px" y="0px"
	 viewBox="0 0 400 369" style="enable-background:new 0 0 400 369;" xml:space="preserve">
<style type="text/css">
	.st0{fill:#FFFFFF;}
	.st1{fill:#8C44B2;}
	.st2{fill:#0C596B;}
</style>
<circle class="st0" cx="196.7" cy="184.5" r="173.4"/>
<circle class="st1" cx="196.7" cy="184.5" r="165.2"/>
<path class="st2" d="M31.5,186.4c0,21.4,4.1,41.9,11.5,60.7h307.5c7.4-18.8,11.5-39.2,11.5-60.7c0-21.4-4.1-41.9-11.5-60.7H43
	C35.6,144.5,31.5,165,31.5,186.4z"/>
<g>
	<path class="st0" d="M87.5,191.9l17.4,6.7c-1.2,6.2-3,11.4-5.5,15.6c-2.5,4.2-5.6,7.3-9.4,9.5c-3.7,2.1-8.5,3.2-14.2,3.2
		c-7,0-12.7-1.3-17.1-3.9c-4.4-2.6-8.3-7.2-11.5-13.7s-4.8-14.9-4.8-25.1c0-13.6,2.8-24,8.5-31.3s13.7-10.9,24-10.9
		c8.1,0,14.5,2.1,19.1,6.3s8.1,10.6,10.3,19.3l-17.6,5c-0.6-2.5-1.3-4.3-1.9-5.5c-1.1-1.9-2.5-3.4-4.1-4.5c-1.6-1-3.4-1.6-5.4-1.6
		c-4.5,0-8,2.3-10.4,6.9c-1.8,3.4-2.7,8.8-2.7,16.2c0,9.1,1.1,15.3,3.2,18.7c2.2,3.4,5.2,5.1,9.1,5.1c3.8,0,6.7-1.4,8.6-4.1
		C85.2,201.1,86.6,197.1,87.5,191.9z"/>
	<path class="st0" d="M114.9,225.5v-82.1H148c6.1,0,10.8,0.7,14.1,2s5.9,3.8,7.9,7.5c2,3.6,3,8.1,3,13.3c0,4.6-0.8,8.5-2.3,11.8
		s-3.6,6-6.3,8c-1.7,1.3-4,2.4-7,3.2c2.4,1,4.1,2,5.2,3c0.7,0.7,1.8,2.1,3.2,4.3s2.3,3.9,2.8,5.1l9.6,23.8h-22.5l-10.6-25.1
		c-1.3-3.2-2.5-5.4-3.6-6.3c-1.4-1.3-3.1-1.9-4.9-1.9h-1.8v33.3L114.9,225.5L114.9,225.5z M134.8,176.7h8.4c0.9,0,2.7-0.4,5.3-1.1
		c1.3-0.3,2.4-1.2,3.2-2.6c0.8-1.4,1.3-3,1.3-4.8c0-2.6-0.7-4.7-2-6.1c-1.3-1.4-3.8-2.1-7.4-2.1h-8.7v16.7H134.8z"/>
	<path class="st0" d="M184.5,143.4h53.3V161h-33.4v13h30.9v16.7h-30.9v16.2h34.3v18.6h-54.2V143.4z"/>
	<path class="st0" d="M250.2,143.4h19.9v82.1h-19.9L250.2,143.4L250.2,143.4z"/>
	<path class="st0" d="M284.7,143.4h29.5c5.8,0,10.5,1,14.1,3s6.5,4.9,8.9,8.7c2.3,3.8,4,8.2,5.1,13.2s1.6,10.3,1.6,15.9
		c0,8.8-0.8,15.6-2.3,20.4c-1.6,4.8-3.7,8.9-6.5,12.1c-2.8,3.3-5.8,5.4-9,6.5c-4.4,1.5-8.3,2.2-11.8,2.2h-29.5v-82H284.7z
		 M304.5,162v44.8h4.9c4.2,0,7.1-0.6,8.9-1.8s3.1-3.2,4.1-6.2c1-2.9,1.5-7.7,1.5-14.2c0-8.7-1.1-14.6-3.3-17.9
		c-2.2-3.2-5.9-4.8-11.1-4.8L304.5,162L304.5,162z"/>
</g>
</svg>
