<?xml version="1.0" encoding="utf-8"?>
<!-- Generator: Adobe Illustrator 23.0.1, SVG Export Plug-In . SVG Version: 6.00 Build 0)  -->
<svg version="1.1" id="Layer_1" xmlns="http://www.w3.org/2000/svg" xmlns:xlink="http://www.w3.org/1999/xlink" x="0px" y="0px"
	 viewBox="0 0 1280 595" style="enable-background:new 0 0 1280 595;" xml:space="preserve">
<style type="text/css">
	.st0{fill:#63296B;}
	.st1{fill:url(#SVGID_1_);}
	.st2{opacity:0.77;fill:#63296B;enable-background:new    ;}
	.st3{opacity:0.77;fill:#4A7D8F;enable-background:new    ;}
	.st4{fill:url(#SVGID_2_);}
	.st5{fill:url(#SVGID_3_);}
	.st6{opacity:0.77;fill:#5C3069;enable-background:new    ;}
</style>
<polygon class="st0" points="0,0 0,542 108.9,0 "/>
<linearGradient id="SVGID_1_" gradientUnits="userSpaceOnUse" x1="985" y1="356.5" x2="1280" y2="356.5" gradientTransform="matrix(1 0 0 -1 0 596)">
	<stop  offset="1.623244e-05" style="stop-color:#4A7D8F"/>
	<stop  offset="0.9996" style="stop-color:#63296B"/>
</linearGradient>
<polygon class="st1" points="1014.02,0 1280,471 1280,479 985,0 "/>
<polygon class="st2" points="1280,28.67 1121.1,595 999.51,595 1280,0 "/>
<polygon class="st3" points="0,138.25 0,595 254.1,595 "/>
<polygon class="st3" points="279.51,595 0,112.65 0,104.46 310,595 "/>
<linearGradient id="SVGID_2_" gradientUnits="userSpaceOnUse" x1="147.377" y1="15" x2="147.377" y2="596" gradientTransform="matrix(1 0 0 -1 0 596)">
	<stop  offset="0" style="stop-color:#4A7D8F"/>
	<stop  offset="1" style="stop-color:#63296B"/>
</linearGradient>
<polygon class="st4" points="0,553 166.98,0 294.75,0 0,581 "/>
<linearGradient id="SVGID_3_" gradientUnits="userSpaceOnUse" x1="1038.1968" y1="373" x2="1280" y2="373" gradientTransform="matrix(1 0 0 -1 0 596)">
	<stop  offset="4.087768e-04" style="stop-color:#4A7D8F"/>
	<stop  offset="1" style="stop-color:#63296B"/>
</linearGradient>
<polygon class="st5" points="1280,446 1280,0 1038.2,0 "/>
<polygon class="st6" points="1280,595 1280,39.94 1176.37,595 "/>
</svg>
