<?xml version="1.0" encoding="utf-8"?>
<!-- Generator: Adobe Illustrator 23.0.1, SVG Export Plug-In . SVG Version: 6.00 Build 0)  -->
<svg version="1.1" id="Layer_1" xmlns="http://www.w3.org/2000/svg" xmlns:xlink="http://www.w3.org/1999/xlink" x="0px" y="0px"
	 viewBox="0 0 400 322" style="enable-background:new 0 0 400 322;" xml:space="preserve">
<style type="text/css">
	.st0{fill:#B3B3B3;}
	.st1{fill:#006476;}
	.st2{fill:#5C3069;}
</style>
<g>
	<g>
		<g>
			<path class="st0" d="M79.38,298.96c-7.42,0-14.9-0.6-22.25-1.78c-2.91-0.47-5.05-2.98-5.05-5.92s2.14-5.46,5.05-5.92
				c29.45-4.74,56.44-19.88,75.99-42.62c19.76-22.99,30.65-52.37,30.65-82.73c0-30.36-10.88-59.74-30.65-82.73
				c-19.56-22.75-46.54-37.88-75.99-42.62c-2.91-0.47-5.05-2.98-5.05-5.92c0-2.95,2.14-5.46,5.05-5.92C64.47,21.6,71.95,21,79.38,21
				c76.63,0,138.98,62.35,138.98,138.98C218.35,236.61,156.01,298.96,79.38,298.96z"/>
			<path class="st0" d="M79.38,298.96c-7.42,0-14.9-0.6-22.25-1.78c-2.91-0.47-5.05-2.98-5.05-5.92s2.14-5.46,5.05-5.92
				c29.45-4.74,56.44-19.88,75.99-42.62c19.76-22.99,30.65-52.37,30.65-82.73c0-30.36-10.88-59.74-30.65-82.73
				c-19.56-22.75-46.54-37.88-75.99-42.62c-2.91-0.47-5.05-2.98-5.05-5.92c0-2.95,2.14-5.46,5.05-5.92C64.47,21.6,71.95,21,79.38,21
				c76.63,0,138.98,62.35,138.98,138.98C218.35,236.61,156.01,298.96,79.38,298.96z M101.61,35.94
				c15.65,8.2,29.76,19.34,41.37,32.83c21.79,25.35,33.79,57.73,33.79,91.2c0,33.47-12,65.86-33.79,91.2
				c-11.6,13.49-25.72,24.63-41.37,32.83c25.19-4.46,48.38-16.49,66.84-34.95c23.79-23.79,36.9-55.43,36.9-89.08
				s-13.1-65.29-36.9-89.08C149.99,52.43,126.8,40.41,101.61,35.94z"/>
		</g>
		<g>
			<path class="st0" d="M40.25,290.73c-6.98,0-14.02-0.56-20.93-1.67c-2.91-0.47-5.05-2.98-5.05-5.92s2.14-5.46,5.05-5.92
				c27.54-4.43,52.78-18.59,71.07-39.86c18.48-21.5,28.66-48.98,28.66-77.37c0-28.39-10.18-55.87-28.66-77.37
				C72.1,61.34,46.86,47.18,19.32,42.75c-2.91-0.47-5.05-2.98-5.05-5.92s2.14-5.46,5.05-5.92c6.91-1.11,13.95-1.68,20.93-1.68
				c72.1,0,130.75,58.66,130.75,130.75S112.34,290.73,40.25,290.73z"/>
			<path class="st0" d="M40.25,290.73c-6.98,0-14.02-0.56-20.93-1.67c-2.91-0.47-5.05-2.98-5.05-5.92s2.14-5.46,5.05-5.92
				c27.54-4.43,52.78-18.59,71.07-39.86c18.48-21.5,28.66-48.98,28.66-77.37c0-28.39-10.18-55.87-28.66-77.37
				C72.1,61.34,46.86,47.18,19.32,42.75c-2.91-0.47-5.05-2.98-5.05-5.92s2.14-5.46,5.05-5.92c6.91-1.11,13.95-1.68,20.93-1.68
				c72.1,0,130.75,58.66,130.75,130.75S112.34,290.73,40.25,290.73z M63.78,44.56c13.74,7.58,26.16,17.59,36.46,29.57
				c20.51,23.86,31.81,54.34,31.81,85.84c0,31.5-11.3,61.99-31.81,85.84c-10.3,11.98-22.72,22-36.46,29.57
				c22.48-4.54,43.14-15.57,59.73-32.15C145.75,221,158,191.43,158,159.98c0-31.45-12.25-61.02-34.49-83.26
				C106.93,60.13,86.26,49.1,63.78,44.56z"/>
		</g>
		<path class="st0" d="M352.71,298.96c-76.63,0-138.98-62.35-138.98-138.98C213.73,83.35,276.07,21,352.71,21
			c7.42,0,14.91,0.6,22.25,1.78c2.91,0.47,5.05,2.98,5.05,5.92c0,2.95-2.14,5.46-5.05,5.92c-23.34,3.76-45.14,13.99-63.04,29.59
			c-16.05,13.99-28.28,31.66-35.64,51.43C295.93,121.04,310,138.98,310,160c0,21.02-14.06,38.95-33.72,44.34
			c7.37,19.76,19.6,37.43,35.64,51.41c17.9,15.6,39.7,25.83,63.03,29.58c2.91,0.47,5.05,2.98,5.05,5.92s-2.14,5.46-5.05,5.92
			C367.61,298.36,360.13,298.96,352.71,298.96z"/>
	</g>
	<g>
		<g>
			<path class="st1" d="M79.38,27c-7.25,0-14.36,0.59-21.29,1.7C121.4,38.9,169.77,93.79,169.77,159.98S121.4,281.06,58.08,291.26
				c6.93,1.12,14.04,1.7,21.29,1.7c73.44,0,132.98-59.54,132.98-132.98S152.82,27,79.38,27z"/>
		</g>
		<g>
			<path class="st2" d="M40.25,35.23c-6.8,0-13.47,0.55-19.97,1.6c59.4,9.56,104.78,61.05,104.78,123.15S79.67,273.57,20.27,283.13
				c6.5,1.05,13.17,1.6,19.97,1.6c68.9,0,124.75-55.85,124.75-124.75S109.15,35.23,40.25,35.23z"/>
		</g>
		<path class="st2" d="M268.37,199.76C288.41,197.58,304,180.61,304,160c0-20.62-15.6-37.59-35.64-39.76
			C283.2,72.78,323.92,36.76,374,28.7c-6.93-1.12-14.04-1.7-21.29-1.7c-73.44,0-132.98,59.54-132.98,132.98
			s59.54,132.98,132.98,132.98c7.25,0,14.36-0.59,21.29-1.7C323.94,283.2,283.23,247.19,268.37,199.76z"/>
	</g>
</g>
</svg>
