<?xml version="1.0" encoding="UTF-8"?>
<svg id="Layer_1" data-name="Layer 1" xmlns="http://www.w3.org/2000/svg" xmlns:xlink="http://www.w3.org/1999/xlink" version="1.1" viewBox="0 0 400 369">
  <defs>
    <style>
      .cls-1 {
        fill: url(#linear-gradient);
      }

      .cls-1, .cls-2 {
        stroke-width: 0px;
      }

      .cls-2 {
        fill: #fff;
      }
    </style>
    <linearGradient id="linear-gradient" x1="31.7" y1="186.4" x2="368.3" y2="186.4" gradientUnits="userSpaceOnUse">
      <stop offset="0" stop-color="#369ac1"/>
      <stop offset="1" stop-color="#103b56"/>
    </linearGradient>
  </defs>
  <circle class="cls-1" cx="200" cy="186.4" r="168.3"/>
  <g>
    <path class="cls-2" d="M135.9,105.4c.7,0,1.2.2,1.6.6.4.4.6.9.6,1.5v49.4c0,.8-.2,1.4-.7,1.8-.5.4-1,.7-1.7.7s-.7,0-1-.2c-.3-.1-.6-.3-.8-.6l-34.4-46.3,1.3-.8v45.8c0,.6-.2,1.1-.6,1.5s-.9.6-1.5.6-1.2-.2-1.6-.6c-.4-.4-.6-.9-.6-1.5v-49.7c0-.7.2-1.3.7-1.7.4-.4,1-.6,1.6-.6s.6,0,1,.2c.4.1.6.3.9.7l34.1,45.9-.8,1.4v-46c0-.6.2-1.1.6-1.5.4-.4.9-.6,1.5-.6Z"/>
    <path class="cls-2" d="M157.4,157.1c0,.7-.3,1.2-.8,1.7-.5.5-1,.7-1.7.7s-1.4-.2-1.8-.7c-.4-.5-.6-1-.6-1.7v-49.3c0-.7.2-1.2.7-1.7.5-.5,1.1-.7,1.8-.7s1.2.2,1.7.7c.5.5.7,1,.7,1.7v49.3Z"/>
    <path class="cls-2" d="M189.9,111.5l-18.8,46.6c-.2.5-.5.9-.8,1.2-.4.3-.8.4-1.2.4-.8,0-1.3-.2-1.7-.6-.4-.4-.5-.9-.5-1.4,0-.3,0-.6,0-.9l20.4-49.9c.2-.6.5-1,.9-1.2.4-.2.8-.3,1.4-.3s1,.1,1.4.4.7.7.9,1.1l20.3,49.7c.1.3.2.6.2.9,0,.7-.2,1.3-.7,1.7-.5.4-1,.6-1.6.6s-1-.1-1.4-.4c-.4-.3-.7-.7-.9-1.1l-19.2-47,1.4.4ZM175.6,143.9l1.9-4.6h23.9l.9,4.6h-26.8Z"/>
    <path class="cls-2" d="M226.6,157.1c0,.7-.3,1.2-.8,1.7-.5.5-1,.7-1.7.7s-1.4-.2-1.8-.7c-.4-.5-.6-1-.6-1.7v-49.3c0-.7.2-1.2.7-1.7.5-.5,1.1-.7,1.8-.7s1.2.2,1.7.7c.5.5.7,1,.7,1.7v49.3Z"/>
    <path class="cls-2" d="M263.1,105.4c3.8,0,7.1.7,10,2.2,2.8,1.4,5.2,3.4,7.1,6s3.3,5.4,4.2,8.7c.9,3.2,1.4,6.6,1.4,10.2s-.8,9.5-2.4,13.6c-1.6,4.1-4.1,7.4-7.4,9.8s-7.6,3.7-12.7,3.7h-19.7c-.7,0-1.2-.2-1.7-.7-.4-.5-.7-1-.7-1.6v-49.4c0-.6.2-1.2.7-1.6s1-.7,1.7-.7h19.7ZM262.3,154.9c4.3,0,7.8-1,10.5-3s4.7-4.7,5.9-8.1c1.3-3.4,1.9-7.2,1.9-11.3s-.3-5.8-1-8.5c-.7-2.7-1.8-5.1-3.2-7.2-1.5-2.1-3.4-3.7-5.7-4.9-2.3-1.2-5.1-1.8-8.4-1.8h-16.9l.5-.6v46.3l-.5-.8h16.8Z"/>
    <path class="cls-2" d="M111.2,252.9c-3.9,0-7.3-.6-10.2-1.8-2.9-1.3-5.6-3.2-8.3-5.8-.3-.3-.5-.5-.7-.8-.2-.3-.3-.7-.3-1.1,0-.6.2-1.2.7-1.7.5-.5,1-.8,1.7-.8s1.2.3,1.7.8c2,2.2,4.3,3.8,6.8,4.9,2.5,1.1,5.3,1.7,8.2,1.7s4.7-.4,6.6-1.2c1.9-.8,3.5-1.9,4.6-3.3,1.1-1.4,1.7-3.1,1.7-5,0-2.4-.7-4.3-2-5.7-1.3-1.4-2.9-2.6-5.1-3.6-2.1-1-4.5-1.8-7-2.5-2.1-.7-4.1-1.4-6.1-2.2-1.9-.8-3.6-1.8-5.1-2.9s-2.6-2.6-3.4-4.3-1.2-3.7-1.2-6.1.7-5.2,2.2-7.3c1.4-2.1,3.5-3.8,6.1-5,2.6-1.2,5.7-1.8,9.2-1.8s6,.5,8.8,1.5c2.8,1,5,2.5,6.7,4.6.8.8,1.2,1.6,1.2,2.2s-.3,1.1-.8,1.6c-.5.5-1.1.7-1.7.7s-1-.2-1.3-.5c-.9-1.1-2-2-3.3-2.9s-2.8-1.5-4.4-2c-1.6-.5-3.3-.7-5.1-.7s-4.6.4-6.5,1.1c-1.9.7-3.5,1.8-4.6,3.2-1.1,1.4-1.7,3.1-1.7,5.1s.6,3.9,1.9,5.3c1.2,1.4,2.9,2.5,4.9,3.4,2,.9,4.1,1.7,6.4,2.5,2.2.6,4.3,1.3,6.4,2.1s3.8,1.8,5.4,3,2.8,2.7,3.7,4.5c.9,1.8,1.4,4.1,1.4,6.8s-.7,5-2.2,7.1-3.5,3.8-6.1,5c-2.6,1.2-5.7,1.9-9.2,1.9Z"/>
    <path class="cls-2" d="M168,212c.7,0,1.2.2,1.7.7.4.5.7,1,.7,1.6v34.1c0,4.2-.8,7.7-2.5,10.5-1.6,2.9-3.9,5-6.6,6.5-2.8,1.5-5.9,2.2-9.5,2.2s-4.3-.2-6.1-.7c-1.9-.5-3.4-1.1-4.6-1.8-.6-.4-1.1-.8-1.4-1.4s-.3-1.1,0-1.7c.3-.7.7-1.2,1.2-1.4s1.1-.2,1.7,0c.9.5,2.1,1,3.8,1.7,1.6.7,3.5,1,5.6,1s5.3-.6,7.3-1.8c2.1-1.2,3.7-2.9,4.8-5.1,1.2-2.2,1.7-4.9,1.7-8v-5.6l.5,1.9c-.8,1.5-1.9,2.9-3.3,4.2-1.4,1.2-3.1,2.2-4.9,2.9-1.8.7-3.7,1-5.8,1-3.1,0-5.6-.6-7.7-1.9-2-1.3-3.6-3-4.6-5.2-1-2.2-1.5-4.8-1.5-7.8v-23.7c0-.6.2-1.2.7-1.6.4-.5,1-.7,1.7-.7s1.2.2,1.7.7c.4.5.7,1,.7,1.6v23c0,3.6.8,6.4,2.4,8.3,1.6,2,4.1,2.9,7.7,2.9s4.2-.5,6.1-1.6c1.9-1.1,3.4-2.4,4.6-4.2s1.8-3.6,1.8-5.5v-23c0-.6.2-1.2.6-1.6.4-.5,1-.7,1.7-.7Z"/>
    <path class="cls-2" d="M180.2,245.9c-.4-.6-.6-1.2-.6-1.8,0-.6.3-1.1,1-1.4.4-.4.9-.5,1.4-.5s1,.3,1.5.8c1.4,1.8,3.1,3.3,5.1,4.4,2,1.1,4.3,1.7,7.1,1.7s2.9-.2,4.3-.7c1.4-.5,2.6-1.2,3.5-2.2.9-1,1.4-2.3,1.4-3.8s-.5-2.9-1.4-3.8c-.9-1-2.1-1.7-3.6-2.3s-3-1.1-4.7-1.5c-1.8-.5-3.4-1-5.1-1.6s-3.1-1.3-4.4-2.2c-1.3-.9-2.3-2-3.1-3.3-.7-1.3-1.1-2.9-1.1-4.7s.6-4.1,1.7-5.7c1.2-1.6,2.8-2.9,4.8-3.9,2.1-.9,4.3-1.4,6.9-1.4s2.8.2,4.2.5c1.5.3,3,.9,4.4,1.7s2.7,1.8,3.9,3.2c.5.5.7,1,.7,1.6s-.3,1.1-.8,1.7c-.4.3-.9.4-1.4.4s-1-.2-1.4-.7c-1.2-1.4-2.7-2.4-4.4-3.1-1.7-.7-3.5-1-5.5-1s-2.9.2-4.2.7c-1.3.5-2.4,1.2-3.3,2.2-.9,1-1.3,2.3-1.3,3.9.1,1.5.6,2.7,1.6,3.6s2.2,1.7,3.8,2.3c1.6.6,3.3,1.2,5.3,1.7,1.6.4,3.2.9,4.7,1.5s2.9,1.3,4,2.1c1.2.8,2.1,1.9,2.8,3.2.7,1.3,1,2.9,1,4.9s-.6,4.2-1.9,5.9c-1.3,1.6-2.9,2.9-5.1,3.8s-4.5,1.3-7,1.3-5.5-.5-8.1-1.6-4.9-2.9-6.9-5.4Z"/>
    <path class="cls-2" d="M242.6,198.1c4.3,0,7.7,1.2,10.2,3.5,2.4,2.3,3.7,5.6,3.7,9.8s-.5,4.3-1.4,6.2c-.9,1.9-2.3,3.5-4.1,4.7-1.8,1.2-4.1,1.9-6.7,2l-.4-1.5c1.9,0,3.8.3,5.6.8,1.8.5,3.5,1.4,4.9,2.6,1.5,1.2,2.6,2.7,3.5,4.4.9,1.8,1.3,3.9,1.3,6.4s-.5,5-1.4,6.9c-.9,1.9-2.1,3.5-3.7,4.7-1.5,1.2-3.3,2.1-5.2,2.6-1.9.5-4,.8-6.1.8h-20.8c-.7,0-1.2-.2-1.7-.7-.4-.5-.7-1-.7-1.6v-49.4c0-.6.2-1.2.7-1.6s1-.7,1.7-.7h20.5ZM241.9,202.7h-18.1l.9-1.5v21.9l-.8-1.2h18.1c2.7,0,4.9-.9,6.8-2.6,1.8-1.7,2.7-4.2,2.7-7.6s-.8-5-2.5-6.6c-1.7-1.6-4-2.4-7.1-2.4ZM242.5,226.7h-18.1l.4-.5v22.2l-.5-.7h18.3c3.3,0,6.1-.8,8.3-2.5,2.2-1.7,3.3-4.3,3.3-8s-.5-4.6-1.6-6.2c-1.1-1.5-2.5-2.6-4.3-3.3-1.8-.6-3.7-1-5.8-1Z"/>
    <path class="cls-2" d="M271.1,206.8c-1.1,0-1.9-.2-2.4-.7-.5-.5-.8-1.2-.8-2.1v-.8c0-.9.3-1.6.9-2.1s1.4-.7,2.4-.7,1.7.2,2.3.7.8,1.2.8,2.1v.8c0,.9-.3,1.6-.8,2.1-.5.5-1.3.7-2.4.7ZM273.4,249.8c0,.6-.2,1.2-.7,1.6-.5.5-1,.7-1.6.7s-1.3-.2-1.7-.7c-.4-.5-.6-1-.6-1.6v-35.5c0-.6.2-1.2.7-1.6.4-.5,1-.7,1.7-.7s1.2.2,1.7.7c.4.5.7,1,.7,1.6v35.5Z"/>
    <path class="cls-2" d="M322.2,232.4c0,3.9-.9,7.4-2.5,10.5-1.7,3.1-4,5.6-7,7.3-2.9,1.8-6.3,2.7-10,2.7s-7-.9-9.9-2.7c-3-1.8-5.3-4.2-7-7.3-1.7-3.1-2.6-6.6-2.6-10.5s.9-7.5,2.6-10.6c1.7-3.1,4.1-5.5,7-7.3,3-1.8,6.3-2.7,9.9-2.7s7.1.9,10,2.7c2.9,1.8,5.3,4.2,7,7.3,1.7,3.1,2.5,6.6,2.5,10.6ZM317.6,232.4c0-3.1-.6-5.9-1.9-8.4-1.3-2.4-3.1-4.4-5.3-5.8-2.2-1.4-4.8-2.1-7.7-2.1s-5.3.7-7.6,2.1c-2.3,1.4-4.1,3.3-5.4,5.8-1.3,2.4-2,5.2-2,8.4s.7,5.9,2,8.3c1.3,2.4,3.1,4.3,5.4,5.8,2.3,1.4,4.8,2.1,7.6,2.1s5.4-.7,7.7-2.1c2.2-1.4,4-3.3,5.3-5.8,1.3-2.4,1.9-5.2,1.9-8.3Z"/>
  </g>
</svg>