<?xml version="1.0" encoding="utf-8"?>
<!-- Generator: Adobe Illustrator 27.1.1, SVG Export Plug-In . SVG Version: 6.00 Build 0)  -->
<svg version="1.1" id="Layer_1" xmlns="http://www.w3.org/2000/svg" xmlns:xlink="http://www.w3.org/1999/xlink" x="0px" y="0px"
	 viewBox="0 0 400 206" style="enable-background:new 0 0 400 206;" xml:space="preserve">
<style type="text/css">
	.st0{fill:none;stroke:#FFFFFF;stroke-width:8;}
	.st1{fill:#103B56;}
	.st2{fill:#369AC1;}
</style>
<g>
	<g>
		<path class="st0" d="M38.3,24.1h10.9L63.4,44V24.1h11V60h-11L49.3,40.3V60h-11V24.1z"/>
		<path class="st0" d="M82.6,24.1h11.7V60H82.6V24.1z"/>
		<path class="st0" d="M125.8,54.1h-13.2l-1.8,5.9H98.8L113,24.1h12.7L139.9,60h-12.2L125.8,54.1z M123.4,46.4l-4.2-12.9l-4.1,12.9
			H123.4z"/>
		<path class="st0" d="M144.1,24.1h11.7V60h-11.7V24.1z"/>
		<path class="st0" d="M164.2,24.1h17.3c3.4,0,6.2,0.4,8.3,1.3c2.1,0.9,3.8,2.1,5.2,3.8c1.4,1.6,2.4,3.6,3,5.8
			c0.6,2.2,0.9,4.5,0.9,7c0,3.8-0.5,6.8-1.4,8.9c-0.9,2.1-2.2,3.9-3.8,5.3c-1.6,1.4-3.4,2.4-5.2,2.9c-2.6,0.7-4.9,1-6.9,1h-17.3
			V24.1z M175.9,32.3v19.6h2.9c2.4,0,4.2-0.3,5.2-0.8c1-0.5,1.8-1.4,2.4-2.7c0.6-1.3,0.9-3.4,0.9-6.2c0-3.8-0.7-6.4-2-7.8
			c-1.3-1.4-3.5-2.1-6.5-2.1H175.9z"/>
		<path class="st0" d="M38.3,80.4h17.3c3.4,0,6.2,0.4,8.3,1.3c2.1,0.9,3.8,2.1,5.2,3.8c1.4,1.6,2.4,3.6,3,5.8c0.6,2.2,0.9,4.5,0.9,7
			c0,3.8-0.5,6.8-1.4,8.9c-0.9,2.1-2.2,3.9-3.8,5.3c-1.6,1.4-3.4,2.4-5.2,2.9c-2.6,0.7-4.9,1-6.9,1H38.3V80.4z M50,88.6v19.6h2.9
			c2.4,0,4.2-0.3,5.2-0.8s1.8-1.4,2.4-2.7c0.6-1.3,0.9-3.4,0.9-6.2c0-3.8-0.7-6.4-2-7.8c-1.3-1.4-3.5-2.1-6.5-2.1H50z"/>
		<path class="st0" d="M88,98.8l-10-1c0.4-1.7,0.9-3,1.6-3.9c0.7-1,1.7-1.8,3.1-2.5c1-0.5,2.3-0.9,4-1.2c1.7-0.3,3.5-0.4,5.5-0.4
			c3.1,0,5.7,0.2,7.6,0.5c1.9,0.3,3.5,1,4.8,2.1c0.9,0.7,1.6,1.8,2.1,3.1c0.5,1.3,0.8,2.6,0.8,3.9v11.5c0,1.2,0.1,2.2,0.2,2.9
			c0.2,0.7,0.5,1.6,1.1,2.7h-9.8c-0.4-0.7-0.7-1.2-0.8-1.5c-0.1-0.4-0.2-0.9-0.4-1.7c-1.4,1.3-2.7,2.2-4.1,2.7
			c-1.9,0.7-4,1.1-6.5,1.1c-3.3,0-5.7-0.7-7.4-2.2c-1.7-1.4-2.5-3.2-2.5-5.3c0-2,0.6-3.6,1.8-4.9c1.2-1.3,3.5-2.2,6.7-2.8
			c3.9-0.8,6.5-1.3,7.6-1.6c1.2-0.3,2.4-0.7,3.7-1.2c0-1.2-0.3-2.1-0.8-2.6c-0.5-0.5-1.5-0.7-2.8-0.7c-1.7,0-3,0.3-3.9,0.8
			C88.9,96.9,88.4,97.6,88,98.8z M97.1,104c-1.4,0.5-2.9,0.9-4.5,1.3c-2.1,0.5-3.5,1.1-4,1.6c-0.6,0.5-0.9,1.2-0.9,1.8
			c0,0.8,0.3,1.4,0.9,1.9c0.6,0.5,1.4,0.7,2.5,0.7c1.2,0,2.3-0.3,3.3-0.8c1-0.5,1.7-1.2,2.1-2c0.4-0.8,0.6-1.8,0.6-3V104z"/>
		<path class="st0" d="M125.3,80.4v9.9h5.8v7.3h-5.8v9.2c0,1.1,0.1,1.8,0.3,2.2c0.3,0.6,0.9,0.8,1.8,0.8c0.8,0,1.9-0.2,3.2-0.6
			l0.8,6.9c-2.6,0.5-5,0.8-7.3,0.8c-2.6,0-4.5-0.3-5.8-1c-1.2-0.6-2.1-1.6-2.7-2.9c-0.6-1.3-0.9-3.4-0.9-6.3v-9.1H111v-7.3h3.9v-4.8
			L125.3,80.4z"/>
		<path class="st0" d="M145.6,98.8l-10-1c0.4-1.7,0.9-3,1.6-3.9c0.7-1,1.7-1.8,3.1-2.5c1-0.5,2.3-0.9,4-1.2c1.7-0.3,3.5-0.4,5.5-0.4
			c3.1,0,5.7,0.2,7.6,0.5c1.9,0.3,3.5,1,4.8,2.1c0.9,0.7,1.6,1.8,2.1,3.1c0.5,1.3,0.8,2.6,0.8,3.9v11.5c0,1.2,0.1,2.2,0.2,2.9
			c0.2,0.7,0.5,1.6,1.1,2.7h-9.8c-0.4-0.7-0.7-1.2-0.8-1.5c-0.1-0.4-0.2-0.9-0.4-1.7c-1.4,1.3-2.7,2.2-4.1,2.7
			c-1.9,0.7-4,1.1-6.5,1.1c-3.3,0-5.7-0.7-7.4-2.2c-1.7-1.4-2.5-3.2-2.5-5.3c0-2,0.6-3.6,1.8-4.9c1.2-1.3,3.5-2.2,6.7-2.8
			c3.9-0.8,6.5-1.3,7.6-1.6c1.2-0.3,2.4-0.7,3.7-1.2c0-1.2-0.3-2.1-0.8-2.6c-0.5-0.5-1.5-0.7-2.8-0.7c-1.7,0-3,0.3-3.9,0.8
			C146.6,96.9,146,97.6,145.6,98.8z M154.7,104c-1.4,0.5-2.9,0.9-4.5,1.3c-2.1,0.5-3.5,1.1-4,1.6c-0.6,0.5-0.9,1.2-0.9,1.8
			c0,0.8,0.3,1.4,0.9,1.9c0.6,0.5,1.4,0.7,2.5,0.7c1.2,0,2.3-0.3,3.3-0.8c1-0.5,1.7-1.2,2.1-2c0.4-0.8,0.6-1.8,0.6-3V104z"/>
		<path class="st0" d="M40.2,136.2h31.2v7.7H51.8v5.7H70v7.3H51.8v7.1h20.1v8.1H40.2V136.2z"/>
		<path class="st0" d="M97.9,161.9l10,1.1c-0.5,2-1.4,3.7-2.7,5.1c-1.3,1.4-2.9,2.6-4.8,3.4c-1.9,0.8-4.4,1.2-7.4,1.2
			c-2.9,0-5.3-0.3-7.2-0.8s-3.6-1.3-5-2.5c-1.4-1.1-2.5-2.5-3.3-4c-0.8-1.5-1.2-3.6-1.2-6.2c0-2.7,0.5-4.9,1.4-6.7
			c0.7-1.3,1.7-2.5,2.9-3.5c1.2-1,2.5-1.8,3.8-2.3c2-0.8,4.7-1.2,7.8-1.2c4.5,0,7.9,0.8,10.2,2.3c2.3,1.5,4,3.7,4.9,6.7l-9.8,1.2
			c-0.3-1.1-0.9-1.9-1.7-2.5c-0.8-0.6-1.9-0.8-3.3-0.8c-1.7,0-3.1,0.6-4.2,1.8c-1.1,1.2-1.6,3-1.6,5.4c0,2.1,0.5,3.8,1.6,4.9
			c1.1,1.1,2.4,1.7,4.1,1.7c1.4,0,2.5-0.3,3.5-1C96.7,164.4,97.4,163.3,97.9,161.9z"/>
		<path class="st0" d="M111.4,159.2c0-4,1.4-7.2,4.2-9.8c2.8-2.6,6.6-3.9,11.4-3.9c5.5,0,9.6,1.5,12.4,4.5c2.2,2.4,3.4,5.4,3.4,9
			c0,4-1.4,7.3-4.2,9.8c-2.8,2.6-6.6,3.8-11.6,3.8c-4.4,0-7.9-1.1-10.6-3.2C113,166.9,111.4,163.5,111.4,159.2z M121.9,159.2
			c0,2.3,0.5,4,1.5,5.1c1,1.1,2.2,1.7,3.7,1.7c1.5,0,2.7-0.5,3.7-1.6c1-1.1,1.5-2.8,1.5-5.3c0-2.3-0.5-3.9-1.5-5
			c-1-1.1-2.2-1.7-3.6-1.7c-1.5,0-2.8,0.6-3.8,1.7C122.4,155.2,121.9,156.9,121.9,159.2z"/>
		<path class="st0" d="M145.9,164.9l10.4-0.9c0.4,1.2,1,2,1.8,2.5c0.8,0.5,1.8,0.8,3.1,0.8c1.4,0,2.5-0.3,3.3-0.9
			c0.6-0.4,0.9-1,0.9-1.6c0-0.7-0.4-1.3-1.2-1.7c-0.6-0.3-2.1-0.6-4.5-1c-3.6-0.6-6.2-1.2-7.6-1.7c-1.4-0.5-2.6-1.4-3.6-2.6
			c-1-1.2-1.5-2.6-1.5-4.2c0-1.7,0.5-3.2,1.6-4.4c1-1.2,2.5-2.2,4.3-2.8c1.8-0.6,4.3-0.9,7.4-0.9c3.3,0,5.7,0.2,7.2,0.7
			c1.6,0.5,2.8,1.2,3.9,2.2c1,1,1.9,2.3,2.6,4l-9.9,0.9c-0.3-0.8-0.7-1.4-1.3-1.8c-0.8-0.5-1.8-0.8-3-0.8c-1.2,0-2,0.2-2.6,0.6
			c-0.5,0.4-0.8,0.9-0.8,1.5c0,0.6,0.3,1.1,1,1.4c0.7,0.3,2.2,0.6,4.5,0.9c3.5,0.4,6.1,0.9,7.8,1.6c1.7,0.7,3,1.6,3.9,2.9
			c0.9,1.2,1.4,2.6,1.4,4.1c0,1.5-0.5,3-1.4,4.4c-1,1.4-2.5,2.5-4.5,3.4c-2,0.8-4.8,1.3-8.4,1.3c-5,0-8.5-0.7-10.7-2
			C147.9,169.3,146.5,167.4,145.9,164.9z"/>
		<path class="st0" d="M176.9,146.1h11l5.6,17.3l5.2-17.3h10.3l-10.8,27.8c-1.2,3.2-2.5,5.3-3.8,6.4c-1.8,1.6-4.6,2.4-8.3,2.4
			c-1.5,0-3.8-0.2-7-0.6l-0.8-7c1.5,0.5,3.2,0.7,5,0.7c1.2,0,2.2-0.3,3-0.8c0.8-0.5,1.4-1.5,1.9-2.9L176.9,146.1z"/>
		<path class="st0" d="M210.3,164.9l10.4-0.9c0.4,1.2,1,2,1.8,2.5c0.8,0.5,1.8,0.8,3.1,0.8c1.4,0,2.5-0.3,3.3-0.9
			c0.6-0.4,0.9-1,0.9-1.6c0-0.7-0.4-1.3-1.2-1.7c-0.6-0.3-2.1-0.6-4.5-1c-3.6-0.6-6.2-1.2-7.6-1.7c-1.4-0.5-2.6-1.4-3.6-2.6
			c-1-1.2-1.5-2.6-1.5-4.2c0-1.7,0.5-3.2,1.6-4.4c1-1.2,2.5-2.2,4.3-2.8c1.8-0.6,4.3-0.9,7.4-0.9c3.3,0,5.7,0.2,7.2,0.7
			c1.6,0.5,2.8,1.2,3.9,2.2c1,1,1.9,2.3,2.6,4l-9.9,0.9c-0.3-0.8-0.7-1.4-1.3-1.8c-0.8-0.5-1.8-0.8-3-0.8c-1.2,0-2,0.2-2.6,0.6
			c-0.5,0.4-0.8,0.9-0.8,1.5c0,0.6,0.3,1.1,1,1.4c0.7,0.3,2.2,0.6,4.5,0.9c3.5,0.4,6.1,0.9,7.8,1.6c1.7,0.7,3,1.6,3.9,2.9
			c0.9,1.2,1.4,2.6,1.4,4.1c0,1.5-0.5,3-1.4,4.4c-1,1.4-2.5,2.5-4.5,3.4c-2,0.8-4.8,1.3-8.4,1.3c-5,0-8.5-0.7-10.7-2
			C212.2,169.3,210.9,167.4,210.3,164.9z"/>
		<path class="st0" d="M256.9,136.2v9.9h5.8v7.3h-5.8v9.2c0,1.1,0.1,1.8,0.3,2.2c0.3,0.6,0.9,0.8,1.8,0.8c0.8,0,1.9-0.2,3.2-0.6
			l0.8,6.9c-2.6,0.5-5,0.8-7.3,0.8c-2.6,0-4.5-0.3-5.8-1c-1.2-0.6-2.1-1.6-2.7-2.9c-0.6-1.3-0.9-3.4-0.9-6.3v-9.1h-3.9v-7.3h3.9
			v-4.8L256.9,136.2z"/>
		<path class="st0" d="M298,161.6h-21c0.2,1.6,0.6,2.8,1.4,3.6c1,1.1,2.3,1.7,4,1.7c1,0,2-0.2,2.9-0.7c0.6-0.3,1.2-0.9,1.8-1.6
			l10.3,0.9c-1.6,2.6-3.5,4.5-5.7,5.6s-5.4,1.7-9.6,1.7c-3.6,0-6.5-0.5-8.5-1.5c-2.1-1-3.8-2.5-5.2-4.6c-1.4-2.1-2-4.6-2-7.5
			c0-4.1,1.4-7.4,4.1-9.9c2.7-2.5,6.5-3.8,11.3-3.8c3.9,0,7,0.6,9.3,1.7c2.3,1.1,4,2.8,5.2,4.9c1.2,2.1,1.8,4.9,1.8,8.4V161.6z
			 M287.3,156.8c-0.2-1.9-0.7-3.3-1.6-4.1c-0.9-0.8-2-1.2-3.5-1.2c-1.7,0-3,0.6-4,1.9c-0.6,0.8-1,2-1.2,3.5H287.3z"/>
		<path class="st0" d="M302.9,146.1h9.8v3.8c1.4-1.6,2.8-2.7,4.3-3.4c1.4-0.7,3.2-1,5.2-1c2.2,0,3.9,0.4,5.2,1.1
			c1.3,0.7,2.3,1.8,3.1,3.3c1.6-1.7,3.1-2.9,4.5-3.5c1.4-0.6,3-0.9,5-0.9c2.9,0,5.2,0.8,6.9,2.5c1.6,1.7,2.5,4.2,2.5,7.8v16.3h-10.5
			v-14.8c0-1.2-0.2-2-0.7-2.6c-0.7-0.9-1.6-1.3-2.6-1.3c-1.2,0-2.2,0.4-3,1.3c-0.8,0.8-1.1,2.2-1.1,4.1v13.4h-10.5v-14.3
			c0-1.1-0.1-1.9-0.2-2.3c-0.2-0.7-0.6-1.2-1.2-1.6c-0.6-0.4-1.2-0.6-1.9-0.6c-1.2,0-2.2,0.4-3,1.3c-0.8,0.9-1.2,2.3-1.2,4.3v13.3
			h-10.5V146.1z"/>
	</g>
	<g>
		<path class="st1" d="M38.3,24.1h10.9L63.4,44V24.1h11V60h-11L49.3,40.3V60h-11V24.1z"/>
		<path class="st1" d="M82.6,24.1h11.7V60H82.6V24.1z"/>
		<path class="st1" d="M125.8,54.1h-13.2l-1.8,5.9H98.8L113,24.1h12.7L139.9,60h-12.2L125.8,54.1z M123.4,46.4l-4.2-12.9l-4.1,12.9
			H123.4z"/>
		<path class="st1" d="M144.1,24.1h11.7V60h-11.7V24.1z"/>
		<path class="st1" d="M164.2,24.1h17.3c3.4,0,6.2,0.4,8.3,1.3c2.1,0.9,3.8,2.1,5.2,3.8c1.4,1.6,2.4,3.6,3,5.8
			c0.6,2.2,0.9,4.5,0.9,7c0,3.8-0.5,6.8-1.4,8.9c-0.9,2.1-2.2,3.9-3.8,5.3c-1.6,1.4-3.4,2.4-5.2,2.9c-2.6,0.7-4.9,1-6.9,1h-17.3
			V24.1z M175.9,32.3v19.6h2.9c2.4,0,4.2-0.3,5.2-0.8c1-0.5,1.8-1.4,2.4-2.7c0.6-1.3,0.9-3.4,0.9-6.2c0-3.8-0.7-6.4-2-7.8
			c-1.3-1.4-3.5-2.1-6.5-2.1H175.9z"/>
		<path class="st2" d="M38.3,80.4h17.3c3.4,0,6.2,0.4,8.3,1.3c2.1,0.9,3.8,2.1,5.2,3.8c1.4,1.6,2.4,3.6,3,5.8c0.6,2.2,0.9,4.5,0.9,7
			c0,3.8-0.5,6.8-1.4,8.9c-0.9,2.1-2.2,3.9-3.8,5.3c-1.6,1.4-3.4,2.4-5.2,2.9c-2.6,0.7-4.9,1-6.9,1H38.3V80.4z M50,88.6v19.6h2.9
			c2.4,0,4.2-0.3,5.2-0.8s1.8-1.4,2.4-2.7c0.6-1.3,0.9-3.4,0.9-6.2c0-3.8-0.7-6.4-2-7.8c-1.3-1.4-3.5-2.1-6.5-2.1H50z"/>
		<path class="st2" d="M88,98.8l-10-1c0.4-1.7,0.9-3,1.6-3.9c0.7-1,1.7-1.8,3.1-2.5c1-0.5,2.3-0.9,4-1.2c1.7-0.3,3.5-0.4,5.5-0.4
			c3.1,0,5.7,0.2,7.6,0.5c1.9,0.3,3.5,1,4.8,2.1c0.9,0.7,1.6,1.8,2.1,3.1c0.5,1.3,0.8,2.6,0.8,3.9v11.5c0,1.2,0.1,2.2,0.2,2.9
			c0.2,0.7,0.5,1.6,1.1,2.7h-9.8c-0.4-0.7-0.7-1.2-0.8-1.5c-0.1-0.4-0.2-0.9-0.4-1.7c-1.4,1.3-2.7,2.2-4.1,2.7
			c-1.9,0.7-4,1.1-6.5,1.1c-3.3,0-5.7-0.7-7.4-2.2c-1.7-1.4-2.5-3.2-2.5-5.3c0-2,0.6-3.6,1.8-4.9c1.2-1.3,3.5-2.2,6.7-2.8
			c3.9-0.8,6.5-1.3,7.6-1.6c1.2-0.3,2.4-0.7,3.7-1.2c0-1.2-0.3-2.1-0.8-2.6c-0.5-0.5-1.5-0.7-2.8-0.7c-1.7,0-3,0.3-3.9,0.8
			C88.9,96.9,88.4,97.6,88,98.8z M97.1,104c-1.4,0.5-2.9,0.9-4.5,1.3c-2.1,0.5-3.5,1.1-4,1.6c-0.6,0.5-0.9,1.2-0.9,1.8
			c0,0.8,0.3,1.4,0.9,1.9c0.6,0.5,1.4,0.7,2.5,0.7c1.2,0,2.3-0.3,3.3-0.8c1-0.5,1.7-1.2,2.1-2c0.4-0.8,0.6-1.8,0.6-3V104z"/>
		<path class="st2" d="M125.3,80.4v9.9h5.8v7.3h-5.8v9.2c0,1.1,0.1,1.8,0.3,2.2c0.3,0.6,0.9,0.8,1.8,0.8c0.8,0,1.9-0.2,3.2-0.6
			l0.8,6.9c-2.6,0.5-5,0.8-7.3,0.8c-2.6,0-4.5-0.3-5.8-1c-1.2-0.6-2.1-1.6-2.7-2.9c-0.6-1.3-0.9-3.4-0.9-6.3v-9.1H111v-7.3h3.9v-4.8
			L125.3,80.4z"/>
		<path class="st2" d="M145.6,98.8l-10-1c0.4-1.7,0.9-3,1.6-3.9c0.7-1,1.7-1.8,3.1-2.5c1-0.5,2.3-0.9,4-1.2c1.7-0.3,3.5-0.4,5.5-0.4
			c3.1,0,5.7,0.2,7.6,0.5c1.9,0.3,3.5,1,4.8,2.1c0.9,0.7,1.6,1.8,2.1,3.1c0.5,1.3,0.8,2.6,0.8,3.9v11.5c0,1.2,0.1,2.2,0.2,2.9
			c0.2,0.7,0.5,1.6,1.1,2.7h-9.8c-0.4-0.7-0.7-1.2-0.8-1.5c-0.1-0.4-0.2-0.9-0.4-1.7c-1.4,1.3-2.7,2.2-4.1,2.7
			c-1.9,0.7-4,1.1-6.5,1.1c-3.3,0-5.7-0.7-7.4-2.2c-1.7-1.4-2.5-3.2-2.5-5.3c0-2,0.6-3.6,1.8-4.9c1.2-1.3,3.5-2.2,6.7-2.8
			c3.9-0.8,6.5-1.3,7.6-1.6c1.2-0.3,2.4-0.7,3.7-1.2c0-1.2-0.3-2.1-0.8-2.6c-0.5-0.5-1.5-0.7-2.8-0.7c-1.7,0-3,0.3-3.9,0.8
			C146.6,96.9,146,97.6,145.6,98.8z M154.7,104c-1.4,0.5-2.9,0.9-4.5,1.3c-2.1,0.5-3.5,1.1-4,1.6c-0.6,0.5-0.9,1.2-0.9,1.8
			c0,0.8,0.3,1.4,0.9,1.9c0.6,0.5,1.4,0.7,2.5,0.7c1.2,0,2.3-0.3,3.3-0.8c1-0.5,1.7-1.2,2.1-2c0.4-0.8,0.6-1.8,0.6-3V104z"/>
		<path class="st2" d="M40.2,136.2h31.2v7.7H51.8v5.7H70v7.3H51.8v7.1h20.1v8.1H40.2V136.2z"/>
		<path class="st2" d="M97.9,161.9l10,1.1c-0.5,2-1.4,3.7-2.7,5.1c-1.3,1.4-2.9,2.6-4.8,3.4c-1.9,0.8-4.4,1.2-7.4,1.2
			c-2.9,0-5.3-0.3-7.2-0.8s-3.6-1.3-5-2.5c-1.4-1.1-2.5-2.5-3.3-4c-0.8-1.5-1.2-3.6-1.2-6.2c0-2.7,0.5-4.9,1.4-6.7
			c0.7-1.3,1.7-2.5,2.9-3.5c1.2-1,2.5-1.8,3.8-2.3c2-0.8,4.7-1.2,7.8-1.2c4.5,0,7.9,0.8,10.2,2.3c2.3,1.5,4,3.7,4.9,6.7l-9.8,1.2
			c-0.3-1.1-0.9-1.9-1.7-2.5c-0.8-0.6-1.9-0.8-3.3-0.8c-1.7,0-3.1,0.6-4.2,1.8c-1.1,1.2-1.6,3-1.6,5.4c0,2.1,0.5,3.8,1.6,4.9
			c1.1,1.1,2.4,1.7,4.1,1.7c1.4,0,2.5-0.3,3.5-1C96.7,164.4,97.4,163.3,97.9,161.9z"/>
		<path class="st2" d="M111.4,159.2c0-4,1.4-7.2,4.2-9.8c2.8-2.6,6.6-3.9,11.4-3.9c5.5,0,9.6,1.5,12.4,4.5c2.2,2.4,3.4,5.4,3.4,9
			c0,4-1.4,7.3-4.2,9.8c-2.8,2.6-6.6,3.8-11.6,3.8c-4.4,0-7.9-1.1-10.6-3.2C113,166.9,111.4,163.5,111.4,159.2z M121.9,159.2
			c0,2.3,0.5,4,1.5,5.1c1,1.1,2.2,1.7,3.7,1.7c1.5,0,2.7-0.5,3.7-1.6c1-1.1,1.5-2.8,1.5-5.3c0-2.3-0.5-3.9-1.5-5
			c-1-1.1-2.2-1.7-3.6-1.7c-1.5,0-2.8,0.6-3.8,1.7C122.4,155.2,121.9,156.9,121.9,159.2z"/>
		<path class="st2" d="M145.9,164.9l10.4-0.9c0.4,1.2,1,2,1.8,2.5c0.8,0.5,1.8,0.8,3.1,0.8c1.4,0,2.5-0.3,3.3-0.9
			c0.6-0.4,0.9-1,0.9-1.6c0-0.7-0.4-1.3-1.2-1.7c-0.6-0.3-2.1-0.6-4.5-1c-3.6-0.6-6.2-1.2-7.6-1.7c-1.4-0.5-2.6-1.4-3.6-2.6
			c-1-1.2-1.5-2.6-1.5-4.2c0-1.7,0.5-3.2,1.6-4.4c1-1.2,2.5-2.2,4.3-2.8c1.8-0.6,4.3-0.9,7.4-0.9c3.3,0,5.7,0.2,7.2,0.7
			c1.6,0.5,2.8,1.2,3.9,2.2c1,1,1.9,2.3,2.6,4l-9.9,0.9c-0.3-0.8-0.7-1.4-1.3-1.8c-0.8-0.5-1.8-0.8-3-0.8c-1.2,0-2,0.2-2.6,0.6
			c-0.5,0.4-0.8,0.9-0.8,1.5c0,0.6,0.3,1.1,1,1.4c0.7,0.3,2.2,0.6,4.5,0.9c3.5,0.4,6.1,0.9,7.8,1.6c1.7,0.7,3,1.6,3.9,2.9
			c0.9,1.2,1.4,2.6,1.4,4.1c0,1.5-0.5,3-1.4,4.4c-1,1.4-2.5,2.5-4.5,3.4c-2,0.8-4.8,1.3-8.4,1.3c-5,0-8.5-0.7-10.7-2
			C147.9,169.3,146.5,167.4,145.9,164.9z"/>
		<path class="st2" d="M176.9,146.1h11l5.6,17.3l5.2-17.3h10.3l-10.8,27.8c-1.2,3.2-2.5,5.3-3.8,6.4c-1.8,1.6-4.6,2.4-8.3,2.4
			c-1.5,0-3.8-0.2-7-0.6l-0.8-7c1.5,0.5,3.2,0.7,5,0.7c1.2,0,2.2-0.3,3-0.8c0.8-0.5,1.4-1.5,1.9-2.9L176.9,146.1z"/>
		<path class="st2" d="M210.3,164.9l10.4-0.9c0.4,1.2,1,2,1.8,2.5c0.8,0.5,1.8,0.8,3.1,0.8c1.4,0,2.5-0.3,3.3-0.9
			c0.6-0.4,0.9-1,0.9-1.6c0-0.7-0.4-1.3-1.2-1.7c-0.6-0.3-2.1-0.6-4.5-1c-3.6-0.6-6.2-1.2-7.6-1.7c-1.4-0.5-2.6-1.4-3.6-2.6
			c-1-1.2-1.5-2.6-1.5-4.2c0-1.7,0.5-3.2,1.6-4.4c1-1.2,2.5-2.2,4.3-2.8c1.8-0.6,4.3-0.9,7.4-0.9c3.3,0,5.7,0.2,7.2,0.7
			c1.6,0.5,2.8,1.2,3.9,2.2c1,1,1.9,2.3,2.6,4l-9.9,0.9c-0.3-0.8-0.7-1.4-1.3-1.8c-0.8-0.5-1.8-0.8-3-0.8c-1.2,0-2,0.2-2.6,0.6
			c-0.5,0.4-0.8,0.9-0.8,1.5c0,0.6,0.3,1.1,1,1.4c0.7,0.3,2.2,0.6,4.5,0.9c3.5,0.4,6.1,0.9,7.8,1.6c1.7,0.7,3,1.6,3.9,2.9
			c0.9,1.2,1.4,2.6,1.4,4.1c0,1.5-0.5,3-1.4,4.4c-1,1.4-2.5,2.5-4.5,3.4c-2,0.8-4.8,1.3-8.4,1.3c-5,0-8.5-0.7-10.7-2
			C212.2,169.3,210.9,167.4,210.3,164.9z"/>
		<path class="st2" d="M256.9,136.2v9.9h5.8v7.3h-5.8v9.2c0,1.1,0.1,1.8,0.3,2.2c0.3,0.6,0.9,0.8,1.8,0.8c0.8,0,1.9-0.2,3.2-0.6
			l0.8,6.9c-2.6,0.5-5,0.8-7.3,0.8c-2.6,0-4.5-0.3-5.8-1c-1.2-0.6-2.1-1.6-2.7-2.9c-0.6-1.3-0.9-3.4-0.9-6.3v-9.1h-3.9v-7.3h3.9
			v-4.8L256.9,136.2z"/>
		<path class="st2" d="M298,161.6h-21c0.2,1.6,0.6,2.8,1.4,3.6c1,1.1,2.3,1.7,4,1.7c1,0,2-0.2,2.9-0.7c0.6-0.3,1.2-0.9,1.8-1.6
			l10.3,0.9c-1.6,2.6-3.5,4.5-5.7,5.6s-5.4,1.7-9.6,1.7c-3.6,0-6.5-0.5-8.5-1.5c-2.1-1-3.8-2.5-5.2-4.6c-1.4-2.1-2-4.6-2-7.5
			c0-4.1,1.4-7.4,4.1-9.9c2.7-2.5,6.5-3.8,11.3-3.8c3.9,0,7,0.6,9.3,1.7c2.3,1.1,4,2.8,5.2,4.9c1.2,2.1,1.8,4.9,1.8,8.4V161.6z
			 M287.3,156.8c-0.2-1.9-0.7-3.3-1.6-4.1c-0.9-0.8-2-1.2-3.5-1.2c-1.7,0-3,0.6-4,1.9c-0.6,0.8-1,2-1.2,3.5H287.3z"/>
		<path class="st2" d="M302.9,146.1h9.8v3.8c1.4-1.6,2.8-2.7,4.3-3.4c1.4-0.7,3.2-1,5.2-1c2.2,0,3.9,0.4,5.2,1.1
			c1.3,0.7,2.3,1.8,3.1,3.3c1.6-1.7,3.1-2.9,4.5-3.5c1.4-0.6,3-0.9,5-0.9c2.9,0,5.2,0.8,6.9,2.5c1.6,1.7,2.5,4.2,2.5,7.8v16.3h-10.5
			v-14.8c0-1.2-0.2-2-0.7-2.6c-0.7-0.9-1.6-1.3-2.6-1.3c-1.2,0-2.2,0.4-3,1.3c-0.8,0.8-1.1,2.2-1.1,4.1v13.4h-10.5v-14.3
			c0-1.1-0.1-1.9-0.2-2.3c-0.2-0.7-0.6-1.2-1.2-1.6c-0.6-0.4-1.2-0.6-1.9-0.6c-1.2,0-2.2,0.4-3,1.3c-0.8,0.9-1.2,2.3-1.2,4.3v13.3
			h-10.5V146.1z"/>
	</g>
</g>
</svg>
