<?xml version="1.0" encoding="utf-8"?>
<!-- Generator: Adobe Illustrator 27.6.1, SVG Export Plug-In . SVG Version: 6.00 Build 0)  -->
<svg version="1.1" id="Layer_1" xmlns="http://www.w3.org/2000/svg" xmlns:xlink="http://www.w3.org/1999/xlink" x="0px" y="0px"
	 viewBox="0 0 400 369" style="enable-background:new 0 0 400 369;" xml:space="preserve">
<style type="text/css">
	.st0{fill:#103B56;stroke:#3784AF;stroke-width:9;stroke-miterlimit:10;}
	.st1{fill:#369AC1;}
</style>
<circle class="st0" cx="200" cy="186.4" r="168.3"/>
<g>
	<path class="st1" d="M120.5,133.8c2.1,3.1,3.5,5.4,5.2,8.6c-0.3-3.3-0.4-6.6-0.4-10.7v-16.4c0-4.8-0.1-7.6-0.6-10.9H140
		c-0.4,3.2-0.6,6.3-0.6,10.9v38.2c0,4.4,0.2,7.7,0.6,10.7h-15.8c-1.3-2.7-3-5.4-5.4-9.1l-13.3-20.1c-1.9-2.9-3.2-5-5.2-8.9
		c0.4,3.2,0.5,7.2,0.5,10.7v16.1c0,5,0.1,8.1,0.6,11.2H86.1c0.4-2.8,0.6-6,0.6-11.3v-37.9c0-4.2-0.1-7.4-0.6-10.7h15.6
		c0.7,1.9,2.3,4.8,5.1,9L120.5,133.8z"/>
	<path class="st1" d="M164.9,104.4c-0.4,3-0.6,5.4-0.6,10.7v38.6c0,5,0.1,7.6,0.6,10.7H149c0.4-2.8,0.6-5.8,0.6-10.7v-38.6
		c0-5.4-0.1-7.5-0.6-10.7H164.9z"/>
	<path class="st1" d="M214.6,164.3c-0.6-3.5-1-5.3-1.7-7.8l-1.9-6.1h-20.5l-1.9,6.1c-0.9,2.9-1.4,5.1-1.8,7.8h-16.8
		c1.1-2.2,1.7-3.9,3.5-8.8l15.6-43.3c1.3-3.5,1.9-5.7,2.3-7.8h18.8c0.5,2.1,1,4,2.4,7.8l15.6,43.3c1.4,3.8,2.5,6.8,3.5,8.8H214.6z
		 M200.6,116.7l-6.7,21.6h13.5L200.6,116.7z"/>
	<path class="st1" d="M252.3,104.4c-0.4,3-0.6,5.4-0.6,10.7v38.6c0,5,0.1,7.6,0.6,10.7h-15.8c0.4-2.8,0.6-5.8,0.6-10.7v-38.6
		c0-5.4-0.1-7.5-0.6-10.7H252.3z"/>
	<path class="st1" d="M261.8,114.8c0-4.9-0.1-7.3-0.6-10.6c2.9,0.1,4.7,0.2,10.7,0.2h15c8.9,0,16,2.4,20.8,7.1
		c5.3,5.2,7.9,12.7,7.9,22.3c0,9.9-2.9,17.8-8.4,23.3c-4.8,4.8-11.7,7.2-20.2,7.2h-15.2c-5.5,0-7.6,0.1-10.6,0.2
		c0.4-3.2,0.6-5.5,0.6-10.5V114.8z M285.8,151.7c4.7,0,8-1.2,10.6-3.8c3-3,4.5-7.8,4.5-13.8c0-6.1-1.4-10.6-4.2-13.4
		c-2.5-2.5-6-3.7-11.2-3.7h-9.4v34.7H285.8z"/>
	<path class="st1" d="M75.3,231.2c0.3,2.6,0.8,3.9,1.9,5.3c1.7,2.2,4.8,3.4,8.4,3.4c5.5,0,8.9-2.4,8.9-6.5c0-2.2-1.2-4.2-3-5
		c-1.5-0.7-3.3-1.2-10.8-3c-6.6-1.4-8.9-2.3-11.6-4.2c-4.5-3.2-7-8-7-13.8c0-11.1,8.9-18.1,23.1-18.1c9.1,0,16.1,2.8,20,8.2
		c1.8,2.4,2.7,4.5,3.6,8.6l-15.3,1.7c-0.9-4.7-3.5-6.6-8.9-6.6c-4.4,0-7.6,2.4-7.6,5.7c0,2,1.1,3.5,3.4,4.6c1.4,0.6,1.4,0.6,9.9,2.4
		c5.5,1.2,8.9,2.4,11.7,4.1c5.2,3.2,7.8,8.1,7.8,14.7c0,5.4-1.7,10-5,13.2c-4.2,4-10.5,6.1-18.9,6.1c-6.1,0-12.2-1.3-16.1-3.5
		c-3.6-2-6.3-5.1-7.8-9.2c-0.7-1.7-1.1-3.4-1.6-6.7L75.3,231.2z"/>
	<path class="st1" d="M117.5,216.4c-3.1-7.2-3.4-7.8-4.3-9.6h15.6c0.4,2.3,1.3,5.4,2.8,9.3l6.6,16.6l6.4-16.3c2-5,2.7-7.1,3.1-9.6
		h15.6c-1.8,3.7-1.8,3.7-4.3,9.6l-16.5,38.1c-2.9,6.8-8.1,9.9-16.3,9.9c-3.2,0-5.9-0.4-9.9-1.2l1.6-11.4c2.4,1.2,3.7,1.6,5.6,1.6
		c2.7,0,4.8-1.2,5.8-3.4l1.5-3.1L117.5,216.4z"/>
	<path class="st1" d="M180.2,236c0.7,3.7,3.2,5.4,8,5.4c4.3,0,6.8-1.2,6.8-3.5c0-1.1-0.6-2-1.6-2.6c-1-0.6-1.9-0.9-5.9-1.7
		c-5.5-1.1-8.3-1.8-10.7-2.6c-3.5-1.3-5.8-3-7.2-5.1c-1.2-1.9-1.8-4.4-1.8-6.8c0-8.6,7.3-13.9,19.3-13.9c6.8,0,12,1.5,15.3,4.6
		c2.4,2.1,3.5,4.2,4.7,8.2l-13.9,1.5c-0.4-3-2.2-4.2-6-4.2c-3.7,0-6,1.2-6,3.1c0,1.9,1.5,2.7,8.6,4.2c7.1,1.5,9.3,2.2,11.8,3.5
		c4.7,2.3,6.9,5.8,6.9,11c0,3.8-1.3,7.3-3.7,9.6c-3.5,3.5-9.4,5.3-17.1,5.3c-9.1,0-15.5-2.4-18.9-7.2c-1.4-2-2.2-3.7-2.9-7.2
		L180.2,236z"/>
	<path class="st1" d="M226,250.7c-5.5,0-7.6,0.1-10.7,0.2c0.4-3.1,0.6-5.5,0.6-10.6v-39.4c0-3.8-0.1-6.9-0.6-10.4
		c3.7,0.2,4.7,0.2,10.6,0.2h18.9c11.7,0,18.5,5.6,18.5,15.1c0,4.4-1.4,7.8-4.2,10.3c-1.6,1.4-2.9,2.1-5.8,3.2
		c3.5,0.8,5.4,1.7,7.5,3.5c3.1,2.7,4.7,6.6,4.7,11.4c0,10.4-7.3,16.5-19.9,16.5H226z M242.7,213.9c3.8,0,6.2-2.2,6.2-5.8
		c0-3.5-2.2-5.5-6.3-5.5H230v11.3H242.7z M230,238.8h13.2c4.5,0,7.3-2.5,7.3-6.8c0-4.2-2.7-6.6-7.3-6.6H230V238.8z"/>
	<path class="st1" d="M287.1,206.8c-0.4,3-0.6,5.8-0.6,10.9v22.2c0,3.9,0.2,7.8,0.6,10.9h-15c0.4-3.5,0.6-6.3,0.6-10.9v-22.2
		c0-4.7-0.1-7.6-0.6-10.9H287.1z M286.9,190.8v10.8h-14.6v-10.8H286.9z"/>
	<path class="st1" d="M292.8,228.7c0-14.4,9.2-23.5,23.8-23.5c14.5,0,23.8,9.1,23.8,23.4c0,14.3-9.5,23.8-23.8,23.8
		C302.1,252.4,292.8,243.1,292.8,228.7z M306.6,228.6c0,8,3.7,12.8,10,12.8s9.9-4.7,9.9-12.7c0-8.1-3.7-12.8-9.8-12.8
		C310.3,215.9,306.6,220.7,306.6,228.6z"/>
</g>
</svg>
