<?xml version="1.0" encoding="utf-8"?>
<!-- Generator: Adobe Illustrator 24.0.1, SVG Export Plug-In . SVG Version: 6.00 Build 0)  -->
<svg version="1.1" id="Layer_1" xmlns="http://www.w3.org/2000/svg" xmlns:xlink="http://www.w3.org/1999/xlink" x="0px" y="0px"
	 viewBox="0 0 516.8 292.3" style="enable-background:new 0 0 516.8 292.3;" xml:space="preserve">
<style type="text/css">
	.st0{fill:#FFFFFF;}
	.st1{fill:#113B56;}
	.st2{fill:#369AC1;}
	.st3{fill:#0F627C;}
</style>
<g>
	<path class="st0" d="M459.4,95.3H298.8c-5.3-8-24.9-33.5-59.5-32.7c-41,0.9-66.3,0-66.3,0S126.3,61,122.4,108v26.7
		c0,0,0.4,6.9-6.1,5.7s-11-14.5-9.3-18.4c1.8-3.9-0.4-16.8-7.5-17.5c-7.1-0.7-10.7-13.8-8.2-21.9s-3.6-16.5-3.6-16.5
		s1.4-9.5,11.8-16.4c10.3-6.9-1.8-44.3-37.4-15.1s-21,185.7,107.6,199.2v10.7c0,0-1.8,12.1,17.3,11.4h65.8c0,0,17.1,2.1,16.6-14.3
		c0,0,2.1-15.3,12-15.3h178c6.6,0,12-5.4,12-12v-107C471.4,100.7,466,95.3,459.4,95.3z"/>
	<g>
		<path class="st1" d="M337.6,113.4h-4.1V108h14.3v5.5h-4.5v26.9h-7.1l-13.9-23.8v18.2h4v5.5h-14.1v-5.5h4.3v-21.2h-4.3V108h13.5
			l11.8,20.1v-14.7H337.6z"/>
		<path class="st1" d="M365.6,113.4v21.2h4.9v5.5h-18.2v-5.5h4.8v-21.2h-4.8V108h18.2v5.5L365.6,113.4L365.6,113.4z"/>
		<path class="st1" d="M396.9,113.4l6.7,21.2h3.8v5.5h-15.8v-5.5h4.1l-1.5-5.5h-8.3l-1.7,5.5h4.3v5.5h-14.2v-5.5h4l6.2-21.2h-4.3
			V108h21v5.5L396.9,113.4L396.9,113.4z M390.2,114.7l-2.9,9.7h5.6L390.2,114.7z"/>
		<path class="st1" d="M424.6,113.4v21.2h4.9v5.5h-18.2v-5.5h4.8v-21.2h-4.8V108h18.2v5.5L424.6,113.4L424.6,113.4z"/>
		<path class="st1" d="M468.5,124.4c0,3.4-0.7,6.2-2.1,8.6c-1.4,2.3-3.4,4.1-5.9,5.3s-5.4,1.8-8.7,1.8H434v-5.5h4.9v-21.2H434V108
			h17.3c3.3,0,6.2,0.6,8.8,1.7s4.6,2.9,6.1,5.4C467.7,117.5,468.5,120.6,468.5,124.4z M459.7,124.1c0-3.5-0.8-6.2-2.5-8
			c-1.6-1.8-4.1-2.7-7.2-2.7h-2.8v21.2h2c2.9,0,5.1-0.5,6.7-1.5s2.6-2.2,3.1-3.7C459.5,128,459.7,126.2,459.7,124.1z"/>
		<path class="st2" d="M346.1,160.4c0,3.4-0.7,6.2-2.1,8.6c-1.4,2.3-3.4,4.1-5.9,5.3s-5.4,1.8-8.7,1.8h-17.7v-5.5h4.9v-21.2h-4.9
			V144H329c3.3,0,6.2,0.6,8.8,1.7s4.6,2.9,6.1,5.4C345.4,153.5,346.1,156.6,346.1,160.4z M337.4,160.1c0-3.5-0.8-6.2-2.5-8
			c-1.6-1.8-4.1-2.7-7.2-2.7h-2.8v21.2h2c2.9,0,5.1-0.5,6.7-1.5s2.6-2.2,3.1-3.7C337.1,164,337.4,162.2,337.4,160.1z"/>
		<path class="st2" d="M371.7,162.6v8.3h3.6v5.2h-10.7v-1.7c-2,1.4-4.1,2.1-6.1,2.1c-2.5,0-4.4-0.6-5.9-1.9c-1.5-1.3-2.2-3-2.2-5.1
			c0-2.3,0.8-4.1,2.5-5.5s3.9-2.1,6.6-2.1c1,0,1.8,0.1,2.5,0.3s1.6,0.6,2.6,1.1v-1.8c0-1.1-0.4-2-1.1-2.7s-1.8-1-3.2-1
			c-1.5,0-2.9,0.6-4.1,1.8l-5.8-1c1.7-3.5,5.4-5.3,10.8-5.3c3.8,0,6.4,0.8,8,2.3S371.7,159.4,371.7,162.6z M360.1,172
			c1.3,0,2.8-0.8,4.5-2.3v-2c-1.5-1-2.9-1.5-4.2-1.5c-1,0-1.8,0.2-2.3,0.7s-0.8,1.2-0.8,2.1C357.2,171,358.2,172,360.1,172z"/>
		<path class="st2" d="M392.2,153.7v5.2h-4.1v9.8c0,0.7,0.1,1.2,0.4,1.6c0.3,0.3,0.8,0.5,1.5,0.5c0.6,0,1.3-0.2,2.2-0.5v5
			c-1.9,0.8-3.7,1.1-5.4,1.1c-1.9,0-3.4-0.5-4.4-1.5s-1.5-2.4-1.5-4.2v-11.8h-2.8v-5.2h2.8v-3.5l7.1-5.1v8.6L392.2,153.7
			L392.2,153.7z"/>
		<path class="st2" d="M416.8,162.6v8.3h3.6v5.2h-10.7v-1.7c-2,1.4-4.1,2.1-6.1,2.1c-2.5,0-4.4-0.6-5.9-1.9c-1.5-1.3-2.2-3-2.2-5.1
			c0-2.3,0.8-4.1,2.5-5.5s3.9-2.1,6.6-2.1c1,0,1.8,0.1,2.5,0.3s1.6,0.6,2.6,1.1v-1.8c0-1.1-0.4-2-1.1-2.7s-1.8-1-3.2-1
			c-1.5,0-2.9,0.6-4.1,1.8l-5.8-1c1.7-3.5,5.4-5.3,10.8-5.3c3.8,0,6.4,0.8,8,2.3S416.8,159.4,416.8,162.6z M405.2,172
			c1.3,0,2.8-0.8,4.5-2.3v-2c-1.5-1-2.9-1.5-4.2-1.5c-1,0-1.8,0.2-2.3,0.7s-0.8,1.2-0.8,2.1C402.4,171,403.3,172,405.2,172z"/>
		<path class="st2" d="M341.7,190.2c0,3.5-1.1,6.1-3.3,7.7c-2.2,1.7-5.6,2.5-10.2,2.5h-3.4v6.2h4.5v5.5h-16.9v-5.5h4.1v-21.2h-4.1
			V180H328c4.6,0,8,0.8,10.3,2.5C340.6,184.1,341.7,186.7,341.7,190.2z M332.9,190.2c0-1.3-0.3-2.4-0.8-3.1
			c-0.5-0.7-1.3-1.2-2.3-1.4s-2.2-0.3-3.5-0.3H325v9.6h1.3c1.8,0,3.2-0.2,4.1-0.5c1-0.4,1.6-0.9,2-1.6S332.9,191.3,332.9,190.2z"/>
		<path class="st2" d="M366.8,200.9c0,2.2-0.5,4.2-1.6,6s-2.5,3.2-4.3,4.2s-3.8,1.5-5.9,1.5c-2.3,0-4.3-0.5-6.1-1.5
			s-3.2-2.4-4.2-4.2s-1.5-3.8-1.5-6s0.5-4.2,1.5-6s2.4-3.2,4.3-4.2c1.8-1,3.8-1.5,6-1.5s4.2,0.5,6,1.5s3.2,2.4,4.2,4.2
			S366.8,198.7,366.8,200.9z M355,207.1c1.4,0,2.5-0.5,3.3-1.6s1.2-2.6,1.2-4.7c0-1.9-0.4-3.4-1.2-4.5s-1.9-1.6-3.3-1.6
			s-2.5,0.5-3.3,1.6s-1.1,2.7-1.1,4.8c0,1.8,0.4,3.3,1.2,4.4S353.6,207.1,355,207.1z"/>
		<path class="st2" d="M388.7,189.4v6.7c-2,0.1-3.5,0.4-4.7,0.9s-2.1,1.3-2.7,2.5s-0.9,2.9-0.9,5.1v2.2h4.5v5.2h-15.7v-5.2h4.1v-12
			h-3.9v-5.2h10.4v5.7c0.5-1.7,1.5-3.1,2.9-4.3c1.4-1.1,3.2-1.7,5.3-1.7C388.3,189.4,388.6,189.4,388.7,189.4z"/>
		<path class="st2" d="M406.4,189.7v5.2h-4.1v9.8c0,0.7,0.1,1.2,0.4,1.6c0.3,0.3,0.8,0.5,1.5,0.5c0.6,0,1.4-0.2,2.2-0.5v5
			c-1.9,0.8-3.7,1.1-5.4,1.1c-1.9,0-3.4-0.5-4.4-1.5s-1.5-2.4-1.5-4.2v-11.8h-2.8v-5.2h2.8v-3.5l7.1-5.1v8.6L406.4,189.7
			L406.4,189.7z"/>
		<path class="st2" d="M431,198.6v8.3h3.6v5.2h-10.7v-1.7c-2,1.4-4.1,2.1-6.1,2.1c-2.5,0-4.4-0.6-5.9-1.9c-1.5-1.3-2.2-3-2.2-5.1
			c0-2.3,0.8-4.1,2.5-5.5s3.9-2.1,6.6-2.1c1,0,1.8,0.1,2.5,0.3s1.6,0.6,2.6,1.1v-1.8c0-1.1-0.4-2-1.1-2.7s-1.8-1-3.2-1
			c-1.5,0-2.9,0.6-4.1,1.8l-5.8-1c1.7-3.5,5.4-5.3,10.8-5.3c3.8,0,6.4,0.8,8,2.3S431,195.4,431,198.6z M419.4,208
			c1.3,0,2.8-0.8,4.5-2.3v-2c-1.5-1-2.9-1.5-4.2-1.5c-1,0-1.8,0.2-2.3,0.7s-0.8,1.2-0.8,2.1C416.5,207,417.5,208,419.4,208z"/>
		<path class="st2" d="M450.8,206.9v5.2H437v-5.2h3.5v-21.8H437V180h10.7v27h3.1V206.9z"/>
	</g>
	<g>
		<path class="st1" d="M234.5,73.1h-59c-24.3,0-44.2,19.9-44.2,44.2v46.9c-12.9-8.5-26.1-18.8-31.5-34.5c-1.1-3.1-1.5-10.1-3.3-12.9
			c-4-6.3-9.4-0.3-14.2,2.6c-4.6,2.8-11.1,5.8-11.1,5.8c-4.3,2.4-13.8,2.1-9.5,10.5c0.2,0.4,0.5,1,0.9,1.7l0,0
			c0,0,32.8,94.2,115.5,88.9v14.2c0,3.5,2.8,6.3,6.3,6.3h26.3c3.5,0,6.3-2.8,6.3-6.3v-14.2h8.4v14.2c0,3.5,2.8,6.3,6.3,6.3h22.6
			c3.5,0,6.3-2.8,6.3-6.3v-20.6c24.8-11.3,42.1-36.3,42.1-65.2v-13.2C302.9,103.9,272.1,73.1,234.5,73.1z"/>
		<path class="st2" d="M210.4,204.2L210.4,204.2c-12.8,0-23.3-10.5-23.3-23.3v-75.1c0-12.8,10.5-23.3,23.3-23.3h0.1
			c32.6,0,59.3,26.7,59.3,59.3v2.9C269.8,177.5,243,204.2,210.4,204.2z"/>
		<path class="st3" d="M215,82.6h-6.4c-11.8,0-21.5,9.7-21.5,21.5v1.8c3.7-6.7,10.8-11.2,18.9-11.2h6.4c30.1,0,54.8,24.6,54.8,54.8
			v12c0,1.8-0.1,3.7-0.3,5.5c1.9-5.5,2.9-11.4,2.9-17.6v-12C269.8,107.2,245.1,82.6,215,82.6z"/>
		<path class="st2" d="M85.2,106.3c-2.2-10.1-2.7-20.7-1.6-31.7c0.3-2.5-1.5-4.8-4-5.2l-21.9-3.3c-2.7-0.4-5.1,1.5-5.4,4.2
			c-1.7,15.2-0.9,30.1,2.4,44.3c0.6,2.7,3.3,4.3,6,3.5l21.2-6.3C84.3,111.1,85.7,108.7,85.2,106.3z"/>
		<g>
			<path class="st2" d="M58.6,62.6c-0.1,0-0.1,0-0.2,0c-0.9-0.1-1.5-0.9-1.4-1.7c0.1-0.7,1.8-16,11.7-23.7c0.7-0.5,1.7-0.4,2.2,0.3
				s0.4,1.7-0.3,2.2C61.8,46.5,60.2,61,60.2,61.2C60.1,62,59.4,62.6,58.6,62.6z"/>
		</g>
		<g>
			<path class="st2" d="M71,58.9c-0.1,0-0.2,0-0.2,0c-0.9-0.1-1.4-0.9-1.3-1.8c0.1-0.7,2.8-17,18.1-25.9c0.8-0.4,1.7-0.2,2.2,0.6
				c0.4,0.8,0.2,1.7-0.6,2.2c-14,8-16.6,23.4-16.6,23.6C72.5,58.4,71.8,58.9,71,58.9z"/>
		</g>
		<g>
			<path class="st2" d="M78.6,67.8L78.6,67.8c-0.9,0-1.6-0.7-1.6-1.6c0-0.5,0.2-13.6,14.3-23.9c0.7-0.5,1.7-0.4,2.2,0.3
				s0.4,1.7-0.3,2.2c-12.8,9.4-13,20.9-13,21.4C80.2,67.1,79.5,67.8,78.6,67.8z"/>
		</g>
		<path class="st3" d="M158.9,171L158.9,171c-4.5,0-8.2-3.7-8.2-8.2v-5.3c0-4.5,3.7-8.2,8.2-8.2l0,0c4.5,0,8.2,3.7,8.2,8.2v5.3
			C167.1,167.4,163.4,171,158.9,171z"/>
	</g>
</g>
</svg>
