<?xml version="1.0" encoding="UTF-8"?>
<svg id="Layer_1" data-name="Layer 1" xmlns="http://www.w3.org/2000/svg" xmlns:xlink="http://www.w3.org/1999/xlink" version="1.1" viewBox="0 0 400 369">
  <defs>
    <style>
      .cls-1 {
        fill: url(#linear-gradient);
      }

      .cls-1, .cls-2 {
        stroke-width: 0px;
      }

      .cls-2 {
        fill: #fff;
      }
    </style>
    <linearGradient id="linear-gradient" x1="31.7" y1="183.6" x2="368.3" y2="183.6" gradientTransform="translate(0 370) scale(1 -1)" gradientUnits="userSpaceOnUse">
      <stop offset="0" stop-color="#3784af"/>
      <stop offset="1" stop-color="#103b56"/>
    </linearGradient>
  </defs>
  <circle class="cls-1" cx="200" cy="186.4" r="168.3"/>
  <g>
    <path class="cls-2" d="M139.7,134.9c1.2,0,2.2.4,2.9,1.1.7.8,1.1,1.7,1.1,2.8v90.7c0,1.4-.4,2.5-1.3,3.3-.9.8-1.9,1.2-3.1,1.2s-1.3-.1-1.9-.4c-.6-.2-1.1-.6-1.5-1.1l-63.2-85.1,2.4-1.4v84.1c0,1-.4,1.9-1.1,2.7s-1.7,1.1-2.8,1.1-2.2-.4-2.9-1.1c-.7-.8-1.1-1.6-1.1-2.7v-91.2c0-1.3.4-2.4,1.2-3.1.8-.8,1.8-1.1,2.9-1.1s1.2.1,1.8.4c.7.2,1.2.6,1.6,1.2l62.5,84.2-1.4,2.6v-84.4c0-1.1.4-2.1,1.1-2.8.7-.8,1.7-1.1,2.8-1.1h0Z"/>
    <path class="cls-2" d="M210.8,134.9c7,0,13.1,1.3,18.3,4,5.2,2.6,9.5,6.3,13,11,3.4,4.7,6,10,7.7,15.9,1.7,6,2.5,12.2,2.5,18.7s-1.5,17.4-4.5,24.9-7.5,13.5-13.6,18-13.9,6.7-23.3,6.7h-36.2c-1.2,0-2.2-.4-3-1.3-.8-.9-1.2-1.8-1.2-3v-90.7c0-1.1.4-2.1,1.2-3s1.8-1.3,3-1.3h36.2,0ZM209.4,225.8c7.9,0,14.4-1.8,19.3-5.5,5-3.7,8.6-8.7,10.9-15,2.3-6.3,3.5-13.2,3.5-20.8s-.6-10.6-1.9-15.6c-1.3-5-3.3-9.4-6-13.3-2.7-3.8-6.2-6.9-10.5-9.1-4.3-2.2-9.4-3.3-15.4-3.3h-31.1l1-1.1v85.1l-.8-1.4h31Z"/>
    <path class="cls-2" d="M276.6,134.9h51.9c1.2,0,2.3.4,3.1,1.2.8.8,1.3,1.8,1.3,3s-.4,2.2-1.3,3-1.9,1.1-3.1,1.1h-48.6l1.4-2.4v39.8l-1.6-1.8h42.4c1.2,0,2.3.4,3.1,1.3.8.8,1.3,1.8,1.3,3s-.4,2.2-1.3,3-1.9,1.1-3.1,1.1h-42.1l1.3-1.4v40.8l-.7-.8h47.9c1.2,0,2.3.4,3.1,1.3.8.9,1.3,1.8,1.3,3s-.4,2.2-1.3,3-1.9,1.1-3.1,1.1h-51.9c-1.2,0-2.2-.4-3-1.3-.8-.9-1.2-1.8-1.2-3v-90.7c0-1.1.4-2.1,1.2-3s1.8-1.3,3-1.3h0Z"/>
  </g>
</svg>