<?xml version="1.0" encoding="utf-8"?>
<!-- Generator: Adobe Illustrator 27.8.1, SVG Export Plug-In . SVG Version: 6.00 Build 0)  -->
<svg version="1.1" id="Layer_1" xmlns="http://www.w3.org/2000/svg" xmlns:xlink="http://www.w3.org/1999/xlink" x="0px" y="0px"
	 viewBox="0 0 400 369" style="enable-background:new 0 0 400 369;" xml:space="preserve">
<style type="text/css">
	.st0{fill:#FFFFFF;}
	.st1{fill:#103B56;stroke:#3784AF;stroke-width:9;stroke-miterlimit:10;}
	.st2{fill:#7FC0DD;}
	.st3{fill:#3784AF;}
</style>
<circle class="st0" cx="200" cy="186.4" r="177.8"/>
<circle class="st1" cx="200" cy="186.4" r="168.3"/>
<g>
	<path class="st2" d="M60.7,141.3h26l33.9,49.9v-49.9h26.2v90.1h-26.2L86.9,182v49.5H60.7V141.3z"/>
	<path class="st2" d="M165.8,141.3h41.4c8.2,0,14.7,1.1,19.8,3.3c5,2.2,9.2,5.4,12.4,9.5c3.3,4.1,5.7,9,7.1,14.4
		c1.5,5.5,2.2,11.3,2.2,17.5c0,9.6-1.1,17.1-3.3,22.4c-2.2,5.3-5.2,9.8-9.1,13.3c-3.9,3.6-8.1,6-12.5,7.2
		c-6.1,1.6-11.6,2.5-16.6,2.5h-41.4L165.8,141.3L165.8,141.3z M193.6,161.8V211h6.8c5.8,0,10-0.6,12.4-1.9c2.5-1.3,4.4-3.5,5.8-6.8
		c1.4-3.2,2.1-8.4,2.1-15.6c0-9.5-1.6-16.1-4.7-19.6c-3.1-3.5-8.3-5.3-15.5-5.3L193.6,161.8L193.6,161.8z"/>
	<path class="st2" d="M263.3,141.3h74.6v19.2h-46.7v14.3h43.3v18.4h-43.3V211h48.1v20.4h-76V141.3z"/>
</g>
<path class="st3" d="M39.5,127.5h319.9c0,0-26.6-109.4-159.4-109.4C200,18,98.4,0.2,39.5,127.5z"/>
<path class="st3" d="M359.4,245.3H39.5c0,0,26.6,109.4,159.4,109.4C198.9,354.8,300.5,372.6,359.4,245.3z"/>
</svg>
