<?xml version="1.0" encoding="utf-8"?>
<!-- Generator: Adobe Illustrator 24.0.1, SVG Export Plug-In . SVG Version: 6.00 Build 0)  -->
<svg version="1.1" id="Layer_1" xmlns="http://www.w3.org/2000/svg" xmlns:xlink="http://www.w3.org/1999/xlink" x="0px" y="0px"
	 viewBox="0 0 400 400" style="enable-background:new 0 0 400 400;" xml:space="preserve">
<style type="text/css">
	.st0{fill:#113B56;}
	.st1{fill:#369AC1;}
</style>
<g>
	<path class="st0" d="M284.3,95.2h-87.1c-35.9,0-65.2,29.4-65.2,65.2v69.2c-19-12.5-38.5-27.8-46.5-50.9c-1.6-4.6-2.2-14.9-4.9-19
		c-5.9-9.3-13.9-0.4-21,3.8c-6.8,4.1-16.4,8.6-16.4,8.6c-6.3,3.5-20.4,3.1-14,15.5c0.3,0.6,0.7,1.5,1.3,2.5l0,0
		c0,0,48.4,139.1,170.5,131.2v21c0,5.2,4.1,9.3,9.3,9.3h38.8c5.2,0,9.3-4.1,9.3-9.3v-21h12.4v21c0,5.2,4.1,9.3,9.3,9.3h33.4
		c5.2,0,9.3-4.1,9.3-9.3v-30.4c36.6-16.7,62.1-53.6,62.1-96.2v-19.5C385.3,140.7,339.8,95.2,284.3,95.2z"/>
	<path class="st1" d="M248.8,288.7L248.8,288.7c-18.9,0-34.4-15.5-34.4-34.4V143.5c0-18.9,15.5-34.4,34.4-34.4h0.1
		c48.1,0,87.5,39.4,87.5,87.5v4.3C336.4,249.3,296.9,288.7,248.8,288.7z"/>
	<path class="st1" d="M63.9,144.2c-3.2-14.9-4-30.6-2.4-46.8c0.4-3.7-2.2-7.1-5.9-7.7l-32.3-4.9c-4-0.6-7.5,2.2-8,6.2
		c-2.5,22.4-1.3,44.4,3.5,65.4c0.9,4,4.9,6.3,8.9,5.2l31.3-9.3C62.6,151.3,64.7,147.8,63.9,144.2z"/>
	<g>
		<path class="st1" d="M24.7,79.7c-0.1,0-0.1,0-0.3,0c-1.3-0.1-2.2-1.3-2.1-2.5c0.1-1,2.7-23.6,17.3-35c1-0.7,2.5-0.6,3.2,0.4
			s0.6,2.5-0.4,3.2C29.4,55.9,27,77.3,27,77.6C26.9,78.8,25.9,79.7,24.7,79.7z"/>
	</g>
	<g>
		<path class="st1" d="M43,74.2c-0.1,0-0.3,0-0.3,0c-1.3-0.1-2.1-1.3-1.9-2.7c0.1-1,4.1-25.1,26.7-38.2c1.2-0.6,2.5-0.3,3.2,0.9
			c0.6,1.2,0.3,2.5-0.9,3.2C49.2,49.3,45.3,72,45.3,72.3C45.2,73.5,44.2,74.2,43,74.2z"/>
	</g>
	<g>
		<path class="st1" d="M54.2,87.4L54.2,87.4c-1.3,0-2.4-1-2.4-2.4c0-0.7,0.3-20.1,21.1-35.3c1-0.7,2.5-0.6,3.2,0.4
			c0.7,1,0.6,2.5-0.4,3.2C56.9,67.3,56.6,84.3,56.6,85C56.6,86.3,55.5,87.4,54.2,87.4z"/>
	</g>
	<path class="st1" d="M172.7,239.7L172.7,239.7c-6.6,0-12.1-5.5-12.1-12.1v-7.8c0-6.6,5.5-12.1,12.1-12.1l0,0
		c6.6,0,12.1,5.5,12.1,12.1v7.8C184.8,234.4,179.4,239.7,172.7,239.7z"/>
</g>
</svg>
